<svg xmlns="http://www.w3.org/2000/svg" width="1200" height="900" fill="none" stroke-linecap="round" stroke-linejoin="round" stroke-width="2"><path stroke="#3f953b" d="m300.5 770 9-6v12Zm403 0 196-.003m-590 0 188 .003"/><path fill="#3f953b" d="M509.105 775.11v-1.644l3.724-3.782q.43-.444.634-.894.204-.452.204-.906 0-.66-.389-1.077-.39-.417-1.034-.417-.665 0-1.068.431-.402.43-.402 1.128h-1.827q.008-.961.434-1.678a2.97 2.97 0 0 1 1.172-1.119q.748-.402 1.738-.402.98 0 1.704.378.725.378 1.13 1.062t.407 1.594a3.65 3.65 0 0 1-.366 1.564q-.366.78-1.209 1.607l-2.541 2.506h4.232v1.649Zm11.595.14q-.995 0-1.731-.38a2.75 2.75 0 0 1-1.136-1.068q-.402-.688-.402-1.609v-4.386q0-.924.401-1.611a2.74 2.74 0 0 1 1.136-1.067q.735-.38 1.731-.379 1.01 0 1.738.379.729.38 1.131 1.067.4.687.401 1.611v4.386q0 .92-.402 1.609a2.75 2.75 0 0 1-1.132 1.068q-.73.38-1.735.38m.005-1.579q.712 0 1.129-.402.416-.402.416-1.076v-4.386q0-.674-.416-1.076-.417-.402-1.134-.402t-1.134.402-.416 1.076v4.386q0 .674.421 1.076.422.402 1.134.402m-.002-2.816q-.419 0-.678-.234-.26-.232-.26-.666 0-.417.258-.642t.68-.224.677.224.255.642q0 .433-.257.666-.255.234-.675.234m8.397 4.395q-.995 0-1.731-.38a2.75 2.75 0 0 1-1.136-1.068q-.402-.688-.402-1.609v-4.386q0-.924.401-1.611a2.74 2.74 0 0 1 1.136-1.067q.735-.38 1.731-.379 1.01 0 1.738.379.729.38 1.131 1.067.4.687.401 1.611v4.386q0 .92-.402 1.609a2.75 2.75 0 0 1-1.132 1.068q-.73.38-1.735.38m.005-1.579q.712 0 1.129-.402.416-.402.416-1.076v-4.386q0-.674-.416-1.076-.417-.402-1.134-.402t-1.134.402-.416 1.076v4.386q0 .674.421 1.076.42.402 1.134.402m-.002-2.816q-.419 0-.678-.234-.26-.232-.26-.666 0-.417.258-.642t.68-.224.677.224.255.642q0 .433-.257.666-.255.234-.675.234m16.797 4.395q-1.486 0-2.359-.845t-.874-2.33v-4.151q0-1.493.874-2.333.873-.84 2.359-.841 1.486 0 2.359.841.873.84.874 2.329v4.155q0 1.485-.874 2.33t-2.359.845m0-1.597q.693 0 1.05-.375.355-.375.355-1.063v-4.431q0-.698-.351-1.067-.35-.37-1.054-.37-.698 0-1.052.37-.353.37-.353 1.067v4.431q0 .69.358 1.063.358.375 1.047.375m5.233 1.457v-10.22h1.827v4.131h1.153l1.89-4.131h1.977l-2.26 4.862 2.362 5.358h-2.019l-1.954-4.491h-1.149v4.491Zm11.567-5.465q-.612 0-.967-.328-.356-.327-.356-.86 0-.54.356-.864.355-.323.967-.323t.967.323.356.864q0 .533-.356.86-.355.327-.967.328m0 5.605q-.612 0-.967-.327-.356-.327-.356-.86 0-.543.356-.865.355-.323.967-.323t.967.323.356.865q0 .533-.356.86-.355.327-.967.327m19.952-.899-6.304-2.944v-1.806l6.304-2.953v1.681l-4.019 1.835q-.27.126-.558.212a4 4 0 0 1-.442.114q.163.03.449.11.285.081.551.207l4.019 1.84Zm2.09 3.279v-10.22h1.78v1.564h.413l-.545.805q0-1.156.607-1.833.608-.676 1.635-.676.75 0 1.313.371.562.372.877 1.035t.315 1.554v2.056q0 .882-.312 1.549a2.5 2.5 0 0 1-.875 1.041q-.563.375-1.318.374-1.024 0-1.633-.679-.609-.678-.609-1.83l.545.814h-.422l.057 1.93v2.145Zm3.205-3.964q.646 0 1.005-.358.358-.36.358-1.07v-1.956q0-.725-.358-1.077-.36-.351-1.005-.351-.657 0-1.017.39t-.36 1.108v1.816q0 .717.36 1.108.36.39 1.017.39m5.475 1.444v-7.7h1.78v1.564h.503l-.55.441q0-.99.586-1.568.585-.577 1.595-.577 1.175 0 1.831.764.656.763.656 2.122v.733h-1.828v-.639q0-.684-.354-1.04-.353-.356-1.01-.356-.665 0-1.023.405t-.358 1.159v4.692Zm8.128 0v-1.652h2.604v-4.396h-2.324v-1.652h4.158v6.048h2.324v1.652Zm3.402-8.974q-.533 0-.854-.273-.322-.273-.322-.749t.322-.756.854-.28.854.28.322.756-.322.749-.854.273m7 8.974-2.58-7.7h1.907l1.453 4.603q.135.416.242.837.108.422.145.746.041-.324.139-.746t.219-.827l1.434-4.613h1.917l-2.562 7.7Zm8.659.14q-1.162 0-1.843-.665-.681-.664-.681-1.743 0-.762.355-1.312a2.3 2.3 0 0 1 1.019-.852q.663-.3 1.576-.301h1.793v-.526q0-.54-.335-.825-.334-.285-.981-.286-.596 0-.954.228a.8.8 0 0 0-.386.657h-1.752a2.2 2.2 0 0 1 .88-1.708q.83-.647 2.231-.647 1.485 0 2.305.691.82.69.82 1.933v5.216h-1.776v-1.485h-.295l.319-.242q0 .57-.28.989a1.8 1.8 0 0 1-.793.649q-.514.23-1.222.229m.601-1.48q.744 0 1.181-.368.438-.367.437-.977v-.879h-1.719q-.579 0-.907.305-.328.304-.328.798 0 .5.351.811.35.31.985.31m9.458 1.34q-1.104 0-1.744-.633-.64-.635-.64-1.728v-3.69h-2.117v-1.649h2.117v-2.17h1.828v2.17h3.055v1.649h-3.055v3.643q0 .335.183.547.184.212.515.212h2.287v1.649Zm7.639.14q-.985 0-1.721-.38a2.74 2.74 0 0 1-1.137-1.074q-.402-.693-.402-1.626v-1.82q0-.938.402-1.628a2.74 2.74 0 0 1 1.137-1.072q.735-.38 1.721-.38.985 0 1.712.378t1.128 1.06q.4.683.402 1.596v1.41h-4.75v.501q0 .77.391 1.158.39.388 1.117.388.53 0 .905-.183t.444-.523h1.799q-.192.995-1.051 1.595-.86.6-2.097.6m1.49-4.56v-.404q0-.778-.375-1.204t-1.115-.426-1.124.435-.384 1.213v.251l3.124-.019Zm14.569 4.56q-1.119 0-1.812-.803t-.693-2.157v-2.056q0-1.357.69-2.161.692-.803 1.815-.803 1.038 0 1.644.669.607.67.607 1.84l-.554-.805h.422l-.057-1.939v-2.145h1.828v10.22h-1.78v-1.565h-.413l.545-.804q0 1.165-.602 1.837-.603.672-1.64.672m.685-1.584q.662 0 1.019-.39.358-.39.358-1.108v-1.816q0-.717-.358-1.108-.357-.39-1.019-.39-.646 0-1.005.351-.358.352-.358 1.077v1.956q0 .71.358 1.07.36.358 1.005.358m7.558 1.584q-1.162 0-1.843-.665-.681-.664-.681-1.743 0-.762.355-1.312a2.3 2.3 0 0 1 1.019-.852q.663-.3 1.576-.301h1.793v-.526q0-.54-.335-.825-.334-.285-.981-.286-.596 0-.954.228a.8.8 0 0 0-.386.657h-1.752a2.2 2.2 0 0 1 .88-1.708q.83-.647 2.231-.647 1.485 0 2.305.691.82.69.82 1.933v5.216h-1.776v-1.485h-.295l.319-.242q0 .57-.28.989a1.8 1.8 0 0 1-.793.649q-.514.23-1.222.229m.601-1.48q.744 0 1.181-.368.438-.367.437-.977v-.879h-1.719q-.579 0-.907.305-.328.304-.328.798 0 .5.351.811.35.31.985.31m9.458 1.34q-1.104 0-1.744-.633-.64-.635-.64-1.728v-3.69h-2.117v-1.649h2.117v-2.17h1.828v2.17h3.055v1.649h-3.055v3.643q0 .335.183.547.184.212.515.212h2.287v1.649Zm6.741.14q-1.162 0-1.843-.665-.681-.664-.681-1.743 0-.762.355-1.312a2.3 2.3 0 0 1 1.019-.852q.663-.3 1.576-.301h1.793v-.526q0-.54-.335-.825-.334-.285-.981-.286-.596 0-.954.228a.8.8 0 0 0-.386.657h-1.752a2.2 2.2 0 0 1 .88-1.708q.83-.647 2.231-.647 1.485 0 2.305.691.82.69.82 1.933v5.216h-1.776v-1.485h-.295l.319-.242q0 .57-.28.989a1.8 1.8 0 0 1-.793.649q-.514.23-1.222.229m.601-1.48q.744 0 1.181-.368.438-.367.437-.977v-.879h-1.719q-.579 0-.907.305-.328.304-.328.798 0 .5.351.811.35.31.985.31m5.536.581v-1.681l4.019-1.835q.275-.126.558-.212a4 4 0 0 1 .442-.114 4 4 0 0 1-.449-.112 4 4 0 0 1-.551-.206l-4.019-1.839v-1.704l6.304 2.943v1.807Z"/><path stroke="#3f953b" d="m923.5 770 9-6v12Zm98-23v7c0 8.837-7.163 16-16 16h-73m-9-93h82c8.837 0 16 7.163 16 16v12"/><path fill="#3f953b" d="m987.552 722.593-3.626-10.192h2.002l1.806 5.292q.66 2.068 1.19 4.172h-.378l.616-2.352.532-1.82 1.75-5.292h1.988l-3.556 10.192Zm9.732.154a3.8 3.8 0 0 1-1.974-.49 3.2 3.2 0 0 1-1.288-1.358 4.2 4.2 0 0 1-.448-2.086q0-1.176.448-2.058a3.36 3.36 0 0 1 1.246-1.4 3.5 3.5 0 0 1 1.904-.504q.7 0 1.33.224a2.8 2.8 0 0 1 1.12.7c.34.341.603.752.77 1.204a5.6 5.6 0 0 1 .28 1.736v.546h-6.258v-1.204h5.376l-.84.364a2.8 2.8 0 0 0-.196-1.134 1.4 1.4 0 0 0-.588-.77 1.7 1.7 0 0 0-.98-.266 1.68 1.68 0 0 0-.994.28 1.7 1.7 0 0 0-.63.728 2.8 2.8 0 0 0-.21 1.036v.84q0 .714.238 1.218c.147.312.387.571.686.742a2.1 2.1 0 0 0 1.036.252 1.4 1.4 0 0 0 .714-.112 1.4 1.4 0 0 0 .546-.322 1.4 1.4 0 0 0 .35-.546l1.638.336a2.8 2.8 0 0 1-1.75 1.792 4.2 4.2 0 0 1-1.526.252m4.906-.154v-7.644h1.722v1.274h.084a1.89 1.89 0 0 1 1.89-1.372l.336.014.308.028v1.638l-.35-.07-.476-.028a1.68 1.68 0 0 0-1.512.798 1.8 1.8 0 0 0-.224.868v4.494Zm5.647 0v-7.644h1.778v7.644Zm.896-8.722a.98.98 0 0 1-.728-.294.84.84 0 0 1-.308-.672q0-.42.308-.7a1.12 1.12 0 0 1 .728-.28q.42 0 .728.28a.9.9 0 0 1 .308.686.84.84 0 0 1-.308.686.98.98 0 0 1-.728.294m6.784 1.078v1.4h-4.816v-1.4Zm-3.416 7.644v-8.372q0-.77.322-1.274c.203-.331.5-.594.854-.756a2.8 2.8 0 0 1 1.19-.266q.49 0 .84.084.364.056.532.126l-.364 1.386-.28-.07-.392-.042q-.504 0-.714.252-.224.238-.224.7v8.232Zm4.77 2.73.42-1.386.21.056c.23.08.475.1.714.056a.84.84 0 0 0 .532-.28 1.4 1.4 0 0 0 .294-.658l.112-.49-2.884-7.672h1.904l1.4 4.158q.239.743.392 1.47l.35 1.498h-.462l.364-1.498q.177-.747.434-1.47l1.442-4.158h1.89l-3.29 8.624a4.2 4.2 0 0 1-.588 1.05 2.8 2.8 0 0 1-.854.658 3.64 3.64 0 0 1-2.38.042m14.718-2.59a3.36 3.36 0 0 1-2.394-.826 3.08 3.08 0 0 1-.896-2.324v-.574h1.834v.588q0 .798.392 1.218t1.064.406a1.4 1.4 0 0 0 1.064-.406q.392-.42.392-1.218v-7.196h1.82v7.182q0 1.512-.882 2.324a3.36 3.36 0 0 1-2.394.826m7.389-.14-2.758-10.192h1.96l1.33 5.432.266 1.232.224 1.302.224 1.288h-.308l.238-1.288.252-1.302.266-1.232 1.386-5.432h1.932l1.372 5.432q.324 1.255.532 2.534l.238 1.288h-.322l.224-1.288.238-1.302.266-1.232 1.316-5.432h1.974l-2.758 10.192h-2.1l-1.484-5.628-.35-1.708-.336-1.96h.434l-.322 1.904a14 14 0 0 1-.364 1.764l-1.484 5.628Zm11.748-8.652v-1.54h8.12v1.54h-3.136v8.652h-1.834v-8.652Zm-61.296 21.508c.008-.789.083-1.576.224-2.352q.238-1.246.616-2.352a9.8 9.8 0 0 1 .924-1.96h1.666a16.8 16.8 0 0 0-1.624 6.664q0 .896.168 1.806.19.991.518 1.946.378 1.05.938 2.296h-1.666a12.04 12.04 0 0 1-1.764-6.048m7.784 4.298a4.2 4.2 0 0 1-1.554-.252 2.8 2.8 0 0 1-1.12-.742 2.8 2.8 0 0 1-.56-1.176l1.666-.308a1.4 1.4 0 0 0 .546.84q.42.28 1.05.28a1.8 1.8 0 0 0 1.05-.266q.378-.252.378-.644a.7.7 0 0 0-.252-.546 1.4 1.4 0 0 0-.77-.336l-1.302-.28a3.2 3.2 0 0 1-1.624-.77 1.82 1.82 0 0 1-.532-1.372 1.96 1.96 0 0 1 .392-1.232 2.8 2.8 0 0 1 1.078-.798 4.2 4.2 0 0 1 1.61-.294q.868 0 1.498.252a2.52 2.52 0 0 1 1.554 1.722l-1.596.308a1.4 1.4 0 0 0-.476-.672 1.4 1.4 0 0 0-.952-.28 1.7 1.7 0 0 0-.952.252q-.378.252-.378.63 0 .336.252.56.252.21.84.35l1.302.266q1.078.238 1.61.742c.347.354.534.835.518 1.33q0 .7-.406 1.274a2.8 2.8 0 0 1-1.162.854 4.2 4.2 0 0 1-1.708.308m7.412-.056a2.8 2.8 0 0 1-1.372-.336 2.24 2.24 0 0 1-.91-.98 3.36 3.36 0 0 1-.336-1.568v-4.858h1.778v4.592q0 .756.406 1.204a1.4 1.4 0 0 0 1.092.434 1.4 1.4 0 0 0 .84-.21 1.4 1.4 0 0 0 .588-.602 1.96 1.96 0 0 0 .21-.938v-4.48h1.778v7.644h-1.694l-.014-1.89h.126a2.8 2.8 0 0 1-.938 1.498 2.52 2.52 0 0 1-1.554.49m9.271.056a4.2 4.2 0 0 1-1.932-.49 3.5 3.5 0 0 1-1.274-1.386 4.2 4.2 0 0 1-.448-2.058q0-1.19.448-2.086a3.36 3.36 0 0 1 1.274-1.372 3.64 3.64 0 0 1 1.932-.504q.644 0 1.19.168a3.08 3.08 0 0 1 2.114 2.24l-1.666.35a2.8 2.8 0 0 0-.21-.546 1.4 1.4 0 0 0-.35-.406 1.68 1.68 0 0 0-1.064-.364 1.68 1.68 0 0 0-1.036.336 2.1 2.1 0 0 0-.616.896 4.2 4.2 0 0 0-.196 1.274q0 .7.196 1.274t.616.896q.42.336 1.036.336a1.68 1.68 0 0 0 1.078-.364 1.82 1.82 0 0 0 .56-.994l1.666.35a3.22 3.22 0 0 1-1.134 1.792 2.8 2.8 0 0 1-.994.49c-.387.113-.787.17-1.19.168m8.158 0a4.2 4.2 0 0 1-1.932-.49 3.5 3.5 0 0 1-1.274-1.386 4.2 4.2 0 0 1-.448-2.058q0-1.19.448-2.086a3.36 3.36 0 0 1 1.274-1.372 3.64 3.64 0 0 1 1.932-.504q.644 0 1.19.168a3.08 3.08 0 0 1 2.114 2.24l-1.666.35a2.8 2.8 0 0 0-.21-.546 1.4 1.4 0 0 0-.35-.406 1.68 1.68 0 0 0-1.064-.364 1.68 1.68 0 0 0-1.036.336 2.1 2.1 0 0 0-.616.896 4.2 4.2 0 0 0-.196 1.274q0 .7.196 1.274t.616.896q.42.336 1.036.336a1.68 1.68 0 0 0 1.078-.364 1.82 1.82 0 0 0 .56-.994l1.666.35a3.22 3.22 0 0 1-1.134 1.792 2.8 2.8 0 0 1-.994.49c-.387.113-.787.17-1.19.168m8.214 0a3.8 3.8 0 0 1-1.974-.49 3.2 3.2 0 0 1-1.288-1.358 4.2 4.2 0 0 1-.448-2.086q0-1.176.448-2.058a3.36 3.36 0 0 1 1.246-1.4 3.5 3.5 0 0 1 1.904-.504q.7 0 1.33.224c.424.14.808.38 1.12.7.34.341.603.752.77 1.204a5.6 5.6 0 0 1 .28 1.736v.546h-6.258v-1.204h5.376l-.84.364a2.8 2.8 0 0 0-.196-1.134 1.4 1.4 0 0 0-.588-.77 1.7 1.7 0 0 0-.98-.266 1.68 1.68 0 0 0-.994.28 1.7 1.7 0 0 0-.63.728 2.8 2.8 0 0 0-.21 1.036v.84q0 .714.238 1.218c.147.312.387.571.686.742a2.1 2.1 0 0 0 1.036.252 1.4 1.4 0 0 0 .714-.112 1.4 1.4 0 0 0 .546-.322 1.4 1.4 0 0 0 .35-.546l1.638.336a2.8 2.8 0 0 1-1.75 1.792 4.2 4.2 0 0 1-1.526.252m7.804 0a4.2 4.2 0 0 1-1.554-.252 2.8 2.8 0 0 1-1.12-.742 2.8 2.8 0 0 1-.56-1.176l1.666-.308a1.4 1.4 0 0 0 .546.84q.42.28 1.05.28a1.8 1.8 0 0 0 1.05-.266q.378-.252.378-.644a.7.7 0 0 0-.252-.546 1.4 1.4 0 0 0-.77-.336l-1.302-.28a3.2 3.2 0 0 1-1.624-.77 1.82 1.82 0 0 1-.532-1.372 1.96 1.96 0 0 1 .392-1.232 2.8 2.8 0 0 1 1.078-.798 4.2 4.2 0 0 1 1.61-.294q.868 0 1.498.252a2.52 2.52 0 0 1 1.554 1.722l-1.596.308a1.4 1.4 0 0 0-.476-.672 1.4 1.4 0 0 0-.952-.28 1.7 1.7 0 0 0-.952.252q-.378.252-.378.63 0 .336.252.56.252.21.84.35l1.302.266q1.078.238 1.61.742c.347.354.534.835.518 1.33q0 .7-.406 1.274a2.8 2.8 0 0 1-1.162.854 4.2 4.2 0 0 1-1.708.308m7.693 0a4.2 4.2 0 0 1-1.554-.252 2.8 2.8 0 0 1-1.12-.742 2.8 2.8 0 0 1-.56-1.176l1.666-.308a1.4 1.4 0 0 0 .546.84q.42.28 1.05.28a1.8 1.8 0 0 0 1.05-.266q.378-.252.378-.644a.7.7 0 0 0-.252-.546 1.4 1.4 0 0 0-.77-.336l-1.302-.28a3.2 3.2 0 0 1-1.624-.77 1.82 1.82 0 0 1-.532-1.372 1.96 1.96 0 0 1 .392-1.232 2.8 2.8 0 0 1 1.078-.798 4.2 4.2 0 0 1 1.61-.294q.868 0 1.498.252a2.52 2.52 0 0 1 1.554 1.722l-1.596.308a1.4 1.4 0 0 0-.476-.672 1.4 1.4 0 0 0-.952-.28 1.7 1.7 0 0 0-.952.252q-.378.252-.378.63 0 .336.252.56.252.21.84.35l1.302.266q1.078.238 1.61.742c.347.354.534.835.518 1.33q0 .7-.406 1.274a2.8 2.8 0 0 1-1.162.854 4.2 4.2 0 0 1-1.708.308m4.374 1.75a21 21 0 0 0 1.456-4.27 11.2 11.2 0 0 0-.028-3.934 18.2 18.2 0 0 0-1.428-4.508h1.666c.38.617.69 1.275.924 1.96.547 1.508.832 3.1.84 4.704q0 1.54-.448 3.08a14 14 0 0 1-1.316 2.968Z"/><path stroke="#888474" d="m899.5 677-9-6v12Zm-166 0 157-.003m-590 0 167 .003"/><path fill="#888474" d="M554.356 674.75a4.2 4.2 0 0 1-1.736-.378 2.8 2.8 0 0 1-1.554-2.66v-4.424a2.8 2.8 0 0 1 1.554-2.66 4.2 4.2 0 0 1 1.736-.378q1.008 0 1.736.378c.469.237.862.6 1.134 1.05q.42.672.406 1.61h-1.82q0-.7-.378-1.078a1.4 1.4 0 0 0-1.078-.364 1.4 1.4 0 0 0-1.078.364q-.378.378-.378 1.064v4.438q0 .7.378 1.064.378.378 1.078.378a1.4 1.4 0 0 0 1.078-.378q.378-.378.378-1.064v-1.092h-1.694v-1.582h3.514v2.674a2.8 2.8 0 0 1-.406 1.61 2.8 2.8 0 0 1-1.134 1.05 4.2 4.2 0 0 1-1.736.378m5.348-.14v-10.22h6.174v1.596h-4.368v2.59h3.878v1.526h-3.878v2.912h4.368v1.596Zm10.486 0v-8.568h-2.66v-1.652h7.14v1.652h-2.66v8.568Zm14.322 1.54 4.872-13.16h1.904l-4.872 13.16Zm8.624.98v-10.22h1.792v1.568h.406l-.546.798q0-1.148.602-1.834a2.1 2.1 0 0 1 1.638-.672q.756 0 1.316.378a2.8 2.8 0 0 1 .882 1.022 4.2 4.2 0 0 1 .308 1.554v2.058a4.2 4.2 0 0 1-.308 1.554 2.38 2.38 0 0 1-2.198 1.414 2.1 2.1 0 0 1-1.624-.672 2.8 2.8 0 0 1-.616-1.834l.546.812h-.42l.056 1.932v2.142Zm3.206-3.962a1.4 1.4 0 0 0 1.008-.364q.364-.35.364-1.064v-1.96q0-.714-.364-1.078-.365-.35-1.008-.35-.644 0-1.008.392a1.4 1.4 0 0 0-.364 1.106v1.82q0 .7.364 1.106.364.405 1.008.392m5.474 1.442v-7.7h1.792v1.568h.49l-.546.434a2.1 2.1 0 0 1 .588-1.568 2.24 2.24 0 0 1 1.596-.574q1.176 0 1.834.77a3.08 3.08 0 0 1 .658 2.114v.742h-1.834v-.644q0-.686-.35-1.036a1.4 1.4 0 0 0-1.008-.364 1.4 1.4 0 0 0-1.022.406 1.68 1.68 0 0 0-.364 1.162v4.69Zm8.134 0v-1.652h2.604v-4.396h-2.324v-1.652h4.158v6.048h2.324v1.652Zm3.402-8.974a1.4 1.4 0 0 1-.854-.266.98.98 0 0 1-.322-.756q0-.49.322-.756a1.4 1.4 0 0 1 .854-.28q.533 0 .854.28a.98.98 0 0 1 .322.756.98.98 0 0 1-.322.756 1.4 1.4 0 0 1-.854.266m7 8.974-2.576-7.7h1.904l1.456 4.606.238.84q.112.42.14.742l.14-.742.224-.84 1.428-4.606h1.918l-2.562 7.7Zm8.652.14a2.52 2.52 0 0 1-1.834-.672 2.24 2.24 0 0 1-.686-1.736q0-.756.364-1.316a2.4 2.4 0 0 1 1.008-.854 4.2 4.2 0 0 1 1.582-.294h1.792v-.532a1.12 1.12 0 0 0-.336-.826 1.4 1.4 0 0 0-.98-.28 1.8 1.8 0 0 0-.952.224.84.84 0 0 0-.392.658h-1.75a2.24 2.24 0 0 1 .882-1.708 3.5 3.5 0 0 1 2.226-.644q1.485 0 2.31.686a2.38 2.38 0 0 1 .826 1.932v5.222h-1.778v-1.484h-.294l.308-.238q0 .56-.28.98a1.8 1.8 0 0 1-.784.658 2.8 2.8 0 0 1-1.232.224m.602-1.484a1.82 1.82 0 0 0 1.19-.364 1.4 1.4 0 0 0 .434-.98v-.882h-1.722a1.4 1.4 0 0 0-.91.308c-.21.213-.325.5-.322.798q0 .504.35.812t.98.308m9.464 1.344a2.38 2.38 0 0 1-1.75-.63 2.38 2.38 0 0 1-.63-1.736v-3.682h-2.128v-1.652h2.128v-2.17h1.82v2.17h3.066v1.652h-3.066v3.64q0 .336.182.546t.518.21h2.296v1.652Zm7.644.14a4.2 4.2 0 0 1-1.722-.378 2.8 2.8 0 0 1-1.148-1.078 3.2 3.2 0 0 1-.392-1.624v-1.82q0-.938.392-1.624a2.8 2.8 0 0 1 1.148-1.078 4.2 4.2 0 0 1 1.722-.378q.98 0 1.708.378c.47.24.864.61 1.134 1.064a2.8 2.8 0 0 1 .392 1.596v1.4h-4.746v.504q0 .77.392 1.162a1.4 1.4 0 0 0 1.12.392 2.8 2.8 0 0 0 .896-.182q.378-.195.448-.532h1.806a2.52 2.52 0 0 1-1.064 1.596 3.5 3.5 0 0 1-2.086.602m1.484-4.564v-.406a1.82 1.82 0 0 0-.378-1.204q-.377-.42-1.106-.42-.728 0-1.134.434a1.82 1.82 0 0 0-.378 1.218v.252l3.122-.028ZM479.162 689.61l2.562-10.22h2.338l2.576 10.22h-1.862l-.546-2.436h-2.646l-.56 2.436Zm2.73-3.92h2.002l-.588-2.688-.252-1.204-.154-.798-.154.798-.252 1.19Zm9.408 4.06a3.22 3.22 0 0 1-2.338-.826 3.08 3.08 0 0 1-.854-2.24v-4.774h1.834v4.76q0 .714.35 1.092a1.4 1.4 0 0 0 1.008.406q.63 0 .994-.406a1.4 1.4 0 0 0 .364-1.092v-4.76h1.834v4.774a2.94 2.94 0 0 1-.868 2.24 3.22 3.22 0 0 1-2.324.826m9.17-.14a2.38 2.38 0 0 1-1.75-.63 2.38 2.38 0 0 1-.63-1.736v-3.682h-2.128v-1.652h2.128v-2.17h1.82v2.17h3.066v1.652h-3.066v3.64q0 .336.182.546t.518.21h2.296v1.652Zm4.466 0v-10.22h1.834v2.52l-.042 1.47h.49l-.546.42a1.96 1.96 0 0 1 .588-1.47 2.1 2.1 0 0 1 1.526-.56q1.12 0 1.82.756a3.08 3.08 0 0 1 .686 2.044v5.04h-1.834v-4.83q0-.7-.35-1.064a1.4 1.4 0 0 0-.98-.378q-.63 0-.994.392a1.4 1.4 0 0 0-.364 1.078v4.802Zm11.564.126a4.2 4.2 0 0 1-1.722-.378 2.8 2.8 0 0 1-1.134-1.064 3.2 3.2 0 0 1-.392-1.638v-1.792a3.2 3.2 0 0 1 .392-1.638 2.8 2.8 0 0 1 1.134-1.064 4.2 4.2 0 0 1 1.722-.378 3.64 3.64 0 0 1 1.722.378c.47.24.864.61 1.134 1.064a3.2 3.2 0 0 1 .392 1.638v1.792a3.2 3.2 0 0 1-.392 1.638 2.8 2.8 0 0 1-1.134 1.064 3.64 3.64 0 0 1-1.722.378m0-1.582q.7 0 1.05-.378.378-.378.378-1.064v-1.904q0-.7-.378-1.064-.364-.378-1.05-.378a1.4 1.4 0 0 0-1.05.378q-.378.364-.378 1.064v1.904q0 .7.378 1.064a1.4 1.4 0 0 0 1.05.378m5.516 1.456v-7.7h1.792v1.568h.49l-.546.434a2.1 2.1 0 0 1 .588-1.568 2.24 2.24 0 0 1 1.596-.574q1.176 0 1.834.77a3.08 3.08 0 0 1 .658 2.114v.742h-1.834v-.644q0-.686-.35-1.036a1.4 1.4 0 0 0-1.008-.364 1.4 1.4 0 0 0-1.022.406 1.68 1.68 0 0 0-.364 1.162v4.69Zm8.134 0v-1.652h2.604v-4.396h-2.324v-1.652h4.158v6.048h2.324v1.652Zm3.402-8.974a1.4 1.4 0 0 1-.854-.266.98.98 0 0 1-.322-.756q0-.49.322-.756a1.4 1.4 0 0 1 .854-.28q.533 0 .854.28a.98.98 0 0 1 .322.756.98.98 0 0 1-.322.756 1.4 1.4 0 0 1-.854.266m5.012 8.974v-1.638l3.976-4.466h-3.836v-1.596h5.978v1.638l-4.004 4.466h4.158v1.596Zm10.64.14a2.52 2.52 0 0 1-1.834-.672 2.24 2.24 0 0 1-.686-1.736q0-.756.364-1.316a2.4 2.4 0 0 1 1.008-.854 4.2 4.2 0 0 1 1.582-.294h1.792v-.532a1.12 1.12 0 0 0-.336-.826 1.4 1.4 0 0 0-.98-.28 1.8 1.8 0 0 0-.952.224.84.84 0 0 0-.392.658h-1.75a2.24 2.24 0 0 1 .882-1.708 3.5 3.5 0 0 1 2.226-.644q1.485 0 2.31.686a2.38 2.38 0 0 1 .826 1.932v5.222h-1.778v-1.484h-.294l.308-.238q0 .56-.28.98a1.8 1.8 0 0 1-.784.658 2.8 2.8 0 0 1-1.232.224m.602-1.484a1.82 1.82 0 0 0 1.19-.364 1.4 1.4 0 0 0 .434-.98v-.882h-1.722a1.4 1.4 0 0 0-.91.308c-.21.213-.325.5-.322.798q0 .504.35.812t.98.308m9.464 1.344a2.38 2.38 0 0 1-1.75-.63 2.38 2.38 0 0 1-.63-1.736v-3.682h-2.128v-1.652h2.128v-2.17h1.82v2.17h3.066v1.652h-3.066v3.64q0 .336.182.546t.518.21h2.296v1.652Zm4.48 0v-1.652h2.604v-4.396h-2.324v-1.652h4.158v6.048h2.324v1.652Zm3.402-8.974a1.4 1.4 0 0 1-.854-.266.98.98 0 0 1-.322-.756q0-.49.322-.756a1.4 1.4 0 0 1 .854-.28q.533 0 .854.28a.98.98 0 0 1 .322.756.98.98 0 0 1-.322.756 1.4 1.4 0 0 1-.854.266m8.148 9.1a4.2 4.2 0 0 1-1.722-.378 2.8 2.8 0 0 1-1.134-1.064 3.2 3.2 0 0 1-.392-1.638v-1.792a3.2 3.2 0 0 1 .392-1.638 2.8 2.8 0 0 1 1.134-1.064 4.2 4.2 0 0 1 1.722-.378 3.64 3.64 0 0 1 1.722.378c.47.24.864.61 1.134 1.064a3.2 3.2 0 0 1 .392 1.638v1.792a3.2 3.2 0 0 1-.392 1.638 2.8 2.8 0 0 1-1.134 1.064 3.64 3.64 0 0 1-1.722.378m0-1.582q.7 0 1.05-.378.378-.378.378-1.064v-1.904q0-.7-.378-1.064-.365-.378-1.05-.378a1.4 1.4 0 0 0-1.05.378q-.378.364-.378 1.064v1.904q0 .7.378 1.064a1.4 1.4 0 0 0 1.05.378m5.236 1.456v-7.7h1.792v1.47h.49l-.546.42a1.96 1.96 0 0 1 .588-1.47 2.1 2.1 0 0 1 1.526-.56q1.12 0 1.82.756a3.08 3.08 0 0 1 .686 2.044v5.04h-1.834v-4.83q0-.7-.35-1.064a1.4 1.4 0 0 0-.98-.378q-.63 0-.994.392a1.4 1.4 0 0 0-.364 1.078v4.802Zm11.564-5.46a1.4 1.4 0 0 1-.966-.336 1.12 1.12 0 0 1-.35-.854q0-.56.35-.868a1.4 1.4 0 0 1 .966-.322 1.4 1.4 0 0 1 .966.322c.238.224.366.541.35.868a1.12 1.12 0 0 1-.35.854 1.4 1.4 0 0 1-.966.336m0 5.6a1.4 1.4 0 0 1-.966-.322 1.12 1.12 0 0 1-.35-.868 1.12 1.12 0 0 1 .35-.868 1.4 1.4 0 0 1 .966-.322 1.4 1.4 0 0 1 .966.322c.238.224.366.541.35.868a1.12 1.12 0 0 1-.35.868 1.4 1.4 0 0 1-.966.322m13.65-.14v-10.22h3.164a4.2 4.2 0 0 1 1.722.322 2.8 2.8 0 0 1 1.134.924c.276.409.418.893.406 1.386a2.24 2.24 0 0 1-.826 1.778 1.96 1.96 0 0 1-.91.392v.028a2.24 2.24 0 0 1 1.722 1.288c.17.373.256.78.252 1.19a2.8 2.8 0 0 1-1.582 2.548 4.2 4.2 0 0 1-1.764.364Zm1.764-1.512h1.456q.756 0 1.176-.392a1.4 1.4 0 0 0 .434-1.106q0-.7-.434-1.12a1.54 1.54 0 0 0-1.176-.42h-1.456Zm0-4.508h1.372a1.4 1.4 0 0 0 1.064-.364 1.4 1.4 0 0 0 .392-.994 1.4 1.4 0 0 0-.392-.98q-.378-.35-1.064-.35h-1.372Zm9.8 6.16a4.2 4.2 0 0 1-1.722-.378 2.8 2.8 0 0 1-1.148-1.078 3.2 3.2 0 0 1-.392-1.624v-1.82q0-.938.392-1.624a2.8 2.8 0 0 1 1.148-1.078 4.2 4.2 0 0 1 1.722-.378q.98 0 1.708.378c.47.24.864.61 1.134 1.064a2.8 2.8 0 0 1 .392 1.596v1.4h-4.746v.504q0 .77.392 1.162a1.4 1.4 0 0 0 1.12.392 2.8 2.8 0 0 0 .896-.182q.378-.195.448-.532h1.806a2.52 2.52 0 0 1-1.064 1.596 3.5 3.5 0 0 1-2.086.602m1.484-4.564v-.406a1.82 1.82 0 0 0-.378-1.204q-.377-.42-1.106-.42-.727 0-1.134.434a1.82 1.82 0 0 0-.378 1.218v.252l3.122-.028Zm6.006 4.564a2.52 2.52 0 0 1-1.834-.672 2.24 2.24 0 0 1-.686-1.736q0-.756.364-1.316a2.4 2.4 0 0 1 1.008-.854 4.2 4.2 0 0 1 1.582-.294h1.792v-.532a1.12 1.12 0 0 0-.336-.826 1.4 1.4 0 0 0-.98-.28 1.8 1.8 0 0 0-.952.224.84.84 0 0 0-.392.658h-1.75a2.24 2.24 0 0 1 .882-1.708 3.5 3.5 0 0 1 2.226-.644q1.485 0 2.31.686a2.38 2.38 0 0 1 .826 1.932v5.222h-1.778v-1.484h-.294l.308-.238q0 .56-.28.98a1.8 1.8 0 0 1-.784.658 2.8 2.8 0 0 1-1.232.224m.602-1.484a1.82 1.82 0 0 0 1.19-.364 1.4 1.4 0 0 0 .434-.98v-.882h-1.722a1.4 1.4 0 0 0-.91.308c-.21.213-.325.5-.322.798q0 .504.35.812t.98.308m5.81 1.344v-7.7h1.792v1.568h.49l-.546.434a2.1 2.1 0 0 1 .588-1.568 2.24 2.24 0 0 1 1.596-.574q1.176 0 1.834.77a3.08 3.08 0 0 1 .658 2.114v.742h-1.834v-.644q0-.686-.35-1.036a1.4 1.4 0 0 0-1.008-.364 1.4 1.4 0 0 0-1.022.406 1.68 1.68 0 0 0-.364 1.162v4.69Zm11.298.14a4.2 4.2 0 0 1-1.722-.378 2.8 2.8 0 0 1-1.148-1.078 3.2 3.2 0 0 1-.392-1.624v-1.82q0-.938.392-1.624a2.8 2.8 0 0 1 1.148-1.078 4.2 4.2 0 0 1 1.722-.378q.98 0 1.708.378c.47.24.864.61 1.134 1.064a2.8 2.8 0 0 1 .392 1.596v1.4h-4.746v.504q0 .77.392 1.162a1.4 1.4 0 0 0 1.12.392 2.8 2.8 0 0 0 .896-.182q.378-.195.448-.532h1.806a2.52 2.52 0 0 1-1.064 1.596 3.5 3.5 0 0 1-2.086.602m1.484-4.564v-.406a1.82 1.82 0 0 0-.378-1.204q-.378-.42-1.106-.42t-1.134.434a1.82 1.82 0 0 0-.378 1.218v.252l3.122-.028Zm4.018 4.424v-7.7h1.792v1.568h.49l-.546.434a2.1 2.1 0 0 1 .588-1.568 2.24 2.24 0 0 1 1.596-.574q1.176 0 1.834.77a3.08 3.08 0 0 1 .658 2.114v.742h-1.834v-.644q0-.686-.35-1.036a1.4 1.4 0 0 0-1.008-.364 1.4 1.4 0 0 0-1.022.406 1.68 1.68 0 0 0-.364 1.162v4.69Zm22.834-.756-6.3-2.94v-1.82l6.3-2.94v1.68l-4.018 1.834q-.477.222-.994.322.516.1.994.322l4.018 1.834Zm6.02.756a2.38 2.38 0 0 1-1.75-.63 2.38 2.38 0 0 1-.63-1.736v-3.682h-2.128v-1.652h2.128v-2.17h1.82v2.17h3.066v1.652h-3.066v3.64q0 .336.182.546t.518.21h2.296v1.652Zm7.63.126a4.2 4.2 0 0 1-1.722-.378 2.8 2.8 0 0 1-1.134-1.064 3.2 3.2 0 0 1-.392-1.638v-1.792a3.2 3.2 0 0 1 .392-1.638 2.8 2.8 0 0 1 1.134-1.064 4.2 4.2 0 0 1 1.722-.378 3.64 3.64 0 0 1 1.722.378c.47.24.864.61 1.134 1.064a3.2 3.2 0 0 1 .392 1.638v1.792a3.2 3.2 0 0 1-.392 1.638 2.8 2.8 0 0 1-1.134 1.064 3.64 3.64 0 0 1-1.722.378m0-1.582q.7 0 1.05-.378.378-.378.378-1.064v-1.904q0-.7-.378-1.064-.364-.378-1.05-.378a1.4 1.4 0 0 0-1.05.378q-.378.364-.378 1.064v1.904q0 .7.378 1.064a1.4 1.4 0 0 0 1.05.378m5.306 1.456v-10.22h1.834v5.516h1.19l1.792-2.996h2.03l-2.254 3.738 2.324 3.962h-2.058l-1.834-3.15h-1.19v3.15Zm11.508.14a4.2 4.2 0 0 1-1.722-.378 2.8 2.8 0 0 1-1.148-1.078 3.2 3.2 0 0 1-.392-1.624v-1.82q0-.938.392-1.624a2.8 2.8 0 0 1 1.148-1.078 4.2 4.2 0 0 1 1.722-.378q.98 0 1.708.378c.47.24.864.61 1.134 1.064a2.8 2.8 0 0 1 .392 1.596v1.4h-4.746v.504q0 .77.392 1.162a1.4 1.4 0 0 0 1.12.392 2.8 2.8 0 0 0 .896-.182q.378-.195.448-.532h1.806a2.52 2.52 0 0 1-1.064 1.596 3.5 3.5 0 0 1-2.086.602m1.484-4.564v-.406a1.82 1.82 0 0 0-.378-1.204q-.378-.42-1.106-.42-.727 0-1.134.434a1.82 1.82 0 0 0-.378 1.218v.252l3.122-.028Zm3.738 4.424v-7.7h1.792v1.47h.49l-.546.42a1.96 1.96 0 0 1 .588-1.47 2.1 2.1 0 0 1 1.526-.56q1.12 0 1.82.756a3.08 3.08 0 0 1 .686 2.044v5.04h-1.834v-4.83q0-.7-.35-1.064a1.4 1.4 0 0 0-.98-.378q-.63 0-.994.392a1.4 1.4 0 0 0-.364 1.078v4.802Zm8.414-.756v-1.68l4.018-1.834.56-.224.434-.112-.448-.112-.546-.196-4.018-1.848v-1.694l6.3 2.94v1.806Z"/><path stroke="#888474" d="m276.5 677-9-6v12Zm-98-32v16c0 8.837 7.163 16 16 16h73m9-107h-82a16 16 0 0 0-16 16v26"/><path fill="#888474" d="M144.438 633.251q-1.182 0-2.056-.369-.873-.369-1.364-1.074-.49-.705-.531-1.711h1.798q.045.535.334.889t.761.529a3 3 0 0 0 1.044.175 2.8 2.8 0 0 0 1.062-.184 1.7 1.7 0 0 0 .721-.516 1.2 1.2 0 0 0 .261-.769.95.95 0 0 0-.23-.659 1.8 1.8 0 0 0-.644-.438 6 6 0 0 0-.968-.317l-1.156-.301q-1.272-.327-1.989-.992-.717-.666-.717-1.744 0-.9.487-1.576.487-.675 1.328-1.05.84-.373 1.906-.373 1.09 0 1.907.376.818.377 1.28 1.037t.483 1.515h-1.769q-.069-.657-.586-1.017-.518-.36-1.341-.36-.573 0-.988.174a1.46 1.46 0 0 0-.637.476 1.14 1.14 0 0 0-.222.69.97.97 0 0 0 .262.7q.264.273.664.437t.809.267l.952.243q.564.135 1.1.362c.346.145.67.338.962.574q.429.345.679.834.252.49.252 1.155 0 .895-.457 1.576-.456.681-1.317 1.061-.862.38-2.08.38m8.981-7.801v1.392h-4.34v-1.392Zm-3.256-1.818h1.777v7.309q0 .413.178.608.177.194.586.194.12 0 .32-.029.201-.028.324-.056l.28 1.372q-.293.09-.598.128a5 5 0 0 1-.591.038q-1.098 0-1.687-.546-.59-.548-.589-1.557Zm7.846 9.615q-1.113 0-1.934-.493a3.33 3.33 0 0 1-1.269-1.381q-.45-.888-.449-2.063 0-1.19.449-2.079a3.3 3.3 0 0 1 1.269-1.383q.82-.495 1.934-.494 1.117 0 1.938.494.82.493 1.269 1.383.45.89.448 2.079 0 1.175-.448 2.063a3.33 3.33 0 0 1-1.269 1.381q-.82.493-1.938.493m0-1.443q.623 0 1.034-.335a2 2 0 0 0 .614-.902 3.7 3.7 0 0 0 .202-1.262q0-.703-.202-1.271a2 2 0 0 0-.614-.902q-.413-.335-1.034-.335t-1.029.335a2 2 0 0 0-.611.9 3.8 3.8 0 0 0-.202 1.273q0 .695.202 1.262t.611.902q.408.336 1.029.335m5.205 1.289v-7.643h1.721v1.279h.082q.21-.664.721-1.024.51-.36 1.168-.359.326 0 .649.052v1.634a2 2 0 0 0-.356-.065 4 4 0 0 0-.48-.028q-.496 0-.889.212a1.57 1.57 0 0 0-.839 1.447v4.495Zm8.626.154q-1.15 0-1.982-.484a3.23 3.23 0 0 1-1.28-1.365q-.448-.882-.448-2.08 0-1.177.443-2.07a3.35 3.35 0 0 1 1.251-1.393q.81-.501 1.9-.501a3.9 3.9 0 0 1 1.332.227c.419.15.8.386 1.119.696q.489.47.768 1.199.28.729.28 1.737v.554h-6.254v-1.206h5.367l-.83.358q0-.648-.201-1.137a1.67 1.67 0 0 0-.593-.761q-.395-.273-.978-.273-.585 0-.996.277a1.8 1.8 0 0 0-.626.739 2.4 2.4 0 0 0-.216 1.028v.836q0 .724.246 1.222t.691.751q.444.252 1.031.252.39 0 .709-.111.318-.113.548-.333t.351-.547l1.633.338a2.6 2.6 0 0 1-.629 1.074 3 3 0 0 1-1.113.717q-.668.255-1.523.256m11.964-7.797v1.392h-4.34v-1.392Zm-3.256-1.818h1.777v7.309q0 .413.178.608.177.194.586.194.12 0 .32-.029.201-.028.324-.056l.28 1.372a3.5 3.5 0 0 1-.597.128 5 5 0 0 1-.592.038q-1.096 0-1.686-.546-.59-.548-.59-1.557Zm7.846 9.615q-1.113 0-1.934-.493a3.33 3.33 0 0 1-1.269-1.381q-.45-.888-.449-2.063 0-1.19.449-2.079a3.3 3.3 0 0 1 1.269-1.383q.82-.495 1.934-.494 1.118 0 1.938.494.82.493 1.269 1.383.45.89.449 2.079 0 1.175-.449 2.063a3.33 3.33 0 0 1-1.269 1.381q-.82.493-1.938.493m0-1.443q.623 0 1.034-.335a2 2 0 0 0 .614-.902 3.7 3.7 0 0 0 .202-1.262q0-.703-.202-1.271a2 2 0 0 0-.614-.902q-.411-.335-1.034-.335-.621 0-1.029.335a2 2 0 0 0-.611.9 3.8 3.8 0 0 0-.202 1.273q0 .695.202 1.262.203.567.611.902t1.029.335m6.831-1.12v-2.152h.282l2.756-3.082h2.088l-3.38 3.765h-.368Zm-1.626 2.409v-10.186h1.777v10.186Zm4.792 0-2.503-3.481 1.205-1.26 3.435 4.741Zm6.243.154q-1.15 0-1.982-.484a3.23 3.23 0 0 1-1.28-1.365q-.448-.882-.448-2.08 0-1.177.442-2.07a3.35 3.35 0 0 1 1.252-1.393q.81-.501 1.9-.501a3.9 3.9 0 0 1 1.332.227c.419.15.8.386 1.119.696q.488.47.768 1.199t.28 1.737v.554h-6.254v-1.206h5.367l-.831.358q0-.648-.2-1.137a1.67 1.67 0 0 0-.593-.761q-.395-.273-.978-.273-.585 0-.996.277a1.8 1.8 0 0 0-.627.739 2.4 2.4 0 0 0-.215 1.028v.836q0 .724.246 1.222t.691.751q.444.252 1.031.252.39 0 .709-.111.318-.113.548-.333t.351-.547l1.633.338a2.6 2.6 0 0 1-.629 1.074 3 3 0 0 1-1.113.717q-.668.255-1.523.256m6.682-4.631v4.477h-1.777v-7.643h1.685l.024 1.89h-.139q.315-.992.94-1.488.624-.498 1.559-.498.788 0 1.374.337.588.336.913.979t.326 1.564v4.859h-1.776v-4.586q0-.769-.399-1.205-.399-.435-1.098-.437a1.7 1.7 0 0 0-.84.206q-.37.207-.581.597t-.211.948"/><path stroke="#3f953b" d="m300.5 570 9-6v12Zm375 0 224-.003m-590 0 216 .003"/><path fill="#3f953b" d="M538.505 575.11v-1.644l3.724-3.782a3.2 3.2 0 0 0 .634-.894q.204-.452.204-.906 0-.66-.389-1.077-.39-.417-1.034-.417-.665 0-1.068.431-.402.43-.402 1.128h-1.827q.008-.961.434-1.678a2.97 2.97 0 0 1 1.172-1.119q.748-.402 1.738-.402.98 0 1.704.378.725.378 1.13 1.062t.407 1.594q0 .785-.366 1.564-.366.78-1.209 1.607l-2.541 2.506h4.232v1.649Zm11.595.14q-.995 0-1.731-.38a2.75 2.75 0 0 1-1.136-1.068q-.402-.688-.402-1.609v-4.386q0-.924.401-1.611a2.74 2.74 0 0 1 1.136-1.067q.735-.38 1.731-.379 1.01 0 1.738.379.729.38 1.131 1.067.4.687.401 1.611v4.386q0 .92-.402 1.609a2.75 2.75 0 0 1-1.132 1.068q-.73.38-1.735.38m.005-1.579q.712 0 1.129-.402.416-.402.416-1.076v-4.386q0-.674-.416-1.076-.417-.402-1.134-.402t-1.134.402-.416 1.076v4.386q0 .674.421 1.076.42.402 1.134.402m-.002-2.816q-.419 0-.678-.234-.26-.232-.26-.666 0-.417.258-.642t.68-.224.677.224.254.642q0 .433-.256.666-.255.234-.675.234m8.397 4.395q-.995 0-1.731-.38a2.75 2.75 0 0 1-1.136-1.068q-.402-.688-.402-1.609v-4.386q0-.924.401-1.611a2.74 2.74 0 0 1 1.136-1.067q.735-.38 1.731-.379 1.01 0 1.738.379.729.38 1.131 1.067.4.687.401 1.611v4.386q0 .92-.402 1.609a2.75 2.75 0 0 1-1.132 1.068q-.73.38-1.735.38m.005-1.579q.712 0 1.129-.402.416-.402.416-1.076v-4.386q0-.674-.416-1.076-.417-.402-1.134-.402t-1.134.402-.416 1.076v4.386q0 .674.421 1.076.42.402 1.134.402m-.002-2.816q-.42 0-.678-.234-.26-.232-.26-.666 0-.417.258-.642t.68-.224.677.224.255.642q0 .433-.257.666-.255.234-.675.234m16.797 4.395q-1.486 0-2.359-.845-.874-.845-.874-2.33v-4.151q0-1.493.874-2.333t2.359-.841 2.359.841q.874.84.874 2.329v4.155q0 1.485-.874 2.33t-2.359.845m0-1.597q.693 0 1.05-.375.355-.375.355-1.063v-4.431q0-.698-.351-1.067-.35-.37-1.054-.37-.698 0-1.052.37-.353.37-.353 1.067v4.431q0 .69.358 1.063.36.375 1.047.375m5.233 1.457v-10.22h1.827v4.131h1.153l1.89-4.131h1.977l-2.26 4.862 2.362 5.358h-2.019l-1.954-4.491h-1.149v4.491Zm11.567-5.465q-.612 0-.967-.328-.356-.327-.356-.86 0-.54.356-.864.355-.323.967-.323t.967.323.356.864q0 .533-.356.86-.355.327-.967.328m0 5.605q-.612 0-.967-.327-.356-.327-.356-.86 0-.543.356-.865.355-.323.967-.323t.967.323.356.865q0 .533-.356.86-.355.327-.967.327m19.952-.899-6.304-2.944v-1.806l6.304-2.953v1.681l-4.019 1.835q-.27.126-.558.212a4 4 0 0 1-.442.114q.163.03.449.11.285.081.551.207l4.019 1.84Zm6.018.759q-1.104 0-1.744-.633-.64-.635-.64-1.728v-3.69h-2.117v-1.649h2.117v-2.17h1.828v2.17h3.055v1.649h-3.055v3.643q0 .335.183.547.184.212.515.212h2.287v1.649Zm7.63.131q-.99 0-1.721-.378a2.7 2.7 0 0 1-1.131-1.071q-.399-.693-.399-1.631v-1.802q0-.942.399-1.633.4-.69 1.131-1.069.73-.378 1.721-.378 1.005 0 1.728.378.724.38 1.124 1.069.399.69.399 1.633v1.802q0 .938-.399 1.631a2.7 2.7 0 0 1-1.126 1.071q-.726.378-1.726.378m0-1.593q.684 0 1.054-.372t.37-1.07v-1.892q0-.708-.37-1.075t-1.054-.367q-.67 0-1.047.367t-.377 1.075v1.892q0 .698.377 1.07.376.372 1.047.372m5.312 1.462v-10.22h1.828v5.518h1.195l1.787-2.998h2.029l-2.251 3.734 2.325 3.966h-2.066l-1.824-3.156h-1.195v3.156Zm11.497.14q-.986 0-1.721-.38a2.74 2.74 0 0 1-1.137-1.074q-.402-.693-.402-1.626v-1.82q0-.938.402-1.628a2.74 2.74 0 0 1 1.137-1.072q.735-.38 1.721-.38t1.712.378 1.128 1.06.402 1.596v1.41h-4.75v.501q0 .77.391 1.158.39.388 1.117.388.53 0 .905-.183t.444-.523h1.799q-.192.995-1.051 1.595-.86.6-2.097.6m1.49-4.56v-.404q0-.778-.375-1.204-.374-.426-1.115-.426-.74 0-1.124.435-.384.436-.384 1.213v.251l3.124-.019Zm3.743 4.42v-7.7h1.78v1.47h.503l-.55.426q.009-.929.588-1.482.58-.554 1.527-.554 1.133 0 1.815.761.681.762.681 2.041v5.038h-1.828v-4.824q0-.692-.355-1.067-.356-.375-.98-.374-.633 0-.993.381-.36.382-.36 1.078v4.806Zm8.406-.759v-1.681l4.019-1.835q.275-.126.558-.212a4 4 0 0 1 .442-.114 4 4 0 0 1-.449-.112 4 4 0 0 1-.551-.206l-4.019-1.839v-1.704l6.304 2.943v1.807Z"/><path stroke="#3f953b" d="m923.5 570 9-6v12Zm98-26v10c0 8.837-7.163 16-16 16h-73m-9-193h82c8.837 0 16 7.163 16 16v16m0 103-6-9h12Zm0-55v46"/><path fill="#3f953b" d="M978.253 533.229q-1.405 0-2.466-.634-1.06-.634-1.655-1.806-.594-1.17-.594-2.777 0-1.642.61-2.815.61-1.172 1.663-1.799 1.054-.627 2.384-.627.84 0 1.569.245.727.246 1.299.7.57.453.936 1.075t.483 1.37h-1.861a2.7 2.7 0 0 0-.34-.732 2.3 2.3 0 0 0-.521-.553 2.3 2.3 0 0 0-.691-.349 2.9 2.9 0 0 0-.85-.12q-.822 0-1.467.414-.645.415-1.013 1.217-.368.801-.368 1.959 0 1.154.367 1.956.366.801 1.016 1.221.651.42 1.509.419.777 0 1.348-.3t.881-.854q.309-.553.309-1.303l.422.067h-2.775v-1.435h4.127v1.22q0 1.313-.558 2.262a3.8 3.8 0 0 1-1.531 1.465q-.975.514-2.233.514m9.384.018q-1.15 0-1.982-.484a3.24 3.24 0 0 1-1.281-1.365q-.447-.882-.447-2.08 0-1.177.442-2.07a3.36 3.36 0 0 1 1.251-1.393q.81-.501 1.9-.501.702 0 1.333.227.63.226 1.119.696.488.47.767 1.199.28.729.28 1.737v.554h-6.253v-1.206h5.366l-.83.358q0-.648-.2-1.137a1.67 1.67 0 0 0-.594-.761q-.393-.273-.978-.273t-.996.277a1.8 1.8 0 0 0-.626.739 2.4 2.4 0 0 0-.215 1.028v.836q0 .724.246 1.222a1.7 1.7 0 0 0 .69.751c.316.173.672.26 1.032.252q.39 0 .708-.111.32-.113.549-.333t.351-.547l1.632.338a2.6 2.6 0 0 1-.629 1.074 3 3 0 0 1-1.113.717q-.667.255-1.522.256m6.681-4.631v4.477h-1.776v-7.643h1.684l.024 1.89h-.139q.317-.992.941-1.488.624-.498 1.558-.498.787 0 1.375.337.587.336.913.979t.326 1.564v4.859h-1.777v-4.586q0-.769-.399-1.205-.398-.437-1.097-.437-.47 0-.841.206-.37.207-.581.597t-.211.948m10.162 4.631q-1.15 0-1.982-.484a3.24 3.24 0 0 1-1.281-1.365q-.447-.882-.447-2.08 0-1.177.442-2.07a3.36 3.36 0 0 1 1.251-1.393q.81-.501 1.9-.501.702 0 1.333.227.63.226 1.119.696.488.47.767 1.199.28.729.28 1.737v.554h-6.253v-1.206h5.366l-.83.358q0-.648-.2-1.137a1.67 1.67 0 0 0-.594-.761q-.393-.273-.978-.273t-.995.277a1.8 1.8 0 0 0-.627.739 2.4 2.4 0 0 0-.215 1.028v.836q0 .724.246 1.222t.69.751c.316.173.672.26 1.032.252q.39 0 .708-.111.32-.113.549-.333t.351-.547l1.632.338a2.6 2.6 0 0 1-.629 1.074 3 3 0 0 1-1.113.717q-.667.255-1.522.256m4.91-.154v-7.643h1.721v1.279h.082q.21-.664.721-1.024.51-.36 1.168-.359.326 0 .649.052v1.634a2 2 0 0 0-.356-.065 4 4 0 0 0-.481-.028q-.495 0-.889.212a1.6 1.6 0 0 0-.616.584 1.66 1.66 0 0 0-.223.863v4.495Zm7.56.158q-.726 0-1.308-.263a2.1 2.1 0 0 1-.918-.776q-.336-.515-.336-1.268 0-.647.242-1.069a1.9 1.9 0 0 1 .658-.676q.416-.253.936-.383.531-.13 1.076-.188.669-.073 1.083-.129.415-.055.611-.178.196-.122.196-.38v-.036q0-.378-.152-.639a1 1 0 0 0-.448-.401 1.7 1.7 0 0 0-.733-.14q-.444 0-.77.136-.326.137-.531.355a1.4 1.4 0 0 0-.302.473l-1.648-.338q.228-.678.7-1.119t1.126-.659c.457-.15.936-.224 1.417-.219q.54 0 1.089.128.55.129 1.009.426.46.3.74.806.28.507.28 1.269v5.11h-1.7v-1.054h-.072a2.2 2.2 0 0 1-1.209 1.045 2.9 2.9 0 0 1-1.036.167m.456-1.321q.551 0 .952-.217a1.6 1.6 0 0 0 .622-.578q.22-.36.22-.784v-.905a.9.9 0 0 1-.293.133q-.207.06-.465.108-.258.047-.506.081l-.42.057q-.37.045-.72.178a1.2 1.2 0 0 0-.503.348q-.183.222-.183.573 0 .33.168.553t.46.339q.291.114.668.114m8.984-6.48v1.392h-4.34v-1.392Zm-3.255-1.818h1.776v7.309q0 .413.178.608.178.194.587.194.12 0 .319-.029a4 4 0 0 0 .325-.056l.28 1.372q-.293.09-.598.128a5 5 0 0 1-.592.038q-1.096 0-1.686-.546-.59-.548-.589-1.557Zm7.905 9.615q-1.15 0-1.982-.484a3.23 3.23 0 0 1-1.281-1.365q-.447-.882-.447-2.08 0-1.177.442-2.07a3.36 3.36 0 0 1 1.25-1.393q.811-.501 1.901-.501.702 0 1.333.227.63.226 1.118.696.487.47.768 1.199.28.729.28 1.737v.554h-6.254v-1.206h5.367l-.83.358q0-.648-.2-1.137a1.67 1.67 0 0 0-.594-.761q-.393-.273-.978-.273t-.996.277a1.8 1.8 0 0 0-.626.739 2.4 2.4 0 0 0-.216 1.028v.836q0 .724.246 1.222t.691.751c.316.173.672.26 1.032.252q.39 0 .708-.111.318-.113.548-.333t.352-.547l1.632.338a2.6 2.6 0 0 1-.629 1.074 3 3 0 0 1-1.113.717q-.667.255-1.522.256m11.31-.018q-1.507 0-2.399-.817-.892-.818-.892-2.33v-.579h1.826v.599q0 .797.397 1.21.398.414 1.068.414.666 0 1.061-.414.395-.413.395-1.215v-7.19h1.81v7.17q0 1.515-.883 2.334-.885.82-2.383.818m7.38-.136-2.748-10.186h1.961l1.325 5.421q.14.588.259 1.237.12.65.231 1.306.114.656.22 1.286h-.299q.12-.63.234-1.286.117-.657.246-1.306.13-.65.274-1.237l1.379-5.421h1.94l1.37 5.421q.15.588.276 1.237.128.65.248 1.306l.239 1.286h-.313q.113-.63.224-1.286.111-.657.236-1.306.125-.65.257-1.237l1.324-5.421h1.969l-2.757 10.186h-2.091l-1.484-5.624a21 21 0 0 1-.359-1.711l-.33-1.958h.435q-.181.95-.327 1.907a17 17 0 0 1-.361 1.762l-1.482 5.624Zm11.76-8.649v-1.537h8.11v1.537h-3.138v8.649h-1.825v-8.649Zm-95.753-94.851-3.626-10.192h2.002l1.806 5.292a70 70 0 0 1 1.19 4.172h-.378l.616-2.352.532-1.82 1.75-5.292h1.988l-3.556 10.192Zm9.731.154a3.8 3.8 0 0 1-1.974-.49 3.2 3.2 0 0 1-1.288-1.358 4.2 4.2 0 0 1-.448-2.086q0-1.176.448-2.058a3.36 3.36 0 0 1 1.246-1.4 3.5 3.5 0 0 1 1.904-.504q.7 0 1.33.224a2.8 2.8 0 0 1 1.12.7c.34.341.603.752.77 1.204a5.6 5.6 0 0 1 .28 1.736v.546h-6.258v-1.204h5.376l-.84.364a2.8 2.8 0 0 0-.196-1.134 1.4 1.4 0 0 0-.588-.77 1.7 1.7 0 0 0-.98-.266 1.68 1.68 0 0 0-.994.28 1.7 1.7 0 0 0-.63.728 2.8 2.8 0 0 0-.21 1.036v.84q0 .714.238 1.218c.147.312.387.57.686.742a2.1 2.1 0 0 0 1.036.252 1.4 1.4 0 0 0 .714-.112 1.4 1.4 0 0 0 .546-.322 1.4 1.4 0 0 0 .35-.546l1.638.336a2.8 2.8 0 0 1-1.75 1.792 4.2 4.2 0 0 1-1.526.252m4.907-.154v-7.644h1.722v1.274h.084a1.89 1.89 0 0 1 1.89-1.372l.336.014.308.028v1.638l-.35-.07-.476-.028a1.68 1.68 0 0 0-1.512.798 1.8 1.8 0 0 0-.224.868v4.494Zm5.647 0v-7.644h1.778v7.644Zm.896-8.722a.98.98 0 0 1-.728-.294.84.84 0 0 1-.308-.672q0-.42.308-.7a1.12 1.12 0 0 1 .728-.28q.42 0 .728.28a.9.9 0 0 1 .308.686.84.84 0 0 1-.308.686.98.98 0 0 1-.728.294m6.783 1.078v1.4h-4.816v-1.4Zm-3.416 7.644v-8.372q0-.77.322-1.274c.203-.331.5-.594.854-.756a2.8 2.8 0 0 1 1.19-.266q.49 0 .84.084.364.056.532.126l-.364 1.386-.28-.07-.392-.042q-.504 0-.714.252-.224.238-.224.7v8.232Zm4.771 2.73.42-1.386.21.056c.23.08.475.1.714.056a.84.84 0 0 0 .532-.28 1.4 1.4 0 0 0 .294-.658l.112-.49-2.884-7.672h1.904l1.4 4.158q.239.743.392 1.47l.35 1.498h-.462l.364-1.498q.177-.747.434-1.47l1.442-4.158h1.89l-3.29 8.624a4.2 4.2 0 0 1-.588 1.05 2.8 2.8 0 0 1-.854.658 3.64 3.64 0 0 1-2.38.042m15.152-2.576a4.2 4.2 0 0 1-1.932-.49 3.5 3.5 0 0 1-1.274-1.386 4.2 4.2 0 0 1-.448-2.058q0-1.19.448-2.086a3.36 3.36 0 0 1 1.274-1.372 3.64 3.64 0 0 1 1.932-.504q.644 0 1.19.168a3.08 3.08 0 0 1 2.114 2.24l-1.666.35a2.8 2.8 0 0 0-.21-.546 1.4 1.4 0 0 0-.35-.406 1.68 1.68 0 0 0-1.064-.364 1.68 1.68 0 0 0-1.036.336 2.1 2.1 0 0 0-.616.896 4.2 4.2 0 0 0-.196 1.274q0 .7.196 1.274t.616.896q.42.336 1.036.336a1.68 1.68 0 0 0 1.078-.364 1.82 1.82 0 0 0 .56-.994l1.666.35a3.22 3.22 0 0 1-1.134 1.792 2.8 2.8 0 0 1-.994.49c-.387.113-.787.17-1.19.168m4.84-.154v-7.644h1.722v1.274h.084a1.89 1.89 0 0 1 1.89-1.372l.336.014.308.028v1.638l-.35-.07-.476-.028a1.68 1.68 0 0 0-1.512.798 1.8 1.8 0 0 0-.224.868v4.494Zm8.624.154a3.8 3.8 0 0 1-1.974-.49 3.2 3.2 0 0 1-1.288-1.358 4.2 4.2 0 0 1-.448-2.086q0-1.176.448-2.058a3.36 3.36 0 0 1 1.246-1.4 3.5 3.5 0 0 1 1.904-.504q.7 0 1.33.224a2.8 2.8 0 0 1 1.12.7c.34.341.603.752.77 1.204.184.56.279 1.146.28 1.736v.546h-6.258v-1.204h5.376l-.84.364a2.8 2.8 0 0 0-.196-1.134 1.4 1.4 0 0 0-.588-.77 1.7 1.7 0 0 0-.98-.266 1.68 1.68 0 0 0-.994.28 1.7 1.7 0 0 0-.63.728 2.8 2.8 0 0 0-.21 1.036v.84q0 .714.238 1.218c.147.312.387.57.686.742a2.1 2.1 0 0 0 1.036.252 1.4 1.4 0 0 0 .714-.112c.204-.064.391-.174.546-.322a1.4 1.4 0 0 0 .35-.546l1.638.336a2.8 2.8 0 0 1-1.75 1.792 4.2 4.2 0 0 1-1.526.252m7.735-.014a2.94 2.94 0 0 1-2.744-1.806 4.9 4.9 0 0 1-.42-2.142q0-1.26.42-2.156a2.8 2.8 0 0 1 1.134-1.316 2.8 2.8 0 0 1 2.716-.224q.42.21.686.532.252.336.392.588h.07v-3.808h1.778v10.192h-1.736v-1.204h-.112q-.165.32-.406.588-.302.32-.686.532a2.8 2.8 0 0 1-1.092.224m.476-1.456a1.4 1.4 0 0 0 .98-.322 1.96 1.96 0 0 0 .616-.868c.138-.42.209-.86.21-1.302a4.2 4.2 0 0 0-.196-1.302 1.8 1.8 0 0 0-.616-.854 1.4 1.4 0 0 0-.994-.308 1.4 1.4 0 0 0-1.008.322 1.96 1.96 0 0 0-.602.868 4.2 4.2 0 0 0-.21 1.274 4.2 4.2 0 0 0 .21 1.274q.21.56.616.882a1.4 1.4 0 0 0 .994.336m8.809 1.47a3.8 3.8 0 0 1-1.974-.49 3.2 3.2 0 0 1-1.288-1.358 4.2 4.2 0 0 1-.448-2.086q0-1.176.448-2.058a3.36 3.36 0 0 1 1.246-1.4 3.5 3.5 0 0 1 1.904-.504q.7 0 1.33.224a2.8 2.8 0 0 1 1.12.7c.34.341.603.752.77 1.204.184.56.279 1.146.28 1.736v.546h-6.258v-1.204h5.376l-.84.364a2.8 2.8 0 0 0-.196-1.134 1.4 1.4 0 0 0-.588-.77 1.7 1.7 0 0 0-.98-.266 1.68 1.68 0 0 0-.994.28 1.7 1.7 0 0 0-.63.728 2.8 2.8 0 0 0-.21 1.036v.84q0 .714.238 1.218c.147.312.387.57.686.742a2.1 2.1 0 0 0 1.036.252 1.4 1.4 0 0 0 .714-.112 1.4 1.4 0 0 0 .546-.322 1.4 1.4 0 0 0 .35-.546l1.638.336a2.8 2.8 0 0 1-1.75 1.792 4.2 4.2 0 0 1-1.526.252m6.684-4.634v4.48h-1.778v-7.644h1.694l.014 1.89h-.14a2.8 2.8 0 0 1 .952-1.484 2.38 2.38 0 0 1 1.554-.504q.784 0 1.372.336.588.335.91.98a3.36 3.36 0 0 1 .336 1.568v4.858h-1.778v-4.592a1.68 1.68 0 0 0-.406-1.204 1.4 1.4 0 0 0-1.092-.434 1.4 1.4 0 0 0-.84.21 1.4 1.4 0 0 0-.588.602 1.96 1.96 0 0 0-.21.938m10.331-3.164v1.4h-4.34v-1.4Zm-3.262-1.82h1.778v7.308q0 .42.182.616t.588.196l.322-.028.322-.056.28 1.358a2.8 2.8 0 0 1-.602.14l-.588.028q-1.106 0-1.694-.546t-.588-1.554Zm4.664 9.464v-7.644h1.778v7.644Zm.896-8.722a.98.98 0 0 1-.728-.294.84.84 0 0 1-.308-.672q0-.42.308-.7a1.12 1.12 0 0 1 .728-.28q.42 0 .728.28a.9.9 0 0 1 .308.686.84.84 0 0 1-.308.686.98.98 0 0 1-.728.294m4.908 8.876a2.8 2.8 0 0 1-1.316-.252 2.1 2.1 0 0 1-.91-.784 2.24 2.24 0 0 1-.336-1.274q0-.644.238-1.064a1.96 1.96 0 0 1 .658-.672 2.8 2.8 0 0 1 .938-.378l1.078-.196 1.078-.126a1.4 1.4 0 0 0 .616-.182.42.42 0 0 0 .196-.378v-.042a1.4 1.4 0 0 0-.154-.63.98.98 0 0 0-.448-.406 1.4 1.4 0 0 0-.728-.14 1.4 1.4 0 0 0-.77.14 1.4 1.4 0 0 0-.84.826l-1.638-.336a2.8 2.8 0 0 1 .7-1.12c.317-.304.7-.53 1.12-.658a4.9 4.9 0 0 1 2.506-.098q.546.14 1.008.434t.742.798.28 1.274v5.11h-1.708v-1.05h-.07q-.19.332-.462.602a2.8 2.8 0 0 1-.742.434 2.8 2.8 0 0 1-1.036.168m.462-1.316c.331.007.659-.07.952-.224a1.54 1.54 0 0 0 .84-1.358v-.896l-.294.126-.462.112-.518.084-.42.056a2.8 2.8 0 0 0-.714.168 1.4 1.4 0 0 0-.504.35.84.84 0 0 0-.182.574q0 .336.168.56.168.21.462.336.294.112.672.112m5.434-9.03h1.778v10.192h-1.778Zm6.56 10.346a4.2 4.2 0 0 1-1.554-.252 2.8 2.8 0 0 1-1.12-.742 2.8 2.8 0 0 1-.56-1.176l1.666-.308a1.4 1.4 0 0 0 .546.84q.42.28 1.05.28a1.8 1.8 0 0 0 1.05-.266q.378-.252.378-.644a.7.7 0 0 0-.252-.546 1.4 1.4 0 0 0-.77-.336l-1.302-.28a3.2 3.2 0 0 1-1.624-.77 1.82 1.82 0 0 1-.532-1.372 1.96 1.96 0 0 1 .392-1.232 2.8 2.8 0 0 1 1.078-.798 4.2 4.2 0 0 1 1.61-.294q.868 0 1.498.252a2.52 2.52 0 0 1 1.554 1.722l-1.596.308a1.4 1.4 0 0 0-.476-.672 1.4 1.4 0 0 0-.952-.28 1.7 1.7 0 0 0-.952.252q-.378.252-.378.63 0 .336.252.56.252.21.84.35l1.302.266q1.078.238 1.61.742c.347.354.534.835.518 1.33q0 .7-.406 1.274a2.8 2.8 0 0 1-1.162.854 4.2 4.2 0 0 1-1.708.308m-87.939 12.702c.008-.789.083-1.576.224-2.352q.238-1.246.616-2.352a9.8 9.8 0 0 1 .924-1.96h1.666a16.8 16.8 0 0 0-1.624 6.664q0 .896.168 1.806.19.991.518 1.946.378 1.05.938 2.296h-1.666a12.04 12.04 0 0 1-1.764-6.048m7.784 4.298a4.2 4.2 0 0 1-1.554-.252 2.8 2.8 0 0 1-1.12-.742 2.8 2.8 0 0 1-.56-1.176l1.666-.308a1.4 1.4 0 0 0 .546.84q.42.28 1.05.28a1.8 1.8 0 0 0 1.05-.266q.378-.252.378-.644a.7.7 0 0 0-.252-.546 1.4 1.4 0 0 0-.77-.336l-1.302-.28a3.2 3.2 0 0 1-1.624-.77 1.82 1.82 0 0 1-.532-1.372 1.96 1.96 0 0 1 .392-1.232 2.8 2.8 0 0 1 1.078-.798 4.2 4.2 0 0 1 1.61-.294q.868 0 1.498.252a2.52 2.52 0 0 1 1.554 1.722l-1.596.308a1.4 1.4 0 0 0-.476-.672 1.4 1.4 0 0 0-.952-.28 1.7 1.7 0 0 0-.952.252q-.378.252-.378.63 0 .336.252.56.252.21.84.35l1.302.266q1.078.238 1.61.742c.347.354.534.835.518 1.33q0 .7-.406 1.274a2.8 2.8 0 0 1-1.162.854 4.2 4.2 0 0 1-1.708.308m7.412-.056a2.8 2.8 0 0 1-1.372-.336 2.24 2.24 0 0 1-.91-.98 3.36 3.36 0 0 1-.336-1.568v-4.858h1.778v4.592q0 .756.406 1.204a1.4 1.4 0 0 0 1.092.434 1.4 1.4 0 0 0 .84-.21 1.4 1.4 0 0 0 .588-.602 1.96 1.96 0 0 0 .21-.938v-4.48h1.778v7.644h-1.694l-.014-1.89h.126a2.8 2.8 0 0 1-.938 1.498 2.52 2.52 0 0 1-1.554.49m9.271.056a4.2 4.2 0 0 1-1.932-.49 3.5 3.5 0 0 1-1.274-1.386 4.2 4.2 0 0 1-.448-2.058q0-1.19.448-2.086a3.36 3.36 0 0 1 1.274-1.372 3.64 3.64 0 0 1 1.932-.504q.644 0 1.19.168a3.08 3.08 0 0 1 2.114 2.24l-1.666.35a2.8 2.8 0 0 0-.21-.546 1.4 1.4 0 0 0-.35-.406 1.68 1.68 0 0 0-1.064-.364 1.68 1.68 0 0 0-1.036.336 2.1 2.1 0 0 0-.616.896 4.2 4.2 0 0 0-.196 1.274q0 .7.196 1.274t.616.896q.42.336 1.036.336a1.68 1.68 0 0 0 1.078-.364 1.82 1.82 0 0 0 .56-.994l1.666.35a3.22 3.22 0 0 1-1.134 1.792 2.8 2.8 0 0 1-.994.49c-.387.113-.787.17-1.19.168m8.158 0a4.2 4.2 0 0 1-1.932-.49 3.5 3.5 0 0 1-1.274-1.386 4.2 4.2 0 0 1-.448-2.058q0-1.19.448-2.086a3.36 3.36 0 0 1 1.274-1.372 3.64 3.64 0 0 1 1.932-.504q.644 0 1.19.168a3.08 3.08 0 0 1 2.114 2.24l-1.666.35a2.8 2.8 0 0 0-.21-.546 1.4 1.4 0 0 0-.35-.406 1.68 1.68 0 0 0-1.064-.364 1.68 1.68 0 0 0-1.036.336 2.1 2.1 0 0 0-.616.896 4.2 4.2 0 0 0-.196 1.274q0 .7.196 1.274t.616.896q.42.336 1.036.336a1.68 1.68 0 0 0 1.078-.364 1.82 1.82 0 0 0 .56-.994l1.666.35a3.22 3.22 0 0 1-1.134 1.792 2.8 2.8 0 0 1-.994.49c-.387.113-.787.17-1.19.168m8.214 0a3.8 3.8 0 0 1-1.974-.49 3.2 3.2 0 0 1-1.288-1.358 4.2 4.2 0 0 1-.448-2.086q0-1.176.448-2.058a3.36 3.36 0 0 1 1.246-1.4 3.5 3.5 0 0 1 1.904-.504q.7 0 1.33.224c.424.14.808.38 1.12.7.34.341.603.752.77 1.204a5.6 5.6 0 0 1 .28 1.736v.546h-6.258v-1.204h5.376l-.84.364a2.8 2.8 0 0 0-.196-1.134 1.4 1.4 0 0 0-.588-.77 1.7 1.7 0 0 0-.98-.266 1.68 1.68 0 0 0-.994.28 1.7 1.7 0 0 0-.63.728 2.8 2.8 0 0 0-.21 1.036v.84q0 .714.238 1.218c.147.312.387.57.686.742a2.1 2.1 0 0 0 1.036.252 1.4 1.4 0 0 0 .714-.112 1.4 1.4 0 0 0 .546-.322 1.4 1.4 0 0 0 .35-.546l1.638.336a2.8 2.8 0 0 1-1.75 1.792 4.2 4.2 0 0 1-1.526.252m7.804 0a4.2 4.2 0 0 1-1.554-.252 2.8 2.8 0 0 1-1.12-.742 2.8 2.8 0 0 1-.56-1.176l1.666-.308a1.4 1.4 0 0 0 .546.84q.42.28 1.05.28a1.8 1.8 0 0 0 1.05-.266q.378-.252.378-.644a.7.7 0 0 0-.252-.546 1.4 1.4 0 0 0-.77-.336l-1.302-.28a3.2 3.2 0 0 1-1.624-.77 1.82 1.82 0 0 1-.532-1.372 1.96 1.96 0 0 1 .392-1.232 2.8 2.8 0 0 1 1.078-.798 4.2 4.2 0 0 1 1.61-.294q.868 0 1.498.252a2.52 2.52 0 0 1 1.554 1.722l-1.596.308a1.4 1.4 0 0 0-.476-.672 1.4 1.4 0 0 0-.952-.28 1.7 1.7 0 0 0-.952.252q-.378.252-.378.63 0 .336.252.56.252.21.84.35l1.302.266q1.078.238 1.61.742c.347.354.534.835.518 1.33q0 .7-.406 1.274a2.8 2.8 0 0 1-1.162.854 4.2 4.2 0 0 1-1.708.308m7.693 0a4.2 4.2 0 0 1-1.554-.252 2.8 2.8 0 0 1-1.12-.742 2.8 2.8 0 0 1-.56-1.176l1.666-.308a1.4 1.4 0 0 0 .546.84q.42.28 1.05.28a1.8 1.8 0 0 0 1.05-.266q.378-.252.378-.644a.7.7 0 0 0-.252-.546 1.4 1.4 0 0 0-.77-.336l-1.302-.28a3.2 3.2 0 0 1-1.624-.77 1.82 1.82 0 0 1-.532-1.372 1.96 1.96 0 0 1 .392-1.232 2.8 2.8 0 0 1 1.078-.798 4.2 4.2 0 0 1 1.61-.294q.868 0 1.498.252a2.52 2.52 0 0 1 1.554 1.722l-1.596.308a1.4 1.4 0 0 0-.476-.672 1.4 1.4 0 0 0-.952-.28 1.7 1.7 0 0 0-.952.252q-.378.252-.378.63 0 .336.252.56.252.21.84.35l1.302.266q1.078.238 1.61.742c.347.354.534.835.518 1.33q0 .7-.406 1.274a2.8 2.8 0 0 1-1.162.854 4.2 4.2 0 0 1-1.708.308m4.374 1.75a21 21 0 0 0 1.456-4.27 11.2 11.2 0 0 0-.028-3.934 18.2 18.2 0 0 0-1.428-4.508h1.666a9.8 9.8 0 0 1 .924 1.96c.547 1.508.832 3.1.84 4.704q0 1.54-.448 3.08a14 14 0 0 1-1.316 2.968Z"/><path stroke="#888474" d="m899.5 377-9-6v12Zm-79 0 70-.003m-590 0 80 .003"/><path fill="#888474" d="M555.336 374.61v-10.22h3.43q1.036 0 1.806.392a2.8 2.8 0 0 1 1.19 1.106q.42.714.434 1.666a3.2 3.2 0 0 1-.434 1.666 2.8 2.8 0 0 1-1.19 1.12 4.2 4.2 0 0 1-1.806.392h-1.596v3.878Zm1.834-5.474h1.596a1.54 1.54 0 0 0 1.148-.448 1.4 1.4 0 0 0 .434-1.12 1.54 1.54 0 0 0-.434-1.148 1.54 1.54 0 0 0-1.148-.434h-1.596Zm9.73 5.614a3.22 3.22 0 0 1-2.366-.84 3.22 3.22 0 0 1-.868-2.338v-4.144q0-1.498.868-2.338a3.22 3.22 0 0 1 2.366-.84q1.485 0 2.366.84.868.84.868 2.324v4.158a3.22 3.22 0 0 1-.868 2.338 3.22 3.22 0 0 1-2.366.84m0-1.596q.7 0 1.05-.378t.35-1.064v-4.424q0-.7-.35-1.078t-1.05-.364-1.05.364q-.35.378-.35 1.078v4.424q0 .7.35 1.064.35.378 1.05.378m8.442 1.596a4.2 4.2 0 0 1-1.834-.364 2.94 2.94 0 0 1-1.638-2.674h1.792q0 .672.462 1.05.449.392 1.218.392a1.68 1.68 0 0 0 1.162-.378 1.4 1.4 0 0 0 .434-1.022 1.4 1.4 0 0 0-.28-.868 1.4 1.4 0 0 0-.798-.518l-1.358-.336a3.36 3.36 0 0 1-1.778-1.064 2.8 2.8 0 0 1-.658-1.848q0-.882.392-1.526a2.8 2.8 0 0 1 1.106-.994 4.2 4.2 0 0 1 1.68-.35q.98 0 1.708.35a2.8 2.8 0 0 1 1.12.994 2.8 2.8 0 0 1 .406 1.512h-1.792a1.4 1.4 0 0 0-.392-.938 1.4 1.4 0 0 0-1.05-.35 1.4 1.4 0 0 0-1.022.35 1.12 1.12 0 0 0-.378.896q0 .462.266.756a1.4 1.4 0 0 0 .756.42l1.4.35q1.134.28 1.806 1.12a3.22 3.22 0 0 1 .658 2.044 2.8 2.8 0 0 1-1.596 2.632 4.2 4.2 0 0 1-1.792.364m7.448-.14v-8.568h-2.66v-1.652h7.14v1.652h-2.66v8.568Zm14.322 1.54 4.872-13.16h1.904l-4.872 13.16Zm12.558-1.54a2.38 2.38 0 0 1-1.75-.63 2.38 2.38 0 0 1-.63-1.736v-3.682h-2.128v-1.652h2.128v-2.17h1.82v2.17h3.066v1.652h-3.066v3.64q0 .336.182.546t.518.21h2.296v1.652Zm7.63.126a4.2 4.2 0 0 1-1.722-.378 2.8 2.8 0 0 1-1.134-1.064 3.2 3.2 0 0 1-.392-1.638v-1.792a3.2 3.2 0 0 1 .392-1.638 2.8 2.8 0 0 1 1.134-1.064 4.2 4.2 0 0 1 1.722-.378 3.64 3.64 0 0 1 1.722.378c.47.24.864.61 1.134 1.064a3.2 3.2 0 0 1 .392 1.638v1.792a3.2 3.2 0 0 1-.392 1.638 2.8 2.8 0 0 1-1.134 1.064 3.64 3.64 0 0 1-1.722.378m0-1.582q.7 0 1.05-.378.378-.378.378-1.064v-1.904q0-.7-.378-1.064-.365-.378-1.05-.378a1.4 1.4 0 0 0-1.05.378q-.378.364-.378 1.064v1.904q0 .7.378 1.064a1.4 1.4 0 0 0 1.05.378m5.306 1.456v-10.22h1.834v5.516h1.19l1.792-2.996h2.03l-2.254 3.738 2.324 3.962h-2.058l-1.834-3.15h-1.19v3.15Zm11.508.14a4.2 4.2 0 0 1-1.722-.378 2.8 2.8 0 0 1-1.148-1.078 3.2 3.2 0 0 1-.392-1.624v-1.82q0-.938.392-1.624a2.8 2.8 0 0 1 1.148-1.078 4.2 4.2 0 0 1 1.722-.378q.98 0 1.708.378c.47.24.864.61 1.134 1.064a2.8 2.8 0 0 1 .392 1.596v1.4h-4.746v.504q0 .77.392 1.162a1.4 1.4 0 0 0 1.12.392 2.8 2.8 0 0 0 .896-.182q.378-.195.448-.532h1.806a2.52 2.52 0 0 1-1.064 1.596 3.5 3.5 0 0 1-2.086.602m1.484-4.564v-.406a1.82 1.82 0 0 0-.378-1.204q-.378-.42-1.106-.42t-1.134.434a1.82 1.82 0 0 0-.378 1.218v.252l3.122-.028Zm3.738 4.424v-7.7h1.792v1.47h.49l-.546.42a1.96 1.96 0 0 1 .588-1.47 2.1 2.1 0 0 1 1.526-.56q1.12 0 1.82.756a3.08 3.08 0 0 1 .686 2.044v5.04h-1.834v-4.83q0-.7-.35-1.064a1.4 1.4 0 0 0-.98-.378q-.63 0-.994.392a1.4 1.4 0 0 0-.364 1.078v4.802Zm-248.374 15 2.562-10.22h2.338l2.576 10.22h-1.862l-.546-2.436h-2.646l-.56 2.436Zm2.73-3.92h2.002l-.588-2.688-.252-1.204-.154-.798-.154.798-.252 1.19Zm9.408 4.06a3.22 3.22 0 0 1-2.338-.826 3.08 3.08 0 0 1-.854-2.24v-4.774h1.834v4.76q0 .714.35 1.092a1.4 1.4 0 0 0 1.008.406q.63 0 .994-.406a1.4 1.4 0 0 0 .364-1.092v-4.76h1.834v4.774a2.94 2.94 0 0 1-.868 2.24 3.22 3.22 0 0 1-2.324.826m9.17-.14a2.38 2.38 0 0 1-1.75-.63 2.38 2.38 0 0 1-.63-1.736v-3.682h-2.128v-1.652h2.128v-2.17h1.82v2.17h3.066v1.652h-3.066v3.64q0 .336.182.546t.518.21h2.296v1.652Zm4.466 0v-10.22h1.834v2.52l-.042 1.47h.49l-.546.42a1.96 1.96 0 0 1 .588-1.47 2.1 2.1 0 0 1 1.526-.56q1.12 0 1.82.756a3.08 3.08 0 0 1 .686 2.044v5.04h-1.834v-4.83q0-.7-.35-1.064a1.4 1.4 0 0 0-.98-.378q-.63 0-.994.392a1.4 1.4 0 0 0-.364 1.078v4.802Zm11.564.126a4.2 4.2 0 0 1-1.722-.378 2.8 2.8 0 0 1-1.134-1.064 3.2 3.2 0 0 1-.392-1.638v-1.792a3.2 3.2 0 0 1 .392-1.638 2.8 2.8 0 0 1 1.134-1.064 4.2 4.2 0 0 1 1.722-.378 3.64 3.64 0 0 1 1.722.378c.47.24.864.61 1.134 1.064a3.2 3.2 0 0 1 .392 1.638v1.792a3.2 3.2 0 0 1-.392 1.638 2.8 2.8 0 0 1-1.134 1.064 3.64 3.64 0 0 1-1.722.378m0-1.582q.7 0 1.05-.378.378-.378.378-1.064v-1.904q0-.7-.378-1.064-.365-.378-1.05-.378a1.4 1.4 0 0 0-1.05.378q-.378.364-.378 1.064v1.904q0 .7.378 1.064a1.4 1.4 0 0 0 1.05.378m5.516 1.456v-7.7h1.792v1.568h.49l-.546.434a2.1 2.1 0 0 1 .588-1.568 2.24 2.24 0 0 1 1.596-.574q1.176 0 1.834.77a3.08 3.08 0 0 1 .658 2.114v.742h-1.834v-.644q0-.686-.35-1.036a1.4 1.4 0 0 0-1.008-.364 1.4 1.4 0 0 0-1.022.406 1.68 1.68 0 0 0-.364 1.162v4.69Zm8.134 0v-1.652h2.604v-4.396h-2.324v-1.652h4.158v6.048h2.324v1.652Zm3.402-8.974a1.4 1.4 0 0 1-.854-.266.98.98 0 0 1-.322-.756q0-.49.322-.756a1.4 1.4 0 0 1 .854-.28q.533 0 .854.28a.98.98 0 0 1 .322.756.98.98 0 0 1-.322.756 1.4 1.4 0 0 1-.854.266m5.012 8.974v-1.638l3.976-4.466h-3.836v-1.596h5.978v1.638l-4.004 4.466h4.158v1.596Zm10.64.14a2.52 2.52 0 0 1-1.834-.672 2.24 2.24 0 0 1-.686-1.736q0-.756.364-1.316a2.4 2.4 0 0 1 1.008-.854 4.2 4.2 0 0 1 1.582-.294h1.792v-.532a1.12 1.12 0 0 0-.336-.826 1.4 1.4 0 0 0-.98-.28 1.8 1.8 0 0 0-.952.224.84.84 0 0 0-.392.658h-1.75a2.24 2.24 0 0 1 .882-1.708 3.5 3.5 0 0 1 2.226-.644q1.485 0 2.31.686a2.38 2.38 0 0 1 .826 1.932v5.222h-1.778v-1.484h-.294l.308-.238q0 .56-.28.98a1.8 1.8 0 0 1-.784.658 2.8 2.8 0 0 1-1.232.224m.602-1.484a1.82 1.82 0 0 0 1.19-.364 1.4 1.4 0 0 0 .434-.98v-.882h-1.722a1.4 1.4 0 0 0-.91.308c-.21.212-.325.5-.322.798q0 .504.35.812t.98.308m9.464 1.344a2.38 2.38 0 0 1-1.75-.63 2.38 2.38 0 0 1-.63-1.736v-3.682h-2.128v-1.652h2.128v-2.17h1.82v2.17h3.066v1.652h-3.066v3.64q0 .336.182.546t.518.21h2.296v1.652Zm4.48 0v-1.652h2.604v-4.396h-2.324v-1.652h4.158v6.048h2.324v1.652Zm3.402-8.974a1.4 1.4 0 0 1-.854-.266.98.98 0 0 1-.322-.756q0-.49.322-.756a1.4 1.4 0 0 1 .854-.28q.533 0 .854.28a.98.98 0 0 1 .322.756.98.98 0 0 1-.322.756 1.4 1.4 0 0 1-.854.266m8.148 9.1a4.2 4.2 0 0 1-1.722-.378 2.8 2.8 0 0 1-1.134-1.064 3.2 3.2 0 0 1-.392-1.638v-1.792a3.2 3.2 0 0 1 .392-1.638 2.8 2.8 0 0 1 1.134-1.064 4.2 4.2 0 0 1 1.722-.378 3.64 3.64 0 0 1 1.722.378c.47.24.864.61 1.134 1.064a3.2 3.2 0 0 1 .392 1.638v1.792a3.2 3.2 0 0 1-.392 1.638 2.8 2.8 0 0 1-1.134 1.064 3.64 3.64 0 0 1-1.722.378m0-1.582q.7 0 1.05-.378.378-.378.378-1.064v-1.904q0-.7-.378-1.064-.365-.378-1.05-.378a1.4 1.4 0 0 0-1.05.378q-.378.364-.378 1.064v1.904q0 .7.378 1.064a1.4 1.4 0 0 0 1.05.378m5.236 1.456v-7.7h1.792v1.47h.49l-.546.42a1.96 1.96 0 0 1 .588-1.47 2.1 2.1 0 0 1 1.526-.56q1.12 0 1.82.756a3.08 3.08 0 0 1 .686 2.044v5.04h-1.834v-4.83q0-.7-.35-1.064a1.4 1.4 0 0 0-.98-.378q-.63 0-.994.392a1.4 1.4 0 0 0-.364 1.078v4.802Zm11.564-5.46a1.4 1.4 0 0 1-.966-.336 1.12 1.12 0 0 1-.35-.854q0-.56.35-.868a1.4 1.4 0 0 1 .966-.322 1.4 1.4 0 0 1 .966.322c.238.224.366.541.35.868a1.12 1.12 0 0 1-.35.854 1.4 1.4 0 0 1-.966.336m0 5.6a1.4 1.4 0 0 1-.966-.322 1.12 1.12 0 0 1-.35-.868 1.12 1.12 0 0 1 .35-.868 1.4 1.4 0 0 1 .966-.322 1.4 1.4 0 0 1 .966.322c.238.224.366.541.35.868a1.12 1.12 0 0 1-.35.868 1.4 1.4 0 0 1-.966.322m13.65-.14v-10.22h3.164a4.2 4.2 0 0 1 1.722.322 2.8 2.8 0 0 1 1.134.924c.276.409.417.893.406 1.386a2.24 2.24 0 0 1-.826 1.778 1.96 1.96 0 0 1-.91.392v.028a2.24 2.24 0 0 1 1.722 1.288c.17.373.256.78.252 1.19a2.8 2.8 0 0 1-1.582 2.548 4.2 4.2 0 0 1-1.764.364Zm1.764-1.512h1.456q.756 0 1.176-.392a1.4 1.4 0 0 0 .434-1.106q0-.7-.434-1.12a1.54 1.54 0 0 0-1.176-.42h-1.456Zm0-4.508h1.372a1.4 1.4 0 0 0 1.064-.364 1.4 1.4 0 0 0 .392-.994 1.4 1.4 0 0 0-.392-.98q-.378-.35-1.064-.35h-1.372Zm8.89 6.16a2.52 2.52 0 0 1-1.834-.672 2.24 2.24 0 0 1-.686-1.736q0-.756.364-1.316a2.4 2.4 0 0 1 1.008-.854 4.2 4.2 0 0 1 1.582-.294h1.792v-.532a1.12 1.12 0 0 0-.336-.826 1.4 1.4 0 0 0-.98-.28 1.8 1.8 0 0 0-.952.224.84.84 0 0 0-.392.658h-1.75a2.24 2.24 0 0 1 .882-1.708 3.5 3.5 0 0 1 2.226-.644q1.485 0 2.31.686a2.38 2.38 0 0 1 .826 1.932v5.222h-1.778v-1.484h-.294l.308-.238q0 .56-.28.98a1.8 1.8 0 0 1-.784.658 2.8 2.8 0 0 1-1.232.224m.602-1.484a1.82 1.82 0 0 0 1.19-.364 1.4 1.4 0 0 0 .434-.98v-.882h-1.722a1.4 1.4 0 0 0-.91.308c-.21.212-.325.5-.322.798q0 .504.35.812t.98.308m8.372 1.47a4.2 4.2 0 0 1-1.596-.28 2.8 2.8 0 0 1-1.05-.812 2.1 2.1 0 0 1-.378-1.232h1.806q0 .449.322.672a1.4 1.4 0 0 0 .896.224h.616q.615 0 .952-.238a.7.7 0 0 0 .336-.658q0-.392-.238-.602a1.4 1.4 0 0 0-.742-.252l-1.876-.238a2.24 2.24 0 0 1-1.456-.728 2.24 2.24 0 0 1-.518-1.54q0-1.12.742-1.694a3.5 3.5 0 0 1 2.128-.574h.644q1.316 0 2.114.588c.513.364.82.953.826 1.582H538.9a.7.7 0 0 0-.308-.56 1.4 1.4 0 0 0-.826-.21h-.644a1.4 1.4 0 0 0-.826.224.7.7 0 0 0-.28.588q0 .35.224.504a1.4 1.4 0 0 0 .644.21l1.778.224a2.52 2.52 0 0 1 1.638.784q.546.63.546 1.68a2.1 2.1 0 0 1-.784 1.722q-.77.63-2.268.616Zm5.572-.126v-1.652h2.604v-4.396h-2.324v-1.652h4.158v6.048h2.324v1.652Zm3.402-8.974a1.4 1.4 0 0 1-.854-.266.98.98 0 0 1-.322-.756q0-.49.322-.756a1.4 1.4 0 0 1 .854-.28q.533 0 .854.28a.98.98 0 0 1 .322.756.98.98 0 0 1-.322.756 1.4 1.4 0 0 1-.854.266m8.274 9.114a4.2 4.2 0 0 1-1.736-.378 2.8 2.8 0 0 1-1.162-1.05 3.2 3.2 0 0 1-.406-1.61v-1.904a2.8 2.8 0 0 1 .406-1.61 2.8 2.8 0 0 1 1.162-1.05 4.2 4.2 0 0 1 1.736-.378q1.456 0 2.338.756a2.8 2.8 0 0 1 .938 2.044h-1.792a1.4 1.4 0 0 0-.448-.882 1.4 1.4 0 0 0-1.036-.322 1.4 1.4 0 0 0-1.092.364q-.378.378-.378 1.064v1.918q0 .7.378 1.064a1.4 1.4 0 0 0 1.092.378q.63 0 1.036-.308a1.4 1.4 0 0 0 .448-.896h1.792a2.8 2.8 0 0 1-.938 2.044 3.5 3.5 0 0 1-2.338.756m17.402 0a2.1 2.1 0 0 1-1.638-.672 2.8 2.8 0 0 1-.602-1.834l.546.798h-.406v1.568h-1.792v-10.22h1.834v2.142l-.056 1.946h.42l-.56.798q0-1.176.616-1.834a2.1 2.1 0 0 1 1.638-.672q1.148 0 1.82.798a3.22 3.22 0 0 1 .686 2.17v2.058a3.22 3.22 0 0 1-.686 2.156 2.24 2.24 0 0 1-1.82.798m-.686-1.582a1.4 1.4 0 0 0 1.008-.364q.364-.35.364-1.064v-1.96q0-.714-.364-1.078-.365-.35-1.008-.35-.644 0-1.008.392a1.4 1.4 0 0 0-.364 1.106v1.82q0 .7.364 1.106.365.405 1.008.392m7.462 1.582a2.52 2.52 0 0 1-1.834-.672 2.24 2.24 0 0 1-.686-1.736q0-.756.364-1.316a2.4 2.4 0 0 1 1.008-.854 4.2 4.2 0 0 1 1.582-.294h1.792v-.532a1.12 1.12 0 0 0-.336-.826 1.4 1.4 0 0 0-.98-.28 1.8 1.8 0 0 0-.952.224.84.84 0 0 0-.392.658h-1.75a2.24 2.24 0 0 1 .882-1.708 3.5 3.5 0 0 1 2.226-.644q1.485 0 2.31.686a2.38 2.38 0 0 1 .826 1.932v5.222h-1.778v-1.484h-.294l.308-.238q0 .56-.28.98a1.8 1.8 0 0 1-.784.658 2.8 2.8 0 0 1-1.232.224m.602-1.484a1.82 1.82 0 0 0 1.19-.364 1.4 1.4 0 0 0 .434-.98v-.882h-1.722a1.4 1.4 0 0 0-.91.308c-.21.212-.325.5-.322.798q0 .504.35.812t.98.308m8.372 1.47a4.2 4.2 0 0 1-1.596-.28 2.8 2.8 0 0 1-1.05-.812 2.1 2.1 0 0 1-.378-1.232h1.806q0 .449.322.672a1.4 1.4 0 0 0 .896.224h.616q.615 0 .952-.238a.7.7 0 0 0 .336-.658q0-.392-.238-.602a1.4 1.4 0 0 0-.742-.252l-1.876-.238a2.24 2.24 0 0 1-1.456-.728 2.24 2.24 0 0 1-.518-1.54q0-1.12.742-1.694a3.5 3.5 0 0 1 2.128-.574h.644q1.316 0 2.114.588c.513.364.82.953.826 1.582H589.3a.7.7 0 0 0-.308-.56 1.4 1.4 0 0 0-.826-.21h-.644a1.4 1.4 0 0 0-.826.224.7.7 0 0 0-.28.588q0 .35.224.504a1.4 1.4 0 0 0 .644.21l1.778.224a2.52 2.52 0 0 1 1.638.784q.546.63.546 1.68a2.1 2.1 0 0 1-.784 1.722q-.77.63-2.268.616Zm8.736.014a4.2 4.2 0 0 1-1.722-.378 2.8 2.8 0 0 1-1.148-1.078 3.2 3.2 0 0 1-.392-1.624v-1.82q0-.938.392-1.624a2.8 2.8 0 0 1 1.148-1.078 4.2 4.2 0 0 1 1.722-.378q.98 0 1.708.378c.47.24.864.61 1.134 1.064a2.8 2.8 0 0 1 .392 1.596v1.4h-4.746v.504q0 .77.392 1.162a1.4 1.4 0 0 0 1.12.392 2.8 2.8 0 0 0 .896-.182q.378-.195.448-.532h1.806a2.52 2.52 0 0 1-1.064 1.596 3.5 3.5 0 0 1-2.086.602m1.484-4.564v-.406a1.82 1.82 0 0 0-.378-1.204q-.377-.42-1.106-.42-.727 0-1.134.434a1.82 1.82 0 0 0-.378 1.218v.252l3.122-.028Zm6.902 4.564a4.2 4.2 0 0 1-1.834-.42 2.8 2.8 0 0 1-1.218-1.19 3.5 3.5 0 0 1-.434-1.792q0-.616.266-1.386a8.4 8.4 0 0 1 .714-1.596l2.184-3.976h2.072l-2.646 4.522.07.042a1.4 1.4 0 0 1 .616-.49 2.8 2.8 0 0 1 2.38.21 2.8 2.8 0 0 1 .966 1.092 3.5 3.5 0 0 1 .35 1.652q0 1.008-.434 1.764a2.8 2.8 0 0 1-1.204 1.162 4.2 4.2 0 0 1-1.848.406m0-1.54a1.8 1.8 0 0 0 .896-.224 1.4 1.4 0 0 0 .588-.616 1.96 1.96 0 0 0 .21-.924 2.1 2.1 0 0 0-.21-.952 1.4 1.4 0 0 0-.588-.616 1.96 1.96 0 0 0-1.792 0 1.4 1.4 0 0 0-.588.616 2.1 2.1 0 0 0-.21.952c-.007.32.065.638.21.924q.21.405.588.616.392.224.896.224m9.52 1.4v-1.988h-4.508v-2.618l3.78-5.614h2.016l-4.06 6.09v.532h2.772v-2.282h1.82v5.88Zm9.87 1.68a5.88 5.88 0 0 1-3.304-1.932 5.6 5.6 0 0 1-1.176-3.542v-2.506q0-2.1 1.176-3.528a5.88 5.88 0 0 1 3.304-1.932v1.82a3.36 3.36 0 0 0-1.414.686 4.2 4.2 0 0 0-.924 1.26 4.2 4.2 0 0 0-.322 1.694v2.506q0 .924.322 1.666a4.2 4.2 0 0 0 .924 1.274c.41.342.894.582 1.414.7Zm8.96-2.436-6.3-2.94v-1.82l6.3-2.94v1.68l-4.018 1.834q-.477.223-.994.322a4.2 4.2 0 0 1 .994.322l4.018 1.834Zm5.25.896a3.22 3.22 0 0 1-2.338-.826 3.08 3.08 0 0 1-.854-2.24v-4.774h1.834v4.76q0 .714.35 1.092a1.4 1.4 0 0 0 1.008.406q.63 0 .994-.406a1.4 1.4 0 0 0 .364-1.092v-4.76h1.834v4.774a2.94 2.94 0 0 1-.868 2.24 3.22 3.22 0 0 1-2.324.826m8.078-.014a4.2 4.2 0 0 1-1.596-.28 2.8 2.8 0 0 1-1.05-.812 2.1 2.1 0 0 1-.378-1.232h1.806q0 .449.322.672a1.4 1.4 0 0 0 .896.224h.616q.615 0 .952-.238a.7.7 0 0 0 .336-.658q0-.392-.238-.602a1.4 1.4 0 0 0-.742-.252l-1.876-.238a2.24 2.24 0 0 1-1.456-.728 2.24 2.24 0 0 1-.518-1.54q0-1.12.742-1.694a3.5 3.5 0 0 1 2.128-.574h.644q1.316 0 2.114.588c.513.364.82.953.826 1.582H648.1a.7.7 0 0 0-.308-.56 1.4 1.4 0 0 0-.826-.21h-.644a1.4 1.4 0 0 0-.826.224.7.7 0 0 0-.28.588q0 .35.224.504a1.4 1.4 0 0 0 .644.21l1.778.224a2.52 2.52 0 0 1 1.638.784q.546.63.546 1.68a2.1 2.1 0 0 1-.784 1.722q-.77.63-2.268.616Zm8.736.014a4.2 4.2 0 0 1-1.722-.378 2.8 2.8 0 0 1-1.148-1.078 3.2 3.2 0 0 1-.392-1.624v-1.82q0-.938.392-1.624a2.8 2.8 0 0 1 1.148-1.078 4.2 4.2 0 0 1 1.722-.378q.98 0 1.708.378c.47.24.864.61 1.134 1.064a2.8 2.8 0 0 1 .392 1.596v1.4h-4.746v.504q0 .77.392 1.162a1.4 1.4 0 0 0 1.12.392 2.8 2.8 0 0 0 .896-.182q.378-.195.448-.532h1.806a2.52 2.52 0 0 1-1.064 1.596 3.5 3.5 0 0 1-2.086.602m1.484-4.564v-.406a1.82 1.82 0 0 0-.378-1.204q-.378-.42-1.106-.42t-1.134.434a1.82 1.82 0 0 0-.378 1.218v.252l3.122-.028Zm4.018 4.424v-7.7h1.792v1.568h.49l-.546.434a2.1 2.1 0 0 1 .588-1.568 2.24 2.24 0 0 1 1.596-.574q1.176 0 1.834.77a3.08 3.08 0 0 1 .658 2.114v.742h-1.834v-.644q0-.686-.35-1.036a1.4 1.4 0 0 0-1.008-.364 1.4 1.4 0 0 0-1.022.406 1.68 1.68 0 0 0-.364 1.162v4.69Zm8.12 0v-7.7h1.792v1.47h.49l-.546.42a1.96 1.96 0 0 1 .588-1.47 2.1 2.1 0 0 1 1.526-.56q1.12 0 1.82.756a3.08 3.08 0 0 1 .686 2.044v5.04h-1.834v-4.83q0-.7-.35-1.064a1.4 1.4 0 0 0-.98-.378q-.63 0-.994.392a1.4 1.4 0 0 0-.364 1.078v4.802Zm10.668.14a2.52 2.52 0 0 1-1.834-.672 2.24 2.24 0 0 1-.686-1.736q0-.756.364-1.316a2.4 2.4 0 0 1 1.008-.854 4.2 4.2 0 0 1 1.582-.294h1.792v-.532a1.12 1.12 0 0 0-.336-.826 1.4 1.4 0 0 0-.98-.28 1.8 1.8 0 0 0-.952.224.84.84 0 0 0-.392.658h-1.75a2.24 2.24 0 0 1 .882-1.708 3.5 3.5 0 0 1 2.226-.644q1.485 0 2.31.686a2.38 2.38 0 0 1 .826 1.932v5.222h-1.778v-1.484h-.294l.308-.238q0 .56-.28.98a1.8 1.8 0 0 1-.784.658 2.8 2.8 0 0 1-1.232.224m.602-1.484a1.82 1.82 0 0 0 1.19-.364 1.4 1.4 0 0 0 .434-.98v-.882h-1.722a1.4 1.4 0 0 0-.91.308c-.21.212-.325.5-.322.798q0 .504.35.812t.98.308m5.124 1.344v-7.7h1.526v1.134h.28l-.266.182q0-.645.35-1.05a1.4 1.4 0 0 1 .952-.406q.601 0 1.008.476c.27.358.408.798.392 1.246l-.322-.476h.462l-.196.21a1.4 1.4 0 0 1 .364-1.064 1.4 1.4 0 0 1 .966-.392q.7 0 1.162.546t.462 1.428v5.866h-1.61v-5.712q0-.364-.154-.574a.56.56 0 0 0-.476-.21.52.52 0 0 0-.448.21 1.4 1.4 0 0 0-.154.56v5.726h-1.456v-5.712a1 1 0 0 0-.154-.574q-.14-.21-.448-.21a.56.56 0 0 0-.476.21q-.168.195-.154.56v5.726Zm11.984.14a4.2 4.2 0 0 1-1.722-.378 2.8 2.8 0 0 1-1.148-1.078 3.2 3.2 0 0 1-.392-1.624v-1.82q0-.938.392-1.624a2.8 2.8 0 0 1 1.148-1.078 4.2 4.2 0 0 1 1.722-.378q.98 0 1.708.378c.47.24.864.61 1.134 1.064a2.8 2.8 0 0 1 .392 1.596v1.4h-4.746v.504q0 .77.392 1.162a1.4 1.4 0 0 0 1.12.392 2.8 2.8 0 0 0 .896-.182q.378-.195.448-.532h1.806a2.52 2.52 0 0 1-1.064 1.596 3.5 3.5 0 0 1-2.086.602m1.484-4.564v-.406a1.82 1.82 0 0 0-.378-1.204q-.378-.42-1.106-.42t-1.134.434a1.82 1.82 0 0 0-.378 1.218v.252l3.122-.028Zm3.752 3.668v-1.68l4.018-1.834.56-.224.434-.112-.448-.112-.546-.196-4.018-1.848v-1.694l6.3 2.94v1.806Zm11.55-4.704a1.4 1.4 0 0 1-.966-.336 1.12 1.12 0 0 1-.35-.854q0-.56.35-.868a1.4 1.4 0 0 1 .966-.322 1.4 1.4 0 0 1 .966.322c.238.224.366.541.35.868a1.12 1.12 0 0 1-.35.854 1.4 1.4 0 0 1-.966.336m0 5.6a1.4 1.4 0 0 1-.966-.322 1.12 1.12 0 0 1-.35-.868 1.12 1.12 0 0 1 .35-.868 1.4 1.4 0 0 1 .966-.322 1.4 1.4 0 0 1 .966.322c.238.224.366.541.35.868a1.12 1.12 0 0 1-.35.868 1.4 1.4 0 0 1-.966.322m11.55-.896-6.3-2.94v-1.82l6.3-2.94v1.68l-4.018 1.834q-.477.223-.994.322a4.2 4.2 0 0 1 .994.322l4.018 1.834Zm2.086 3.276v-10.22h1.792v1.568h.406l-.546.798q0-1.148.602-1.834a2.1 2.1 0 0 1 1.638-.672q.756 0 1.316.378a2.8 2.8 0 0 1 .882 1.022 4.2 4.2 0 0 1 .308 1.554v2.058a4.2 4.2 0 0 1-.308 1.554 2.38 2.38 0 0 1-2.198 1.414 2.1 2.1 0 0 1-1.624-.672 2.8 2.8 0 0 1-.616-1.834l.546.812h-.42l.056 1.932v2.142Zm3.206-3.962a1.4 1.4 0 0 0 1.008-.364q.364-.35.364-1.064v-1.96q0-.714-.364-1.078-.365-.35-1.008-.35-.644 0-1.008.392a1.4 1.4 0 0 0-.364 1.106v1.82q0 .7.364 1.106.364.405 1.008.392m7.462 1.582a2.52 2.52 0 0 1-1.834-.672 2.24 2.24 0 0 1-.686-1.736q0-.756.364-1.316a2.4 2.4 0 0 1 1.008-.854 4.2 4.2 0 0 1 1.582-.294h1.792v-.532a1.12 1.12 0 0 0-.336-.826 1.4 1.4 0 0 0-.98-.28 1.8 1.8 0 0 0-.952.224.84.84 0 0 0-.392.658h-1.75a2.24 2.24 0 0 1 .882-1.708 3.5 3.5 0 0 1 2.226-.644q1.485 0 2.31.686a2.38 2.38 0 0 1 .826 1.932v5.222h-1.778v-1.484h-.294l.308-.238q0 .56-.28.98a1.8 1.8 0 0 1-.784.658 2.8 2.8 0 0 1-1.232.224m.602-1.484a1.82 1.82 0 0 0 1.19-.364 1.4 1.4 0 0 0 .434-.98v-.882h-1.722a1.4 1.4 0 0 0-.91.308c-.21.212-.325.5-.322.798q0 .504.35.812t.98.308m8.372 1.47a4.2 4.2 0 0 1-1.596-.28 2.8 2.8 0 0 1-1.05-.812 2.1 2.1 0 0 1-.378-1.232h1.806q0 .449.322.672a1.4 1.4 0 0 0 .896.224h.616q.615 0 .952-.238a.7.7 0 0 0 .336-.658q0-.392-.238-.602a1.4 1.4 0 0 0-.742-.252l-1.876-.238a2.24 2.24 0 0 1-1.456-.728 2.24 2.24 0 0 1-.518-1.54q0-1.12.742-1.694a3.5 3.5 0 0 1 2.128-.574h.644q1.316 0 2.114.588c.513.364.82.953.826 1.582H748.9a.7.7 0 0 0-.308-.56 1.4 1.4 0 0 0-.826-.21h-.644a1.4 1.4 0 0 0-.826.224.7.7 0 0 0-.28.588q0 .35.224.504a1.4 1.4 0 0 0 .644.21l1.778.224a2.52 2.52 0 0 1 1.638.784q.546.63.546 1.68a2.1 2.1 0 0 1-.784 1.722q-.77.63-2.268.616Zm8.4 0a4.2 4.2 0 0 1-1.596-.28 2.8 2.8 0 0 1-1.05-.812 2.1 2.1 0 0 1-.378-1.232h1.806q0 .449.322.672a1.4 1.4 0 0 0 .896.224h.616q.615 0 .952-.238a.7.7 0 0 0 .336-.658q0-.392-.238-.602a1.4 1.4 0 0 0-.742-.252l-1.876-.238a2.24 2.24 0 0 1-1.456-.728 2.24 2.24 0 0 1-.518-1.54q0-1.12.742-1.694a3.5 3.5 0 0 1 2.128-.574h.644q1.316 0 2.114.588c.513.364.82.953.826 1.582H757.3a.7.7 0 0 0-.308-.56 1.4 1.4 0 0 0-.826-.21h-.644a1.4 1.4 0 0 0-.826.224.7.7 0 0 0-.28.588q0 .35.224.504a1.4 1.4 0 0 0 .644.21l1.778.224a2.52 2.52 0 0 1 1.638.784q.546.63.546 1.68a2.1 2.1 0 0 1-.784 1.722q-.77.63-2.268.616Zm5.908-.126-1.204-7.7h1.442l.672 4.606.098.98.07.882.07-.882.112-.98.826-4.606h1.484l.798 4.606.126.98.084.882.056-.882.112-.98.686-4.606h1.4l-1.232 7.7h-1.862l-.714-4.662-.112-.924-.098-.84-.042.532-.084.644-.084.588-.728 4.662Zm11.214.126a4.2 4.2 0 0 1-1.722-.378 2.8 2.8 0 0 1-1.134-1.064 3.2 3.2 0 0 1-.392-1.638v-1.792a3.2 3.2 0 0 1 .392-1.638 2.8 2.8 0 0 1 1.134-1.064 4.2 4.2 0 0 1 1.722-.378 3.64 3.64 0 0 1 1.722.378c.47.24.864.61 1.134 1.064a3.2 3.2 0 0 1 .392 1.638v1.792a3.2 3.2 0 0 1-.392 1.638 2.8 2.8 0 0 1-1.134 1.064 3.64 3.64 0 0 1-1.722.378m0-1.582q.7 0 1.05-.378.378-.378.378-1.064v-1.904q0-.7-.378-1.064-.365-.378-1.05-.378a1.4 1.4 0 0 0-1.05.378q-.378.364-.378 1.064v1.904q0 .7.378 1.064a1.4 1.4 0 0 0 1.05.378m5.516 1.456v-7.7h1.792v1.568h.49l-.546.434a2.1 2.1 0 0 1 .588-1.568 2.24 2.24 0 0 1 1.596-.574q1.176 0 1.834.77a3.08 3.08 0 0 1 .658 2.114v.742h-1.834v-.644q0-.686-.35-1.036a1.4 1.4 0 0 0-1.008-.364 1.4 1.4 0 0 0-1.022.406 1.68 1.68 0 0 0-.364 1.162v4.69Zm10.556.14a2.24 2.24 0 0 1-1.82-.798 3.22 3.22 0 0 1-.686-2.156v-2.058a3.22 3.22 0 0 1 .686-2.17 2.24 2.24 0 0 1 1.82-.798 2.1 2.1 0 0 1 1.638.672 2.8 2.8 0 0 1 .616 1.834l-.56-.798h.42l-.056-1.946v-2.142h1.834v10.22h-1.792v-1.568h-.406l.546-.798a2.8 2.8 0 0 1-.602 1.834 2.1 2.1 0 0 1-1.638.672m.686-1.582q.644 0 1.008-.392.378-.392.364-1.106v-1.82q0-.7-.364-1.106-.364-.405-1.008-.392-.644 0-1.008.35t-.364 1.078v1.96q0 .7.364 1.064a1.4 1.4 0 0 0 1.008.364m5.292.686v-1.68l4.018-1.834.56-.224.434-.112-.448-.112-.546-.196-4.018-1.848v-1.694l6.3 2.94v1.806Zm8.96 2.436v-1.834a3.22 3.22 0 0 0 2.338-1.974 4.2 4.2 0 0 0 .322-1.666v-2.506a4.2 4.2 0 0 0-.322-1.694 3.22 3.22 0 0 0-2.338-1.946v-1.82a5.88 5.88 0 0 1 3.318 1.932 5.6 5.6 0 0 1 1.162 3.528v2.506q0 2.1-1.162 3.542a5.88 5.88 0 0 1-3.318 1.932"/><path stroke="#e52926" d="m300.5 270 9-6v12Zm376.5.003 222.5-.006m-590 0 214.5.006"/><path fill="#e52926" d="M538.616 275.11v-1.994h-4.506v-2.617l3.78-5.609h2.024l-4.071 6.095v.529h2.773v-2.284h1.828v5.88Zm7.284.14q-.995 0-1.731-.38a2.75 2.75 0 0 1-1.136-1.068q-.402-.688-.402-1.609v-4.386q0-.924.401-1.611a2.74 2.74 0 0 1 1.136-1.067q.735-.38 1.731-.379 1.01 0 1.738.379.729.38 1.131 1.067.4.687.401 1.611v4.386q0 .92-.402 1.609a2.75 2.75 0 0 1-1.132 1.068q-.73.38-1.735.38m.005-1.579q.712 0 1.129-.402.416-.402.416-1.076v-4.386q0-.674-.416-1.076-.417-.402-1.134-.402t-1.134.402-.416 1.076v4.386q0 .674.421 1.076.42.402 1.134.402m-.002-2.816q-.418 0-.678-.234-.26-.232-.26-.666 0-.417.258-.642.258-.224.68-.224t.677.224q.255.225.255.642 0 .433-.257.666-.255.234-.675.234m5.362 4.255v-1.649h2.64v-6.779l-2.659 1.939v-2.037l2.367-1.694h2.119v8.571h2.117v1.649Zm19.835.14q-1.513 0-2.368-.824-.856-.826-.856-2.248v-7.288h1.828v7.278q0 .708.356 1.098t1.04.391q.67 0 1.033-.391.363-.39.363-1.098v-7.278h1.828v7.288q0 1.419-.853 2.245-.853.825-2.371.827m5.242-.14v-7.7h1.78v1.47h.503l-.55.426q.009-.929.588-1.482.58-.554 1.527-.554 1.133 0 1.815.761.681.762.681 2.041v5.038h-1.828v-4.824q0-.692-.355-1.067-.357-.375-.98-.374-.633 0-.993.381-.36.382-.36 1.078v4.806Zm10.669.14q-1.162 0-1.843-.665-.681-.664-.681-1.743 0-.762.355-1.312a2.3 2.3 0 0 1 1.019-.852q.663-.3 1.576-.301h1.793v-.526q0-.538-.335-.825-.334-.286-.981-.286-.596 0-.954.228a.8.8 0 0 0-.386.657h-1.752a2.2 2.2 0 0 1 .88-1.708q.83-.647 2.231-.647 1.485 0 2.305.691.82.69.82 1.933v5.216h-1.776v-1.485h-.295l.319-.242q0 .57-.28.989a1.8 1.8 0 0 1-.793.649q-.514.23-1.222.229m.601-1.48q.744 0 1.181-.368.438-.367.437-.976v-.88h-1.719q-.579 0-.907.305t-.328.798q0 .502.351.811.35.31.985.31m8.683 1.48q-1.48 0-2.331-.824-.85-.826-.85-2.248v-4.768h1.828v4.758q0 .708.353 1.101.355.393 1 .393.643 0 1.003-.393t.36-1.101v-4.758h1.828v4.768q0 1.433-.859 2.253-.86.819-2.332.819m9.175-.14q-1.104 0-1.744-.633-.64-.635-.64-1.728v-3.69h-2.117v-1.649h2.117v-2.17h1.828v2.17h3.055v1.649h-3.055v3.643q0 .335.183.547.184.212.515.212h2.287v1.649Zm4.472 0v-10.22h1.828v2.52l-.048 1.47h.503l-.55.426q.009-.93.588-1.482.58-.554 1.527-.554 1.133 0 1.815.761.681.762.681 2.041v5.038h-1.828v-4.828q0-.688-.355-1.063-.356-.375-.98-.374-.633 0-.993.381-.36.382-.36 1.078v4.806Zm11.558.131q-.99 0-1.721-.378a2.7 2.7 0 0 1-1.131-1.071q-.399-.693-.399-1.631v-1.802q0-.942.399-1.633.4-.69 1.131-1.069.73-.378 1.721-.378 1.005 0 1.728.378t1.124 1.069q.399.69.399 1.633v1.802q0 .938-.399 1.631a2.7 2.7 0 0 1-1.126 1.071q-.726.378-1.726.378m0-1.593q.684 0 1.054-.372t.37-1.07v-1.892q0-.708-.37-1.075t-1.054-.367q-.67 0-1.047.367t-.377 1.075v1.892q0 .698.377 1.07.376.372 1.047.372m5.522 1.462v-7.7h1.78v1.564h.503l-.55.441q0-.99.586-1.568.585-.577 1.595-.577 1.175 0 1.831.764.656.763.656 2.122v.733h-1.828v-.639q0-.684-.354-1.04-.353-.356-1.01-.356-.664 0-1.023.405-.36.405-.358 1.159v4.692Zm8.128 0v-1.652h2.604v-4.396h-2.324v-1.652h4.158v6.048h2.324v1.652Zm3.402-8.974q-.533 0-.854-.273-.322-.273-.322-.749t.322-.756.854-.28.854.28.322.756-.322.749-.854.273m5.019 8.974v-1.638l3.971-4.46h-3.84v-1.602h5.973v1.638l-3.999 4.46h4.153v1.602Zm11.538.14q-.986 0-1.721-.38a2.74 2.74 0 0 1-1.137-1.074q-.402-.693-.402-1.626v-1.82q0-.938.402-1.628a2.74 2.74 0 0 1 1.137-1.072q.735-.38 1.721-.38t1.712.378q.727.38 1.128 1.06.402.683.402 1.596v1.41h-4.75v.501q0 .77.391 1.158.39.387 1.117.388.53 0 .905-.183t.444-.523h1.799q-.192.995-1.051 1.595-.86.6-2.097.6m1.49-4.56v-.404q0-.778-.375-1.204t-1.115-.426-1.124.435-.384 1.213v.251l3.124-.019Zm6.169 4.56q-1.119 0-1.812-.803t-.693-2.157v-2.056q0-1.357.69-2.161.692-.803 1.815-.803 1.038 0 1.644.669.607.67.607 1.84l-.554-.805h.422l-.057-1.939v-2.145h1.828v10.22h-1.78v-1.565h-.413l.545-.804q0 1.165-.602 1.837t-1.64.672m.685-1.584q.662 0 1.019-.39.358-.39.358-1.108v-1.816q0-.717-.358-1.108-.357-.39-1.019-.39-.646 0-1.005.351-.358.353-.358 1.077v1.956q0 .71.358 1.07.36.358 1.005.358"/><path stroke="#e52926" d="m923.5 270 9-6v12Zm98-26v10c0 8.837-7.163 16-16 16h-73m-9-100h82c8.837 0 16 7.163 16 16v16"/><path fill="#e52926" d="m987.552 219.593-3.626-10.192h2.002l1.806 5.292q.66 2.068 1.19 4.172h-.378l.616-2.352.532-1.82 1.75-5.292h1.988l-3.556 10.192Zm9.732.154a3.8 3.8 0 0 1-1.974-.49 3.2 3.2 0 0 1-1.288-1.358 4.2 4.2 0 0 1-.448-2.086q0-1.176.448-2.058a3.36 3.36 0 0 1 1.246-1.4 3.5 3.5 0 0 1 1.904-.504q.7 0 1.33.224a2.8 2.8 0 0 1 1.12.7c.34.341.603.752.77 1.204.184.56.279 1.146.28 1.736v.546h-6.258v-1.204h5.376l-.84.364a2.8 2.8 0 0 0-.196-1.134 1.4 1.4 0 0 0-.588-.77 1.7 1.7 0 0 0-.98-.266 1.68 1.68 0 0 0-.994.28 1.7 1.7 0 0 0-.63.728 2.8 2.8 0 0 0-.21 1.036v.84q0 .714.238 1.218c.147.312.387.57.686.742a2.1 2.1 0 0 0 1.036.252 1.4 1.4 0 0 0 .714-.112 1.4 1.4 0 0 0 .546-.322 1.4 1.4 0 0 0 .35-.546l1.638.336a2.8 2.8 0 0 1-1.75 1.792 4.2 4.2 0 0 1-1.526.252m4.906-.154v-7.644h1.722v1.274h.084a1.89 1.89 0 0 1 1.89-1.372l.336.014.308.028v1.638l-.35-.07-.476-.028a1.68 1.68 0 0 0-1.512.798 1.8 1.8 0 0 0-.224.868v4.494Zm5.647 0v-7.644h1.778v7.644Zm.896-8.722a.98.98 0 0 1-.728-.294.84.84 0 0 1-.308-.672q0-.42.308-.7a1.12 1.12 0 0 1 .728-.28q.42 0 .728.28a.9.9 0 0 1 .308.686.84.84 0 0 1-.308.686.98.98 0 0 1-.728.294m6.784 1.078v1.4h-4.816v-1.4Zm-3.416 7.644v-8.372q0-.77.322-1.274c.203-.331.5-.594.854-.756a2.8 2.8 0 0 1 1.19-.266q.49 0 .84.084.364.056.532.126l-.364 1.386-.28-.07-.392-.042q-.504 0-.714.252-.224.238-.224.7v8.232Zm4.77 2.73.42-1.386.21.056c.23.08.475.1.714.056a.84.84 0 0 0 .532-.28 1.4 1.4 0 0 0 .294-.658l.112-.49-2.884-7.672h1.904l1.4 4.158q.239.743.392 1.47l.35 1.498h-.462l.364-1.498q.177-.747.434-1.47l1.442-4.158h1.89l-3.29 8.624a4.2 4.2 0 0 1-.588 1.05 2.8 2.8 0 0 1-.854.658 3.64 3.64 0 0 1-2.38.042m14.718-2.59a3.36 3.36 0 0 1-2.394-.826 3.08 3.08 0 0 1-.896-2.324v-.574h1.834v.588q0 .798.392 1.218t1.064.406a1.4 1.4 0 0 0 1.064-.406q.392-.42.392-1.218v-7.196h1.82v7.182q0 1.512-.882 2.324a3.36 3.36 0 0 1-2.394.826m7.389-.14-2.758-10.192h1.96l1.33 5.432.266 1.232.224 1.302.224 1.288h-.308l.238-1.288.252-1.302.266-1.232 1.386-5.432h1.932l1.372 5.432q.324 1.255.532 2.534l.238 1.288h-.322l.224-1.288.238-1.302.266-1.232 1.316-5.432h1.974l-2.758 10.192h-2.1l-1.484-5.628-.35-1.708-.336-1.96h.434l-.322 1.904a14 14 0 0 1-.364 1.764l-1.484 5.628Zm11.748-8.652v-1.54h8.12v1.54h-3.136v8.652h-1.834v-8.652Zm-52.045 21.508c.008-.789.083-1.576.224-2.352q.238-1.246.616-2.352a9.8 9.8 0 0 1 .924-1.96h1.666a16.8 16.8 0 0 0-1.624 6.664q0 .896.168 1.806.19.991.518 1.946.378 1.05.938 2.296h-1.666a12.04 12.04 0 0 1-1.764-6.048m8.904-3.5v1.4h-4.816v-1.4Zm-3.416 7.644v-8.372q0-.77.322-1.274c.203-.331.5-.594.854-.756a2.8 2.8 0 0 1 1.19-.266q.49 0 .84.084.364.056.532.126l-.364 1.386-.28-.07-.392-.042q-.504 0-.714.252-.224.238-.224.7v8.232Zm6.73.154a2.8 2.8 0 0 1-1.316-.252 2.1 2.1 0 0 1-.91-.784 2.24 2.24 0 0 1-.336-1.274q0-.644.238-1.064c.162-.274.387-.505.658-.672a2.8 2.8 0 0 1 .938-.378l1.078-.196 1.078-.126a1.4 1.4 0 0 0 .616-.182.42.42 0 0 0 .196-.378v-.042a1.4 1.4 0 0 0-.154-.63.98.98 0 0 0-.448-.406 1.4 1.4 0 0 0-.728-.14 1.4 1.4 0 0 0-.77.14 1.4 1.4 0 0 0-.84.826l-1.638-.336a2.8 2.8 0 0 1 .7-1.12 2.8 2.8 0 0 1 1.12-.658 4.9 4.9 0 0 1 2.506-.098q.546.14 1.008.434t.742.798.28 1.274v5.11h-1.708v-1.05h-.07a2.8 2.8 0 0 1-.462.602 2.8 2.8 0 0 1-.742.434 2.8 2.8 0 0 1-1.036.168m.462-1.316c.331.007.659-.07.952-.224a1.54 1.54 0 0 0 .84-1.358v-.896l-.294.126-.462.112-.518.084-.42.056a2.8 2.8 0 0 0-.714.168 1.4 1.4 0 0 0-.504.35.84.84 0 0 0-.182.574q0 .335.168.56.168.21.462.336.294.112.672.112m5.434 1.162v-7.644h1.778v7.644Zm.896-8.722a.98.98 0 0 1-.728-.294.84.84 0 0 1-.308-.672q0-.42.308-.7a1.12 1.12 0 0 1 .728-.28q.42 0 .728.28a.9.9 0 0 1 .308.686.84.84 0 0 1-.308.686.98.98 0 0 1-.728.294m2.766-1.47h1.778v10.192h-1.778Zm7.035 10.346a3.8 3.8 0 0 1-1.974-.49 3.2 3.2 0 0 1-1.288-1.358 4.2 4.2 0 0 1-.448-2.086q0-1.176.448-2.058a3.36 3.36 0 0 1 1.246-1.4 3.5 3.5 0 0 1 1.904-.504q.7 0 1.33.224a2.8 2.8 0 0 1 1.12.7c.34.341.603.752.77 1.204a5.6 5.6 0 0 1 .28 1.736v.546h-6.258v-1.204h5.376l-.84.364a2.8 2.8 0 0 0-.196-1.134 1.4 1.4 0 0 0-.588-.77 1.7 1.7 0 0 0-.98-.266 1.68 1.68 0 0 0-.994.28 1.7 1.7 0 0 0-.63.728 2.8 2.8 0 0 0-.21 1.036v.84q0 .714.238 1.218c.147.312.387.57.686.742a2.1 2.1 0 0 0 1.036.252 1.4 1.4 0 0 0 .714-.112 1.4 1.4 0 0 0 .546-.322 1.4 1.4 0 0 0 .35-.546l1.638.336a2.8 2.8 0 0 1-1.75 1.792 4.2 4.2 0 0 1-1.526.252m7.734-.014a2.94 2.94 0 0 1-2.744-1.806 4.9 4.9 0 0 1-.42-2.142q0-1.26.42-2.156a2.8 2.8 0 0 1 1.134-1.316 2.8 2.8 0 0 1 2.716-.224q.42.21.686.532.252.336.392.588h.07v-3.808h1.778v10.192h-1.736v-1.204h-.112a2.8 2.8 0 0 1-.406.588q-.302.32-.686.532a2.8 2.8 0 0 1-1.092.224m.476-1.456a1.4 1.4 0 0 0 .98-.322 1.96 1.96 0 0 0 .616-.868c.138-.42.209-.86.21-1.302a4.2 4.2 0 0 0-.196-1.302 1.8 1.8 0 0 0-.616-.854 1.4 1.4 0 0 0-.994-.308 1.4 1.4 0 0 0-1.008.322 1.96 1.96 0 0 0-.602.868 4.2 4.2 0 0 0-.21 1.274 4.2 4.2 0 0 0 .21 1.274q.21.56.616.882a1.4 1.4 0 0 0 .994.336m5.187 3.22a21 21 0 0 0 1.456-4.27 11.2 11.2 0 0 0-.028-3.934 18.2 18.2 0 0 0-1.428-4.508h1.666c.38.617.69 1.275.924 1.96.547 1.508.832 3.1.84 4.704q0 1.54-.448 3.08a14 14 0 0 1-1.316 2.968Z"/><path stroke="#888474" d="m899.5 170-9-6v12ZM660 170l230.5-.003m-590 0L540 170"/><path fill="#888474" d="M553.861 175.25q-.995 0-1.736-.374a2.75 2.75 0 0 1-1.149-1.057q-.41-.684-.409-1.604v-4.431q0-.933.409-1.61a2.77 2.77 0 0 1 1.149-1.05q.74-.374 1.736-.374.995 0 1.728.376a2.8 2.8 0 0 1 1.14 1.051q.407.674.407 1.607h-1.828q0-.698-.381-1.067-.38-.37-1.073-.37-.692 0-1.076.37-.383.369-.383 1.063v4.436q0 .687.383 1.064.384.378 1.076.377.692 0 1.073-.377t.381-1.064v-1.098h-1.693v-1.573h3.521v2.671q0 .918-.407 1.6a2.76 2.76 0 0 1-1.14 1.058q-.734.376-1.728.376m5.35-.14v-10.22h6.163v1.602h-4.369v2.578h3.88v1.536h-3.88v2.902h4.37v1.602Zm10.475 0v-8.571h-2.658v-1.649h7.144v1.649h-2.658v8.571Zm14.328 1.54 4.875-13.16h1.897l-4.875 13.16Zm8.628.98v-10.22h1.78v1.564h.413l-.545.805q0-1.156.607-1.833.607-.675 1.635-.676.75 0 1.313.371.562.372.877 1.035t.315 1.554v2.055q0 .882-.312 1.55a2.5 2.5 0 0 1-.875 1.041q-.563.374-1.318.374-1.024 0-1.633-.679-.609-.678-.609-1.83l.545.814h-.422l.057 1.929v2.146Zm3.205-3.964q.646 0 1.005-.358.358-.36.358-1.07v-1.956q0-.725-.358-1.077-.36-.351-1.005-.351-.657 0-1.017.39t-.36 1.108v1.816q0 .717.36 1.108.36.39 1.017.39m5.475 1.444v-7.7h1.78v1.564h.503l-.55.441q0-.99.586-1.568.585-.577 1.595-.577 1.175 0 1.831.764.656.763.656 2.122v.733h-1.828v-.639q0-.684-.354-1.04-.353-.357-1.01-.356-.664 0-1.023.405-.36.405-.358 1.159v4.692Zm8.128 0v-1.652h2.604v-4.396h-2.324v-1.652h4.158v6.048h2.324v1.652Zm3.402-8.974q-.533 0-.854-.273-.322-.273-.322-.749t.322-.756.854-.28.854.28.322.756-.322.749-.854.273m7 8.974-2.58-7.7h1.907l1.453 4.603q.135.416.242.837.108.423.145.746a8 8 0 0 1 .139-.746q.098-.422.219-.827l1.434-4.613h1.917l-2.562 7.7Zm8.659.14q-1.162 0-1.843-.665t-.681-1.743q0-.762.355-1.312a2.3 2.3 0 0 1 1.019-.852q.663-.3 1.576-.301h1.793v-.526q0-.538-.335-.825-.334-.286-.981-.286-.596 0-.954.228a.8.8 0 0 0-.386.657h-1.752a2.2 2.2 0 0 1 .88-1.708q.83-.647 2.231-.647 1.485 0 2.305.691.82.69.82 1.933v5.216h-1.776v-1.485h-.295l.319-.242q0 .57-.28.989a1.8 1.8 0 0 1-.793.649q-.514.23-1.222.229m.601-1.48q.744 0 1.181-.368.438-.367.437-.977v-.879h-1.719q-.579 0-.907.305t-.328.798q0 .5.351.811.35.31.985.31m9.458 1.34q-1.104 0-1.744-.633-.64-.635-.64-1.728v-3.69h-2.117v-1.649h2.117v-2.17h1.828v2.17h3.055v1.649h-3.055v3.643q0 .335.183.547.184.212.515.212h2.287v1.649Zm7.639.14q-.985 0-1.721-.38a2.74 2.74 0 0 1-1.137-1.074q-.402-.693-.402-1.626v-1.82q0-.938.402-1.628a2.74 2.74 0 0 1 1.137-1.072q.735-.38 1.721-.38.985 0 1.712.378.727.38 1.128 1.06.402.683.402 1.596v1.41h-4.75v.501q0 .77.391 1.158.39.388 1.117.388.53 0 .905-.183t.444-.523h1.799q-.192.995-1.051 1.595-.86.6-2.097.6m1.49-4.56v-.404q0-.778-.375-1.204t-1.115-.426-1.124.435-.384 1.213v.251l3.124-.019Z"/><path stroke="#848484" d="M288.502 110c5.522 0 9.998 4.476 9.998 9.998v699.924c0 5.566-4.512 10.078-10.078 10.078h-.002c-5.479 0-9.92-4.441-9.92-9.92V120c0-5.523 4.477-10 10-10Z"/><path stroke="#848484" stroke-dasharray="8 8" d="M288.5 60v820"/><path stroke="#848484" d="M344.5 20a4 4 0 0 1 4 4v32a4 4 0 0 1-4 4h-112a4 4 0 0 1-4-4V24a4 4 0 0 1 4-4Z"/><path fill="#848484" d="M273.928 45.395q-1.338 0-2.392-.621t-1.661-1.791q-.606-1.17-.606-2.811 0-1.65.61-2.82t1.666-1.794q1.054-.622 2.383-.622.836 0 1.565.237.728.236 1.298.691t.938 1.11.492 1.489h-1.841a2.2 2.2 0 0 0-.839-1.398 2.3 2.3 0 0 0-.724-.368 2.9 2.9 0 0 0-.86-.125q-.834 0-1.481.42-.645.42-1.01 1.222-.364.803-.364 1.958 0 1.167.369 1.968.369.802 1.012 1.21.644.41 1.469.409.457 0 .859-.127.4-.126.725-.368t.543-.594a2.3 2.3 0 0 0 .306-.802h1.84a4 4 0 0 1-.446 1.37 4.05 4.05 0 0 1-2.205 1.884 4.8 4.8 0 0 1-1.646.273m5.89-10.322h1.777v10.186h-1.777Zm3.662 10.185v-7.642h1.777v7.642Zm.889-8.722q-.424 0-.728-.287a.9.9 0 0 1-.304-.684q0-.41.304-.694a1.03 1.03 0 0 1 .728-.284q.43 0 .735.284a.9.9 0 0 1 .304.687.92.92 0 0 1-.304.691 1.03 1.03 0 0 1-.735.287m6.147 8.877q-1.15 0-1.982-.484a3.24 3.24 0 0 1-1.281-1.365q-.447-.883-.447-2.08 0-1.179.442-2.07a3.35 3.35 0 0 1 1.251-1.393q.81-.501 1.9-.501.702 0 1.333.226.63.227 1.119.696.488.47.767 1.199.28.729.28 1.737v.555h-6.253v-1.207h5.366l-.83.359q0-.65-.2-1.137a1.67 1.67 0 0 0-.594-.761q-.393-.273-.978-.273t-.996.277a1.8 1.8 0 0 0-.626.739 2.4 2.4 0 0 0-.215 1.028v.835q0 .725.245 1.223.247.498.691.75c.316.173.672.26 1.032.253q.39 0 .708-.112c.42-.14.75-.464.9-.88l1.632.338a2.6 2.6 0 0 1-.629 1.075 3 3 0 0 1-1.113.717q-.667.256-1.522.256m6.681-4.631v4.476h-1.776v-7.642h1.684l.024 1.889h-.139q.317-.99.941-1.488.624-.497 1.558-.497.787 0 1.375.336.587.337.913.98t.326 1.564v4.858h-1.777v-4.586q0-.768-.399-1.205-.398-.435-1.097-.436-.47 0-.841.206a1.46 1.46 0 0 0-.581.596q-.21.39-.211.949m10.325-3.166v1.392h-4.34v-1.392Zm-3.256-1.819h1.777v7.309q0 .414.178.608.177.195.587.194.118 0 .319-.028a5 5 0 0 0 .324-.056l.28 1.371a3.5 3.5 0 0 1-.597.129 5 5 0 0 1-.592.037q-1.096 0-1.686-.546t-.59-1.557Z"/><path stroke="#848484" d="M911.5 110c5.523 0 10 4.477 10 10v700c0 5.523-4.477 10-10 10q0 0 0 0c-5.523 0-10-4.477-10-10V120c0-5.523 4.477-10 10-10"/><path stroke="#848484" stroke-dasharray="8 8" d="M911.5 60v820"/><path stroke="#848484" d="M967.5 20a4 4 0 0 1 4 4v32a4 4 0 0 1-4 4h-112a4 4 0 0 1-4-4V24a4 4 0 0 1 4-4Z"/><path fill="#848484" d="M893.433 45.24q-1.18 0-2.055-.369-.875-.37-1.364-1.073-.49-.704-.532-1.712h1.798q.045.535.334.889t.761.529c.335.12.688.179 1.044.175q.6 0 1.062-.183.46-.184.721-.517a1.2 1.2 0 0 0 .261-.769.95.95 0 0 0-.23-.658 1.8 1.8 0 0 0-.643-.439 6.3 6.3 0 0 0-.968-.316l-1.157-.302q-1.272-.327-1.989-.992-.717-.666-.717-1.744 0-.9.487-1.576.487-.675 1.328-1.049.84-.375 1.906-.374 1.09 0 1.907.376t1.281 1.038q.462.66.482 1.514h-1.769q-.069-.656-.586-1.016t-1.341-.36a2.6 2.6 0 0 0-.988.173q-.416.174-.637.476a1.14 1.14 0 0 0-.222.69q0 .428.263.701.262.273.663.437.4.165.809.266l.952.243q.564.134 1.1.363.534.228.963.573.427.345.679.835.25.49.251 1.154 0 .896-.456 1.577-.457.68-1.318 1.06-.862.38-2.08.38m8.822-.004q-1.15 0-1.982-.483a3.24 3.24 0 0 1-1.281-1.366q-.447-.882-.447-2.079 0-1.179.442-2.07a3.35 3.35 0 0 1 1.251-1.393q.81-.501 1.9-.501.702 0 1.333.226.63.227 1.118.696.489.47.768 1.199.28.729.28 1.737v.555h-6.254V40.55h5.367l-.83.358q0-.648-.2-1.137a1.7 1.7 0 0 0-.594-.761q-.393-.272-.978-.272t-.996.277a1.77 1.77 0 0 0-.626.739q-.216.462-.216 1.027v.836q0 .725.246 1.223.246.497.691.75c.316.173.672.26 1.032.252q.39 0 .708-.111a1.44 1.44 0 0 0 .899-.88l1.633.338a2.6 2.6 0 0 1-.629 1.075 3 3 0 0 1-1.113.716q-.667.256-1.522.256m4.904-.154V37.44h1.721v1.279h.082q.21-.665.721-1.025a2 2 0 0 1 1.168-.359q.15 0 .336.014.185.014.314.039v1.633a2 2 0 0 0-.356-.064q-.24-.03-.481-.029-.495 0-.889.212a1.57 1.57 0 0 0-.839 1.447v4.495Zm7.949 0-2.848-7.642h1.901l1.398 4.155q.244.73.421 1.469.176.74.364 1.5h-.443q.186-.76.361-1.499.174-.738.413-1.47l1.388-4.155h1.886l-2.853 7.642Zm9.164.154q-1.15 0-1.982-.483a3.24 3.24 0 0 1-1.28-1.366q-.448-.882-.448-2.079 0-1.179.443-2.07a3.34 3.34 0 0 1 1.251-1.393q.81-.501 1.9-.501.702 0 1.332.226c.419.15.8.386 1.119.696q.487.47.768 1.199.28.729.28 1.737v.555h-6.254V40.55h5.367l-.83.358q0-.648-.201-1.137a1.67 1.67 0 0 0-.593-.761q-.395-.272-.978-.272-.585 0-.996.277a1.77 1.77 0 0 0-.626.739q-.216.462-.216 1.027v.836q0 .725.246 1.223.246.497.691.75.444.252 1.031.252.39 0 .709-.111a1.44 1.44 0 0 0 .899-.88l1.633.338a2.6 2.6 0 0 1-.629 1.075 3 3 0 0 1-1.113.716q-.668.256-1.523.256m4.905-.154V37.44h1.721v1.279h.082q.21-.665.721-1.025.51-.36 1.168-.359.15 0 .336.014.184.015.313.039v1.633a2 2 0 0 0-.356-.064q-.24-.03-.48-.029-.495 0-.889.212a1.57 1.57 0 0 0-.839 1.447v4.495Z"/></svg>
