<svg viewBox="0 0 625 550" xmlns="http://www.w3.org/2000/svg" fill-rule="evenodd" clip-rule="evenodd" stroke-linecap="round" stroke-linejoin="round"><path d="M418.234 411.417H130.289" fill="none" stroke="#259d75" stroke-width="1.9453252"/><path d="M120.317 411.417l9.743-3.36v6.707l-9.743-3.347z" fill="#259d75" fill-rule="nonzero" stroke="#259d75" stroke-width="1.9453252"/><path d="M418.234 310.602H130.289" fill="none" stroke="#259d75" stroke-width="1.9453252"/><path d="M120.317 310.602l9.743-3.36v6.721l-9.743-3.36z" fill="#259d75" fill-rule="nonzero" stroke="#259d75" stroke-width="1.9453252"/><path d="M418.234 210.048H130.289" fill="none" stroke="#db0c2f" stroke-width="1.9453252"/><path d="M120.317 210.048l9.743-3.354v6.715l-9.743-3.361z" fill="#db0c2f" fill-rule="nonzero" stroke="#db0c2f" stroke-width="1.9453252"/><path d="M119.008 382.856h288.405" fill="none" stroke="#c27e47" stroke-width="1.9453252"/><path d="M417.027 382.856l-9.743 3.362v-6.715l9.743 3.353z" fill="#c27e47" fill-rule="nonzero" stroke="#c27e47" stroke-width="1.9453252"/><path d="M119.037 282.75h288.376" fill="none" stroke="#c27e47" stroke-width="1.9453252"/><path d="M417.027 282.75l-9.743 3.362v-6.715l9.743 3.354z" fill="#c27e47" fill-rule="nonzero" stroke="#c27e47" stroke-width="1.9453252"/><path d="M119.037 180.43h288.376" fill="none" stroke="#c27e47" stroke-width="1.9453252"/><path d="M417.027 180.43l-9.743 3.353v-6.715l9.743 3.361z" fill="#c27e47" fill-rule="nonzero" stroke="#c27e47" stroke-width="1.9453252"/><path d="M104.659 94.565v3.68m0 5.765v5.759m0 5.758v5.766m0 5.766v5.766m0 5.765v5.766m0 5.76v5.758m0 5.765v5.766m0 5.766v5.766m0 5.766v5.758m0 5.759v5.766m0 5.765v5.766m0 5.766v5.766m0 5.759v5.758m0 5.766v5.766m0 5.766v5.766m0 5.766v5.758m0 5.759v5.766m0 5.766v5.765m0 5.766v5.766m0 5.758v5.76m0 5.765v5.766m0 5.766v5.765m0 5.766v5.759m0 5.758v5.766m0 5.766v5.766m0 5.766v5.766m0 5.758v5.759m0 5.766v5.765m0 5.766v5.766m0 5.766v5.759m0 5.758v5.766m0 5.766v5.765m0 5.766v5.766m0 5.759v5.758m0 5.766v5.766m0 5.766v2.883m0-.022v.746M432.611 94.21v4.034m0 5.766v5.759m0 5.758v5.766m0 5.766v5.766m0 5.765v5.766m0 5.76v5.758m0 5.765v5.766m0 5.766v5.766m0 5.766v5.758m0 5.759v5.766m0 5.765v5.766m0 5.766v5.766m0 5.759v5.758m0 5.766v5.766m0 5.766v5.766m0 5.766v5.758m0 5.759v5.766m0 5.766v5.765m0 5.766v5.766m0 5.758v5.76m0 5.765v5.766m0 5.766v5.765m0 5.766v5.759m0 5.758v5.766m0 5.766v5.766m0 5.766v5.766m0 5.758v5.759m0 5.766v5.765m0 5.766v5.766m0 5.766v5.759m0 5.758v5.766m0 5.766v5.765m0 5.766v5.766m0 5.759v5.758m0 5.766v5.766m0 5.766v2.883" fill="#006fd8" stroke="#c27e47" stroke-width="1.9453252" stroke-linecap="butt" stroke-linejoin="miter"/><path d="M137.454 50.452c12.073 0 21.863 9.727 21.863 21.73s-9.79 21.73-21.863 21.73h-65.59C59.79 93.913 50 84.186 50 72.183s9.79-21.73 21.863-21.73h65.591z" fill="none" stroke="#259d75" stroke-width="1.9453252" stroke-linecap="butt" stroke-linejoin="miter"/><path d="M79.958 76.994h3.613c2.189 0 3.173-1.087 3.173-2.538 0-1.45-1.023-2.279-1.955-2.33v-.091c.867-.22 1.592-.803 1.592-1.982 0-1.398-.97-2.473-2.978-2.473h-3.445v9.414zm1.425-1.217V72.76h2.098c1.14 0 1.851.738 1.851 1.632 0 .79-.543 1.385-1.903 1.385h-2.046zm0-4.13v-2.863h1.93c1.126 0 1.67.596 1.67 1.373 0 .92-.738 1.49-1.697 1.49h-1.903zM88.312 76.994h1.386v-4.312c0-.92.712-1.593 1.684-1.593.284 0 .608.052.712.078V69.86a3.872 3.872 0 00-.583-.039c-.829 0-1.528.48-1.787 1.23h-.078v-1.113h-1.334v7.057zM96.01 77.137c1.993 0 3.288-1.463 3.288-3.639 0-2.201-1.295-3.665-3.289-3.665-1.994 0-3.29 1.464-3.29 3.665 0 2.176 1.296 3.639 3.29 3.639zm0-1.153c-1.296 0-1.904-1.14-1.904-2.499 0-1.347.608-2.5 1.903-2.5s1.904 1.153 1.904 2.5c0 1.36-.609 2.5-1.904 2.5zM102.155 76.994h1.398l1.425-5.102h.116l1.425 5.102h1.411l2.072-7.057h-1.424l-1.373 5.154h-.064l-1.386-5.154h-1.425l-1.385 5.18h-.065l-1.386-5.18h-1.424l2.085 7.057zM116.593 71.66c-.285-1.102-1.14-1.827-2.668-1.827-1.593 0-2.732.842-2.732 2.098 0 .997.609 1.67 1.93 1.968l1.204.26c.673.155.997.453.997.893 0 .544-.583.971-1.49.971-.828 0-1.346-.35-1.514-1.049l-1.334.208c.233 1.256 1.269 1.955 2.862 1.955 1.709 0 2.887-.907 2.887-2.189 0-.997-.634-1.605-1.93-1.903l-1.126-.26c-.777-.18-1.113-.452-1.113-.932 0-.543.582-.919 1.372-.919.855 0 1.243.466 1.412.945l1.243-.22zM121.279 77.137c1.54 0 2.642-.764 2.952-1.904L122.923 75c-.246.66-.841.997-1.618.997-1.179 0-1.969-.764-2.008-2.123h5.012v-.48c0-2.55-1.515-3.56-3.12-3.56-1.97 0-3.264 1.501-3.264 3.677 0 2.188 1.282 3.626 3.354 3.626zm-1.982-4.286c.052-1.01.777-1.878 1.904-1.878 1.062 0 1.761.79 1.761 1.878h-3.665zM125.842 76.994h1.386v-4.312c0-.92.712-1.593 1.683-1.593.285 0 .609.052.713.078V69.86a3.872 3.872 0 00-.583-.039c-.829 0-1.528.48-1.787 1.23h-.078v-1.113h-1.334v7.057z" fill="#259d75" fill-rule="nonzero"/><path d="M465.407 50.452c12.072 0 21.863 9.727 21.863 21.73s-9.79 21.73-21.863 21.73h-65.591c-12.073 0-21.864-9.727-21.864-21.73s9.791-21.73 21.864-21.73h65.59z" fill="none" stroke="#006fd8" stroke-width="1.9453252" stroke-linecap="butt" stroke-linejoin="miter"/><path d="M417.908 70.053h1.36c-.04-1.515-1.373-2.603-3.29-2.603-1.877 0-3.328 1.075-3.328 2.707 0 1.308.933 2.072 2.448 2.486l1.114.298c1.01.272 1.787.596 1.787 1.438 0 .92-.88 1.528-2.098 1.528-1.088 0-1.994-.492-2.085-1.515h-1.425c.091 1.709 1.412 2.758 3.523 2.758 2.214 0 3.483-1.166 3.483-2.758 0-1.697-1.515-2.357-2.706-2.655l-.92-.233c-.738-.194-1.71-.531-1.71-1.438 0-.803.74-1.385 1.892-1.385 1.074 0 1.851.505 1.955 1.372zM424.026 77.137c1.541 0 2.642-.764 2.953-1.904L425.67 75c-.246.66-.842.997-1.619.997-1.178 0-1.968-.764-2.007-2.123h5.012v-.48c0-2.55-1.515-3.56-3.121-3.56-1.969 0-3.264 1.501-3.264 3.677 0 2.188 1.282 3.626 3.354 3.626zm-1.98-4.286c.05-1.01.776-1.878 1.903-1.878 1.062 0 1.76.79 1.76 1.878h-3.664zM428.59 76.994h1.385v-4.312c0-.92.712-1.593 1.683-1.593.285 0 .61.052.713.078V69.86a3.872 3.872 0 00-.583-.039c-.829 0-1.528.48-1.787 1.23h-.078v-1.113h-1.334v7.057zM439.833 69.937h-1.476l-1.787 5.426h-.065l-1.8-5.426h-1.476l2.577 7.057h1.463l2.564-7.057zM443.916 77.137c1.54 0 2.641-.764 2.952-1.904L445.56 75c-.246.66-.842.997-1.619.997-1.178 0-1.968-.764-2.007-2.123h5.012v-.48c0-2.55-1.515-3.56-3.121-3.56-1.968 0-3.263 1.501-3.263 3.677 0 2.188 1.282 3.626 3.354 3.626zm-1.982-4.286c.052-1.01.777-1.878 1.904-1.878 1.062 0 1.761.79 1.761 1.878h-3.665zM448.479 76.994h1.386v-4.312c0-.92.712-1.593 1.683-1.593.285 0 .609.052.712.078V69.86a3.872 3.872 0 00-.582-.039c-.83 0-1.529.48-1.788 1.23h-.077v-1.113h-1.334v7.057z" fill="#006fd8" fill-rule="nonzero"/><path d="M90.994 165.525c0-7.495 6.169-13.664 13.664-13.664h.002c7.495 0 13.664 6.168 13.664 13.663V427.937c-.001 7.495-6.17 13.664-13.665 13.664h0c-7.496 0-13.665-6.169-13.665-13.664V165.525z" fill="none" stroke="#259d75" stroke-width="1.9453252" stroke-linecap="butt" stroke-linejoin="miter"/><path d="M446.982 282.135h13.051c7.873 0 14.255 6.383 14.255 14.256 0 7.872-6.382 14.255-14.255 14.255h-1.209" fill="none" stroke="#259d75" stroke-width="1.9453252"/><path d="M448.205 310.639l9.743-3.354v6.714l-9.743-3.36z" fill="#259d75" fill-rule="nonzero" stroke="#259d75" stroke-width="1.9453252"/><g><path d="M448.205 208.722l9.743-3.36v6.714l-9.743-3.354z" fill="#db0c2f" fill-rule="nonzero" stroke="#db0c2f" stroke-width="1.9453252"/></g><g><path d="M446.91 178.835h12.918c7.946 0 14.388 6.443 14.388 14.39v1.109c0 7.946-6.442 14.388-14.388 14.388h-.874" fill="none" stroke="#db0c2f" stroke-width="1.9453252"/></g><g><path d="M418.946 165.525c0-7.495 6.169-13.664 13.665-13.664h.002c7.495 0 13.663 6.168 13.663 13.663V427.937c0 7.495-6.169 13.664-13.665 13.664h0c-7.496 0-13.665-6.169-13.665-13.664V165.525z" fill="none" stroke="#006fd8" stroke-width="1.9453252" stroke-linecap="butt" stroke-linejoin="miter"/></g><g><path d="M182.055 276.86h1.425v-3.315h1.929c2.176 0 3.263-1.32 3.263-3.056 0-1.735-1.074-3.043-3.263-3.043h-3.354v9.414zm1.425-4.519v-3.678h1.774c1.411 0 1.98.764 1.98 1.826 0 1.075-.569 1.852-1.954 1.852h-1.8zM198.517 272.147c0-3.005-1.813-4.83-4.248-4.83-2.447 0-4.247 1.825-4.247 4.83 0 3.017 1.8 4.843 4.247 4.843 2.435 0 4.248-1.826 4.248-4.843zm-1.412 0c0 2.305-1.217 3.548-2.836 3.548-1.618 0-2.836-1.243-2.836-3.548 0-2.292 1.218-3.536 2.836-3.536 1.62 0 2.836 1.244 2.836 3.536zM205.42 269.92h1.36c-.039-1.516-1.372-2.604-3.289-2.604-1.878 0-3.328 1.075-3.328 2.707 0 1.308.932 2.072 2.447 2.486l1.114.298c1.01.272 1.787.596 1.787 1.438 0 .919-.88 1.528-2.098 1.528-1.087 0-1.994-.492-2.085-1.515h-1.424c.09 1.709 1.411 2.758 3.522 2.758 2.215 0 3.484-1.166 3.484-2.758 0-1.697-1.515-2.357-2.707-2.655l-.92-.233c-.737-.195-1.709-.531-1.709-1.438 0-.803.739-1.385 1.891-1.385 1.075 0 1.852.505 1.956 1.372zM208.146 268.663h2.94v8.197h1.411v-8.197h2.94v-1.217h-7.29v1.217zM223.943 267.006h-1.218l-3.043 11.266h1.23l3.03-11.266zM225.115 267.446h1.372v9.414h-1.372zM231.318 277.003c1.994 0 3.289-1.463 3.289-3.639 0-2.201-1.295-3.665-3.29-3.665-1.994 0-3.289 1.464-3.289 3.665 0 2.176 1.295 3.639 3.29 3.639zm0-1.153c-1.295 0-1.904-1.14-1.904-2.499 0-1.347.609-2.5 1.904-2.5s1.903 1.153 1.903 2.5c0 1.36-.608 2.5-1.903 2.5zM239.103 279.658c1.8 0 3.186-.83 3.186-2.642v-7.213h-1.347v1.14h-.104c-.246-.44-.725-1.244-2.046-1.244-1.696 0-2.952 1.347-2.952 3.6s1.282 3.458 2.952 3.458c1.295 0 1.787-.738 2.046-1.179h.078v1.386c0 1.1-.751 1.58-1.8 1.58-1.14 0-1.593-.57-1.839-.971l-1.178.479c.375.867 1.32 1.606 3.004 1.606zm-.013-4.04c-1.23 0-1.865-.946-1.865-2.332 0-1.36.622-2.408 1.865-2.408 1.204 0 1.839.97 1.839 2.408 0 1.45-.648 2.331-1.839 2.331zM244.13 276.86h1.386v-7.057h-1.386v7.057zm.7-8.158c.479 0 .867-.363.867-.816 0-.453-.388-.816-.868-.816-.479 0-.867.363-.867.816 0 .453.388.816.867.816zM248.74 272.665c0-1.127.687-1.774 1.645-1.774.932 0 1.49.621 1.49 1.644v4.325h1.385v-4.493c0-1.748-.972-2.668-2.409-2.668-1.062 0-1.761.492-2.085 1.243h-.09v-1.14h-1.321v7.058h1.385v-4.195zM260.06 276.86h1.4l1.424-5.102h.117l1.424 5.102h1.412l2.071-7.057h-1.424l-1.373 5.154h-.064l-1.386-5.154h-1.425l-1.385 5.18h-.065l-1.386-5.18h-1.424l2.085 7.057zM269.202 276.86h1.386v-7.057h-1.386v7.057zm.7-8.158c.479 0 .867-.363.867-.816 0-.453-.388-.816-.868-.816-.479 0-.867.363-.867.816 0 .453.388.816.867.816zM275.728 269.803h-1.45v-1.697h-1.374v1.697h-1.035v1.1h1.035v4.17c0 1.282.972 1.904 2.06 1.878.44 0 .738-.09.893-.142l-.246-1.14c-.09.013-.259.065-.492.065-.44 0-.842-.156-.842-.946v-3.884h1.45v-1.101zM278.773 272.665c0-1.127.713-1.774 1.684-1.774.945 0 1.515.608 1.515 1.644v4.325h1.373v-4.493c0-1.761-.959-2.668-2.422-2.668-1.088 0-1.761.48-2.085 1.243h-.09v-3.496h-1.36v9.414h1.385v-4.195zM291.591 277.003c1.67 0 2.745-.997 2.9-2.383h-1.333c-.181.764-.764 1.217-1.554 1.217-1.166 0-1.917-.97-1.917-2.512 0-1.515.764-2.46 1.917-2.46.868 0 1.411.557 1.554 1.217h1.334c-.143-1.425-1.308-2.383-2.914-2.383-1.994 0-3.276 1.502-3.276 3.665 0 2.124 1.243 3.639 3.289 3.639zM295.967 276.86h1.385v-4.312c0-.92.713-1.593 1.684-1.593.285 0 .608.052.712.078v-1.308a3.872 3.872 0 00-.583-.039c-.828 0-1.528.48-1.787 1.23h-.077v-1.113h-1.334v7.057zM303.728 277.003c1.54 0 2.641-.764 2.952-1.904l-1.308-.233c-.246.66-.842.997-1.619.997-1.178 0-1.968-.764-2.007-2.123h5.012v-.48c0-2.55-1.515-3.56-3.121-3.56-1.969 0-3.263 1.501-3.263 3.677 0 2.188 1.282 3.626 3.354 3.626zm-1.982-4.287c.052-1.01.777-1.877 1.904-1.877 1.062 0 1.761.79 1.761 1.877h-3.665zM310.946 277.003c1.282 0 1.787-.79 2.033-1.243h.116v1.1h1.347v-9.414h-1.373v3.496h-.09c-.246-.44-.712-1.243-2.033-1.243-1.697 0-2.953 1.347-2.953 3.64 0 2.291 1.23 3.664 2.953 3.664zm.298-1.179c-1.23 0-1.865-1.074-1.865-2.499 0-1.398.621-2.447 1.865-2.447 1.204 0 1.838.97 1.838 2.447 0 1.49-.647 2.5-1.838 2.5zM319.437 277.003c1.54 0 2.642-.764 2.952-1.904l-1.308-.233c-.246.66-.841.997-1.618.997-1.179 0-1.969-.764-2.007-2.123h5.011v-.48c0-2.55-1.515-3.56-3.12-3.56-1.97 0-3.264 1.501-3.264 3.677 0 2.188 1.282 3.626 3.354 3.626zm-1.981-4.287c.051-1.01.777-1.877 1.903-1.877 1.062 0 1.761.79 1.761 1.877h-3.664zM325.385 272.665c0-1.127.686-1.774 1.644-1.774.933 0 1.49.621 1.49 1.644v4.325h1.385v-4.493c0-1.748-.971-2.668-2.408-2.668-1.062 0-1.762.492-2.085 1.243h-.091v-1.14H324v7.058h1.385v-4.195zM335.036 269.803h-1.45v-1.697h-1.373v1.697h-1.036v1.1h1.036v4.17c0 1.282.971 1.904 2.06 1.878.44 0 .737-.09.893-.142l-.246-1.14c-.091.013-.26.065-.492.065-.44 0-.842-.156-.842-.946v-3.884h1.45v-1.101zM336.55 276.86h1.386v-7.057h-1.386v7.057zm.7-8.158c.478 0 .867-.363.867-.816 0-.453-.389-.816-.868-.816s-.867.363-.867.816c0 .453.388.816.867.816zM341.832 277.016c1.166 0 1.826-.596 2.085-1.127h.065v.971h1.334v-4.687c0-2.06-1.619-2.474-2.733-2.474-1.282 0-2.46.518-2.913 1.813l1.282.285c.207-.492.725-.984 1.644-.984.894 0 1.347.466 1.347 1.269v.039c0 .492-.518.492-1.787.634-1.334.156-2.707.505-2.707 2.111 0 1.386 1.036 2.15 2.383 2.15zm.298-1.1c-.777 0-1.334-.35-1.334-1.037 0-.738.648-.997 1.45-1.1.44-.065 1.503-.182 1.697-.376v.906c0 .842-.66 1.606-1.813 1.606zM347.144 267.446h1.373v9.414h-1.373zM355.665 271.525c-.285-1.1-1.14-1.826-2.668-1.826-1.592 0-2.732.842-2.732 2.098 0 .997.609 1.67 1.93 1.968l1.204.26c.673.155.997.453.997.893 0 .544-.583.971-1.49.971-.828 0-1.346-.35-1.514-1.049l-1.334.207c.233 1.257 1.269 1.956 2.862 1.956 1.71 0 2.888-.907 2.888-2.189 0-.997-.635-1.605-1.93-1.903l-1.127-.26c-.777-.18-1.113-.452-1.113-.932 0-.544.582-.92 1.372-.92.855 0 1.244.467 1.412.946l1.243-.22z" fill="#c27e47" fill-rule="nonzero"/></g><g><path d="M144.371 326.07h6.203v-1.218h-4.247v-.065l1.877-1.968c1.723-1.735 2.215-2.577 2.215-3.626 0-1.515-1.23-2.667-3.005-2.667-1.76 0-3.056 1.14-3.056 2.861h1.36c0-1.01.647-1.683 1.67-1.683.946 0 1.684.596 1.684 1.528 0 .842-.505 1.437-1.515 2.5l-3.186 3.302v1.036zM155.59 326.225c2.175 0 3.444-1.774 3.444-4.856 0-3.07-1.282-4.843-3.445-4.843-2.162 0-3.444 1.774-3.457 4.843 0 3.082 1.282 4.856 3.457 4.856zm0-1.23c-1.27 0-2.047-1.27-2.047-3.626.013-2.344.777-3.64 2.046-3.64 1.27 0 2.034 1.296 2.034 3.64 0 2.357-.764 3.626-2.034 3.626zM163.954 326.225c2.176 0 3.445-1.774 3.445-4.856 0-3.07-1.282-4.843-3.445-4.843-2.162 0-3.444 1.774-3.457 4.843 0 3.082 1.282 4.856 3.457 4.856zm0-1.23c-1.269 0-2.046-1.27-2.046-3.626.013-2.344.777-3.64 2.046-3.64 1.27 0 2.033 1.296 2.033 3.64 0 2.357-.764 3.626-2.033 3.626zM180.787 321.356c0-3.005-1.813-4.83-4.247-4.83-2.448 0-4.248 1.825-4.248 4.83 0 3.017 1.8 4.843 4.248 4.843 2.434 0 4.247-1.826 4.247-4.843zm-1.411 0c0 2.305-1.218 3.548-2.836 3.548-1.619 0-2.836-1.243-2.836-3.548 0-2.292 1.217-3.535 2.836-3.535 1.618 0 2.836 1.243 2.836 3.535zM182.55 326.07h1.425v-2.927l1.113-1.282 3.043 4.209h1.71l-3.82-5.18 3.807-4.235h-1.787l-3.95 4.494h-.116v-4.494h-1.425v9.415zM196.009 326.07h1.398l1.425-5.103h.116l1.425 5.103h1.411l2.072-7.058h-1.424l-1.373 5.154h-.065l-1.385-5.154h-1.425l-1.385 5.18h-.065l-1.386-5.18h-1.424l2.085 7.058zM205.15 326.07h1.386v-7.058h-1.386v7.058zm.7-8.159c.478 0 .867-.362.867-.816 0-.453-.389-.816-.868-.816s-.867.363-.867.816c0 .454.388.816.867.816zM211.677 319.012h-1.45v-1.697h-1.373v1.697h-1.036v1.1h1.036v4.17c0 1.282.97 1.904 2.059 1.878.44 0 .738-.09.893-.142l-.246-1.14c-.09.013-.259.065-.492.065-.44 0-.842-.156-.842-.945v-3.885h1.45v-1.101zM214.721 321.874c0-1.127.712-1.774 1.684-1.774.945 0 1.515.608 1.515 1.644v4.326h1.372v-4.494c0-1.761-.958-2.668-2.421-2.668-1.088 0-1.761.48-2.085 1.243h-.09v-3.496h-1.36v9.415h1.385v-4.196zM225.468 326.07l.868-2.487h3.678l.867 2.487h1.502l-3.392-9.415h-1.632l-3.393 9.415h1.502zm1.282-3.691l1.386-4.015h.078l1.385 4.015h-2.849zM238.106 323.143c0 1.191-.894 1.774-1.658 1.774-.854 0-1.437-.622-1.437-1.58v-4.325h-1.386v4.48c0 1.762.971 2.668 2.318 2.668 1.062 0 1.787-.557 2.111-1.308h.078v1.218h1.347v-7.058h-1.373v4.13zM244.626 319.012h-1.45v-1.697h-1.373v1.697h-1.036v1.1h1.036v4.17c0 1.282.971 1.904 2.06 1.878.44 0 .737-.09.893-.142l-.246-1.14c-.091.013-.26.065-.493.065-.44 0-.841-.156-.841-.945v-3.885h1.45v-1.101zM247.67 321.874c0-1.127.713-1.774 1.684-1.774.945 0 1.515.608 1.515 1.644v4.326h1.373v-4.494c0-1.761-.958-2.668-2.422-2.668-1.088 0-1.76.48-2.085 1.243h-.09v-3.496h-1.36v9.415h1.386v-4.196zM257.06 326.212c1.993 0 3.288-1.463 3.288-3.639 0-2.201-1.295-3.665-3.289-3.665-1.994 0-3.29 1.464-3.29 3.665 0 2.176 1.296 3.639 3.29 3.639zm0-1.153c-1.296 0-1.904-1.14-1.904-2.499 0-1.347.608-2.5 1.903-2.5s1.904 1.153 1.904 2.5c0 1.36-.609 2.5-1.904 2.5zM261.88 326.07h1.385v-4.313c0-.92.712-1.593 1.683-1.593.285 0 .609.052.712.078v-1.308a3.872 3.872 0 00-.582-.039c-.83 0-1.528.48-1.787 1.23h-.078v-1.113h-1.334v7.058zM266.856 326.07h1.385v-7.058h-1.385v7.058zm.699-8.159c.48 0 .868-.362.868-.816 0-.453-.389-.816-.868-.816-.48 0-.868.363-.868.816 0 .454.389.816.868.816zM269.936 326.07h5.672v-1.192h-3.807v-.065l3.678-4.804v-.997h-5.413v1.191h3.69v.065l-3.82 4.856v.946zM279.28 326.225c1.165 0 1.826-.596 2.085-1.127h.064v.972h1.334v-4.688c0-2.06-1.619-2.474-2.732-2.474-1.282 0-2.46.518-2.914 1.813l1.282.285c.207-.492.725-.984 1.645-.984.893 0 1.346.466 1.346 1.27v.038c0 .492-.518.492-1.787.634-1.333.156-2.706.505-2.706 2.111 0 1.386 1.036 2.15 2.383 2.15zm.297-1.1c-.776 0-1.333-.35-1.333-1.037 0-.738.647-.997 1.45-1.1.44-.065 1.502-.182 1.696-.376v.906c0 .842-.66 1.606-1.813 1.606zM287.894 319.012h-1.45v-1.697h-1.373v1.697h-1.036v1.1h1.036v4.17c0 1.282.971 1.904 2.059 1.878.44 0 .738-.09.893-.142l-.246-1.14c-.09.013-.259.065-.492.065-.44 0-.842-.156-.842-.945v-3.885h1.45v-1.101zM289.406 326.07h1.386v-7.058h-1.386v7.058zm.7-8.159c.479 0 .867-.362.867-.816 0-.453-.388-.816-.867-.816-.48 0-.868.363-.868.816 0 .454.389.816.868.816zM295.61 326.212c1.994 0 3.289-1.463 3.289-3.639 0-2.201-1.295-3.665-3.29-3.665-1.994 0-3.289 1.464-3.289 3.665 0 2.176 1.295 3.639 3.29 3.639zm0-1.153c-1.296 0-1.904-1.14-1.904-2.499 0-1.347.608-2.5 1.903-2.5s1.904 1.153 1.904 2.5c0 1.36-.609 2.5-1.904 2.5zM301.815 321.874c0-1.127.686-1.774 1.644-1.774.933 0 1.49.621 1.49 1.644v4.326h1.385v-4.494c0-1.748-.97-2.668-2.408-2.668-1.062 0-1.762.492-2.085 1.243h-.09v-1.14h-1.322v7.059h1.386v-4.196zM309.07 321.02c.506 0 .92-.415.92-.92a.923.923 0 00-.92-.92.923.923 0 00-.919.92c0 .505.415.92.92.92zm0 5.14c.506 0 .92-.414.92-.92a.923.923 0 00-.92-.919.923.923 0 00-.919.92c0 .505.415.92.92.92zM315.377 326.07h3.613c2.189 0 3.173-1.088 3.173-2.539 0-1.45-1.023-2.279-1.956-2.33v-.091c.868-.22 1.593-.803 1.593-1.982 0-1.398-.971-2.473-2.978-2.473h-3.445v9.415zm1.425-1.218v-3.017h2.097c1.14 0 1.852.738 1.852 1.632 0 .79-.544 1.385-1.903 1.385h-2.046zm0-4.13v-2.863h1.93c1.126 0 1.67.596 1.67 1.373 0 .92-.739 1.49-1.697 1.49h-1.903zM326.774 326.212c1.541 0 2.642-.764 2.953-1.904l-1.308-.233c-.246.66-.842.997-1.619.997-1.178 0-1.968-.764-2.007-2.123h5.011v-.48c0-2.55-1.515-3.56-3.12-3.56-1.969 0-3.264 1.501-3.264 3.677 0 2.189 1.282 3.626 3.354 3.626zm-1.981-4.286c.052-1.01.777-1.878 1.904-1.878 1.061 0 1.76.79 1.76 1.878h-3.664zM333.397 326.225c1.165 0 1.826-.596 2.085-1.127h.064v.972h1.334v-4.688c0-2.06-1.619-2.474-2.732-2.474-1.282 0-2.46.518-2.914 1.813l1.282.285c.207-.492.725-.984 1.645-.984.893 0 1.347.466 1.347 1.27v.038c0 .492-.518.492-1.788.634-1.333.156-2.706.505-2.706 2.111 0 1.386 1.036 2.15 2.383 2.15zm.298-1.1c-.777 0-1.334-.35-1.334-1.037 0-.738.647-.997 1.45-1.1.44-.065 1.502-.182 1.697-.376v.906c0 .842-.66 1.606-1.813 1.606zM338.709 326.07h1.385v-4.313c0-.92.713-1.593 1.684-1.593.285 0 .608.052.712.078v-1.308a3.872 3.872 0 00-.583-.039c-.828 0-1.528.48-1.787 1.23h-.077v-1.113h-1.334v7.058zM346.47 326.212c1.542 0 2.643-.764 2.953-1.904l-1.308-.233c-.246.66-.841.997-1.618.997-1.179 0-1.969-.764-2.008-2.123h5.012v-.48c0-2.55-1.515-3.56-3.12-3.56-1.97 0-3.264 1.501-3.264 3.677 0 2.189 1.282 3.626 3.354 3.626zm-1.98-4.286c.051-1.01.776-1.878 1.903-1.878 1.062 0 1.761.79 1.761 1.878h-3.665zM351.033 326.07h1.386v-4.313c0-.92.712-1.593 1.683-1.593.285 0 .609.052.712.078v-1.308a3.872 3.872 0 00-.582-.039c-.83 0-1.528.48-1.787 1.23h-.078v-1.113h-1.334v7.058zM362.742 319.012h-1.45v-1.697h-1.373v1.697h-1.036v1.1h1.036v4.17c0 1.282.971 1.904 2.06 1.878.44 0 .737-.09.893-.142l-.246-1.14c-.091.013-.26.065-.492.065-.44 0-.842-.156-.842-.945v-3.885h1.45v-1.101zM367.16 326.212c1.994 0 3.289-1.463 3.289-3.639 0-2.201-1.295-3.665-3.29-3.665-1.994 0-3.289 1.464-3.289 3.665 0 2.176 1.295 3.639 3.29 3.639zm0-1.153c-1.296 0-1.904-1.14-1.904-2.499 0-1.347.608-2.5 1.903-2.5s1.904 1.153 1.904 2.5c0 1.36-.609 2.5-1.904 2.5zM371.98 326.07h1.386v-2.513l.674-.673 2.408 3.186h1.684l-3.056-4.028 2.861-3.03h-1.644l-2.81 2.978h-.117v-5.335h-1.385v9.415zM381.935 326.212c1.541 0 2.642-.764 2.953-1.904l-1.308-.233c-.246.66-.842.997-1.62.997-1.178 0-1.967-.764-2.006-2.123h5.011v-.48c0-2.55-1.515-3.56-3.12-3.56-1.969 0-3.264 1.501-3.264 3.677 0 2.189 1.282 3.626 3.354 3.626zm-1.981-4.286c.051-1.01.777-1.878 1.903-1.878 1.062 0 1.761.79 1.761 1.878h-3.664zM387.884 321.874c0-1.127.686-1.774 1.645-1.774.932 0 1.489.621 1.489 1.644v4.326h1.386v-4.494c0-1.748-.972-2.668-2.41-2.668-1.06 0-1.76.492-2.084 1.243h-.09v-1.14h-1.321v7.059h1.385v-4.196z" fill="#259d75" fill-rule="nonzero"/></g><g><path d="M139.217 370.125h1.464c-.324-1.826-1.891-3.095-3.924-3.095-2.435 0-4.222 1.826-4.222 4.843 0 2.978 1.735 4.83 4.287 4.83 2.292 0 3.923-1.502 3.923-3.872v-1.075h-3.703v1.166h2.318c-.026 1.528-1.023 2.486-2.538 2.486-1.658 0-2.875-1.256-2.875-3.548 0-2.28 1.23-3.535 2.823-3.535 1.243 0 2.098.686 2.447 1.8zM142.545 376.574h5.956v-1.218h-4.532v-2.887h4.17v-1.218h-4.17v-2.875h4.48v-1.217h-5.904v9.415zM149.887 368.376h2.94v8.198h1.41v-8.198h2.94v-1.217h-7.29v1.217zM165.683 366.719h-1.217l-3.043 11.266h1.23l3.03-11.266zM168.242 372.378c0-1.127.686-1.774 1.645-1.774.932 0 1.489.621 1.489 1.644v4.326h1.385v-4.494c0-1.748-.97-2.668-2.408-2.668-1.062 0-1.761.492-2.085 1.244h-.09v-1.14h-1.322v7.058h1.386v-4.196zM177.57 376.716c1.994 0 3.289-1.463 3.289-3.639 0-2.201-1.295-3.665-3.29-3.665-1.994 0-3.289 1.464-3.289 3.665 0 2.176 1.295 3.639 3.29 3.639zm0-1.152c-1.295 0-1.904-1.14-1.904-2.5 0-1.347.609-2.5 1.904-2.5s1.903 1.153 1.903 2.5c0 1.36-.608 2.5-1.903 2.5zM185.692 369.516h-1.45v-1.696h-1.373v1.696h-1.036v1.1h1.036v4.17c0 1.283.97 1.904 2.059 1.878.44 0 .738-.09.893-.142l-.246-1.14c-.09.013-.259.065-.492.065-.44 0-.842-.155-.842-.945v-3.885h1.45v-1.101zM190.175 376.716c1.54 0 2.642-.764 2.952-1.904l-1.307-.233c-.246.66-.842.997-1.62.997-1.178 0-1.968-.764-2.006-2.123h5.011v-.48c0-2.55-1.515-3.56-3.12-3.56-1.97 0-3.264 1.502-3.264 3.677 0 2.189 1.282 3.626 3.354 3.626zm-1.981-4.286c.051-1.01.777-1.878 1.903-1.878 1.062 0 1.761.79 1.761 1.878h-3.664zM200.034 371.238c-.285-1.1-1.14-1.826-2.668-1.826-1.593 0-2.732.842-2.732 2.098 0 .997.608 1.67 1.929 1.969l1.204.259c.674.155.998.453.998.893 0 .544-.583.971-1.49.971-.829 0-1.346-.35-1.515-1.049l-1.334.208c.233 1.256 1.27 1.955 2.862 1.955 1.71 0 2.888-.906 2.888-2.188 0-.998-.635-1.606-1.93-1.904l-1.126-.26c-.777-.18-1.114-.452-1.114-.931 0-.544.583-.92 1.373-.92.855 0 1.243.466 1.411.945l1.244-.22zM206.648 376.574h1.399l1.424-5.103h.117l1.424 5.103h1.412l2.072-7.058h-1.425l-1.372 5.154h-.065l-1.386-5.154h-1.424l-1.386 5.18h-.064l-1.386-5.18h-1.425l2.085 7.058zM215.79 376.574h1.385v-7.058h-1.385v7.058zm.699-8.159c.479 0 .867-.362.867-.816 0-.453-.388-.815-.867-.815-.48 0-.868.362-.868.815 0 .454.389.816.868.816zM222.316 369.516h-1.45v-1.696h-1.373v1.696h-1.036v1.1h1.036v4.17c0 1.283.971 1.904 2.06 1.878.44 0 .737-.09.893-.142l-.246-1.14c-.091.013-.26.065-.492.065-.44 0-.842-.155-.842-.945v-3.885h1.45v-1.101zM225.36 372.378c0-1.127.713-1.774 1.684-1.774.946 0 1.515.608 1.515 1.644v4.326h1.373v-4.494c0-1.761-.958-2.668-2.422-2.668-1.087 0-1.76.48-2.085 1.244h-.09v-3.497h-1.36v9.415h1.386v-4.196zM236.108 376.574l.867-2.487h3.678l.868 2.487h1.502l-3.393-9.415h-1.632l-3.392 9.415h1.502zm1.282-3.691l1.385-4.015h.078l1.386 4.015h-2.85zM248.745 373.647c0 1.191-.893 1.774-1.657 1.774-.855 0-1.438-.622-1.438-1.58v-4.325h-1.385v4.48c0 1.762.971 2.668 2.318 2.668 1.062 0 1.787-.557 2.11-1.308h.078v1.218h1.347v-7.058h-1.373v4.13zM255.266 369.516h-1.45v-1.696h-1.373v1.696h-1.036v1.1h1.036v4.17c0 1.283.97 1.904 2.059 1.878.44 0 .738-.09.893-.142l-.246-1.14c-.09.013-.259.065-.492.065-.44 0-.842-.155-.842-.945v-3.885h1.45v-1.101zM258.31 372.378c0-1.127.712-1.774 1.684-1.774.945 0 1.515.608 1.515 1.644v4.326h1.372v-4.494c0-1.761-.958-2.668-2.421-2.668-1.088 0-1.761.48-2.085 1.244h-.09v-3.497h-1.36v9.415h1.385v-4.196zM267.697 376.716c1.995 0 3.29-1.463 3.29-3.639 0-2.201-1.295-3.665-3.29-3.665-1.994 0-3.289 1.464-3.289 3.665 0 2.176 1.295 3.639 3.29 3.639zm0-1.152c-1.295 0-1.903-1.14-1.903-2.5 0-1.347.608-2.5 1.903-2.5s1.904 1.153 1.904 2.5c0 1.36-.609 2.5-1.904 2.5zM272.519 376.574h1.385v-4.313c0-.92.712-1.593 1.684-1.593.285 0 .608.052.712.078v-1.308a3.872 3.872 0 00-.583-.039c-.829 0-1.528.48-1.787 1.23h-.078v-1.113h-1.333v7.058zM277.495 376.574h1.386v-7.058h-1.386v7.058zm.7-8.159c.479 0 .867-.362.867-.816 0-.453-.388-.815-.868-.815-.479 0-.867.362-.867.815 0 .454.388.816.867.816zM280.576 376.574h5.672v-1.192h-3.807v-.065l3.677-4.804v-.997h-5.413v1.191h3.691v.065l-3.82 4.856v.946zM289.92 376.729c1.165 0 1.825-.596 2.084-1.127h.065v.972h1.334v-4.688c0-2.06-1.62-2.474-2.733-2.474-1.282 0-2.46.518-2.913 1.813l1.282.285c.207-.492.725-.984 1.644-.984.894 0 1.347.466 1.347 1.27v.038c0 .492-.518.492-1.787.635-1.334.155-2.707.505-2.707 2.11 0 1.386 1.036 2.15 2.383 2.15zm.297-1.1c-.777 0-1.334-.35-1.334-1.037 0-.738.648-.997 1.45-1.1.44-.065 1.503-.182 1.697-.376v.906c0 .842-.66 1.606-1.813 1.606zM298.533 369.516h-1.45v-1.696h-1.373v1.696h-1.036v1.1h1.036v4.17c0 1.283.972 1.904 2.06 1.878.44 0 .737-.09.893-.142l-.246-1.14c-.09.013-.26.065-.492.065-.44 0-.842-.155-.842-.945v-3.885h1.45v-1.101zM300.046 376.574h1.386v-7.058h-1.386v7.058zm.7-8.159c.478 0 .867-.362.867-.816 0-.453-.389-.815-.868-.815s-.867.362-.867.815c0 .454.388.816.867.816zM306.249 376.716c1.994 0 3.29-1.463 3.29-3.639 0-2.201-1.296-3.665-3.29-3.665s-3.29 1.464-3.29 3.665c0 2.176 1.296 3.639 3.29 3.639zm0-1.152c-1.295 0-1.904-1.14-1.904-2.5 0-1.347.609-2.5 1.904-2.5s1.903 1.153 1.903 2.5c0 1.36-.608 2.5-1.903 2.5zM312.454 372.378c0-1.127.687-1.774 1.645-1.774.932 0 1.49.621 1.49 1.644v4.326h1.385v-4.494c0-1.748-.971-2.668-2.409-2.668-1.062 0-1.761.492-2.085 1.244h-.09v-1.14h-1.321v7.058h1.385v-4.196zM319.71 371.523c.505 0 .92-.414.92-.92a.923.923 0 00-.92-.919.923.923 0 00-.92.92c0 .505.415.92.92.92zm0 5.141c.505 0 .92-.414.92-.92a.923.923 0 00-.92-.919.923.923 0 00-.92.92c0 .505.415.92.92.92zM326.017 376.574h3.613c2.188 0 3.172-1.088 3.172-2.539 0-1.45-1.023-2.279-1.955-2.33v-.091c.868-.22 1.593-.803 1.593-1.981 0-1.4-.972-2.474-2.979-2.474h-3.444v9.415zm1.424-1.218v-3.017h2.098c1.14 0 1.852.738 1.852 1.632 0 .79-.544 1.385-1.904 1.385h-2.046zm0-4.13v-2.863h1.93c1.126 0 1.67.596 1.67 1.373 0 .92-.738 1.49-1.696 1.49h-1.904zM337.414 376.716c1.54 0 2.641-.764 2.952-1.904l-1.308-.233c-.246.66-.841.997-1.618.997-1.179 0-1.969-.764-2.008-2.123h5.012v-.48c0-2.55-1.515-3.56-3.12-3.56-1.97 0-3.264 1.502-3.264 3.677 0 2.189 1.282 3.626 3.354 3.626zm-1.982-4.286c.052-1.01.777-1.878 1.904-1.878 1.062 0 1.761.79 1.761 1.878h-3.665zM344.036 376.729c1.166 0 1.826-.596 2.085-1.127h.065v.972h1.334v-4.688c0-2.06-1.619-2.474-2.733-2.474-1.282 0-2.46.518-2.913 1.813l1.282.285c.207-.492.725-.984 1.644-.984.894 0 1.347.466 1.347 1.27v.038c0 .492-.518.492-1.787.635-1.334.155-2.707.505-2.707 2.11 0 1.386 1.036 2.15 2.383 2.15zm.298-1.1c-.777 0-1.334-.35-1.334-1.037 0-.738.648-.997 1.45-1.1.44-.065 1.503-.182 1.697-.376v.906c0 .842-.66 1.606-1.813 1.606zM349.348 376.574h1.386v-4.313c0-.92.712-1.593 1.683-1.593.285 0 .609.052.713.078v-1.308a3.872 3.872 0 00-.583-.039c-.829 0-1.528.48-1.787 1.23h-.078v-1.113h-1.334v7.058zM357.109 376.716c1.541 0 2.642-.764 2.953-1.904l-1.308-.233c-.246.66-.842.997-1.62.997-1.178 0-1.967-.764-2.006-2.123h5.011v-.48c0-2.55-1.515-3.56-3.12-3.56-1.969 0-3.264 1.502-3.264 3.677 0 2.189 1.282 3.626 3.354 3.626zm-1.981-4.286c.052-1.01.777-1.878 1.903-1.878 1.062 0 1.761.79 1.761 1.878h-3.664zM361.673 376.574h1.385v-4.313c0-.92.712-1.593 1.684-1.593.285 0 .608.052.712.078v-1.308a3.872 3.872 0 00-.583-.039c-.829 0-1.528.48-1.787 1.23h-.078v-1.113h-1.333v7.058zM373.382 369.516h-1.45v-1.696h-1.373v1.696h-1.036v1.1h1.036v4.17c0 1.283.97 1.904 2.059 1.878.44 0 .738-.09.893-.142l-.246-1.14c-.09.013-.259.065-.492.065-.44 0-.842-.155-.842-.945v-3.885h1.45v-1.101zM377.799 376.716c1.994 0 3.29-1.463 3.29-3.639 0-2.201-1.296-3.665-3.29-3.665s-3.29 1.464-3.29 3.665c0 2.176 1.296 3.639 3.29 3.639zm0-1.152c-1.295 0-1.904-1.14-1.904-2.5 0-1.347.609-2.5 1.904-2.5s1.903 1.153 1.903 2.5c0 1.36-.608 2.5-1.903 2.5zM382.619 376.574h1.385v-2.513l.674-.673 2.408 3.186h1.684l-3.056-4.028 2.862-3.03h-1.645l-2.81 2.978h-.117v-5.335h-1.385v9.415zM392.575 376.716c1.54 0 2.641-.764 2.952-1.904l-1.308-.233c-.246.66-.842.997-1.619.997-1.178 0-1.968-.764-2.007-2.123h5.012v-.48c0-2.55-1.515-3.56-3.121-3.56-1.968 0-3.263 1.502-3.263 3.677 0 2.189 1.282 3.626 3.354 3.626zm-1.982-4.286c.052-1.01.777-1.878 1.904-1.878 1.062 0 1.761.79 1.761 1.878h-3.665zM398.522 372.378c0-1.127.687-1.774 1.645-1.774.932 0 1.49.621 1.49 1.644v4.326h1.385v-4.494c0-1.748-.971-2.668-2.409-2.668-1.062 0-1.761.492-2.085 1.244h-.09v-1.14h-1.321v7.058h1.385v-4.196z" fill="#c27e47" fill-rule="nonzero"/></g><g><path d="M192.285 427.078h6.203v-1.218h-4.247v-.064l1.877-1.969c1.723-1.735 2.215-2.577 2.215-3.626 0-1.515-1.23-2.667-3.004-2.667-1.762 0-3.057 1.14-3.057 2.862h1.36c0-1.01.648-1.684 1.67-1.684.946 0 1.684.596 1.684 1.528 0 .842-.505 1.438-1.515 2.5l-3.186 3.302v1.036zM203.504 427.233c2.175 0 3.444-1.774 3.444-4.856 0-3.07-1.282-4.843-3.444-4.843-2.163 0-3.445 1.774-3.458 4.843 0 3.082 1.282 4.856 3.458 4.856zm0-1.23c-1.27 0-2.046-1.27-2.046-3.626.012-2.344.777-3.639 2.046-3.639 1.269 0 2.033 1.295 2.033 3.639 0 2.357-.764 3.626-2.033 3.626zM211.868 427.233c2.176 0 3.445-1.774 3.445-4.856 0-3.07-1.282-4.843-3.445-4.843-2.162 0-3.444 1.774-3.457 4.843 0 3.082 1.282 4.856 3.457 4.856zm0-1.23c-1.269 0-2.046-1.27-2.046-3.626.013-2.344.777-3.639 2.046-3.639 1.27 0 2.034 1.295 2.034 3.639 0 2.357-.764 3.626-2.034 3.626zM228.701 422.364c0-3.004-1.813-4.83-4.247-4.83-2.448 0-4.248 1.826-4.248 4.83 0 3.017 1.8 4.843 4.248 4.843 2.434 0 4.247-1.826 4.247-4.843zm-1.411 0c0 2.305-1.217 3.548-2.836 3.548-1.619 0-2.836-1.243-2.836-3.548 0-2.292 1.217-3.535 2.836-3.535 1.619 0 2.836 1.243 2.836 3.535zM230.464 427.078h1.425v-2.927l1.113-1.282 3.044 4.209h1.709l-3.82-5.18 3.807-4.235h-1.787l-3.95 4.494h-.116v-4.494h-1.425v9.415zM243.923 427.078h1.398l1.425-5.103h.117l1.424 5.103h1.412l2.071-7.058h-1.424l-1.373 5.154h-.064l-1.386-5.154h-1.425l-1.385 5.18h-.065l-1.386-5.18h-1.424l2.085 7.058zM253.064 427.078h1.386v-7.058h-1.386v7.058zm.7-8.159c.479 0 .867-.362.867-.816 0-.453-.388-.815-.868-.815-.479 0-.867.362-.867.815 0 .454.388.816.867.816zM259.59 420.02h-1.45v-1.696h-1.372v1.696h-1.036v1.1h1.036v4.17c0 1.283.971 1.904 2.059 1.878.44 0 .738-.09.893-.142l-.246-1.14c-.09.013-.259.065-.492.065-.44 0-.842-.155-.842-.945v-3.885h1.45v-1.101zM262.635 422.882c0-1.127.713-1.774 1.684-1.774.945 0 1.515.608 1.515 1.644v4.326h1.373v-4.494c0-1.761-.959-2.668-2.422-2.668-1.088 0-1.761.48-2.085 1.244h-.09v-3.497h-1.36v9.415h1.385v-4.196zM272.476 417.663h1.373v9.415h-1.373zM275.699 427.078h1.386v-7.058h-1.386v7.058zm.7-8.159c.478 0 .867-.362.867-.816 0-.453-.389-.815-.868-.815s-.867.362-.867.815c0 .454.388.816.867.816zM284.22 421.742c-.285-1.1-1.14-1.826-2.668-1.826-1.592 0-2.732.842-2.732 2.098 0 .997.609 1.67 1.93 1.969l1.204.259c.673.155.997.453.997.893 0 .544-.583.971-1.49.971-.828 0-1.346-.35-1.514-1.049l-1.334.208c.233 1.256 1.269 1.955 2.862 1.955 1.709 0 2.887-.906 2.887-2.188 0-.998-.634-1.606-1.93-1.904l-1.126-.259c-.777-.181-1.113-.453-1.113-.932 0-.544.582-.92 1.372-.92.855 0 1.243.466 1.412.946l1.243-.22zM289.164 420.02h-1.45v-1.696h-1.373v1.696h-1.036v1.1h1.036v4.17c0 1.283.971 1.904 2.06 1.878.44 0 .737-.09.893-.142l-.246-1.14c-.091.013-.26.065-.492.065-.44 0-.842-.155-.842-.945v-3.885h1.45v-1.101zM297.086 427.22c1.994 0 3.289-1.463 3.289-3.639 0-2.201-1.295-3.665-3.29-3.665-1.994 0-3.289 1.464-3.289 3.665 0 2.176 1.295 3.64 3.29 3.64zm0-1.152c-1.295 0-1.904-1.14-1.904-2.5 0-1.346.609-2.499 1.904-2.499s1.903 1.153 1.903 2.5c0 1.359-.608 2.499-1.903 2.499zM305.274 420.02h-1.528v-.634c0-.635.259-.972.932-.972.285 0 .492.065.622.104l.323-1.114a3.607 3.607 0 00-1.152-.181c-1.114 0-2.098.647-2.098 1.968v.829h-1.088v1.1h1.088v5.958h1.373v-5.957h1.528v-1.101zM311.501 422.882c0-1.127.687-1.774 1.645-1.774.932 0 1.49.621 1.49 1.644v4.326h1.385v-4.494c0-1.748-.972-2.668-2.409-2.668-1.062 0-1.761.493-2.085 1.244h-.09v-1.14h-1.321v7.058h1.385v-4.196zM320.829 427.22c1.994 0 3.29-1.463 3.29-3.639 0-2.201-1.296-3.665-3.29-3.665s-3.29 1.464-3.29 3.665c0 2.176 1.296 3.64 3.29 3.64zm0-1.152c-1.295 0-1.904-1.14-1.904-2.5 0-1.346.609-2.499 1.904-2.499s1.904 1.153 1.904 2.5c0 1.359-.61 2.499-1.904 2.499zM328.952 420.02h-1.45v-1.696h-1.373v1.696h-1.036v1.1h1.036v4.17c0 1.283.972 1.904 2.06 1.878.44 0 .737-.09.893-.142l-.246-1.14c-.09.013-.26.065-.492.065-.44 0-.842-.155-.842-.945v-3.885h1.45v-1.101zM333.434 427.22c1.541 0 2.642-.764 2.953-1.904l-1.308-.233c-.246.66-.842.998-1.619.998-1.178 0-1.968-.765-2.007-2.124h5.012v-.48c0-2.55-1.516-3.56-3.121-3.56-1.969 0-3.264 1.502-3.264 3.677 0 2.189 1.282 3.626 3.354 3.626zm-1.981-4.286c.052-1.01.777-1.878 1.904-1.878 1.061 0 1.76.79 1.76 1.878h-3.664zM343.293 421.742c-.285-1.1-1.14-1.826-2.668-1.826-1.593 0-2.732.842-2.732 2.098 0 .997.609 1.67 1.93 1.969l1.204.259c.673.155.997.453.997.893 0 .544-.583.971-1.49.971-.828 0-1.346-.35-1.515-1.049l-1.333.208c.233 1.256 1.269 1.955 2.862 1.955 1.709 0 2.887-.906 2.887-2.188 0-.998-.634-1.606-1.93-1.904l-1.126-.259c-.777-.181-1.113-.453-1.113-.932 0-.544.582-.92 1.372-.92.855 0 1.243.466 1.412.946l1.243-.22z" fill="#259d75" fill-rule="nonzero"/></g><g><path d="M482.01 280.396h-1.528l3.393 9.414h1.632l3.393-9.414h-1.541l-2.616 7.666h-.104l-2.628-7.666zM492.477 289.953c1.541 0 2.642-.764 2.953-1.904l-1.308-.233c-.246.66-.842.997-1.619.997-1.178 0-1.968-.764-2.007-2.124h5.011v-.479c0-2.551-1.515-3.561-3.12-3.561-1.969 0-3.264 1.502-3.264 3.678 0 2.188 1.282 3.626 3.354 3.626zm-1.981-4.287c.052-1.01.777-1.877 1.903-1.877 1.062 0 1.762.79 1.762 1.877h-3.665zM497.04 289.81h1.386v-4.312c0-.92.712-1.593 1.683-1.593.285 0 .609.052.712.078v-1.308a3.872 3.872 0 00-.582-.039c-.83 0-1.528.48-1.787 1.23h-.078v-1.113h-1.334v7.057zM502.016 289.81h1.385v-7.057h-1.385v7.057zm.7-8.158c.478 0 .867-.363.867-.816 0-.453-.389-.816-.868-.816s-.868.363-.868.816c0 .453.389.816.868.816zM508.606 282.753h-1.528v-.635c0-.635.26-.971.933-.971.285 0 .492.065.621.103l.324-1.113a3.607 3.607 0 00-1.153-.182c-1.113 0-2.097.648-2.097 1.969v.829h-1.088v1.1h1.088v5.957h1.372v-5.957h1.528v-1.1zM510.885 292.465c1.14 0 1.865-.596 2.266-1.71l2.914-8.002h-1.476l-1.787 5.477h-.078l-1.787-5.477h-1.476l2.59 7.148-.169.466c-.35.945-.841 1.023-1.593.816l-.336 1.126c.168.078.53.156.932.156zM524.085 282.753h-1.45v-1.697h-1.373v1.697h-1.036v1.1h1.036v4.17c0 1.282.97 1.904 2.059 1.878.44 0 .738-.09.893-.143l-.246-1.14c-.09.014-.259.066-.492.066-.44 0-.842-.156-.842-.946v-3.885h1.45v-1.1zM528.502 289.953c1.994 0 3.29-1.464 3.29-3.64 0-2.2-1.296-3.664-3.29-3.664s-3.29 1.463-3.29 3.665c0 2.175 1.296 3.639 3.29 3.639zm0-1.153c-1.295 0-1.904-1.14-1.904-2.5 0-1.346.609-2.499 1.904-2.499s1.903 1.153 1.903 2.5c0 1.36-.608 2.5-1.903 2.5zM533.323 289.81h1.386v-2.512l.673-.673 2.409 3.185h1.683l-3.056-4.027 2.862-3.03h-1.645l-2.81 2.978h-.116v-5.335h-1.386v9.414zM543.279 289.953c1.54 0 2.642-.764 2.952-1.904l-1.308-.233c-.246.66-.841.997-1.618.997-1.179 0-1.969-.764-2.008-2.124h5.012v-.479c0-2.551-1.515-3.561-3.12-3.561-1.97 0-3.264 1.502-3.264 3.678 0 2.188 1.282 3.626 3.354 3.626zm-1.982-4.287c.052-1.01.777-1.877 1.904-1.877 1.062 0 1.761.79 1.761 1.877h-3.665zM549.227 285.614c0-1.126.686-1.774 1.644-1.774.933 0 1.49.622 1.49 1.645v4.325h1.385v-4.493c0-1.749-.971-2.668-2.409-2.668-1.061 0-1.76.492-2.084 1.243h-.091v-1.14h-1.321v7.058h1.386v-4.196zM481.48 305.324c0 2.305.621 4.235 1.787 5.866h1.256c-.907-1.204-1.619-3.677-1.619-5.866 0-2.189.712-4.649 1.619-5.866h-1.256c-1.166 1.644-1.787 3.56-1.787 5.866zM488.03 309.39c1.166 0 1.826-.595 2.085-1.126h.065v.97h1.334v-4.687c0-2.059-1.619-2.473-2.733-2.473-1.282 0-2.46.518-2.913 1.813l1.282.284c.207-.492.725-.984 1.644-.984.894 0 1.347.466 1.347 1.27v.038c0 .492-.518.492-1.787.635-1.334.155-2.707.505-2.707 2.11 0 1.386 1.036 2.15 2.383 2.15zm.298-1.1c-.777 0-1.334-.35-1.334-1.036 0-.739.648-.998 1.45-1.101.44-.065 1.503-.182 1.697-.376v.907c0 .841-.66 1.605-1.813 1.605zM497.823 306.308c0 1.192-.893 1.774-1.657 1.774-.855 0-1.438-.621-1.438-1.58v-4.325h-1.385v4.48c0 1.762.97 2.668 2.318 2.668 1.062 0 1.787-.556 2.11-1.307h.078v1.217h1.347v-7.058h-1.373v4.131zM504.343 302.177h-1.45v-1.696h-1.373v1.696h-1.036v1.1h1.036v4.17c0 1.283.971 1.904 2.059 1.878.44 0 .738-.09.894-.142l-.247-1.14c-.09.013-.259.065-.492.065-.44 0-.841-.155-.841-.945v-3.885h1.45v-1.1zM507.388 305.04c0-1.128.713-1.775 1.684-1.775.945 0 1.515.609 1.515 1.645v4.325h1.373v-4.494c0-1.76-.959-2.667-2.422-2.667-1.088 0-1.761.479-2.085 1.243h-.09v-3.497h-1.36v9.415h1.385v-4.196zM516.84 309.377c1.542 0 2.642-.764 2.953-1.903l-1.308-.233c-.246.66-.841.997-1.618.997-1.179 0-1.969-.764-2.008-2.124h5.012v-.48c0-2.55-1.515-3.56-3.12-3.56-1.97 0-3.264 1.502-3.264 3.677 0 2.189 1.282 3.626 3.354 3.626zm-1.98-4.286c.051-1.01.776-1.878 1.903-1.878 1.062 0 1.761.79 1.761 1.878h-3.665zM522.79 305.04c0-1.128.686-1.775 1.644-1.775.933 0 1.49.622 1.49 1.645v4.325h1.385v-4.494c0-1.748-.971-2.667-2.408-2.667-1.062 0-1.762.492-2.085 1.243h-.091v-1.14h-1.32v7.058h1.385v-4.196zM532.441 302.177h-1.45v-1.696h-1.373v1.696h-1.036v1.1h1.036v4.17c0 1.283.971 1.904 2.06 1.878.44 0 .737-.09.893-.142l-.246-1.14c-.091.013-.26.065-.492.065-.44 0-.842-.155-.842-.945v-3.885h1.45v-1.1zM533.954 309.235h1.385v-7.058h-1.385v7.058zm.699-8.159c.48 0 .868-.362.868-.815 0-.454-.389-.816-.868-.816-.48 0-.868.362-.868.816 0 .453.389.815.868.815zM540.155 309.377c1.67 0 2.746-.997 2.901-2.382h-1.334c-.181.764-.764 1.217-1.554 1.217-1.165 0-1.916-.971-1.916-2.512 0-1.516.764-2.46 1.916-2.46.868 0 1.412.556 1.554 1.216h1.334c-.142-1.424-1.308-2.382-2.914-2.382-1.994 0-3.276 1.502-3.276 3.664 0 2.124 1.243 3.64 3.29 3.64zM546.589 309.39c1.165 0 1.826-.595 2.085-1.126h.064v.97h1.334v-4.687c0-2.059-1.618-2.473-2.732-2.473-1.282 0-2.46.518-2.914 1.813l1.282.284c.207-.492.725-.984 1.645-.984.893 0 1.347.466 1.347 1.27v.038c0 .492-.518.492-1.787.635-1.334.155-2.707.505-2.707 2.11 0 1.386 1.036 2.15 2.383 2.15zm.298-1.1c-.777 0-1.334-.35-1.334-1.036 0-.739.647-.998 1.45-1.101.44-.065 1.502-.182 1.697-.376v.907c0 .841-.66 1.605-1.813 1.605zM555.204 302.177h-1.45v-1.696h-1.373v1.696h-1.036v1.1h1.036v4.17c0 1.283.971 1.904 2.06 1.878.44 0 .737-.09.893-.142l-.246-1.14c-.091.013-.26.065-.492.065-.44 0-.842-.155-.842-.945v-3.885h1.45v-1.1zM559.686 309.377c1.541 0 2.642-.764 2.953-1.903l-1.308-.233c-.246.66-.842.997-1.619.997-1.178 0-1.968-.764-2.007-2.124h5.011v-.48c0-2.55-1.515-3.56-3.12-3.56-1.969 0-3.264 1.502-3.264 3.677 0 2.189 1.282 3.626 3.354 3.626zm-1.981-4.286c.052-1.01.777-1.878 1.903-1.878 1.062 0 1.762.79 1.762 1.878h-3.665zM566.904 309.377c1.282 0 1.787-.79 2.033-1.243h.117v1.1h1.347v-9.414h-1.373v3.497h-.09c-.247-.44-.713-1.243-2.034-1.243-1.696 0-2.952 1.346-2.952 3.638 0 2.293 1.23 3.665 2.952 3.665zm.298-1.178c-1.23 0-1.865-1.075-1.865-2.5 0-1.398.622-2.447 1.865-2.447 1.205 0 1.84.971 1.84 2.448 0 1.489-.648 2.499-1.84 2.499zM575.007 305.337c0-2.318-.622-4.235-1.787-5.88h-1.27c.907 1.218 1.62 3.678 1.62 5.88 0 2.176-.713 4.649-1.62 5.853h1.27c1.165-1.631 1.787-3.56 1.787-5.853z" fill="#259d75" fill-rule="nonzero"/></g><g><path d="M241.52 168.109h1.464c-.324-1.826-1.89-3.095-3.924-3.095-2.435 0-4.222 1.826-4.222 4.843 0 2.978 1.736 4.83 4.287 4.83 2.292 0 3.924-1.502 3.924-3.872v-1.075h-3.704v1.166h2.318c-.026 1.528-1.023 2.486-2.538 2.486-1.658 0-2.875-1.256-2.875-3.548 0-2.28 1.23-3.535 2.823-3.535 1.243 0 2.098.686 2.447 1.8zM244.848 174.558h5.957v-1.218h-4.533v-2.887h4.17v-1.218h-4.17v-2.875h4.48v-1.217h-5.904v9.415zM252.19 166.36h2.94v8.198h1.411v-8.198h2.94v-1.217h-7.291v1.217zM267.987 164.703h-1.218l-3.043 11.266h1.23l3.03-11.266zM270.545 170.362c0-1.127.686-1.774 1.645-1.774.932 0 1.489.621 1.489 1.644v4.326h1.386v-4.494c0-1.748-.972-2.668-2.409-2.668-1.062 0-1.761.493-2.085 1.244h-.09v-1.14h-1.321v7.058h1.385v-4.196zM279.873 174.7c1.994 0 3.29-1.463 3.29-3.639 0-2.201-1.296-3.665-3.29-3.665s-3.29 1.464-3.29 3.665c0 2.176 1.296 3.64 3.29 3.64zm0-1.152c-1.295 0-1.904-1.14-1.904-2.5 0-1.347.609-2.5 1.904-2.5s1.903 1.153 1.903 2.5c0 1.36-.608 2.5-1.903 2.5zM287.995 167.5h-1.45v-1.696h-1.373v1.696h-1.036v1.1h1.036v4.17c0 1.283.971 1.904 2.059 1.878.44 0 .738-.09.893-.142l-.246-1.14c-.09.013-.259.065-.492.065-.44 0-.841-.155-.841-.945V168.6h1.45V167.5zM292.478 174.7c1.541 0 2.642-.764 2.953-1.904l-1.308-.233c-.246.66-.842.998-1.619.998-1.178 0-1.968-.765-2.007-2.124h5.011v-.48c0-2.55-1.515-3.56-3.12-3.56-1.969 0-3.264 1.502-3.264 3.677 0 2.189 1.282 3.626 3.354 3.626zm-1.981-4.286c.052-1.01.777-1.878 1.903-1.878 1.062 0 1.762.79 1.762 1.878h-3.665zM302.337 169.222c-.285-1.1-1.14-1.826-2.668-1.826-1.593 0-2.732.842-2.732 2.098 0 .997.608 1.67 1.93 1.969l1.204.259c.673.155.997.453.997.893 0 .544-.583.971-1.49.971-.828 0-1.346-.35-1.515-1.049l-1.333.208c.233 1.256 1.269 1.955 2.861 1.955 1.71 0 2.888-.906 2.888-2.188 0-.998-.634-1.606-1.93-1.904l-1.126-.259c-.777-.181-1.114-.453-1.114-.932 0-.544.583-.92 1.373-.92.855 0 1.243.466 1.412.945l1.243-.22z" fill="#c27e47" fill-rule="nonzero"/></g><g><path d="M482.01 178.093h-1.528l3.393 9.414h1.632l3.393-9.414h-1.541l-2.616 7.666h-.104l-2.628-7.666zM492.477 187.65c1.541 0 2.642-.764 2.953-1.904l-1.308-.233c-.246.66-.842.997-1.619.997-1.178 0-1.968-.764-2.007-2.123h5.011v-.48c0-2.55-1.515-3.56-3.12-3.56-1.969 0-3.264 1.501-3.264 3.677 0 2.188 1.282 3.626 3.354 3.626zm-1.981-4.287c.052-1.01.777-1.877 1.903-1.877 1.062 0 1.762.79 1.762 1.877h-3.665zM497.04 187.507h1.386v-4.312c0-.92.712-1.593 1.683-1.593.285 0 .609.052.712.078v-1.308a3.872 3.872 0 00-.582-.039c-.83 0-1.528.48-1.787 1.23h-.078v-1.113h-1.334v7.057zM502.016 187.507h1.385v-7.057h-1.385v7.057zm.7-8.158c.478 0 .867-.363.867-.816 0-.453-.389-.816-.868-.816s-.868.363-.868.816c0 .453.389.816.868.816zM508.606 180.45h-1.528v-.635c0-.634.26-.971.933-.971.285 0 .492.065.621.104l.324-1.114a3.607 3.607 0 00-1.153-.181c-1.113 0-2.097.647-2.097 1.968v.829h-1.088v1.1h1.088v5.957h1.372v-5.956h1.528v-1.101zM510.885 190.162c1.14 0 1.865-.596 2.266-1.71l2.914-8.002h-1.476l-1.787 5.478h-.078l-1.787-5.478h-1.476l2.59 7.148-.169.466c-.35.946-.841 1.023-1.593.816l-.336 1.127c.168.077.53.155.932.155zM524.085 180.45h-1.45v-1.697h-1.373v1.697h-1.036v1.1h1.036v4.17c0 1.282.97 1.904 2.059 1.878.44 0 .738-.09.893-.142l-.246-1.14c-.09.013-.259.065-.492.065-.44 0-.842-.156-.842-.946v-3.884h1.45v-1.101zM528.502 187.65c1.994 0 3.29-1.463 3.29-3.639 0-2.201-1.296-3.665-3.29-3.665s-3.29 1.464-3.29 3.665c0 2.176 1.296 3.639 3.29 3.639zm0-1.153c-1.295 0-1.904-1.14-1.904-2.499 0-1.347.609-2.5 1.904-2.5s1.903 1.153 1.903 2.5c0 1.36-.608 2.5-1.903 2.5zM533.323 187.507h1.386v-2.512l.673-.673 2.409 3.185h1.683l-3.056-4.027 2.862-3.03h-1.645l-2.81 2.978h-.116v-5.335h-1.386v9.414zM543.279 187.65c1.54 0 2.642-.764 2.952-1.904l-1.308-.233c-.246.66-.841.997-1.618.997-1.179 0-1.969-.764-2.008-2.123h5.012v-.48c0-2.55-1.515-3.56-3.12-3.56-1.97 0-3.264 1.501-3.264 3.677 0 2.188 1.282 3.626 3.354 3.626zm-1.982-4.287c.052-1.01.777-1.877 1.904-1.877 1.062 0 1.761.79 1.761 1.877h-3.665zM549.227 183.312c0-1.127.686-1.774 1.644-1.774.933 0 1.49.621 1.49 1.644v4.325h1.385v-4.493c0-1.748-.971-2.668-2.409-2.668-1.061 0-1.76.492-2.084 1.243h-.091v-1.14h-1.321v7.058h1.386v-4.195zM481.48 203.021c0 2.305.621 4.235 1.787 5.866h1.256c-.907-1.204-1.619-3.677-1.619-5.866 0-2.188.712-4.649 1.619-5.866h-1.256c-1.166 1.645-1.787 3.561-1.787 5.866zM488.03 207.087c1.166 0 1.826-.595 2.085-1.126h.065v.971h1.334v-4.688c0-2.059-1.619-2.473-2.733-2.473-1.282 0-2.46.518-2.913 1.813l1.282.285c.207-.492.725-.984 1.644-.984.894 0 1.347.466 1.347 1.269v.038c0 .493-.518.493-1.787.635-1.334.155-2.707.505-2.707 2.11 0 1.386 1.036 2.15 2.383 2.15zm.298-1.1c-.777 0-1.334-.35-1.334-1.036 0-.738.648-.997 1.45-1.101.44-.065 1.503-.181 1.697-.376v.907c0 .842-.66 1.606-1.813 1.606zM497.823 204.005c0 1.192-.893 1.775-1.657 1.775-.855 0-1.438-.622-1.438-1.58v-4.326h-1.385v4.481c0 1.761.97 2.668 2.318 2.668 1.062 0 1.787-.557 2.11-1.308h.078v1.217h1.347v-7.058h-1.373v4.131zM504.343 199.874h-1.45v-1.696h-1.373v1.696h-1.036v1.101h1.036v4.17c0 1.282.971 1.904 2.059 1.878.44 0 .738-.091.894-.143l-.247-1.14c-.09.014-.259.065-.492.065-.44 0-.841-.155-.841-.945v-3.885h1.45v-1.1zM507.388 202.736c0-1.126.713-1.774 1.684-1.774.945 0 1.515.609 1.515 1.645v4.325h1.373v-4.494c0-1.76-.959-2.667-2.422-2.667-1.088 0-1.761.479-2.085 1.243h-.09v-3.496h-1.36v9.414h1.385v-4.196zM520.595 199.874h-1.528v-.634c0-.635.259-.971.932-.971.285 0 .492.064.622.103l.323-1.113a3.607 3.607 0 00-1.152-.182c-1.114 0-2.098.648-2.098 1.969v.828h-1.088v1.101h1.088v5.957h1.373v-5.957h1.528v-1.1zM523.844 207.087c1.165 0 1.826-.595 2.085-1.126h.064v.971h1.334v-4.688c0-2.059-1.618-2.473-2.732-2.473-1.282 0-2.46.518-2.914 1.813l1.282.285c.207-.492.725-.984 1.645-.984.893 0 1.347.466 1.347 1.269v.038c0 .493-.518.493-1.787.635-1.334.155-2.707.505-2.707 2.11 0 1.386 1.036 2.15 2.383 2.15zm.298-1.1c-.777 0-1.334-.35-1.334-1.036 0-.738.647-.997 1.45-1.101.44-.065 1.502-.181 1.697-.376v.907c0 .842-.66 1.606-1.813 1.606zM529.157 206.932h1.386v-7.058h-1.386v7.058zm.7-8.158c.479 0 .867-.363.867-.816 0-.453-.388-.816-.868-.816-.479 0-.867.363-.867.816 0 .453.388.816.867.816zM532.38 197.518h1.373v9.414h-1.373zM540.085 204.005c0 1.192-.893 1.775-1.657 1.775-.855 0-1.438-.622-1.438-1.58v-4.326h-1.385v4.481c0 1.761.971 2.668 2.318 2.668 1.062 0 1.787-.557 2.11-1.308h.078v1.217h1.347v-7.058h-1.373v4.131zM543.302 206.932h1.386v-4.312c0-.92.712-1.593 1.683-1.593.285 0 .609.052.712.078v-1.308a3.872 3.872 0 00-.582-.04c-.83 0-1.528.48-1.787 1.231h-.078v-1.114h-1.334v7.058zM551.064 207.074c1.541 0 2.642-.764 2.953-1.903l-1.308-.233c-.246.66-.842.997-1.619.997-1.178 0-1.968-.764-2.007-2.124h5.011v-.479c0-2.551-1.515-3.561-3.12-3.561-1.969 0-3.264 1.502-3.264 3.678 0 2.188 1.282 3.625 3.354 3.625zm-1.981-4.286c.052-1.01.777-1.878 1.904-1.878 1.061 0 1.76.79 1.76 1.878h-3.664zM558.281 203.034c0-2.318-.621-4.234-1.787-5.879h-1.269c.906 1.217 1.619 3.678 1.619 5.88 0 2.175-.713 4.648-1.619 5.852h1.269c1.166-1.631 1.787-3.56 1.787-5.853z" fill="#db0c2f" fill-rule="nonzero"/></g><g><path d="M224.466 225.812h4.467v1.84h1.347v-1.84h1.243v-1.204h-1.243v-6.371h-1.748l-4.066 6.423v1.152zm4.467-1.204h-2.978v-.078l2.913-4.61h.065v4.688zM236.407 227.807c2.175 0 3.444-1.774 3.444-4.856 0-3.07-1.282-4.844-3.444-4.844-2.163 0-3.445 1.774-3.458 4.844 0 3.082 1.282 4.856 3.458 4.856zm0-1.23c-1.27 0-2.046-1.27-2.046-3.626.013-2.344.777-3.64 2.046-3.64 1.269 0 2.033 1.296 2.033 3.64 0 2.356-.764 3.625-2.033 3.625zM244.772 227.78c1.93 0 3.34-1.152 3.328-2.719.013-1.191-.712-2.046-1.969-2.24v-.065c.985-.259 1.632-1.023 1.62-2.085.012-1.385-1.127-2.564-2.94-2.564-1.736 0-3.121 1.036-3.16 2.577h1.373c.025-.867.841-1.398 1.774-1.398.958 0 1.58.595 1.58 1.463 0 .907-.726 1.502-1.775 1.502h-.79v1.166h.79c1.308 0 2.06.66 2.06 1.606 0 .919-.79 1.528-1.904 1.528-1.01 0-1.813-.518-1.865-1.36h-1.45c.064 1.54 1.424 2.59 3.328 2.59zM253.397 227.651h1.425v-4.105h4.001v-1.217h-4.001v-2.875h4.416v-1.217h-5.84v9.414zM263.332 227.794c1.994 0 3.29-1.464 3.29-3.64 0-2.2-1.296-3.664-3.29-3.664s-3.29 1.463-3.29 3.665c0 2.175 1.296 3.639 3.29 3.639zm0-1.153c-1.295 0-1.904-1.14-1.904-2.5 0-1.346.609-2.498 1.904-2.498s1.904 1.152 1.904 2.499c0 1.36-.609 2.5-1.904 2.5zM268.153 227.651h1.386v-4.312c0-.92.712-1.593 1.683-1.593.285 0 .609.052.713.078v-1.308a3.872 3.872 0 00-.583-.039c-.829 0-1.528.48-1.787 1.23h-.078v-1.113h-1.334v7.057zM273.245 227.651h1.347v-1.1h.103c.26.453.764 1.243 2.046 1.243 1.71 0 2.953-1.373 2.953-3.665s-1.256-3.639-2.965-3.639c-1.308 0-1.788.803-2.034 1.243h-.077v-3.496h-1.373v9.414zm1.347-3.535c0-1.476.647-2.447 1.839-2.447 1.256 0 1.877 1.048 1.877 2.447 0 1.425-.647 2.5-1.877 2.5-1.179 0-1.84-1.01-1.84-2.5zM281.231 227.651h1.386v-7.057h-1.386v7.057zm.7-8.158c.479 0 .867-.363.867-.816 0-.453-.388-.816-.868-.816-.479 0-.867.363-.867.816 0 .453.388.816.867.816zM287.11 227.794c1.282 0 1.787-.79 2.033-1.243h.117v1.1h1.347v-9.414h-1.373v3.496h-.09c-.247-.44-.713-1.243-2.034-1.243-1.696 0-2.952 1.347-2.952 3.639s1.23 3.665 2.952 3.665zm.298-1.179c-1.23 0-1.865-1.074-1.865-2.499 0-1.399.622-2.447 1.865-2.447 1.205 0 1.84.97 1.84 2.447 0 1.49-.648 2.5-1.84 2.5zM295.213 227.794c1.282 0 1.787-.79 2.033-1.243h.117v1.1h1.346v-9.414h-1.372v3.496h-.09c-.247-.44-.713-1.243-2.034-1.243-1.696 0-2.953 1.347-2.953 3.639s1.23 3.665 2.953 3.665zm.298-1.179c-1.23 0-1.865-1.074-1.865-2.499 0-1.399.622-2.447 1.865-2.447 1.204 0 1.839.97 1.839 2.447 0 1.49-.648 2.5-1.84 2.5zM303.704 227.794c1.541 0 2.642-.764 2.953-1.904l-1.308-.233c-.246.66-.842.997-1.619.997-1.178 0-1.968-.764-2.007-2.124h5.011v-.479c0-2.55-1.515-3.56-3.12-3.56-1.969 0-3.264 1.501-3.264 3.677 0 2.188 1.282 3.626 3.354 3.626zm-1.981-4.287c.052-1.01.777-1.877 1.904-1.877 1.061 0 1.76.79 1.76 1.877h-3.664zM309.652 223.456c0-1.127.686-1.775 1.645-1.775.932 0 1.489.622 1.489 1.645v4.325h1.385v-4.493c0-1.748-.97-2.668-2.408-2.668-1.062 0-1.761.492-2.085 1.243h-.09v-1.14h-1.322v7.058h1.386v-4.195z" fill="#db0c2f" fill-rule="nonzero"/></g></svg>