<svg xmlns="http://www.w3.org/2000/svg" viewBox="0 0 96 96"><circle cx="48" cy="48" r="48" fill="#db0b2f"/><path d="M37.309 22.56c-8.676 0-15.709 7.016-15.709 15.67v25.186a5.226 5.226 0 0 0 3.63 4.972 5.246 5.246 0 0 0 5.858-1.922l10.384-14.405a2.618 2.618 0 0 1 2.009-1.084 2.62 2.62 0 0 1 2.098.901L57.65 65.814c1.492 1.723 3.662 2.826 5.944 2.826h7.751c2.084 0 4.081-.939 5.554-2.408a7.829 7.829 0 0 0 2.301-5.541V47.127c0-3.187-1.268-6.244-3.525-8.495L63.077 26.064a12.002 12.002 0 0 0-8.475-3.504H37.309Z" fill="#fff"/></svg>