<svg xmlns="http://www.w3.org/2000/svg" viewBox="0 0 96 96"><path fill="#db0b2f" d="M26.182 9.6C11.722 9.6 0 21.293 0 35.717v41.977a8.707 8.707 0 0 0 6.051 8.286 8.739 8.739 0 0 0 9.762-3.204L33.12 58.768a4.369 4.369 0 0 1 6.845-.304L60.084 81.69c2.487 2.871 6.102 4.71 9.905 4.71h12.92c3.472 0 6.802-1.565 9.257-4.014A13.041 13.041 0 0 0 96 73.152V50.545a20.001 20.001 0 0 0-5.875-14.159L69.128 15.44A20.001 20.001 0 0 0 55.003 9.6H26.182Z"/><circle cx="75.36" cy="65.76" r="8.64" fill="#fff"/></svg>