<svg viewBox="0 0 544 518" xmlns="http://www.w3.org/2000/svg" fill-rule="evenodd" clip-rule="evenodd" stroke-linecap="round" stroke-linejoin="round"><path d="M173.416 207.99l-21.162 16.999a10 10 0 00-3.738 7.796v55.206" fill="none" stroke="#c27e47" stroke-width="2"/><path d="M169.516 217.99l-10.7 1.7 4-10 10.6-1.7-3.9 10z" fill="#c27e47" fill-rule="nonzero" stroke="#c27e47" stroke-width="2"/><path d="M400.361 292.17c2.52 0 3.99-2.055 3.99-5.625 0-3.555-1.485-5.61-3.99-5.61s-3.99 2.055-4.005 5.61c0 3.57 1.485 5.625 4.005 5.625zm0-1.425c-1.47 0-2.37-1.47-2.37-4.2.015-2.715.9-4.215 2.37-4.215 1.47 0 2.355 1.5 2.355 4.215 0 2.73-.885 4.2-2.355 4.2zM406.916 292.095a1.07 1.07 0 001.065-1.065 1.07 1.07 0 00-1.065-1.065 1.07 1.07 0 00-1.065 1.065c0 .585.48 1.065 1.065 1.065zM411.161 292.095a1.07 1.07 0 001.065-1.065 1.07 1.07 0 00-1.065-1.065 1.07 1.07 0 00-1.065 1.065c0 .585.48 1.065 1.065 1.065zM416.622 287.22h1.155l-.09-2.25 1.89 1.215.585-1.005-2.01-1.035 2.01-1.02-.585-1.02-1.89 1.23.09-2.25h-1.155l.105 2.25-1.89-1.23-.585 1.02 2.01 1.02-2.01 1.035.585 1.005 1.89-1.215-.105 2.25z" fill="#259d75" fill-rule="nonzero"/><g><path d="M362.616 207.99l21.162 16.999a10 10 0 013.738 7.796v67.206" fill="none" stroke="#c27e47" stroke-width="2"/></g><g><path d="M373.216 209.69l4 10-10.7-1.7-3.9-10 10.6 1.7z" fill="#c27e47" fill-rule="nonzero" stroke="#c27e47" stroke-width="2"/></g><g><path d="M329.5 23.242c0-5.38-4.38-9.742-9.782-9.742H136.282c-5.402 0-9.782 4.362-9.782 9.742v132.516c0 5.38 4.38 9.742 9.782 9.742h183.436c5.402 0 9.782-4.362 9.782-9.742V23.242z" fill="none" stroke="#db0c2f" stroke-width="2" transform="matrix(1.02227 0 0 1.02644 35.671 36.134)"/><path d="M240.685 75.99l1.005-2.88h4.26l1.005 2.88h1.74l-3.93-10.904h-1.89l-3.93 10.905h1.74zm1.485-4.274l1.605-4.65h.09l1.605 4.65h-3.3zM253.456 76.156c1.935 0 3.18-1.155 3.36-2.76h-1.545c-.21.885-.885 1.41-1.8 1.41-1.35 0-2.22-1.125-2.22-2.91 0-1.755.885-2.85 2.22-2.85 1.005 0 1.635.645 1.8 1.41h1.545c-.165-1.65-1.515-2.76-3.375-2.76-2.31 0-3.795 1.74-3.795 4.245 0 2.46 1.44 4.215 3.81 4.215zM261.973 76.156c1.935 0 3.18-1.155 3.36-2.76h-1.545c-.21.885-.885 1.41-1.8 1.41-1.35 0-2.22-1.125-2.22-2.91 0-1.755.885-2.85 2.22-2.85 1.005 0 1.635.645 1.8 1.41h1.545c-.165-1.65-1.515-2.76-3.375-2.76-2.31 0-3.795 1.74-3.795 4.245 0 2.46 1.44 4.215 3.81 4.215zM270.49 76.156c2.31 0 3.81-1.695 3.81-4.215 0-2.55-1.5-4.245-3.81-4.245s-3.81 1.695-3.81 4.245c0 2.52 1.5 4.215 3.81 4.215zm0-1.335c-1.5 0-2.204-1.32-2.204-2.895 0-1.56.705-2.895 2.205-2.895s2.205 1.335 2.205 2.895c0 1.575-.705 2.895-2.205 2.895zM281.265 72.6c0 1.38-1.035 2.056-1.92 2.056-.99 0-1.665-.72-1.665-1.83v-5.01h-1.605v5.19c0 2.04 1.125 3.09 2.685 3.09 1.23 0 2.07-.645 2.445-1.515h.09v1.41h1.56v-8.175h-1.59V72.6zM286.597 71.13c0-1.304.795-2.054 1.905-2.054 1.08 0 1.725.72 1.725 1.905v5.01h1.605v-5.205c0-2.025-1.125-3.09-2.79-3.09-1.23 0-2.04.57-2.415 1.44h-.105v-1.32h-1.53v8.175h1.605v-4.86zM297.776 67.816h-1.68V65.85h-1.59v1.965h-1.2v1.275h1.2v4.83c0 1.485 1.125 2.205 2.385 2.175.51 0 .855-.105 1.035-.165l-.285-1.32c-.105.015-.3.075-.57.075-.51 0-.975-.18-.975-1.095v-4.5h1.68v-1.275z" fill="#c27e47" fill-rule="nonzero"/><g><path d="M180.081 115.99h1.605v-2.91l.78-.78 2.79 3.69h1.95l-3.54-4.665 3.315-3.51h-1.905l-3.255 3.45h-.135v-6.18h-1.605v10.905zM191.612 116.155c1.785 0 3.06-.885 3.42-2.205l-1.515-.27c-.285.765-.975 1.155-1.875 1.155-1.365 0-2.28-.885-2.325-2.46h5.805v-.555c0-2.955-1.755-4.125-3.615-4.125-2.28 0-3.78 1.74-3.78 4.26 0 2.535 1.485 4.2 3.885 4.2zm-2.295-4.965c.06-1.17.9-2.175 2.205-2.175 1.23 0 2.04.915 2.04 2.175h-4.245zM197.658 119.065c1.32 0 2.16-.69 2.625-1.98l3.375-9.27h-1.71l-2.07 6.345h-.09l-2.07-6.345h-1.71l3 8.28-.195.54c-.405 1.095-.975 1.185-1.845.945l-.39 1.305c.195.09.615.18 1.08.18zM206.199 110.14a1.07 1.07 0 001.065-1.065 1.07 1.07 0 00-1.065-1.065 1.07 1.07 0 00-1.065 1.065c0 .585.48 1.065 1.065 1.065zm0 5.955a1.07 1.07 0 001.065-1.065 1.07 1.07 0 00-1.065-1.065 1.07 1.07 0 00-1.065 1.065c0 .585.48 1.065 1.065 1.065zM219.458 107.95h1.575c-.045-1.755-1.59-3.015-3.81-3.015-2.175 0-3.855 1.245-3.855 3.135 0 1.515 1.08 2.4 2.835 2.88l1.29.345c1.17.315 2.07.69 2.07 1.665 0 1.065-1.02 1.77-2.43 1.77-1.26 0-2.31-.57-2.415-1.755h-1.65c.105 1.98 1.635 3.195 4.08 3.195 2.565 0 4.035-1.35 4.035-3.195 0-1.965-1.755-2.73-3.135-3.075l-1.065-.27c-.855-.225-1.98-.615-1.98-1.665 0-.93.855-1.605 2.19-1.605 1.245 0 2.145.585 2.265 1.59zM226.845 107.815h-1.68v-1.965h-1.59v1.965h-1.2v1.275h1.2v4.83c0 1.485 1.125 2.205 2.385 2.175.51 0 .855-.105 1.035-.165l-.285-1.32c-.105.015-.3.075-.57.075-.51 0-.975-.18-.975-1.095v-4.5h1.68v-1.275zM228.597 115.99h1.605v-4.995c0-1.065.825-1.845 1.95-1.845.33 0 .705.06.825.09v-1.515a4.485 4.485 0 00-.675-.045c-.96 0-1.77.555-2.07 1.425h-.09v-1.29h-1.545v8.175zM234.36 115.99h1.605v-8.175h-1.605v8.175zm.81-9.45c.556 0 1.006-.42 1.006-.945 0-.525-.45-.945-1.005-.945-.555 0-1.005.42-1.005.945 0 .525.45.945 1.005.945zM239.7 111.13c0-1.305.795-2.055 1.905-2.055 1.08 0 1.725.72 1.725 1.905v5.01h1.604v-5.205c0-2.025-1.125-3.09-2.79-3.09-1.23 0-2.04.57-2.415 1.44h-.105v-1.32h-1.53v8.175h1.606v-4.86zM250.49 119.23c2.084 0 3.69-.96 3.69-3.06v-8.355h-1.56v1.32h-.12c-.286-.51-.84-1.44-2.37-1.44-1.966 0-3.42 1.56-3.42 4.17s1.484 4.005 3.42 4.005c1.5 0 2.07-.855 2.37-1.365h.09v1.605c0 1.275-.87 1.83-2.086 1.83-1.32 0-1.845-.66-2.13-1.125l-1.365.555c.435 1.005 1.53 1.86 3.48 1.86zm-.016-4.68c-1.425 0-2.16-1.095-2.16-2.7 0-1.575.72-2.79 2.16-2.79 1.395 0 2.13 1.125 2.13 2.79 0 1.68-.75 2.7-2.13 2.7z" fill="#259d75" fill-rule="nonzero"/></g><g><path d="M185.271 136.6c0 1.38-1.035 2.055-1.92 2.055-.99 0-1.665-.72-1.665-1.83v-5.01h-1.605v5.19c0 2.04 1.125 3.09 2.685 3.09 1.23 0 2.07-.645 2.445-1.515h.09v1.41h1.56v-8.175h-1.59v4.785zM195.133 133.81c-.33-1.275-1.32-2.115-3.09-2.115-1.845 0-3.165.975-3.165 2.43 0 1.155.705 1.935 2.235 2.28l1.395.3c.78.18 1.155.525 1.155 1.035 0 .63-.675 1.125-1.725 1.125-.96 0-1.56-.405-1.755-1.215l-1.545.24c.27 1.455 1.47 2.265 3.315 2.265 1.98 0 3.345-1.05 3.345-2.535 0-1.155-.735-1.86-2.235-2.205l-1.305-.3c-.9-.21-1.29-.525-1.29-1.08 0-.63.675-1.065 1.59-1.065.99 0 1.44.54 1.635 1.095l1.44-.255zM200.561 140.155c1.785 0 3.06-.885 3.42-2.205l-1.515-.27c-.285.765-.975 1.155-1.875 1.155-1.365 0-2.28-.885-2.325-2.46h5.805v-.555c0-2.955-1.755-4.125-3.615-4.125-2.28 0-3.78 1.74-3.78 4.26 0 2.535 1.485 4.2 3.885 4.2zm-2.295-4.965c.06-1.17.9-2.175 2.205-2.175 1.23 0 2.04.915 2.04 2.175h-4.245zM205.847 139.99h1.605v-4.995c0-1.065.825-1.845 1.95-1.845.33 0 .705.06.825.09v-1.515a4.485 4.485 0 00-.675-.045c-.96 0-1.77.555-2.07 1.425h-.09v-1.29h-1.545v8.175zM212.66 134.14a1.07 1.07 0 001.065-1.065 1.07 1.07 0 00-1.065-1.065 1.07 1.07 0 00-1.065 1.065c0 .585.48 1.065 1.065 1.065zm0 5.955a1.07 1.07 0 001.065-1.065 1.07 1.07 0 00-1.065-1.065 1.07 1.07 0 00-1.065 1.065c0 .585.48 1.065 1.065 1.065zM226.984 129.085v7.035c0 1.485-1.035 2.55-2.685 2.55-1.665 0-2.685-1.065-2.685-2.55v-7.035h-1.65v7.17c0 2.295 1.71 3.915 4.335 3.915 2.61 0 4.335-1.62 4.335-3.915v-7.17h-1.65zM237.028 133.81c-.33-1.275-1.32-2.115-3.09-2.115-1.845 0-3.165.975-3.165 2.43 0 1.155.705 1.935 2.235 2.28l1.395.3c.78.18 1.155.525 1.155 1.035 0 .63-.675 1.125-1.725 1.125-.96 0-1.56-.405-1.755-1.215l-1.545.24c.27 1.455 1.47 2.265 3.315 2.265 1.98 0 3.345-1.05 3.345-2.535 0-1.155-.735-1.86-2.235-2.205l-1.305-.3c-.9-.21-1.29-.525-1.29-1.08 0-.63.675-1.065 1.59-1.065.99 0 1.44.54 1.635 1.095l1.44-.255zM242.456 140.155c1.785 0 3.06-.885 3.42-2.205l-1.515-.27c-.285.765-.975 1.155-1.875 1.155-1.365 0-2.28-.885-2.325-2.46h5.805v-.555c0-2.955-1.755-4.125-3.615-4.125-2.28 0-3.78 1.74-3.78 4.26 0 2.535 1.485 4.2 3.885 4.2zm-2.295-4.965c.06-1.17.9-2.175 2.205-2.175 1.23 0 2.04.915 2.04 2.175h-4.245zM247.741 139.99h1.605v-4.995c0-1.065.825-1.845 1.95-1.845.33 0 .705.06.825.09v-1.515a4.485 4.485 0 00-.675-.045c-.96 0-1.77.555-2.07 1.425h-.09v-1.29h-1.545v8.175z" fill="#259d75" fill-rule="nonzero"/></g><g><path d="M186.216 157.81c-.33-1.275-1.32-2.115-3.09-2.115-1.845 0-3.165.975-3.165 2.43 0 1.155.705 1.935 2.235 2.28l1.395.3c.78.18 1.155.525 1.155 1.035 0 .63-.675 1.125-1.725 1.125-.96 0-1.56-.405-1.755-1.215l-1.545.24c.27 1.455 1.47 2.265 3.315 2.265 1.98 0 3.345-1.05 3.345-2.535 0-1.155-.735-1.86-2.235-2.205l-1.305-.3c-.9-.21-1.29-.525-1.29-1.08 0-.63.675-1.065 1.59-1.065.99 0 1.44.54 1.635 1.095l1.44-.255zM191.644 164.155c1.785 0 3.06-.885 3.42-2.205l-1.515-.27c-.285.765-.975 1.155-1.875 1.155-1.365 0-2.28-.885-2.325-2.46h5.805v-.555c0-2.955-1.755-4.125-3.615-4.125-2.28 0-3.78 1.74-3.78 4.26 0 2.535 1.485 4.2 3.885 4.2zm-2.295-4.965c.06-1.17.9-2.175 2.205-2.175 1.23 0 2.04.915 2.04 2.175h-4.245zM203.065 157.81c-.33-1.275-1.32-2.115-3.09-2.115-1.845 0-3.165.975-3.165 2.43 0 1.155.705 1.935 2.235 2.28l1.395.3c.78.18 1.155.525 1.155 1.035 0 .63-.675 1.125-1.725 1.125-.96 0-1.56-.405-1.755-1.215l-1.545.24c.27 1.455 1.47 2.265 3.315 2.265 1.98 0 3.345-1.05 3.345-2.535 0-1.155-.735-1.86-2.235-2.205l-1.305-.3c-.9-.21-1.29-.525-1.29-1.08 0-.63.675-1.065 1.59-1.065.99 0 1.44.54 1.635 1.095l1.44-.255zM211.103 157.81c-.33-1.275-1.32-2.115-3.09-2.115-1.845 0-3.165.975-3.165 2.43 0 1.155.705 1.935 2.235 2.28l1.395.3c.78.18 1.155.525 1.155 1.035 0 .63-.675 1.125-1.725 1.125-.96 0-1.56-.405-1.755-1.215l-1.545.24c.27 1.455 1.47 2.265 3.315 2.265 1.98 0 3.345-1.05 3.345-2.535 0-1.155-.735-1.86-2.235-2.205l-1.305-.3c-.9-.21-1.29-.525-1.29-1.08 0-.63.675-1.065 1.59-1.065.99 0 1.44.54 1.635 1.095l1.44-.255zM213.006 163.99h1.605v-8.175h-1.605v8.175zm.81-9.45c.555 0 1.005-.42 1.005-.945 0-.525-.45-.945-1.005-.945-.555 0-1.005.42-1.005.945 0 .525.45.945 1.005.945zM220.19 164.155c2.31 0 3.81-1.695 3.81-4.215 0-2.55-1.5-4.245-3.81-4.245s-3.81 1.695-3.81 4.245c0 2.52 1.5 4.215 3.81 4.215zm0-1.335c-1.5 0-2.205-1.32-2.205-2.895 0-1.56.705-2.895 2.205-2.895s2.205 1.335 2.205 2.895c0 1.575-.705 2.895-2.205 2.895zM227.379 159.13c0-1.305.795-2.055 1.905-2.055 1.08 0 1.725.72 1.725 1.905v5.01h1.605v-5.205c0-2.025-1.125-3.09-2.79-3.09-1.23 0-2.04.57-2.415 1.44h-.105v-1.32h-1.53v8.175h1.605v-4.86zM240.868 157.81c-.33-1.275-1.32-2.115-3.09-2.115-1.845 0-3.165.975-3.165 2.43 0 1.155.705 1.935 2.235 2.28l1.395.3c.78.18 1.155.525 1.155 1.035 0 .63-.675 1.125-1.725 1.125-.96 0-1.56-.405-1.755-1.215l-1.545.24c.27 1.455 1.47 2.265 3.315 2.265 1.98 0 3.345-1.05 3.345-2.535 0-1.155-.735-1.86-2.235-2.205l-1.305-.3c-.9-.21-1.29-.525-1.29-1.08 0-.63.675-1.065 1.59-1.065.99 0 1.44.54 1.635 1.095l1.44-.255zM243.821 158.14a1.07 1.07 0 001.065-1.065 1.07 1.07 0 00-1.065-1.065 1.07 1.07 0 00-1.065 1.065c0 .585.48 1.065 1.065 1.065zm0 5.955a1.07 1.07 0 001.065-1.065 1.07 1.07 0 00-1.065-1.065 1.07 1.07 0 00-1.065 1.065c0 .585.48 1.065 1.065 1.065zM257.08 155.95h1.575c-.045-1.755-1.59-3.015-3.81-3.015-2.175 0-3.855 1.245-3.855 3.135 0 1.515 1.08 2.4 2.835 2.88l1.29.345c1.17.315 2.07.69 2.07 1.665 0 1.065-1.02 1.77-2.43 1.77-1.26 0-2.31-.57-2.415-1.755h-1.65c.105 1.98 1.635 3.195 4.08 3.195 2.565 0 4.035-1.35 4.035-3.195 0-1.965-1.755-2.73-3.135-3.075l-1.064-.27c-.855-.225-1.98-.615-1.98-1.665 0-.93.855-1.605 2.19-1.605 1.245 0 2.145.585 2.265 1.59zM264.167 164.155c1.785 0 3.06-.885 3.42-2.205l-1.515-.27c-.285.765-.975 1.155-1.875 1.155-1.365 0-2.28-.885-2.325-2.46h5.805v-.555c0-2.955-1.755-4.125-3.615-4.125-2.28 0-3.78 1.74-3.78 4.26 0 2.535 1.486 4.2 3.886 4.2zm-2.295-4.965c.06-1.17.9-2.175 2.205-2.175 1.23 0 2.04.915 2.04 2.175h-4.245zM273.278 155.815h-1.68v-1.965h-1.59v1.965h-1.2v1.275h1.2v4.83c0 1.485 1.125 2.205 2.385 2.175.51 0 .855-.105 1.035-.165l-.285-1.32c-.105.015-.3.075-.57.075-.51 0-.975-.18-.975-1.095v-4.5h1.68v-1.275zM274.994 160.3l7.08 3.42v-1.62l-5.175-2.355v-.09l5.175-2.355v-1.635l-7.08 3.435v1.2zM290.681 155.95h1.575c-.045-1.755-1.59-3.015-3.81-3.015-2.175 0-3.855 1.245-3.855 3.135 0 1.515 1.08 2.4 2.835 2.88l1.29.345c1.17.315 2.07.69 2.07 1.665 0 1.065-1.02 1.77-2.43 1.77-1.26 0-2.31-.57-2.415-1.755h-1.65c.105 1.98 1.635 3.195 4.08 3.195 2.565 0 4.035-1.35 4.035-3.195 0-1.965-1.755-2.73-3.135-3.075l-1.065-.27c-.855-.225-1.98-.615-1.98-1.665 0-.93.855-1.605 2.19-1.605 1.245 0 2.145.585 2.265 1.59zM297.768 164.155c1.785 0 3.06-.885 3.42-2.205l-1.515-.27c-.285.765-.975 1.155-1.875 1.155-1.365 0-2.28-.885-2.325-2.46h5.805v-.555c0-2.955-1.755-4.125-3.615-4.125-2.28 0-3.78 1.74-3.78 4.26 0 2.535 1.485 4.2 3.885 4.2zm-2.295-4.965c.06-1.17.9-2.175 2.205-2.175 1.23 0 2.04.915 2.04 2.175h-4.245zM309.188 157.81c-.33-1.275-1.32-2.115-3.09-2.115-1.845 0-3.165.975-3.165 2.43 0 1.155.705 1.935 2.235 2.28l1.395.3c.78.18 1.155.525 1.155 1.035 0 .63-.675 1.125-1.725 1.125-.96 0-1.56-.405-1.755-1.215l-1.545.24c.27 1.455 1.47 2.265 3.315 2.265 1.98 0 3.345-1.05 3.345-2.535 0-1.155-.735-1.86-2.235-2.205l-1.305-.3c-.9-.21-1.29-.525-1.29-1.08 0-.63.675-1.065 1.59-1.065.99 0 1.44.54 1.635 1.095l1.44-.255zM317.226 157.81c-.33-1.275-1.32-2.115-3.09-2.115-1.845 0-3.165.975-3.165 2.43 0 1.155.705 1.935 2.235 2.28l1.395.3c.78.18 1.155.525 1.155 1.035 0 .63-.675 1.125-1.725 1.125-.96 0-1.56-.405-1.755-1.215l-1.545.24c.27 1.455 1.47 2.265 3.315 2.265 1.98 0 3.345-1.05 3.345-2.535 0-1.155-.735-1.86-2.235-2.205l-1.305-.3c-.9-.21-1.29-.525-1.29-1.08 0-.63.675-1.065 1.59-1.065.99 0 1.44.54 1.635 1.095l1.44-.255zM319.13 163.99h1.604v-8.175h-1.605v8.175zm.81-9.45c.554 0 1.004-.42 1.004-.945 0-.525-.45-.945-1.005-.945-.555 0-1.005.42-1.005.945 0 .525.45.945 1.005.945zM326.313 164.155c2.31 0 3.81-1.695 3.81-4.215 0-2.55-1.5-4.245-3.81-4.245s-3.81 1.695-3.81 4.245c0 2.52 1.5 4.215 3.81 4.215zm0-1.335c-1.5 0-2.205-1.32-2.205-2.895 0-1.56.705-2.895 2.205-2.895s2.205 1.335 2.205 2.895c0 1.575-.705 2.895-2.205 2.895zM333.502 159.13c0-1.305.795-2.055 1.905-2.055 1.08 0 1.725.72 1.725 1.905v5.01h1.605v-5.205c0-2.025-1.125-3.09-2.79-3.09-1.23 0-2.04.57-2.415 1.44h-.105v-1.32h-1.53v8.175h1.605v-4.86zM348.327 160.3v-1.2l-7.08-3.435v1.635l5.175 2.355v.09l-5.175 2.355v1.62l7.08-3.42z" fill="#259d75" fill-rule="nonzero"/></g><g><path d="M183.531 188.155c1.935 0 3.18-1.155 3.36-2.76h-1.545c-.21.885-.885 1.41-1.8 1.41-1.35 0-2.22-1.125-2.22-2.91 0-1.755.885-2.85 2.22-2.85 1.005 0 1.635.645 1.8 1.41h1.545c-.165-1.65-1.515-2.76-3.375-2.76-2.31 0-3.795 1.74-3.795 4.245 0 2.46 1.44 4.215 3.81 4.215zM188.599 187.99h1.605v-4.995c0-1.065.825-1.845 1.95-1.845.33 0 .705.06.825.09v-1.515a4.485 4.485 0 00-.675-.045c-.96 0-1.77.555-2.07 1.425h-.09v-1.29h-1.545v8.175zM197.589 188.155c1.785 0 3.06-.885 3.42-2.205l-1.515-.27c-.285.765-.975 1.155-1.875 1.155-1.365 0-2.28-.885-2.325-2.46h5.805v-.555c0-2.955-1.755-4.125-3.615-4.125-2.28 0-3.78 1.74-3.78 4.26 0 2.535 1.485 4.2 3.885 4.2zm-2.295-4.965c.06-1.17.9-2.175 2.205-2.175 1.23 0 2.04.915 2.04 2.175h-4.245zM205.26 188.17c1.35 0 2.114-.69 2.414-1.305h.075v1.125h1.545v-5.43c0-2.385-1.875-2.865-3.165-2.865-1.485 0-2.85.6-3.375 2.1l1.485.33c.24-.57.84-1.14 1.905-1.14 1.035 0 1.56.54 1.56 1.47v.045c0 .57-.6.57-2.07.735-1.545.18-3.135.585-3.135 2.445 0 1.605 1.2 2.49 2.76 2.49zm.344-1.275c-.9 0-1.545-.405-1.545-1.2 0-.855.75-1.155 1.68-1.275.51-.075 1.74-.21 1.965-.435v1.05c0 .975-.765 1.86-2.1 1.86zM215.238 179.815h-1.68v-1.965h-1.59v1.965h-1.2v1.275h1.2v4.83c0 1.485 1.125 2.205 2.385 2.175.51 0 .855-.105 1.035-.165l-.285-1.32c-.105.015-.3.075-.57.075-.51 0-.975-.18-.975-1.095v-4.5h1.68v-1.275zM220.43 188.155c1.785 0 3.06-.885 3.42-2.205l-1.515-.27c-.285.765-.975 1.155-1.875 1.155-1.365 0-2.28-.885-2.325-2.46h5.805v-.555c0-2.955-1.755-4.125-3.615-4.125-2.28 0-3.78 1.74-3.78 4.26 0 2.535 1.485 4.2 3.885 4.2zm-2.295-4.965c.06-1.17.9-2.175 2.205-2.175 1.23 0 2.04.915 2.04 2.175h-4.245zM228.79 188.155c1.485 0 2.07-.915 2.355-1.44h.135v1.275h1.56v-10.905h-1.59v4.05h-.105c-.285-.51-.825-1.44-2.355-1.44-1.965 0-3.42 1.56-3.42 4.215s1.425 4.245 3.42 4.245zm.345-1.365c-1.425 0-2.16-1.245-2.16-2.895 0-1.62.72-2.835 2.16-2.835 1.395 0 2.13 1.125 2.13 2.835 0 1.725-.75 2.895-2.13 2.895zM236.15 182.14a1.07 1.07 0 001.066-1.065 1.07 1.07 0 00-1.065-1.065 1.07 1.07 0 00-1.065 1.065c0 .585.48 1.065 1.065 1.065zm0 5.955a1.07 1.07 0 001.066-1.065 1.07 1.07 0 00-1.065-1.065 1.07 1.07 0 00-1.065 1.065c0 .585.48 1.065 1.065 1.065zM243.17 187.99h7.8v-1.41h-5.79l5.745-8.4v-1.095h-7.8v1.41h5.79l-5.745 8.4v1.095zM256.353 188.155c2.31 0 3.81-1.695 3.81-4.215 0-2.55-1.5-4.245-3.81-4.245s-3.81 1.695-3.81 4.245c0 2.52 1.5 4.215 3.81 4.215zm0-1.335c-1.5 0-2.205-1.32-2.205-2.895 0-1.56.705-2.895 2.205-2.895s2.205 1.335 2.205 2.895c0 1.575-.705 2.895-2.205 2.895zM263.542 183.13c0-1.305.795-2.055 1.905-2.055 1.08 0 1.725.72 1.725 1.905v5.01h1.605v-5.205c0-2.025-1.125-3.09-2.79-3.09-1.23 0-2.04.57-2.415 1.44h-.105v-1.32h-1.53v8.175h1.605v-4.86zM274.421 188.155c1.785 0 3.06-.885 3.42-2.205l-1.515-.27c-.285.765-.975 1.155-1.875 1.155-1.365 0-2.28-.885-2.325-2.46h5.805v-.555c0-2.955-1.755-4.125-3.615-4.125-2.28 0-3.78 1.74-3.78 4.26 0 2.535 1.485 4.2 3.885 4.2zm-2.295-4.965c.06-1.17.9-2.175 2.205-2.175 1.23 0 2.04.915 2.04 2.175h-4.245zM282.782 188.155c1.485 0 2.07-.915 2.355-1.44h.135v1.275h1.56v-10.905h-1.59v4.05h-.105c-.285-.51-.825-1.44-2.355-1.44-1.965 0-3.42 1.56-3.42 4.215s1.425 4.245 3.42 4.245zm.345-1.365c-1.425 0-2.16-1.245-2.16-2.895 0-1.62.72-2.835 2.16-2.835 1.395 0 2.13 1.125 2.13 2.835 0 1.725-.75 2.895-2.13 2.895zM292.752 187.99c3.33 0 5.25-2.055 5.25-5.475 0-3.39-1.92-5.43-5.13-5.43h-3.645v10.905h3.525zm-1.875-1.44v-8.025h1.89c2.385 0 3.615 1.425 3.615 3.99 0 2.595-1.23 4.035-3.72 4.035h-1.785zM302.301 188.17c1.35 0 2.115-.69 2.415-1.305h.075v1.125h1.545v-5.43c0-2.385-1.875-2.865-3.165-2.865-1.485 0-2.85.6-3.375 2.1l1.485.33c.24-.57.84-1.14 1.905-1.14 1.035 0 1.56.54 1.56 1.47v.045c0 .57-.6.57-2.07.735-1.545.18-3.135.585-3.135 2.445 0 1.605 1.2 2.49 2.76 2.49zm.345-1.275c-.9 0-1.545-.405-1.545-1.2 0-.855.75-1.155 1.68-1.275.51-.075 1.74-.21 1.965-.435v1.05c0 .975-.765 1.86-2.1 1.86zM312.28 179.815h-1.68v-1.965h-1.59v1.965h-1.2v1.275h1.2v4.83c0 1.485 1.125 2.205 2.385 2.175.51 0 .855-.105 1.035-.165l-.285-1.32c-.105.015-.3.075-.57.075-.51 0-.975-.18-.975-1.095v-4.5h1.68v-1.275zM317.471 188.155c1.785 0 3.06-.885 3.42-2.205l-1.515-.27c-.285.765-.975 1.155-1.875 1.155-1.365 0-2.28-.885-2.325-2.46h5.805v-.555c0-2.955-1.755-4.125-3.615-4.125-2.28 0-3.78 1.74-3.78 4.26 0 2.535 1.485 4.2 3.885 4.2zm-2.295-4.965c.06-1.17.9-2.175 2.205-2.175 1.23 0 2.04.915 2.04 2.175h-4.245zM321.585 178.495h3.405v9.495h1.635v-9.495h3.405v-1.41h-8.445v1.41zM331.754 187.99h1.605v-8.175h-1.605v8.175zm.81-9.45c.555 0 1.005-.42 1.005-.945 0-.525-.45-.945-1.005-.945-.555 0-1.005.42-1.005.945 0 .525.45.945 1.005.945zM335.488 187.99h1.605v-5.04c0-1.11.765-1.875 1.665-1.875.885 0 1.5.585 1.5 1.47v5.445h1.59v-5.22c0-.975.6-1.695 1.635-1.695.855 0 1.545.465 1.545 1.575v5.34h1.59v-5.49c0-1.86-1.05-2.805-2.52-2.805-1.185 0-2.07.57-2.46 1.44h-.09c-.36-.885-1.11-1.44-2.205-1.44-1.08 0-1.875.54-2.22 1.44h-.105v-1.32h-1.53v8.175zM352.265 188.155c1.785 0 3.06-.885 3.42-2.205l-1.515-.27c-.285.765-.975 1.155-1.875 1.155-1.365 0-2.28-.885-2.325-2.46h5.805v-.555c0-2.955-1.755-4.125-3.615-4.125-2.28 0-3.78 1.74-3.78 4.26 0 2.535 1.485 4.2 3.885 4.2zm-2.295-4.965c.06-1.17.9-2.175 2.205-2.175 1.23 0 2.04.915 2.04 2.175h-4.245z" fill="#259d75" fill-rule="nonzero"/></g><g><path d="M126.5 53.5h203" fill="none" stroke="#db0c2f" stroke-opacity=".5" stroke-width="2" transform="matrix(1.01788 0 0 1 36.855 36.49)"/></g></g><g><path d="M202.5 255.277c0-5.4-4.317-9.777-9.641-9.777H23.141c-5.324 0-9.641 4.377-9.641 9.777v156.446c0 5.4 4.317 9.777 9.641 9.777h169.718c5.324 0 9.641-4.377 9.641-9.777V255.277z" fill="none" stroke="#db0c2f" stroke-width="2" transform="matrix(1.03721 0 0 1.02283 35.981 36.885)"/><path d="M138.899 303.085v7.035c0 1.485-1.035 2.55-2.685 2.55-1.665 0-2.685-1.065-2.685-2.55v-7.035h-1.65v7.17c0 2.295 1.71 3.915 4.335 3.915 2.61 0 4.335-1.62 4.335-3.915v-7.17h-1.65zM148.942 307.81c-.33-1.275-1.32-2.115-3.09-2.115-1.845 0-3.165.975-3.165 2.43 0 1.155.705 1.935 2.235 2.28l1.395.3c.78.18 1.155.525 1.155 1.035 0 .63-.675 1.125-1.725 1.125-.96 0-1.56-.405-1.755-1.215l-1.545.24c.27 1.455 1.47 2.265 3.315 2.265 1.98 0 3.345-1.05 3.345-2.535 0-1.155-.735-1.86-2.235-2.205l-1.305-.3c-.9-.21-1.29-.525-1.29-1.08 0-.63.675-1.065 1.59-1.065.99 0 1.44.54 1.635 1.095l1.44-.255zM154.37 314.155c1.785 0 3.06-.885 3.42-2.205l-1.515-.27c-.285.765-.975 1.155-1.875 1.155-1.365 0-2.28-.885-2.325-2.46h5.805v-.555c0-2.955-1.755-4.125-3.615-4.125-2.28 0-3.78 1.74-3.78 4.26 0 2.535 1.485 4.2 3.885 4.2zm-2.295-4.965c.06-1.17.9-2.175 2.205-2.175 1.23 0 2.04.915 2.04 2.175h-4.245zM159.656 313.99h1.605v-4.995c0-1.065.825-1.845 1.95-1.845.33 0 .705.06.825.09v-1.515a4.485 4.485 0 00-.675-.045c-.96 0-1.77.555-2.07 1.425h-.09v-1.29h-1.545v8.175z" fill="#c27e47" fill-rule="nonzero"/><path d="M66.081 353.99h1.605v-2.91l.78-.78 2.79 3.69h1.95l-3.54-4.665 3.315-3.51h-1.905l-3.255 3.45h-.135v-6.18h-1.605v10.905zM77.612 354.155c1.785 0 3.06-.885 3.42-2.205l-1.515-.27c-.285.765-.975 1.155-1.875 1.155-1.365 0-2.28-.885-2.325-2.46h5.805v-.555c0-2.955-1.755-4.125-3.615-4.125-2.28 0-3.78 1.74-3.78 4.26 0 2.535 1.485 4.2 3.885 4.2zm-2.295-4.965c.06-1.17.9-2.175 2.205-2.175 1.23 0 2.04.915 2.04 2.175h-4.245zM83.658 357.065c1.32 0 2.16-.69 2.625-1.98l3.375-9.27h-1.71l-2.07 6.345h-.09l-2.07-6.345h-1.71l3 8.28-.195.54c-.405 1.095-.975 1.185-1.845.945l-.39 1.305c.195.09.615.18 1.08.18zM92.199 348.14a1.07 1.07 0 001.065-1.065 1.07 1.07 0 00-1.065-1.065 1.07 1.07 0 00-1.065 1.065c0 .585.48 1.065 1.065 1.065zm0 5.955a1.07 1.07 0 001.065-1.065 1.07 1.07 0 00-1.065-1.065 1.07 1.07 0 00-1.065 1.065c0 .585.48 1.065 1.065 1.065zM105.458 345.95h1.575c-.045-1.755-1.59-3.015-3.81-3.015-2.175 0-3.855 1.245-3.855 3.135 0 1.515 1.08 2.4 2.835 2.88l1.29.345c1.17.315 2.07.69 2.07 1.665 0 1.065-1.02 1.77-2.43 1.77-1.26 0-2.31-.57-2.415-1.755h-1.65c.105 1.98 1.635 3.195 4.08 3.195 2.565 0 4.035-1.35 4.035-3.195 0-1.965-1.755-2.73-3.135-3.075l-1.065-.27c-.855-.225-1.98-.615-1.98-1.665 0-.93.855-1.605 2.19-1.605 1.245 0 2.145.585 2.265 1.59zM112.845 345.815h-1.68v-1.965h-1.59v1.965h-1.2v1.275h1.2v4.83c0 1.485 1.125 2.205 2.385 2.175.51 0 .855-.105 1.035-.165l-.285-1.32c-.105.015-.3.075-.57.075-.51 0-.975-.18-.975-1.095v-4.5h1.68v-1.275zM114.597 353.99h1.605v-4.995c0-1.065.825-1.845 1.95-1.845.33 0 .705.06.825.09v-1.515a4.485 4.485 0 00-.675-.045c-.96 0-1.77.555-2.07 1.425h-.09v-1.29h-1.545v8.175zM120.36 353.99h1.606v-8.175h-1.605v8.175zm.81-9.45c.556 0 1.006-.42 1.006-.945 0-.525-.45-.945-1.006-.945-.554 0-1.004.42-1.004.945 0 .525.45.945 1.005.945zM125.7 349.13c0-1.305.795-2.055 1.905-2.055 1.08 0 1.725.72 1.725 1.905v5.01h1.605v-5.205c0-2.025-1.125-3.09-2.79-3.09-1.23 0-2.04.57-2.415 1.44h-.105v-1.32h-1.53v8.175h1.605v-4.86zM136.49 357.23c2.084 0 3.69-.96 3.69-3.06v-8.355h-1.56v1.32h-.12c-.286-.51-.84-1.44-2.37-1.44-1.966 0-3.42 1.56-3.42 4.17s1.484 4.005 3.42 4.005c1.5 0 2.07-.855 2.37-1.365h.09v1.605c0 1.275-.87 1.83-2.086 1.83-1.32 0-1.845-.66-2.13-1.125l-1.365.555c.435 1.005 1.53 1.86 3.48 1.86zm-.016-4.68c-1.425 0-2.16-1.095-2.16-2.7 0-1.575.72-2.79 2.16-2.79 1.395 0 2.13 1.125 2.13 2.79 0 1.68-.75 2.7-2.13 2.7z" fill="#259d75" fill-rule="nonzero"/><g><path d="M67.686 373.13c0-1.305.795-2.055 1.905-2.055 1.08 0 1.725.72 1.725 1.905v5.01h1.605v-5.205c0-2.025-1.125-3.09-2.79-3.09-1.23 0-2.04.57-2.415 1.44h-.105v-1.32h-1.53v8.175h1.605v-4.86zM77.426 378.17c1.35 0 2.115-.69 2.415-1.305h.075v1.125h1.545v-5.43c0-2.385-1.875-2.865-3.165-2.865-1.485 0-2.85.6-3.375 2.1l1.485.33c.24-.57.84-1.14 1.905-1.14 1.035 0 1.56.54 1.56 1.47v.045c0 .57-.6.57-2.07.735-1.545.18-3.135.585-3.135 2.445 0 1.605 1.2 2.49 2.76 2.49zm.345-1.275c-.9 0-1.545-.405-1.545-1.2 0-.855.75-1.155 1.68-1.275.51-.075 1.74-.21 1.965-.435v1.05c0 .975-.765 1.86-2.1 1.86zM83.58 377.99h1.605v-5.04c0-1.11.765-1.875 1.665-1.875.885 0 1.5.585 1.5 1.47v5.445h1.59v-5.22c0-.975.6-1.695 1.635-1.695.855 0 1.545.465 1.545 1.575v5.34h1.59v-5.49c0-1.86-1.05-2.805-2.52-2.805-1.185 0-2.07.57-2.46 1.44h-.09c-.36-.885-1.11-1.44-2.205-1.44-1.08 0-1.875.54-2.22 1.44h-.105v-1.32h-1.53v8.175zM100.358 378.155c1.785 0 3.06-.885 3.42-2.205l-1.515-.27c-.285.765-.975 1.155-1.875 1.155-1.365 0-2.28-.885-2.325-2.46h5.805v-.555c0-2.955-1.755-4.125-3.615-4.125-2.28 0-3.78 1.74-3.78 4.26 0 2.535 1.485 4.2 3.885 4.2zm-2.295-4.965c.06-1.17.9-2.175 2.205-2.175 1.23 0 2.04.915 2.04 2.175h-4.245zM106.693 372.14a1.07 1.07 0 001.065-1.065 1.07 1.07 0 00-1.065-1.065 1.07 1.07 0 00-1.065 1.065c0 .585.48 1.065 1.065 1.065zm0 5.955a1.07 1.07 0 001.065-1.065 1.07 1.07 0 00-1.065-1.065 1.07 1.07 0 00-1.065 1.065c0 .585.48 1.065 1.065 1.065zM119.952 369.95h1.575c-.045-1.755-1.59-3.015-3.81-3.015-2.175 0-3.855 1.245-3.855 3.135 0 1.515 1.08 2.4 2.835 2.88l1.29.345c1.17.315 2.07.69 2.07 1.665 0 1.065-1.02 1.77-2.43 1.77-1.26 0-2.31-.57-2.415-1.755h-1.65c.105 1.98 1.635 3.195 4.08 3.195 2.565 0 4.035-1.35 4.035-3.195 0-1.965-1.755-2.73-3.135-3.075l-1.065-.27c-.855-.225-1.98-.615-1.98-1.665 0-.93.855-1.605 2.19-1.605 1.245 0 2.145.585 2.265 1.59zM127.339 369.815h-1.68v-1.965h-1.59v1.965h-1.2v1.275h1.2v4.83c0 1.485 1.125 2.205 2.385 2.175.51 0 .855-.105 1.035-.165l-.285-1.32c-.105.015-.3.075-.57.075-.51 0-.975-.18-.975-1.095v-4.5h1.68v-1.275zM129.091 377.99h1.605v-4.995c0-1.065.825-1.845 1.95-1.845.33 0 .705.06.825.09v-1.515a4.485 4.485 0 00-.675-.045c-.96 0-1.77.555-2.07 1.425h-.09v-1.29h-1.545v8.175zM134.855 377.99h1.605v-8.175h-1.606v8.175zm.81-9.45c.555 0 1.005-.42 1.005-.945 0-.525-.45-.945-1.005-.945-.555 0-1.005.42-1.005.945 0 .525.45.945 1.005.945zM140.194 373.13c0-1.305.795-2.055 1.905-2.055 1.08 0 1.725.72 1.725 1.905v5.01h1.604v-5.205c0-2.025-1.125-3.09-2.79-3.09-1.23 0-2.04.57-2.415 1.44h-.105v-1.32h-1.53v8.175h1.606v-4.86zM150.983 381.23c2.085 0 3.69-.96 3.69-3.06v-8.355h-1.56v1.32h-.12c-.285-.51-.84-1.44-2.37-1.44-1.965 0-3.42 1.56-3.42 4.17s1.485 4.005 3.42 4.005c1.5 0 2.07-.855 2.37-1.365h.09v1.605c0 1.275-.87 1.83-2.085 1.83-1.32 0-1.845-.66-2.13-1.125l-1.365.555c.435 1.005 1.53 1.86 3.48 1.86zm-.015-4.68c-1.425 0-2.16-1.095-2.16-2.7 0-1.575.72-2.79 2.16-2.79 1.395 0 2.13 1.125 2.13 2.79 0 1.68-.75 2.7-2.13 2.7z" fill="#259d75" fill-rule="nonzero"/></g><g><path d="M69.606 402.155c1.785 0 3.06-.885 3.42-2.205l-1.515-.27c-.285.765-.975 1.155-1.875 1.155-1.365 0-2.28-.885-2.325-2.46h5.805v-.555c0-2.955-1.755-4.125-3.615-4.125-2.28 0-3.78 1.74-3.78 4.26 0 2.535 1.485 4.2 3.885 4.2zm-2.295-4.965c.06-1.17.9-2.175 2.205-2.175 1.23 0 2.04.915 2.04 2.175h-4.245zM74.892 401.99h1.605v-5.04c0-1.11.765-1.875 1.665-1.875.885 0 1.5.585 1.5 1.47v5.445h1.59v-5.22c0-.975.6-1.695 1.635-1.695.855 0 1.545.465 1.545 1.575v5.34h1.59v-5.49c0-1.86-1.05-2.805-2.52-2.805-1.185 0-2.07.57-2.46 1.44h-.09c-.36-.885-1.11-1.44-2.205-1.44-1.08 0-1.875.54-2.22 1.44h-.105v-1.32h-1.53v8.175zM90.53 402.17c1.35 0 2.115-.69 2.415-1.305h.075v1.125h1.545v-5.43c0-2.385-1.875-2.865-3.165-2.865-1.485 0-2.85.6-3.375 2.1l1.485.33c.24-.57.84-1.14 1.905-1.14 1.035 0 1.56.54 1.56 1.47v.045c0 .57-.6.57-2.07.735-1.545.18-3.135.585-3.135 2.445 0 1.605 1.2 2.49 2.76 2.49zm.345-1.275c-.9 0-1.545-.405-1.545-1.2 0-.855.75-1.155 1.68-1.275.51-.075 1.74-.21 1.965-.435v1.05c0 .975-.765 1.86-2.1 1.86zM96.683 401.99h1.605v-8.175h-1.605v8.175zm.81-9.45c.555 0 1.005-.42 1.005-.945 0-.525-.45-.945-1.005-.945-.555 0-1.005.42-1.005.945 0 .525.45.945 1.005.945zM100.417 391.085h1.59v10.905h-1.59zM105.201 396.14a1.07 1.07 0 001.065-1.065 1.07 1.07 0 00-1.065-1.065 1.07 1.07 0 00-1.065 1.065c0 .585.48 1.065 1.065 1.065zm0 5.955a1.07 1.07 0 001.065-1.065 1.07 1.07 0 00-1.065-1.065 1.07 1.07 0 00-1.065 1.065c0 .585.48 1.065 1.065 1.065zM118.46 393.95h1.576c-.046-1.755-1.59-3.015-3.81-3.015-2.176 0-3.856 1.245-3.856 3.135 0 1.515 1.08 2.4 2.835 2.88l1.29.345c1.17.315 2.07.69 2.07 1.665 0 1.065-1.02 1.77-2.43 1.77-1.26 0-2.31-.57-2.415-1.755h-1.65c.105 1.98 1.635 3.195 4.08 3.195 2.565 0 4.035-1.35 4.035-3.195 0-1.965-1.755-2.73-3.135-3.075l-1.065-.27c-.855-.225-1.98-.615-1.98-1.665 0-.93.855-1.605 2.19-1.605 1.245 0 2.145.585 2.265 1.59zM125.848 393.815h-1.68v-1.965h-1.59v1.965h-1.2v1.275h1.2v4.83c0 1.485 1.124 2.205 2.384 2.175.51 0 .856-.105 1.036-.165l-.286-1.32c-.104.015-.3.075-.57.075-.51 0-.974-.18-.974-1.095v-4.5h1.68v-1.275zM127.6 401.99h1.605v-4.995c0-1.065.824-1.845 1.95-1.845.33 0 .704.06.824.09v-1.515a4.485 4.485 0 00-.675-.045c-.96 0-1.77.555-2.07 1.425h-.09v-1.29H127.6v8.175zM133.363 401.99h1.605v-8.175h-1.605v8.175zm.81-9.45c.555 0 1.005-.42 1.005-.945 0-.525-.45-.945-1.005-.945-.555 0-1.005.42-1.005.945 0 .525.45.945 1.005.945zM138.702 397.13c0-1.305.795-2.055 1.905-2.055 1.08 0 1.725.72 1.725 1.905v5.01h1.605v-5.205c0-2.025-1.125-3.09-2.79-3.09-1.23 0-2.04.57-2.415 1.44h-.105v-1.32h-1.53v8.175h1.605v-4.86zM149.492 405.23c2.085 0 3.69-.96 3.69-3.06v-8.355h-1.56v1.32h-.12c-.286-.51-.84-1.44-2.37-1.44-1.966 0-3.42 1.56-3.42 4.17s1.485 4.005 3.42 4.005c1.5 0 2.07-.855 2.37-1.365h.09v1.605c0 1.275-.87 1.83-2.086 1.83-1.32 0-1.845-.66-2.13-1.125l-1.365.555c.435 1.005 1.53 1.86 3.48 1.86zm-.015-4.68c-1.425 0-2.16-1.095-2.16-2.7 0-1.575.72-2.79 2.16-2.79 1.395 0 2.13 1.125 2.13 2.79 0 1.68-.75 2.7-2.13 2.7z" fill="#259d75" fill-rule="nonzero"/></g><g><path fill="#259d75" fill-rule="nonzero" d="M66.081 415.085h1.59v10.905h-1.59zM73.265 426.155c2.31 0 3.81-1.695 3.81-4.215 0-2.55-1.5-4.245-3.81-4.245s-3.81 1.695-3.81 4.245c0 2.52 1.5 4.215 3.81 4.215zm0-1.335c-1.5 0-2.205-1.32-2.205-2.895 0-1.56.705-2.895 2.205-2.895s2.205 1.335 2.205 2.895c0 1.575-.705 2.895-2.205 2.895zM82.3 426.155c1.935 0 3.18-1.155 3.36-2.76h-1.545c-.21.885-.885 1.41-1.8 1.41-1.35 0-2.22-1.125-2.22-2.91 0-1.755.885-2.85 2.22-2.85 1.005 0 1.635.645 1.8 1.41h1.545c-.165-1.65-1.515-2.76-3.375-2.76-2.31 0-3.795 1.74-3.795 4.245 0 2.46 1.44 4.215 3.81 4.215zM89.752 426.17c1.35 0 2.115-.69 2.415-1.305h.075v1.125h1.545v-5.43c0-2.385-1.875-2.865-3.165-2.865-1.485 0-2.85.6-3.375 2.1l1.485.33c.24-.57.84-1.14 1.905-1.14 1.035 0 1.56.54 1.56 1.47v.045c0 .57-.6.57-2.07.735-1.545.18-3.135.585-3.135 2.445 0 1.605 1.2 2.49 2.76 2.49zm.345-1.275c-.9 0-1.545-.405-1.545-1.2 0-.855.75-1.155 1.68-1.275.51-.075 1.74-.21 1.965-.435v1.05c0 .975-.765 1.86-2.1 1.86zM95.906 415.085h1.59v10.905h-1.59zM103.165 426.155c1.785 0 3.06-.885 3.42-2.205l-1.515-.27c-.285.765-.975 1.155-1.875 1.155-1.365 0-2.28-.885-2.325-2.46h5.805v-.555c0-2.955-1.755-4.125-3.615-4.125-2.28 0-3.78 1.74-3.78 4.26 0 2.535 1.485 4.2 3.885 4.2zm-2.295-4.965c.06-1.17.9-2.175 2.205-2.175 1.23 0 2.04.915 2.04 2.175h-4.245zM109.5 420.14a1.07 1.07 0 001.065-1.065 1.07 1.07 0 00-1.065-1.065 1.07 1.07 0 00-1.065 1.065c0 .585.48 1.065 1.065 1.065zm0 5.955a1.07 1.07 0 001.065-1.065 1.07 1.07 0 00-1.065-1.065 1.07 1.07 0 00-1.065 1.065c0 .585.48 1.065 1.065 1.065zM116.804 425.99h6.585v-1.41h-4.935v-9.495h-1.65v10.905zM128.583 426.155c2.31 0 3.81-1.695 3.81-4.215 0-2.55-1.5-4.245-3.81-4.245s-3.81 1.695-3.81 4.245c0 2.52 1.5 4.215 3.81 4.215zm0-1.335c-1.5 0-2.205-1.32-2.205-2.895 0-1.56.705-2.895 2.205-2.895s2.205 1.335 2.205 2.895c0 1.575-.705 2.895-2.205 2.895zM137.617 426.155c1.935 0 3.18-1.155 3.36-2.76h-1.545c-.21.885-.885 1.41-1.8 1.41-1.35 0-2.22-1.125-2.22-2.91 0-1.755.885-2.85 2.22-2.85 1.005 0 1.635.645 1.8 1.41h1.545c-.165-1.65-1.515-2.76-3.375-2.76-2.31 0-3.795 1.74-3.795 4.245 0 2.46 1.44 4.215 3.81 4.215zM145.07 426.17c1.35 0 2.115-.69 2.415-1.305h.075v1.125h1.545v-5.43c0-2.385-1.875-2.865-3.165-2.865-1.485 0-2.85.6-3.375 2.1l1.485.33c.24-.57.84-1.14 1.905-1.14 1.035 0 1.56.54 1.56 1.47v.045c0 .57-.6.57-2.07.735-1.545.18-3.135.585-3.135 2.445 0 1.605 1.2 2.49 2.76 2.49zm.345-1.275c-.9 0-1.545-.405-1.545-1.2 0-.855.75-1.155 1.68-1.275.51-.075 1.74-.21 1.965-.435v1.05c0 .975-.765 1.86-2.1 1.86zM151.223 415.085h1.59v10.905h-1.59zM158.482 426.155c1.785 0 3.06-.885 3.42-2.205l-1.515-.27c-.285.765-.975 1.155-1.875 1.155-1.365 0-2.28-.885-2.325-2.46h5.805v-.555c0-2.955-1.754-4.125-3.614-4.125-2.28 0-3.78 1.74-3.78 4.26 0 2.535 1.484 4.2 3.884 4.2zm-2.295-4.965c.06-1.17.9-2.175 2.205-2.175 1.23 0 2.04.915 2.04 2.175h-4.244z"/></g><g><path d="M69.156 450.155c1.485 0 2.07-.915 2.355-1.44h.135v1.275h1.56v-10.905h-1.59v4.05h-.105c-.285-.51-.825-1.44-2.355-1.44-1.965 0-3.42 1.56-3.42 4.215s1.425 4.245 3.42 4.245zm.345-1.365c-1.425 0-2.16-1.245-2.16-2.895 0-1.62.72-2.835 2.16-2.835 1.395 0 2.13 1.125 2.13 2.835 0 1.725-.75 2.895-2.13 2.895zM77.852 450.17c1.35 0 2.115-.69 2.415-1.305h.075v1.125h1.545v-5.43c0-2.385-1.875-2.865-3.165-2.865-1.485 0-2.85.6-3.375 2.1l1.485.33c.24-.57.84-1.14 1.905-1.14 1.035 0 1.56.54 1.56 1.47v.045c0 .57-.6.57-2.07.735-1.545.18-3.135.585-3.135 2.445 0 1.605 1.2 2.49 2.76 2.49zm.345-1.275c-.9 0-1.545-.405-1.545-1.2 0-.855.75-1.155 1.68-1.275.51-.075 1.74-.21 1.965-.435v1.05c0 .975-.765 1.86-2.1 1.86zM87.83 441.815h-1.68v-1.965h-1.59v1.965h-1.2v1.275h1.2v4.83c0 1.485 1.126 2.205 2.386 2.175.51 0 .855-.105 1.035-.165l-.285-1.32c-.105.015-.3.075-.57.075-.51 0-.975-.18-.975-1.095v-4.5h1.68v-1.275zM93.023 450.155c1.785 0 3.06-.885 3.42-2.205l-1.515-.27c-.285.765-.975 1.155-1.875 1.155-1.365 0-2.28-.885-2.325-2.46h5.805v-.555c0-2.955-1.755-4.125-3.615-4.125-2.28 0-3.78 1.74-3.78 4.26 0 2.535 1.485 4.2 3.885 4.2zm-2.295-4.965c.06-1.17.9-2.175 2.205-2.175 1.23 0 2.04.915 2.04 2.175h-4.245zM107.923 444.53c0-3.48-2.1-5.595-4.92-5.595-2.835 0-4.92 2.115-4.92 5.595 0 3.495 2.085 5.61 4.92 5.61 2.82 0 4.92-2.115 4.92-5.61zm-1.635 0c0 2.67-1.41 4.11-3.285 4.11-1.875 0-3.285-1.44-3.285-4.11 0-2.655 1.41-4.095 3.285-4.095 1.875 0 3.285 1.44 3.285 4.095zM113.73 441.815h-1.77v-.735c0-.735.3-1.125 1.08-1.125.33 0 .57.075.72.12l.375-1.29a4.179 4.179 0 00-1.335-.21c-1.29 0-2.43.75-2.43 2.28v.96h-1.26v1.275h1.26v6.9h1.59v-6.9h1.77v-1.275zM115.5 449.99h4.184c2.535 0 3.675-1.26 3.675-2.94s-1.185-2.64-2.265-2.7v-.105c1.005-.255 1.845-.93 1.845-2.295 0-1.62-1.125-2.865-3.45-2.865h-3.99v10.905zm1.65-1.41v-3.495h2.43c1.32 0 2.144.855 2.144 1.89 0 .915-.63 1.605-2.205 1.605h-2.37zm0-4.785v-3.315h2.234c1.305 0 1.935.69 1.935 1.59 0 1.065-.855 1.725-1.965 1.725h-2.205zM125.176 449.99h1.605v-8.175h-1.605v8.175zm.81-9.45c.555 0 1.005-.42 1.005-.945 0-.525-.45-.945-1.005-.945-.555 0-1.005.42-1.005.945 0 .525.45.945 1.005.945zM128.91 449.99h1.605v-4.995c0-1.065.825-1.845 1.95-1.845.33 0 .705.06.825.09v-1.515a4.485 4.485 0 00-.675-.045c-.96 0-1.77.555-2.07 1.425h-.09v-1.29h-1.545v8.175zM138.978 441.815h-1.68v-1.965h-1.59v1.965h-1.2v1.275h1.2v4.83c0 1.485 1.125 2.205 2.385 2.175.51 0 .855-.105 1.035-.165l-.285-1.32c-.105.015-.3.075-.57.075-.51 0-.975-.18-.975-1.095v-4.5h1.68v-1.275zM142.505 445.13c0-1.305.825-2.055 1.95-2.055 1.095 0 1.755.705 1.755 1.905v5.01h1.59v-5.205c0-2.04-1.11-3.09-2.805-3.09-1.26 0-2.04.555-2.415 1.44h-.105v-4.05H140.9v10.905h1.605v-4.86zM150.98 444.14a1.07 1.07 0 001.064-1.065 1.07 1.07 0 00-1.065-1.065 1.07 1.07 0 00-1.065 1.065c0 .585.48 1.065 1.065 1.065zm0 5.955a1.07 1.07 0 001.064-1.065 1.07 1.07 0 00-1.065-1.065 1.07 1.07 0 00-1.065 1.065c0 .585.48 1.065 1.065 1.065zM158.283 449.99h6.585v-1.41h-4.935v-9.495h-1.65v10.905zM170.062 450.155c2.31 0 3.81-1.695 3.81-4.215 0-2.55-1.5-4.245-3.81-4.245s-3.81 1.695-3.81 4.245c0 2.52 1.5 4.215 3.81 4.215zm0-1.335c-1.5 0-2.205-1.32-2.205-2.895 0-1.56.705-2.895 2.205-2.895s2.205 1.335 2.205 2.895c0 1.575-.705 2.895-2.205 2.895zM179.096 450.155c1.935 0 3.18-1.155 3.36-2.76h-1.545c-.21.885-.885 1.41-1.8 1.41-1.35 0-2.22-1.125-2.22-2.91 0-1.755.885-2.85 2.22-2.85 1.005 0 1.635.645 1.8 1.41h1.545c-.165-1.65-1.515-2.76-3.375-2.76-2.31 0-3.795 1.74-3.795 4.245 0 2.46 1.44 4.215 3.81 4.215zM186.548 450.17c1.35 0 2.115-.69 2.415-1.305h.075v1.125h1.545v-5.43c0-2.385-1.875-2.865-3.165-2.865-1.485 0-2.85.6-3.375 2.1l1.485.33c.24-.57.84-1.14 1.905-1.14 1.035 0 1.56.54 1.56 1.47v.045c0 .57-.6.57-2.07.735-1.545.18-3.135.585-3.135 2.445 0 1.605 1.2 2.49 2.76 2.49zm.345-1.275c-.9 0-1.545-.405-1.545-1.2 0-.855.75-1.155 1.68-1.275.51-.075 1.74-.21 1.965-.435v1.05c0 .975-.765 1.86-2.1 1.86zM192.702 439.085h1.59v10.905h-1.59zM200.096 449.99c3.33 0 5.25-2.055 5.25-5.475 0-3.39-1.92-5.43-5.13-5.43h-3.645v10.905h3.525zm-1.875-1.44v-8.025h1.89c2.385 0 3.615 1.425 3.615 3.99 0 2.595-1.23 4.035-3.72 4.035h-1.785zM209.645 450.17c1.35 0 2.115-.69 2.415-1.305h.075v1.125h1.545v-5.43c0-2.385-1.875-2.865-3.165-2.865-1.485 0-2.85.6-3.375 2.1l1.485.33c.24-.57.84-1.14 1.905-1.14 1.035 0 1.56.54 1.56 1.47v.045c0 .57-.6.57-2.07.735-1.545.18-3.135.585-3.135 2.445 0 1.605 1.2 2.49 2.76 2.49zm.345-1.275c-.9 0-1.545-.405-1.545-1.2 0-.855.75-1.155 1.68-1.275.51-.075 1.74-.21 1.965-.435v1.05c0 .975-.765 1.86-2.1 1.86zM219.624 441.815h-1.68v-1.965h-1.59v1.965h-1.2v1.275h1.2v4.83c0 1.485 1.125 2.205 2.385 2.175.51 0 .855-.105 1.035-.165l-.285-1.32c-.105.015-.3.075-.57.075-.51 0-.975-.18-.975-1.095v-4.5h1.68v-1.275zM224.816 450.155c1.785 0 3.06-.885 3.42-2.205l-1.515-.27c-.285.765-.975 1.155-1.875 1.155-1.365 0-2.28-.885-2.325-2.46h5.805v-.555c0-2.955-1.755-4.125-3.615-4.125-2.28 0-3.78 1.74-3.78 4.26 0 2.535 1.485 4.2 3.885 4.2zm-2.295-4.965c.06-1.17.9-2.175 2.205-2.175 1.23 0 2.04.915 2.04 2.175h-4.245z" fill="#259d75" fill-rule="nonzero"/></g><g><path d="M13.5 285.5h189" fill="none" stroke="#db0c2f" stroke-opacity=".5" stroke-width="2" transform="matrix(1.0331 0 0 1 36.813 42.49)"/></g></g><g><path d="M451.5 267.28c0-5.401-4.362-9.78-9.742-9.78H252.242c-5.38 0-9.742 4.379-9.742 9.78v132.44c0 5.401 4.362 9.78 9.742 9.78h189.516c5.38 0 9.742-4.379 9.742-9.78V267.28z" fill="none" stroke="#db0c2f" stroke-width="2" transform="matrix(1.02644 0 0 1.02248 30.58 36.702)"/><path d="M366.538 317.95h1.575c-.045-1.755-1.59-3.015-3.81-3.015-2.175 0-3.855 1.245-3.855 3.135 0 1.515 1.08 2.4 2.835 2.88l1.29.345c1.17.315 2.07.69 2.07 1.665 0 1.065-1.02 1.77-2.43 1.77-1.26 0-2.31-.57-2.415-1.755h-1.65c.105 1.98 1.635 3.195 4.08 3.195 2.565 0 4.035-1.35 4.035-3.195 0-1.965-1.755-2.73-3.135-3.075l-1.065-.27c-.855-.225-1.98-.615-1.98-1.665 0-.93.855-1.605 2.19-1.605 1.245 0 2.145.585 2.265 1.59zM373.625 326.155c1.785 0 3.06-.885 3.42-2.205l-1.515-.27c-.285.765-.975 1.155-1.875 1.155-1.365 0-2.28-.885-2.325-2.46h5.805v-.555c0-2.955-1.755-4.125-3.615-4.125-2.28 0-3.78 1.74-3.78 4.26 0 2.535 1.485 4.2 3.885 4.2zm-2.295-4.965c.06-1.17.9-2.175 2.205-2.175 1.23 0 2.04.915 2.04 2.175h-4.245zM385.046 319.81c-.33-1.275-1.32-2.115-3.09-2.115-1.845 0-3.165.975-3.165 2.43 0 1.155.705 1.935 2.235 2.28l1.395.3c.78.18 1.155.525 1.155 1.035 0 .63-.675 1.125-1.725 1.125-.96 0-1.56-.405-1.755-1.215l-1.545.24c.27 1.455 1.47 2.265 3.315 2.265 1.98 0 3.345-1.05 3.345-2.535 0-1.155-.735-1.86-2.235-2.205l-1.305-.3c-.9-.21-1.29-.525-1.29-1.08 0-.63.675-1.065 1.59-1.065.99 0 1.44.54 1.635 1.095l1.44-.255zM393.084 319.81c-.33-1.275-1.32-2.115-3.09-2.115-1.845 0-3.165.975-3.165 2.43 0 1.155.705 1.935 2.235 2.28l1.395.3c.78.18 1.155.525 1.155 1.035 0 .63-.675 1.125-1.725 1.125-.96 0-1.56-.405-1.755-1.215l-1.545.24c.27 1.455 1.47 2.265 3.315 2.265 1.98 0 3.345-1.05 3.345-2.535 0-1.155-.735-1.86-2.235-2.205l-1.305-.3c-.9-.21-1.29-.525-1.29-1.08 0-.63.675-1.065 1.59-1.065.99 0 1.44.54 1.635 1.095l1.44-.255zM394.987 325.99h1.605v-8.175h-1.605v8.175zm.81-9.45c.555 0 1.005-.42 1.005-.945 0-.525-.45-.945-1.005-.945-.555 0-1.005.42-1.005.945 0 .525.45.945 1.005.945zM402.17 326.155c2.31 0 3.81-1.695 3.81-4.215 0-2.55-1.5-4.245-3.81-4.245s-3.81 1.695-3.81 4.245c0 2.52 1.5 4.215 3.81 4.215zm0-1.335c-1.5 0-2.204-1.32-2.204-2.895 0-1.56.705-2.895 2.205-2.895s2.205 1.335 2.205 2.895c0 1.575-.705 2.895-2.205 2.895zM409.36 321.13c0-1.305.795-2.055 1.905-2.055 1.08 0 1.725.72 1.725 1.905v5.01h1.605v-5.205c0-2.025-1.125-3.09-2.79-3.09-1.23 0-2.04.57-2.415 1.44h-.105v-1.32h-1.53v8.175h1.605v-4.86z" fill="#c27e47" fill-rule="nonzero"/><g><path d="M294.081 365.99h1.605v-2.91l.78-.78 2.79 3.69h1.95l-3.54-4.665 3.315-3.51h-1.905l-3.255 3.45h-.135v-6.18h-1.605v10.905zM305.612 366.155c1.785 0 3.06-.885 3.42-2.205l-1.515-.27c-.285.765-.975 1.155-1.875 1.155-1.365 0-2.28-.885-2.325-2.46h5.805v-.555c0-2.955-1.755-4.125-3.615-4.125-2.28 0-3.78 1.74-3.78 4.26 0 2.535 1.485 4.2 3.885 4.2zm-2.295-4.965c.06-1.17.9-2.175 2.205-2.175 1.23 0 2.04.915 2.04 2.175h-4.245zM311.658 369.065c1.32 0 2.16-.69 2.625-1.98l3.375-9.27h-1.71l-2.07 6.345h-.09l-2.07-6.345h-1.71l3 8.28-.195.54c-.405 1.095-.975 1.185-1.845.945l-.39 1.305c.195.09.615.18 1.08.18zM320.199 360.14a1.07 1.07 0 001.065-1.065 1.07 1.07 0 00-1.065-1.065 1.07 1.07 0 00-1.065 1.065c0 .585.48 1.065 1.065 1.065zm0 5.955a1.07 1.07 0 001.065-1.065 1.07 1.07 0 00-1.065-1.065 1.07 1.07 0 00-1.065 1.065c0 .585.48 1.065 1.065 1.065zM333.458 357.95h1.575c-.045-1.755-1.59-3.015-3.81-3.015-2.175 0-3.855 1.245-3.855 3.135 0 1.515 1.08 2.4 2.835 2.88l1.29.345c1.17.315 2.07.69 2.07 1.665 0 1.065-1.02 1.77-2.43 1.77-1.26 0-2.31-.57-2.415-1.755h-1.65c.105 1.98 1.635 3.195 4.08 3.195 2.565 0 4.035-1.35 4.035-3.195 0-1.965-1.755-2.73-3.135-3.075l-1.065-.27c-.855-.225-1.98-.615-1.98-1.665 0-.93.855-1.605 2.19-1.605 1.245 0 2.145.585 2.265 1.59zM340.845 357.815h-1.68v-1.965h-1.59v1.965h-1.2v1.275h1.2v4.83c0 1.485 1.125 2.205 2.385 2.175.51 0 .855-.105 1.035-.165l-.285-1.32c-.105.015-.3.075-.57.075-.51 0-.975-.18-.975-1.095v-4.5h1.68v-1.275zM342.597 365.99h1.605v-4.995c0-1.065.825-1.845 1.95-1.845.33 0 .705.06.825.09v-1.515a4.485 4.485 0 00-.675-.045c-.96 0-1.77.555-2.07 1.425h-.09v-1.29h-1.545v8.175zM348.36 365.99h1.605v-8.175h-1.605v8.175zm.81-9.45c.555 0 1.005-.42 1.005-.945 0-.525-.45-.945-1.005-.945-.555 0-1.005.42-1.005.945 0 .525.45.945 1.005.945zM353.7 361.13c0-1.305.795-2.055 1.905-2.055 1.08 0 1.724.72 1.724 1.905v5.01h1.605v-5.205c0-2.025-1.125-3.09-2.79-3.09-1.23 0-2.04.57-2.415 1.44h-.105v-1.32h-1.53v8.175h1.605v-4.86zM364.49 369.23c2.084 0 3.69-.96 3.69-3.06v-8.355h-1.56v1.32h-.12c-.286-.51-.84-1.44-2.37-1.44-1.966 0-3.42 1.56-3.42 4.17s1.484 4.005 3.42 4.005c1.5 0 2.07-.855 2.37-1.365h.09v1.605c0 1.275-.87 1.83-2.086 1.83-1.32 0-1.845-.66-2.13-1.125l-1.365.555c.435 1.005 1.53 1.86 3.48 1.86zm-.016-4.68c-1.425 0-2.16-1.095-2.16-2.7 0-1.575.72-2.79 2.16-2.79 1.395 0 2.13 1.125 2.13 2.79 0 1.68-.75 2.7-2.13 2.7z" fill="#259d75" fill-rule="nonzero"/></g><g><path d="M297.531 390.155c1.935 0 3.18-1.155 3.36-2.76h-1.545c-.21.885-.885 1.41-1.8 1.41-1.35 0-2.22-1.125-2.22-2.91 0-1.755.885-2.85 2.22-2.85 1.005 0 1.635.645 1.8 1.41h1.545c-.165-1.65-1.515-2.76-3.375-2.76-2.31 0-3.795 1.74-3.795 4.245 0 2.46 1.44 4.215 3.81 4.215zM302.599 389.99h1.605v-8.175h-1.605v8.175zm.81-9.45c.555 0 1.005-.42 1.005-.945 0-.525-.45-.945-1.005-.945-.555 0-1.005.42-1.005.945 0 .525.45.945 1.005.945zM310.158 381.815h-1.68v-1.965h-1.59v1.965h-1.2v1.275h1.2v4.83c0 1.485 1.125 2.205 2.385 2.175.51 0 .855-.105 1.035-.165l-.285-1.32c-.105.015-.3.075-.57.075-.51 0-.975-.18-.975-1.095v-4.5h1.68v-1.275zM312.915 393.065c1.32 0 2.16-.69 2.625-1.98l3.375-9.27h-1.71l-2.07 6.345h-.09l-2.07-6.345h-1.71l3 8.28-.195.54c-.405 1.095-.975 1.185-1.845.945l-.39 1.305c.195.09.615.18 1.08.18zM321.456 384.14a1.07 1.07 0 001.065-1.065 1.07 1.07 0 00-1.065-1.065 1.07 1.07 0 00-1.065 1.065c0 .585.48 1.065 1.065 1.065zm0 5.955a1.07 1.07 0 001.065-1.065 1.07 1.07 0 00-1.065-1.065 1.07 1.07 0 00-1.065 1.065c0 .585.48 1.065 1.065 1.065zM334.715 381.95h1.575c-.045-1.755-1.59-3.015-3.81-3.015-2.175 0-3.855 1.245-3.855 3.135 0 1.515 1.08 2.4 2.835 2.88l1.29.345c1.17.315 2.07.69 2.07 1.665 0 1.065-1.02 1.77-2.43 1.77-1.26 0-2.31-.57-2.415-1.755h-1.65c.105 1.98 1.635 3.195 4.08 3.195 2.565 0 4.035-1.35 4.035-3.195 0-1.965-1.755-2.73-3.135-3.075l-1.065-.27c-.855-.225-1.98-.615-1.98-1.665 0-.93.855-1.605 2.19-1.605 1.245 0 2.145.585 2.265 1.59zM342.102 381.815h-1.68v-1.965h-1.59v1.965h-1.2v1.275h1.2v4.83c0 1.485 1.125 2.205 2.385 2.175.51 0 .855-.105 1.035-.165l-.285-1.32c-.105.015-.3.075-.57.075-.51 0-.975-.18-.975-1.095v-4.5h1.68v-1.275zM343.854 389.99h1.605v-4.995c0-1.065.825-1.845 1.95-1.845.33 0 .705.06.825.09v-1.515a4.485 4.485 0 00-.675-.045c-.96 0-1.77.555-2.07 1.425h-.09v-1.29h-1.545v8.175zM349.618 389.99h1.605v-8.175h-1.605v8.175zm.81-9.45c.555 0 1.005-.42 1.005-.945 0-.525-.45-.945-1.005-.945-.555 0-1.005.42-1.005.945 0 .525.45.945 1.005.945zM354.957 385.13c0-1.305.795-2.055 1.905-2.055 1.08 0 1.725.72 1.725 1.905v5.01h1.605v-5.205c0-2.025-1.125-3.09-2.79-3.09-1.23 0-2.04.57-2.415 1.44h-.105v-1.32h-1.53v8.175h1.605v-4.86zM365.746 393.23c2.085 0 3.69-.96 3.69-3.06v-8.355h-1.56v1.32h-.12c-.285-.51-.84-1.44-2.37-1.44-1.965 0-3.42 1.56-3.42 4.17s1.485 4.005 3.42 4.005c1.5 0 2.07-.855 2.37-1.365h.09v1.605c0 1.275-.87 1.83-2.085 1.83-1.32 0-1.845-.66-2.13-1.125l-1.365.555c.435 1.005 1.53 1.86 3.48 1.86zm-.015-4.68c-1.425 0-2.16-1.095-2.16-2.7 0-1.575.72-2.79 2.16-2.79 1.395 0 2.13 1.125 2.13 2.79 0 1.68-.75 2.7-2.13 2.7z" fill="#259d75" fill-rule="nonzero"/></g><g><path fill="#259d75" fill-rule="nonzero" d="M294.081 403.085h1.59v10.905h-1.59zM301.265 414.155c2.31 0 3.81-1.695 3.81-4.215 0-2.55-1.5-4.245-3.81-4.245s-3.81 1.695-3.81 4.245c0 2.52 1.5 4.215 3.81 4.215zm0-1.335c-1.5 0-2.205-1.32-2.205-2.895 0-1.56.705-2.895 2.205-2.895s2.205 1.335 2.205 2.895c0 1.575-.705 2.895-2.205 2.895zM310.3 414.155c1.934 0 3.18-1.155 3.36-2.76h-1.546c-.21.885-.885 1.41-1.8 1.41-1.35 0-2.22-1.125-2.22-2.91 0-1.755.885-2.85 2.22-2.85 1.005 0 1.635.645 1.8 1.41h1.545c-.165-1.65-1.515-2.76-3.375-2.76-2.31 0-3.795 1.74-3.795 4.245 0 2.46 1.44 4.215 3.81 4.215zM317.752 414.17c1.35 0 2.115-.69 2.415-1.305h.075v1.125h1.545v-5.43c0-2.385-1.875-2.865-3.165-2.865-1.485 0-2.85.6-3.375 2.1l1.485.33c.24-.57.84-1.14 1.905-1.14 1.035 0 1.56.54 1.56 1.47v.045c0 .57-.6.57-2.07.735-1.545.18-3.135.585-3.135 2.445 0 1.605 1.2 2.49 2.76 2.49zm.345-1.275c-.9 0-1.545-.405-1.545-1.2 0-.855.75-1.155 1.68-1.275.51-.075 1.74-.21 1.965-.435v1.05c0 .975-.765 1.86-2.1 1.86zM323.906 403.085h1.59v10.905h-1.59zM331.165 414.155c1.785 0 3.06-.885 3.42-2.205l-1.515-.27c-.285.765-.975 1.155-1.875 1.155-1.365 0-2.28-.885-2.325-2.46h5.805v-.555c0-2.955-1.755-4.125-3.615-4.125-2.28 0-3.78 1.74-3.78 4.26 0 2.535 1.485 4.2 3.885 4.2zm-2.295-4.965c.06-1.17.9-2.175 2.205-2.175 1.23 0 2.04.915 2.04 2.175h-4.245zM337.5 408.14a1.07 1.07 0 001.065-1.065 1.07 1.07 0 00-1.065-1.065 1.07 1.07 0 00-1.065 1.065c0 .585.48 1.065 1.065 1.065zm0 5.955a1.07 1.07 0 001.065-1.065 1.07 1.07 0 00-1.065-1.065 1.07 1.07 0 00-1.065 1.065c0 .585.48 1.065 1.065 1.065zM344.804 413.99h6.585v-1.41h-4.935v-9.495h-1.65v10.905zM356.583 414.155c2.31 0 3.81-1.695 3.81-4.215 0-2.55-1.5-4.245-3.81-4.245s-3.81 1.695-3.81 4.245c0 2.52 1.5 4.215 3.81 4.215zm0-1.335c-1.5 0-2.205-1.32-2.205-2.895 0-1.56.705-2.895 2.205-2.895s2.205 1.335 2.205 2.895c0 1.575-.705 2.895-2.205 2.895zM365.617 414.155c1.935 0 3.18-1.155 3.36-2.76h-1.545c-.21.885-.885 1.41-1.8 1.41-1.35 0-2.22-1.125-2.22-2.91 0-1.755.885-2.85 2.22-2.85 1.005 0 1.635.645 1.8 1.41h1.545c-.165-1.65-1.515-2.76-3.375-2.76-2.31 0-3.795 1.74-3.795 4.245 0 2.46 1.44 4.215 3.81 4.215zM373.07 414.17c1.35 0 2.115-.69 2.415-1.305h.075v1.125h1.545v-5.43c0-2.385-1.875-2.865-3.165-2.865-1.485 0-2.85.6-3.375 2.1l1.485.33c.24-.57.84-1.14 1.905-1.14 1.035 0 1.56.54 1.56 1.47v.045c0 .57-.6.57-2.07.735-1.545.18-3.135.585-3.135 2.445 0 1.605 1.2 2.49 2.76 2.49zm.345-1.275c-.9 0-1.545-.405-1.545-1.2 0-.855.75-1.155 1.68-1.275.51-.075 1.74-.21 1.965-.435v1.05c0 .975-.765 1.86-2.1 1.86zM379.223 403.085h1.59v10.905h-1.59zM386.482 414.155c1.785 0 3.06-.885 3.42-2.205l-1.515-.27c-.285.765-.975 1.155-1.875 1.155-1.365 0-2.28-.885-2.325-2.46h5.805v-.555c0-2.955-1.755-4.125-3.615-4.125-2.28 0-3.78 1.74-3.78 4.26 0 2.535 1.486 4.2 3.886 4.2zm-2.295-4.965c.06-1.17.9-2.175 2.205-2.175 1.23 0 2.04.915 2.04 2.175h-4.245z"/></g><g><path d="M296.466 438.17c1.35 0 2.115-.69 2.415-1.305h.075v1.125h1.545v-5.43c0-2.385-1.875-2.865-3.165-2.865-1.485 0-2.85.6-3.375 2.1l1.485.33c.24-.57.84-1.14 1.905-1.14 1.035 0 1.56.54 1.56 1.47v.045c0 .57-.6.57-2.07.735-1.545.18-3.135.585-3.135 2.445 0 1.605 1.2 2.49 2.76 2.49zm.345-1.275c-.9 0-1.545-.405-1.545-1.2 0-.855.75-1.155 1.68-1.275.51-.075 1.74-.21 1.965-.435v1.05c0 .975-.765 1.86-2.1 1.86zM306.07 438.155c1.935 0 3.18-1.155 3.36-2.76h-1.545c-.21.885-.885 1.41-1.8 1.41-1.35 0-2.22-1.125-2.22-2.91 0-1.755.885-2.85 2.22-2.85 1.005 0 1.635.645 1.8 1.41h1.545c-.165-1.65-1.515-2.76-3.375-2.76-2.31 0-3.795 1.74-3.795 4.245 0 2.46 1.44 4.215 3.81 4.215zM314.587 438.155c1.935 0 3.18-1.155 3.36-2.76h-1.545c-.21.885-.885 1.41-1.8 1.41-1.35 0-2.22-1.125-2.22-2.91 0-1.755.885-2.85 2.22-2.85 1.005 0 1.635.645 1.8 1.41h1.545c-.165-1.65-1.515-2.76-3.375-2.76-2.31 0-3.795 1.74-3.795 4.245 0 2.46 1.44 4.215 3.81 4.215zM323.18 438.155c1.785 0 3.06-.885 3.42-2.205l-1.515-.27c-.285.765-.975 1.155-1.875 1.155-1.365 0-2.28-.885-2.325-2.46h5.805v-.555c0-2.955-1.755-4.125-3.615-4.125-2.28 0-3.78 1.74-3.78 4.26 0 2.535 1.485 4.2 3.885 4.2zm-2.295-4.965c.06-1.17.9-2.175 2.205-2.175 1.23 0 2.04.915 2.04 2.175h-4.245zM334.6 431.81c-.33-1.275-1.32-2.115-3.09-2.115-1.845 0-3.165.975-3.165 2.43 0 1.155.705 1.935 2.235 2.28l1.395.3c.78.18 1.155.525 1.155 1.035 0 .63-.675 1.125-1.725 1.125-.96 0-1.56-.405-1.755-1.215l-1.545.24c.27 1.455 1.47 2.265 3.315 2.265 1.98 0 3.345-1.05 3.345-2.535 0-1.155-.735-1.86-2.235-2.205l-1.305-.3c-.9-.21-1.29-.525-1.29-1.08 0-.63.675-1.065 1.59-1.065.99 0 1.44.54 1.635 1.095l1.44-.255zM342.638 431.81c-.33-1.275-1.32-2.115-3.09-2.115-1.845 0-3.165.975-3.165 2.43 0 1.155.705 1.935 2.235 2.28l1.395.3c.78.18 1.155.525 1.155 1.035 0 .63-.675 1.125-1.725 1.125-.96 0-1.56-.405-1.755-1.215l-1.545.24c.27 1.455 1.47 2.265 3.315 2.265 1.98 0 3.345-1.05 3.345-2.535 0-1.155-.735-1.86-2.235-2.205l-1.305-.3c-.9-.21-1.29-.525-1.29-1.08 0-.63.675-1.065 1.59-1.065.99 0 1.44.54 1.635 1.095l1.44-.255zM348.066 438.155c1.785 0 3.06-.885 3.42-2.205l-1.515-.27c-.285.765-.975 1.155-1.875 1.155-1.365 0-2.28-.885-2.325-2.46h5.805v-.555c0-2.955-1.755-4.125-3.615-4.125-2.28 0-3.78 1.74-3.78 4.26 0 2.535 1.485 4.2 3.885 4.2zm-2.295-4.965c.06-1.17.9-2.175 2.205-2.175 1.23 0 2.04.915 2.04 2.175h-4.245zM356.427 438.155c1.485 0 2.07-.915 2.355-1.44h.135v1.275h1.56v-10.905h-1.59v4.05h-.105c-.285-.51-.825-1.44-2.355-1.44-1.965 0-3.42 1.56-3.42 4.215s1.425 4.245 3.42 4.245zm.345-1.365c-1.425 0-2.16-1.245-2.16-2.895 0-1.62.72-2.835 2.16-2.835 1.395 0 2.13 1.125 2.13 2.835 0 1.725-.75 2.895-2.13 2.895zM363.787 432.14a1.07 1.07 0 001.065-1.065 1.07 1.07 0 00-1.065-1.065 1.07 1.07 0 00-1.065 1.065c0 .585.48 1.065 1.065 1.065zm0 5.955a1.07 1.07 0 001.065-1.065 1.07 1.07 0 00-1.065-1.065 1.07 1.07 0 00-1.065 1.065c0 .585.48 1.065 1.065 1.065zM371.091 437.99h6.585v-1.41h-4.935v-9.495h-1.65v10.905zM382.87 438.155c2.31 0 3.81-1.695 3.81-4.215 0-2.55-1.5-4.245-3.81-4.245s-3.81 1.695-3.81 4.245c0 2.52 1.5 4.215 3.81 4.215zm0-1.335c-1.5 0-2.205-1.32-2.205-2.895 0-1.56.705-2.895 2.205-2.895s2.205 1.335 2.205 2.895c0 1.575-.705 2.895-2.205 2.895zM391.905 438.155c1.935 0 3.18-1.155 3.36-2.76h-1.545c-.21.885-.885 1.41-1.8 1.41-1.35 0-2.22-1.125-2.22-2.91 0-1.755.885-2.85 2.22-2.85 1.005 0 1.635.645 1.8 1.41h1.545c-.165-1.65-1.515-2.76-3.375-2.76-2.31 0-3.795 1.74-3.795 4.245 0 2.46 1.44 4.215 3.81 4.215zM399.357 438.17c1.35 0 2.115-.69 2.415-1.305h.075v1.125h1.545v-5.43c0-2.385-1.875-2.865-3.165-2.865-1.485 0-2.85.6-3.375 2.1l1.485.33c.24-.57.84-1.14 1.905-1.14 1.035 0 1.56.54 1.56 1.47v.045c0 .57-.6.57-2.07.735-1.545.18-3.135.585-3.135 2.445 0 1.605 1.2 2.49 2.76 2.49zm.345-1.275c-.9 0-1.545-.405-1.545-1.2 0-.855.75-1.155 1.68-1.275.51-.075 1.74-.21 1.965-.435v1.05c0 .975-.765 1.86-2.1 1.86zM405.51 427.085h1.59v10.905h-1.59zM412.904 437.99c3.33 0 5.25-2.055 5.25-5.475 0-3.39-1.92-5.43-5.13-5.43h-3.645v10.905h3.525zm-1.875-1.44v-8.025h1.89c2.385 0 3.615 1.425 3.615 3.99 0 2.595-1.23 4.035-3.72 4.035h-1.785zM422.453 438.17c1.35 0 2.115-.69 2.415-1.305h.075v1.125h1.545v-5.43c0-2.385-1.875-2.865-3.165-2.865-1.485 0-2.85.6-3.375 2.1l1.485.33c.24-.57.84-1.14 1.905-1.14 1.035 0 1.56.54 1.56 1.47v.045c0 .57-.6.57-2.07.735-1.545.18-3.135.585-3.135 2.445 0 1.605 1.2 2.49 2.76 2.49zm.345-1.275c-.9 0-1.545-.405-1.545-1.2 0-.855.75-1.155 1.68-1.275.51-.075 1.74-.21 1.965-.435v1.05c0 .975-.765 1.86-2.1 1.86zM432.432 429.815h-1.68v-1.965h-1.59v1.965h-1.2v1.275h1.2v4.83c0 1.485 1.125 2.205 2.385 2.175.51 0 .855-.105 1.035-.165l-.285-1.32c-.105.015-.3.075-.57.075-.51 0-.975-.18-.975-1.095v-4.5h1.68v-1.275zM437.624 438.155c1.785 0 3.06-.885 3.42-2.205l-1.515-.27c-.285.765-.975 1.155-1.875 1.155-1.365 0-2.28-.885-2.325-2.46h5.805v-.555c0-2.955-1.755-4.125-3.615-4.125-2.28 0-3.78 1.74-3.78 4.26 0 2.535 1.485 4.2 3.885 4.2zm-2.295-4.965c.06-1.17.9-2.175 2.205-2.175 1.23 0 2.04.915 2.04 2.175h-4.245zM441.737 428.495h3.405v9.495h1.635v-9.495h3.405v-1.41h-8.445v1.41zM451.906 437.99h1.605v-8.175h-1.605v8.175zm.81-9.45c.555 0 1.005-.42 1.005-.945 0-.525-.45-.945-1.005-.945-.555 0-1.005.42-1.005.945 0 .525.45.945 1.005.945zM455.64 437.99h1.605v-5.04c0-1.11.765-1.875 1.665-1.875.885 0 1.5.585 1.5 1.47v5.445H462v-5.22c0-.975.6-1.695 1.635-1.695.855 0 1.545.465 1.545 1.575v5.34h1.59v-5.49c0-1.86-1.05-2.805-2.52-2.805-1.185 0-2.07.57-2.46 1.44h-.09c-.36-.885-1.11-1.44-2.205-1.44-1.08 0-1.875.54-2.22 1.44h-.105v-1.32h-1.53v8.175zM472.418 438.155c1.785 0 3.06-.885 3.42-2.205l-1.515-.27c-.285.765-.975 1.155-1.875 1.155-1.365 0-2.28-.885-2.325-2.46h5.805v-.555c0-2.955-1.755-4.125-3.615-4.125-2.28 0-3.78 1.74-3.78 4.26 0 2.535 1.485 4.2 3.885 4.2zm-2.295-4.965c.06-1.17.9-2.175 2.205-2.175 1.23 0 2.04.915 2.04 2.175h-4.245z" fill="#259d75" fill-rule="nonzero"/></g><g><path d="M242.5 297.5h209" fill="none" stroke="#db0c2f" stroke-opacity=".5" stroke-width="2" transform="matrix(1.02369 0 0 1 31.82 42.49)"/></g></g></svg>