<svg viewBox="0 0 614 600" xmlns="http://www.w3.org/2000/svg" style="fill-rule:evenodd;clip-rule:evenodd;stroke-linecap:round;stroke-linejoin:round;stroke-miterlimit:1.5"><circle cx="314.008" cy="300" r="300" style="fill:#fbd7bc;fill-opacity:.25"/><path d="M385.124 591.505c20.941-30.79-110.141-301.666-95.601-403.29C304.32 84.8 385.361 48.787 448.235 44.667c102.075-6.687 134.153 60.16 127.03 96-9.11 45.832-143.466 44.897-112.231 111.315 16.417 34.91 113.729 114.727 101.446 177.213l-.073.366c-1.355 21.598-7.548 41.171-16.977 58.817-40.723 50.378-97.402 87.327-162.306 103.127Z" style="fill:#f47d2a"/><path d="M258.968 192.866c-35.469-38.132-62.682 4.798-44.099 35.086 11.394 18.572 34.173 24.02 47.497 13.534 13.323-10.486 11.442-32.666-3.398-48.62Zm147.116-1.099c47.735-34.213 62.971 11.839 36.788 42.69-14.099 16.613-38.052 17.231-49.188 4.445-11.135-12.785-5.31-34.441 12.4-47.135Zm-83.028 137.089c54.321-15.512 113.622 25.12 132.343 90.681 18.722 65.56-10.181 131.379-64.502 146.892-54.322 15.512-113.623-25.121-132.344-90.681-18.721-65.56 10.182-131.38 64.503-146.892Z" style="fill:#f5a76e"/><path d="m17.864 348.18 475.623 192.164C443.412 577.809 381.281 600 314.008 600 164.825 600 40.929 490.873 17.864 348.18Z" style="fill:#fff"/><path d="M43.675 471.998a5.009 5.009 0 0 1-3.062-4.609 5.015 5.015 0 0 1 4.198-4.935l147.029-23.921a5.01 5.01 0 0 1 2.53.243l202.48 74.522a5.008 5.008 0 0 1 3.274 4.692 5.014 5.014 0 0 1-4.052 4.909l-157.098 30.352a4.99 4.99 0 0 1-2.887-.3L43.675 471.997Z" style="fill:#8ccde3"/><path d="M394.99 495.64c11.759 2.745 25.28-33.569-17.338-38.144-31.744-3.406-110.665 27.377-106.292 54.584 1.482 9.222 16.083 15.957 31.424 7.096 54.414-31.433 71.336-28.409 92.206-23.535Zm-96.102-51.974c11.954 1.71 22.258-35.645-20.596-36.488-31.92-.627-107.858 36.918-101.13 63.641 2.28 9.057 17.412 14.494 31.923 4.329 51.467-36.056 68.588-34.517 89.803-31.482Zm-64.505-112.902c-11.386-28.452-10.86-123.933 64.745-140.597 17.067-3.762 51.89-.57 61.166 2.03 90.04 25.235 102.211 105.823 72.915 162.413-18.611 35.949-183.176 15.259-198.826-23.846Z" style="fill:#f5a76e"/><path d="M234.383 330.764c-16.405-30.9.966-139.296 52.08-123.455 19.825 6.144 17.382 106.473 17.382 106.473s28.761-106.744 69.248-107.165c72.337-.753 91.931 102.854 60.116 147.993-23.322 33.088-179.074 13.356-198.826-23.846Z" style="fill:#fac39d"/><path d="M217.558 330.764c-.421-19.543 18.435-90.063 64.597-88.35 21.083.783 21.69 71.368 21.69 71.368s26.177-64.704 58.221-63.919c72.319 1.771 89.767 75.76 71.143 104.747-21.882 34.057-66.184 52.472-108.602 52.472-59.081 0-106.143-34.207-107.049-76.318Z" style="fill:#fbd7bc"/><path d="M378.184 311.654c4.023 0 7.458 1.399 10.306 4.197 2.847 2.798 4.271 6.175 4.271 10.128 0 3.954-1.424 7.33-4.271 10.13-2.848 2.798-6.283 4.197-10.306 4.197-4.075 0-7.537-1.399-10.384-4.197-2.848-2.799-4.272-6.175-4.272-10.13 0-3.952 1.424-7.329 4.272-10.127 2.847-2.799 6.309-4.198 10.384-4.198Zm-132.815-7.358c4.023 0 7.459 1.399 10.306 4.197 2.848 2.798 4.271 6.174 4.271 10.128 0 3.954-1.423 7.33-4.271 10.13-2.847 2.798-6.283 4.197-10.306 4.197-4.075 0-7.536-1.399-10.384-4.197-2.847-2.799-4.271-6.175-4.271-10.13 0-3.954 1.424-7.329 4.271-10.127 2.848-2.799 6.309-4.198 10.384-4.198Z" style="fill:#f5a76e;fill-rule:nonzero"/><path d="M294.857 344.058c11.265-4.544 18.191-6.045 23.753 7.413m39.581-66.418c5.13 1.538 8.633 15.18-.517 14.472-5.227-.404-9.154-7.302-5.766-11.433 3.236-3.946 15.813-4.982 19.99-3.571 6.292 2.125 9.553 9.146 9.553 9.146m-120.26-14.614c5.13 1.538 8.633 15.18-.517 14.472-5.227-.404-9.154-7.302-5.766-11.433 3.236-3.946 15.813-4.982 19.99-3.571 6.292 2.125 9.553 9.146 9.553 9.146" style="fill:none;stroke:#000;stroke-width:6px"/><path d="M293.212 318.836c-1.302 4.007 4.468 11.514 9.234 12.397 4.154.77 12.407-7.062 11.163-11.725-1.323-4.957-18.81-5.556-20.397-.672Z" style="fill:#db0c2f"/><path d="M202.272 445.851c-12.746 6.914-33.337-1.574-28.03-15 5.307-13.426 44.561-85.397 75.054-69.862 5.747 2.928 9.268 15.176-.88 24.383-20.497 18.597-34.732 54.289-46.144 60.479Z" style="fill:#f5a76e"/><path d="M6.606 266.657a5.016 5.016 0 0 0-1.616-.268c-2.742 0-4.998 2.256-4.998 4.998 0 .292.026.584.077.871L34.16 465.566a5 5 0 0 0 2.982 3.739l198.803 83.807a4.999 4.999 0 0 0 1.942.392c2.743 0 5-2.257 5-5 0-.239-.017-.477-.051-.714l-29.977-207.972a5.011 5.011 0 0 0-3.337-4.019L6.606 266.657Z" style="fill:#b5deed"/><path d="m118.861 246.448-12.756 21.483a.999.999 0 0 0 1.373 1.369l46.877-28.002-35.494 5.15Z" style="fill:#f32148"/><path d="M172.589 209.144c0-20.696-16.804-37.5-37.5-37.5h-96.8c-20.697 0-37.5 16.804-37.5 37.5 0 20.697 16.803 37.5 37.5 37.5h96.8c20.696 0 37.5-16.803 37.5-37.5Z" style="fill:#f32148"/><path d="M84.892 197.475c.84 0 1.5-.66 1.5-1.5s-.66-1.5-1.5-1.5-1.5.66-1.5 1.5.66 1.5 1.5 1.5Zm3 0c.84 0 1.5-.66 1.5-1.5s-.66-1.5-1.5-1.5-1.5.66-1.5 1.5.66 1.5 1.5 1.5Zm-3 3c.84 0 1.5-.66 1.5-1.5s-.66-1.5-1.5-1.5-1.5.66-1.5 1.5.66 1.5 1.5 1.5Zm-3 0c.84 0 1.5-.66 1.5-1.5s-.66-1.5-1.5-1.5-1.5.66-1.5 1.5.66 1.5 1.5 1.5Zm6 0c.84 0 1.5-.66 1.5-1.5s-.66-1.5-1.5-1.5-1.5.66-1.5 1.5.66 1.5 1.5 1.5Zm-6 3c.84 0 1.5-.66 1.5-1.5s-.66-1.5-1.5-1.5-1.5.66-1.5 1.5.66 1.5 1.5 1.5Zm-3 0c.84 0 1.5-.66 1.5-1.5s-.66-1.5-1.5-1.5-1.5.66-1.5 1.5.66 1.5 1.5 1.5Zm6 0c.84 0 1.5-.66 1.5-1.5s-.66-1.5-1.5-1.5-1.5.66-1.5 1.5.66 1.5 1.5 1.5Zm3 0c.84 0 1.5-.66 1.5-1.5s-.66-1.5-1.5-1.5-1.5.66-1.5 1.5.66 1.5 1.5 1.5Zm-9 3c.84 0 1.5-.66 1.5-1.5s-.66-1.5-1.5-1.5-1.5.66-1.5 1.5.66 1.5 1.5 1.5Zm-3 0c.84 0 1.5-.66 1.5-1.5s-.66-1.5-1.5-1.5-1.5.66-1.5 1.5.66 1.5 1.5 1.5Zm9 0c.84 0 1.5-.66 1.5-1.5s-.66-1.5-1.5-1.5-1.5.66-1.5 1.5.66 1.5 1.5 1.5Zm3 0c.84 0 1.5-.66 1.5-1.5s-.66-1.5-1.5-1.5-1.5.66-1.5 1.5.66 1.5 1.5 1.5Zm-3 3c.84 0 1.5-.66 1.5-1.5s-.66-1.5-1.5-1.5-1.5.66-1.5 1.5.66 1.5 1.5 1.5Zm-9 0c.84 0 1.5-.66 1.5-1.5s-.66-1.5-1.5-1.5-1.5.66-1.5 1.5.66 1.5 1.5 1.5Zm-3 0c.84 0 1.5-.66 1.5-1.5s-.66-1.5-1.5-1.5-1.5.66-1.5 1.5.66 1.5 1.5 1.5Zm15 0c.84 0 1.5-.66 1.5-1.5s-.66-1.5-1.5-1.5-1.5.66-1.5 1.5.66 1.5 1.5 1.5Zm0 3c.84 0 1.5-.66 1.5-1.5s-.66-1.5-1.5-1.5-1.5.66-1.5 1.5.66 1.5 1.5 1.5Zm3 0c.84 0 1.5-.66 1.5-1.5s-.66-1.5-1.5-1.5-1.5.66-1.5 1.5.66 1.5 1.5 1.5Zm-9 0c.84 0 1.5-.66 1.5-1.5s-.66-1.5-1.5-1.5-1.5.66-1.5 1.5.66 1.5 1.5 1.5Zm-9 0c.84 0 1.5-.66 1.5-1.5s-.66-1.5-1.5-1.5-1.5.66-1.5 1.5.66 1.5 1.5 1.5Zm3 0c.84 0 1.5-.66 1.5-1.5s-.66-1.5-1.5-1.5-1.5.66-1.5 1.5.66 1.5 1.5 1.5Zm3 0c.84 0 1.5-.66 1.5-1.5s-.66-1.5-1.5-1.5-1.5.66-1.5 1.5.66 1.5 1.5 1.5Zm15 0c.84 0 1.5-.66 1.5-1.5s-.66-1.5-1.5-1.5-1.5.66-1.5 1.5.66 1.5 1.5 1.5Zm-9 0c.84 0 1.5-.66 1.5-1.5s-.66-1.5-1.5-1.5-1.5.66-1.5 1.5.66 1.5 1.5 1.5Zm-15 0c.84 0 1.5-.66 1.5-1.5s-.66-1.5-1.5-1.5-1.5.66-1.5 1.5.66 1.5 1.5 1.5Zm18 3c.84 0 1.5-.66 1.5-1.5s-.66-1.5-1.5-1.5-1.5.66-1.5 1.5.66 1.5 1.5 1.5Zm-3 0c.84 0 1.5-.66 1.5-1.5s-.66-1.5-1.5-1.5-1.5.66-1.5 1.5.66 1.5 1.5 1.5Zm-12 0c.84 0 1.5-.66 1.5-1.5s-.66-1.5-1.5-1.5-1.5.66-1.5 1.5.66 1.5 1.5 1.5Zm3 0c.84 0 1.5-.66 1.5-1.5s-.66-1.5-1.5-1.5-1.5.66-1.5 1.5.66 1.5 1.5 1.5Zm3 0c.84 0 1.5-.66 1.5-1.5s-.66-1.5-1.5-1.5-1.5.66-1.5 1.5.66 1.5 1.5 1.5Zm12 0c.84 0 1.5-.66 1.5-1.5s-.66-1.5-1.5-1.5-1.5.66-1.5 1.5.66 1.5 1.5 1.5Zm-9 0c.84 0 1.5-.66 1.5-1.5s-.66-1.5-1.5-1.5-1.5.66-1.5 1.5.66 1.5 1.5 1.5Zm12 0c.84 0 1.5-.66 1.5-1.5s-.66-1.5-1.5-1.5-1.5.66-1.5 1.5.66 1.5 1.5 1.5Zm-24 0c.84 0 1.5-.66 1.5-1.5s-.66-1.5-1.5-1.5-1.5.66-1.5 1.5.66 1.5 1.5 1.5Zm18 3c.84 0 1.5-.66 1.5-1.5s-.66-1.5-1.5-1.5-1.5.66-1.5 1.5.66 1.5 1.5 1.5Zm-3 0c.84 0 1.5-.66 1.5-1.5s-.66-1.5-1.5-1.5-1.5.66-1.5 1.5.66 1.5 1.5 1.5Zm3 3c.84 0 1.5-.66 1.5-1.5s-.66-1.5-1.5-1.5-1.5.66-1.5 1.5.66 1.5 1.5 1.5Zm-3 0c.84 0 1.5-.66 1.5-1.5s-.66-1.5-1.5-1.5-1.5.66-1.5 1.5.66 1.5 1.5 1.5Zm3 3c.84 0 1.5-.66 1.5-1.5s-.66-1.5-1.5-1.5-1.5.66-1.5 1.5.66 1.5 1.5 1.5Zm-3 0c.84 0 1.5-.66 1.5-1.5s-.66-1.5-1.5-1.5-1.5.66-1.5 1.5.66 1.5 1.5 1.5Zm27-27c.84 0 1.5-.66 1.5-1.5s-.66-1.5-1.5-1.5-1.5.66-1.5 1.5.66 1.5 1.5 1.5Zm-6 0c.84 0 1.5-.66 1.5-1.5s-.66-1.5-1.5-1.5-1.5.66-1.5 1.5.66 1.5 1.5 1.5Zm9 0c.84 0 1.5-.66 1.5-1.5s-.66-1.5-1.5-1.5-1.5.66-1.5 1.5.66 1.5 1.5 1.5Zm-6 0c.84 0 1.5-.66 1.5-1.5s-.66-1.5-1.5-1.5-1.5.66-1.5 1.5.66 1.5 1.5 1.5Zm-6 3c.84 0 1.5-.66 1.5-1.5s-.66-1.5-1.5-1.5-1.5.66-1.5 1.5.66 1.5 1.5 1.5Zm9 0c.84 0 1.5-.66 1.5-1.5s-.66-1.5-1.5-1.5-1.5.66-1.5 1.5.66 1.5 1.5 1.5Zm-6 0c.84 0 1.5-.66 1.5-1.5s-.66-1.5-1.5-1.5-1.5.66-1.5 1.5.66 1.5 1.5 1.5Zm12 0c.84 0 1.5-.66 1.5-1.5s-.66-1.5-1.5-1.5-1.5.66-1.5 1.5.66 1.5 1.5 1.5Zm-9 0c.84 0 1.5-.66 1.5-1.5s-.66-1.5-1.5-1.5-1.5.66-1.5 1.5.66 1.5 1.5 1.5Zm6 0c.84 0 1.5-.66 1.5-1.5s-.66-1.5-1.5-1.5-1.5.66-1.5 1.5.66 1.5 1.5 1.5Zm-12 3c.84 0 1.5-.66 1.5-1.5s-.66-1.5-1.5-1.5-1.5.66-1.5 1.5.66 1.5 1.5 1.5Zm12 0c.84 0 1.5-.66 1.5-1.5s-.66-1.5-1.5-1.5-1.5.66-1.5 1.5.66 1.5 1.5 1.5Zm-9 0c.84 0 1.5-.66 1.5-1.5s-.66-1.5-1.5-1.5-1.5.66-1.5 1.5.66 1.5 1.5 1.5Zm12 0c.84 0 1.5-.66 1.5-1.5s-.66-1.5-1.5-1.5-1.5.66-1.5 1.5.66 1.5 1.5 1.5Zm-15 3c.84 0 1.5-.66 1.5-1.5s-.66-1.5-1.5-1.5-1.5.66-1.5 1.5.66 1.5 1.5 1.5Zm-3 0c.84 0 1.5-.66 1.5-1.5s-.66-1.5-1.5-1.5-1.5.66-1.5 1.5.66 1.5 1.5 1.5Zm18 0c.84 0 1.5-.66 1.5-1.5s-.66-1.5-1.5-1.5-1.5.66-1.5 1.5.66 1.5 1.5 1.5Zm3 0c.84 0 1.5-.66 1.5-1.5s-.66-1.5-1.5-1.5-1.5.66-1.5 1.5.66 1.5 1.5 1.5Zm0 3c.84 0 1.5-.66 1.5-1.5s-.66-1.5-1.5-1.5-1.5.66-1.5 1.5.66 1.5 1.5 1.5Zm-3 0c.84 0 1.5-.66 1.5-1.5s-.66-1.5-1.5-1.5-1.5.66-1.5 1.5.66 1.5 1.5 1.5Zm-15 0c.84 0 1.5-.66 1.5-1.5s-.66-1.5-1.5-1.5-1.5.66-1.5 1.5.66 1.5 1.5 1.5Zm-3 0c.84 0 1.5-.66 1.5-1.5s-.66-1.5-1.5-1.5-1.5.66-1.5 1.5.66 1.5 1.5 1.5Zm3 3c.84 0 1.5-.66 1.5-1.5s-.66-1.5-1.5-1.5-1.5.66-1.5 1.5.66 1.5 1.5 1.5Zm-3 0c.84 0 1.5-.66 1.5-1.5s-.66-1.5-1.5-1.5-1.5.66-1.5 1.5.66 1.5 1.5 1.5Zm18 0c.84 0 1.5-.66 1.5-1.5s-.66-1.5-1.5-1.5-1.5.66-1.5 1.5.66 1.5 1.5 1.5Zm3 0c.84 0 1.5-.66 1.5-1.5s-.66-1.5-1.5-1.5-1.5.66-1.5 1.5.66 1.5 1.5 1.5Zm-18 3c.84 0 1.5-.66 1.5-1.5s-.66-1.5-1.5-1.5-1.5.66-1.5 1.5.66 1.5 1.5 1.5Zm-3 0c.84 0 1.5-.66 1.5-1.5s-.66-1.5-1.5-1.5-1.5.66-1.5 1.5.66 1.5 1.5 1.5Zm18 0c.84 0 1.5-.66 1.5-1.5s-.66-1.5-1.5-1.5-1.5.66-1.5 1.5.66 1.5 1.5 1.5Zm3 0c.84 0 1.5-.66 1.5-1.5s-.66-1.5-1.5-1.5-1.5.66-1.5 1.5.66 1.5 1.5 1.5Zm-6 3c.84 0 1.5-.66 1.5-1.5s-.66-1.5-1.5-1.5-1.5.66-1.5 1.5.66 1.5 1.5 1.5Zm3 0c.84 0 1.5-.66 1.5-1.5s-.66-1.5-1.5-1.5-1.5.66-1.5 1.5.66 1.5 1.5 1.5Zm-15 0c.84 0 1.5-.66 1.5-1.5s-.66-1.5-1.5-1.5-1.5.66-1.5 1.5.66 1.5 1.5 1.5Zm3 0c.84 0 1.5-.66 1.5-1.5s-.66-1.5-1.5-1.5-1.5.66-1.5 1.5.66 1.5 1.5 1.5Zm9 3c.84 0 1.5-.66 1.5-1.5s-.66-1.5-1.5-1.5-1.5.66-1.5 1.5.66 1.5 1.5 1.5Zm-3 0c.84 0 1.5-.66 1.5-1.5s-.66-1.5-1.5-1.5-1.5.66-1.5 1.5.66 1.5 1.5 1.5Zm-3 0c.84 0 1.5-.66 1.5-1.5s-.66-1.5-1.5-1.5-1.5.66-1.5 1.5.66 1.5 1.5 1.5Zm9 0c.84 0 1.5-.66 1.5-1.5s-.66-1.5-1.5-1.5-1.5.66-1.5 1.5.66 1.5 1.5 1.5Zm-15 0c.84 0 1.5-.66 1.5-1.5s-.66-1.5-1.5-1.5-1.5.66-1.5 1.5.66 1.5 1.5 1.5Zm3 0c.84 0 1.5-.66 1.5-1.5s-.66-1.5-1.5-1.5-1.5.66-1.5 1.5.66 1.5 1.5 1.5Zm0 3c.84 0 1.5-.66 1.5-1.5s-.66-1.5-1.5-1.5-1.5.66-1.5 1.5.66 1.5 1.5 1.5Zm9 0c.84 0 1.5-.66 1.5-1.5s-.66-1.5-1.5-1.5-1.5.66-1.5 1.5.66 1.5 1.5 1.5Zm-6 0c.84 0 1.5-.66 1.5-1.5s-.66-1.5-1.5-1.5-1.5.66-1.5 1.5.66 1.5 1.5 1.5Zm3 0c.84 0 1.5-.66 1.5-1.5s-.66-1.5-1.5-1.5-1.5.66-1.5 1.5.66 1.5 1.5 1.5Zm30-27c.84 0 1.5-.66 1.5-1.5s-.66-1.5-1.5-1.5-1.5.66-1.5 1.5.66 1.5 1.5 1.5Zm3 0c.84 0 1.5-.66 1.5-1.5s-.66-1.5-1.5-1.5-1.5.66-1.5 1.5.66 1.5 1.5 1.5Zm-3 3c.84 0 1.5-.66 1.5-1.5s-.66-1.5-1.5-1.5-1.5.66-1.5 1.5.66 1.5 1.5 1.5Zm-3 0c.84 0 1.5-.66 1.5-1.5s-.66-1.5-1.5-1.5-1.5.66-1.5 1.5.66 1.5 1.5 1.5Zm6 0c.84 0 1.5-.66 1.5-1.5s-.66-1.5-1.5-1.5-1.5.66-1.5 1.5.66 1.5 1.5 1.5Zm-6 3c.84 0 1.5-.66 1.5-1.5s-.66-1.5-1.5-1.5-1.5.66-1.5 1.5.66 1.5 1.5 1.5Zm-3 0c.84 0 1.5-.66 1.5-1.5s-.66-1.5-1.5-1.5-1.5.66-1.5 1.5.66 1.5 1.5 1.5Zm6 0c.84 0 1.5-.66 1.5-1.5s-.66-1.5-1.5-1.5-1.5.66-1.5 1.5.66 1.5 1.5 1.5Zm3 0c.84 0 1.5-.66 1.5-1.5s-.66-1.5-1.5-1.5-1.5.66-1.5 1.5.66 1.5 1.5 1.5Zm-9 3c.84 0 1.5-.66 1.5-1.5s-.66-1.5-1.5-1.5-1.5.66-1.5 1.5.66 1.5 1.5 1.5Zm-3 0c.84 0 1.5-.66 1.5-1.5s-.66-1.5-1.5-1.5-1.5.66-1.5 1.5.66 1.5 1.5 1.5Zm9 0c.84 0 1.5-.66 1.5-1.5s-.66-1.5-1.5-1.5-1.5.66-1.5 1.5.66 1.5 1.5 1.5Zm3 0c.84 0 1.5-.66 1.5-1.5s-.66-1.5-1.5-1.5-1.5.66-1.5 1.5.66 1.5 1.5 1.5Zm-3 3c.84 0 1.5-.66 1.5-1.5s-.66-1.5-1.5-1.5-1.5.66-1.5 1.5.66 1.5 1.5 1.5Zm-9 0c.84 0 1.5-.66 1.5-1.5s-.66-1.5-1.5-1.5-1.5.66-1.5 1.5.66 1.5 1.5 1.5Zm-3 0c.84 0 1.5-.66 1.5-1.5s-.66-1.5-1.5-1.5-1.5.66-1.5 1.5.66 1.5 1.5 1.5Zm15 0c.84 0 1.5-.66 1.5-1.5s-.66-1.5-1.5-1.5-1.5.66-1.5 1.5.66 1.5 1.5 1.5Zm0 3c.84 0 1.5-.66 1.5-1.5s-.66-1.5-1.5-1.5-1.5.66-1.5 1.5.66 1.5 1.5 1.5Zm3 0c.84 0 1.5-.66 1.5-1.5s-.66-1.5-1.5-1.5-1.5.66-1.5 1.5.66 1.5 1.5 1.5Zm-9 0c.84 0 1.5-.66 1.5-1.5s-.66-1.5-1.5-1.5-1.5.66-1.5 1.5.66 1.5 1.5 1.5Zm-9 0c.84 0 1.5-.66 1.5-1.5s-.66-1.5-1.5-1.5-1.5.66-1.5 1.5.66 1.5 1.5 1.5Zm3 0c.84 0 1.5-.66 1.5-1.5s-.66-1.5-1.5-1.5-1.5.66-1.5 1.5.66 1.5 1.5 1.5Zm3 0c.84 0 1.5-.66 1.5-1.5s-.66-1.5-1.5-1.5-1.5.66-1.5 1.5.66 1.5 1.5 1.5Zm15 0c.84 0 1.5-.66 1.5-1.5s-.66-1.5-1.5-1.5-1.5.66-1.5 1.5.66 1.5 1.5 1.5Zm-9 0c.84 0 1.5-.66 1.5-1.5s-.66-1.5-1.5-1.5-1.5.66-1.5 1.5.66 1.5 1.5 1.5Zm-15 0c.84 0 1.5-.66 1.5-1.5s-.66-1.5-1.5-1.5-1.5.66-1.5 1.5.66 1.5 1.5 1.5Zm18 3c.84 0 1.5-.66 1.5-1.5s-.66-1.5-1.5-1.5-1.5.66-1.5 1.5.66 1.5 1.5 1.5Zm-3 0c.84 0 1.5-.66 1.5-1.5s-.66-1.5-1.5-1.5-1.5.66-1.5 1.5.66 1.5 1.5 1.5Zm-12 0c.84 0 1.5-.66 1.5-1.5s-.66-1.5-1.5-1.5-1.5.66-1.5 1.5.66 1.5 1.5 1.5Zm3 0c.84 0 1.5-.66 1.5-1.5s-.66-1.5-1.5-1.5-1.5.66-1.5 1.5.66 1.5 1.5 1.5Zm3 0c.84 0 1.5-.66 1.5-1.5s-.66-1.5-1.5-1.5-1.5.66-1.5 1.5.66 1.5 1.5 1.5Zm12 0c.84 0 1.5-.66 1.5-1.5s-.66-1.5-1.5-1.5-1.5.66-1.5 1.5.66 1.5 1.5 1.5Zm-9 0c.84 0 1.5-.66 1.5-1.5s-.66-1.5-1.5-1.5-1.5.66-1.5 1.5.66 1.5 1.5 1.5Zm12 0c.84 0 1.5-.66 1.5-1.5s-.66-1.5-1.5-1.5-1.5.66-1.5 1.5.66 1.5 1.5 1.5Zm-24 0c.84 0 1.5-.66 1.5-1.5s-.66-1.5-1.5-1.5-1.5.66-1.5 1.5.66 1.5 1.5 1.5Zm18 3c.84 0 1.5-.66 1.5-1.5s-.66-1.5-1.5-1.5-1.5.66-1.5 1.5.66 1.5 1.5 1.5Zm-3 0c.84 0 1.5-.66 1.5-1.5s-.66-1.5-1.5-1.5-1.5.66-1.5 1.5.66 1.5 1.5 1.5Zm3 3c.84 0 1.5-.66 1.5-1.5s-.66-1.5-1.5-1.5-1.5.66-1.5 1.5.66 1.5 1.5 1.5Zm-3 0c.84 0 1.5-.66 1.5-1.5s-.66-1.5-1.5-1.5-1.5.66-1.5 1.5.66 1.5 1.5 1.5Zm3 3c.84 0 1.5-.66 1.5-1.5s-.66-1.5-1.5-1.5-1.5.66-1.5 1.5.66 1.5 1.5 1.5Zm-3 0c.84 0 1.5-.66 1.5-1.5s-.66-1.5-1.5-1.5-1.5.66-1.5 1.5.66 1.5 1.5 1.5Z" style="fill:#fff;fill-rule:nonzero"/><path d="m38.438 201.157 3.395-3.394c3.103-3.103 7.699-3.614 10.182-1.132 2.483 2.483 1.972 7.08-1.131 10.183l-3.395 3.394m-6.788 6.788-3.394 3.394c-3.103 3.104-7.7 3.614-10.182 1.132-2.483-2.483-1.972-7.079 1.131-10.183l3.394-3.394" style="fill:none;fill-rule:nonzero;stroke:#fff;stroke-width:3.96px;stroke-miterlimit:4"/><path d="m31.65 201.157-3.394-3.394m-5.883 7.014 4.727.834m8.171-13.731.833 4.727m11.385 20.389 3.395 3.394m-7.015 5.883-.833-4.727m13.731-8.17-4.727-.834" style="fill:none;fill-rule:nonzero;stroke:#fff;stroke-width:3.6px;stroke-miterlimit:4"/></svg>