<svg viewBox="0 0 120 24" xmlns="http://www.w3.org/2000/svg"><circle cx="12" cy="12" r="12" fill="#db0b2f"/><path d="m10.665 13.375-2.193 3.817a.541.541 0 0 0 .14.699.534.534 0 0 0 .707-.053l6.125-6.298a.54.54 0 0 0-.384-.915h-1.725l2.193-3.817A.54.54 0 0 0 15.064 6h-2.506a.535.535 0 0 0-.464.269l-3.618 6.298a.539.539 0 0 0 .464.808h1.725Z" fill="#fff"/><path d="M29.52 7.333a.66.66 0 0 0 .667-.666A.66.66 0 0 0 29.52 6a.66.66 0 0 0-.667.667.66.66 0 0 0 .667.666Zm12 0a.66.66 0 0 0 .667-.666A.66.66 0 0 0 41.52 6a.66.66 0 0 0-.667.667.66.66 0 0 0 .667.666Zm-1.333 0a.66.66 0 0 0 .666-.666.66.66 0 0 0-.666-.667.66.66 0 0 0-.667.667.66.66 0 0 0 .667.666Zm-9.334 0a.66.66 0 0 0 .667-.666.66.66 0 0 0-.667-.667.66.66 0 0 0-.666.667.66.66 0 0 0 .666.666ZM29.52 8.667A.661.661 0 0 0 30.187 8a.661.661 0 0 0-.667-.667.661.661 0 0 0-.667.667c0 .373.294.667.667.667Zm12 0A.661.661 0 0 0 42.187 8a.661.661 0 0 0-.667-.667.661.661 0 0 0-.667.667c0 .373.294.667.667.667Zm-10.667 0A.66.66 0 0 0 31.52 8a.66.66 0 0 0-.667-.667.66.66 0 0 0-.666.667.66.66 0 0 0 .666.667Zm9.334 0A.66.66 0 0 0 40.853 8a.66.66 0 0 0-.666-.667.66.66 0 0 0-.667.667.66.66 0 0 0 .667.667ZM29.52 10a.66.66 0 0 0 .667-.667.66.66 0 0 0-.667-.666.66.66 0 0 0-.667.666.66.66 0 0 0 .667.667Zm9.333 0a.66.66 0 0 0 .667-.667.66.66 0 0 0-.667-.666.66.66 0 0 0-.666.666.66.66 0 0 0 .666.667Zm-6.666 0a.66.66 0 0 0 .666-.667.66.66 0 0 0-.666-.666.66.66 0 0 0-.667.666.66.66 0 0 0 .667.667Zm8 0a.66.66 0 0 0 .666-.667.66.66 0 0 0-.666-.666.66.66 0 0 0-.667.666.66.66 0 0 0 .667.667Zm1.333 0a.66.66 0 0 0 .667-.667.66.66 0 0 0-.667-.666.66.66 0 0 0-.667.666.66.66 0 0 0 .667.667Zm-10.667 0a.66.66 0 0 0 .667-.667.66.66 0 0 0-.667-.666.66.66 0 0 0-.666.666.66.66 0 0 0 .666.667Zm9.334 1.333a.66.66 0 0 0 .666-.666.66.66 0 0 0-.666-.667.66.66 0 0 0-.667.667.66.66 0 0 0 .667.666Zm-10.667 0a.66.66 0 0 0 .667-.666.66.66 0 0 0-.667-.667.66.66 0 0 0-.667.667.66.66 0 0 0 .667.666Zm12 0a.66.66 0 0 0 .667-.666.66.66 0 0 0-.667-.667.66.66 0 0 0-.667.667.66.66 0 0 0 .667.666Zm-2.667 0a.66.66 0 0 0 .667-.666.66.66 0 0 0-.667-.667.66.66 0 0 0-.666.667.66.66 0 0 0 .666.666Zm-8 0a.66.66 0 0 0 .667-.666.66.66 0 0 0-.667-.667.66.66 0 0 0-.666.667.66.66 0 0 0 .666.666Zm1.334 0a.66.66 0 0 0 .666-.666.66.66 0 0 0-.666-.667.66.66 0 0 0-.667.667.66.66 0 0 0 .667.666Zm-2.667 1.334a.661.661 0 0 0 .667-.667.661.661 0 0 0-.667-.667.661.661 0 0 0-.667.667c0 .373.294.667.667.667Zm1.333 0A.66.66 0 0 0 31.52 12a.66.66 0 0 0-.667-.667.66.66 0 0 0-.666.667.66.66 0 0 0 .666.667Zm9.334 0a.66.66 0 0 0 .666-.667.66.66 0 0 0-.666-.667.66.66 0 0 0-.667.667.66.66 0 0 0 .667.667Zm1.333 0a.661.661 0 0 0 .667-.667.661.661 0 0 0-.667-.667.661.661 0 0 0-.667.667c0 .373.294.667.667.667Zm-9.333 0a.66.66 0 0 0 .666-.667.66.66 0 0 0-.666-.667.66.66 0 0 0-.667.667.66.66 0 0 0 .667.667Zm6.666 0A.66.66 0 0 0 39.52 12a.66.66 0 0 0-.667-.667.66.66 0 0 0-.666.667.66.66 0 0 0 .666.667Zm-1.333 0a.661.661 0 0 0 .667-.667.661.661 0 0 0-.667-.667.661.661 0 0 0-.667.667c0 .373.294.667.667.667Zm-4 0a.661.661 0 0 0 .667-.667.661.661 0 0 0-.667-.667.661.661 0 0 0-.667.667c0 .373.294.667.667.667Zm-4 1.333a.66.66 0 0 0 .667-.667.66.66 0 0 0-.667-.666.66.66 0 0 0-.667.666.66.66 0 0 0 .667.667Zm1.333 0a.66.66 0 0 0 .667-.667.66.66 0 0 0-.667-.666.66.66 0 0 0-.666.666.66.66 0 0 0 .666.667Zm9.334 0a.66.66 0 0 0 .666-.667.66.66 0 0 0-.666-.666.66.66 0 0 0-.667.666.66.66 0 0 0 .667.667Zm1.333 0a.66.66 0 0 0 .667-.667.66.66 0 0 0-.667-.666.66.66 0 0 0-.667.666.66.66 0 0 0 .667.667Zm-9.333 0a.66.66 0 0 0 .666-.667.66.66 0 0 0-.666-.666.66.66 0 0 0-.667.666.66.66 0 0 0 .667.667Zm6.666 0a.66.66 0 0 0 .667-.667.66.66 0 0 0-.667-.666.66.66 0 0 0-.666.666.66.66 0 0 0 .666.667Zm-5.333 0a.66.66 0 0 0 .667-.667.66.66 0 0 0-.667-.666.66.66 0 0 0-.667.666.66.66 0 0 0 .667.667Zm4 0a.66.66 0 0 0 .667-.667.66.66 0 0 0-.667-.666.66.66 0 0 0-.667.666.66.66 0 0 0 .667.667Zm-8 1.333a.66.66 0 0 0 .667-.666.66.66 0 0 0-.667-.667.66.66 0 0 0-.667.667.66.66 0 0 0 .667.666Zm8 0a.66.66 0 0 0 .667-.666.66.66 0 0 0-.667-.667.66.66 0 0 0-.667.667.66.66 0 0 0 .667.666Zm-2.667 0a.66.66 0 0 0 .667-.666.66.66 0 0 0-.667-.667.66.66 0 0 0-.666.667.66.66 0 0 0 .666.666Zm5.334 0a.66.66 0 0 0 .666-.666.66.66 0 0 0-.666-.667.66.66 0 0 0-.667.667.66.66 0 0 0 .667.666Zm-9.334 0a.66.66 0 0 0 .667-.666.66.66 0 0 0-.667-.667.66.66 0 0 0-.666.667.66.66 0 0 0 .666.666Zm5.334 0a.66.66 0 0 0 .666-.666.66.66 0 0 0-.666-.667.66.66 0 0 0-.667.667.66.66 0 0 0 .667.666Zm5.333 0a.66.66 0 0 0 .667-.666.66.66 0 0 0-.667-.667.66.66 0 0 0-.667.667.66.66 0 0 0 .667.666Zm-8 0a.66.66 0 0 0 .667-.666.66.66 0 0 0-.667-.667.66.66 0 0 0-.667.667.66.66 0 0 0 .667.666Zm2.667 1.334a.66.66 0 0 0 .666-.667.66.66 0 0 0-.666-.667.66.66 0 0 0-.667.667.66.66 0 0 0 .667.667Zm-2.667 0a.661.661 0 0 0 .667-.667.661.661 0 0 0-.667-.667.661.661 0 0 0-.667.667c0 .373.294.667.667.667Zm8 0a.661.661 0 0 0 .667-.667.661.661 0 0 0-.667-.667.661.661 0 0 0-.667.667c0 .373.294.667.667.667Zm-1.333 0a.66.66 0 0 0 .666-.667.66.66 0 0 0-.666-.667.66.66 0 0 0-.667.667.66.66 0 0 0 .667.667Zm-5.334 0A.66.66 0 0 0 35.52 16a.66.66 0 0 0-.667-.667.66.66 0 0 0-.666.667.66.66 0 0 0 .666.667Zm-4 0A.66.66 0 0 0 31.52 16a.66.66 0 0 0-.667-.667.66.66 0 0 0-.666.667.66.66 0 0 0 .666.667Zm-1.333 0a.661.661 0 0 0 .667-.667.661.661 0 0 0-.667-.667.661.661 0 0 0-.667.667c0 .373.294.667.667.667Zm8 0a.661.661 0 0 0 .667-.667.661.661 0 0 0-.667-.667.661.661 0 0 0-.667.667c0 .373.294.667.667.667ZM34.853 18a.66.66 0 0 0 .667-.667.66.66 0 0 0-.667-.666.66.66 0 0 0-.666.666.66.66 0 0 0 .666.667Zm5.334 0a.66.66 0 0 0 .666-.667.66.66 0 0 0-.666-.666.66.66 0 0 0-.667.666.66.66 0 0 0 .667.667Zm1.333 0a.66.66 0 0 0 .667-.667.66.66 0 0 0-.667-.666.66.66 0 0 0-.667.666.66.66 0 0 0 .667.667Zm-10.667 0a.66.66 0 0 0 .667-.667.66.66 0 0 0-.667-.666.66.66 0 0 0-.666.666.66.66 0 0 0 .666.667Zm-1.333 0a.66.66 0 0 0 .667-.667.66.66 0 0 0-.667-.666.66.66 0 0 0-.667.666.66.66 0 0 0 .667.667Zm6.667 0a.66.66 0 0 0 .666-.667.66.66 0 0 0-.666-.666.66.66 0 0 0-.667.666.66.66 0 0 0 .667.667Zm-1.334 1.333a.66.66 0 0 0 .667-.666.66.66 0 0 0-.667-.667.66.66 0 0 0-.666.667.66.66 0 0 0 .666.666Zm-4 0a.66.66 0 0 0 .667-.666.66.66 0 0 0-.667-.667.66.66 0 0 0-.666.667.66.66 0 0 0 .666.666Zm10.667 0a.66.66 0 0 0 .667-.666.66.66 0 0 0-.667-.667.66.66 0 0 0-.667.667.66.66 0 0 0 .667.666Zm-1.333 0a.66.66 0 0 0 .666-.666.66.66 0 0 0-.666-.667.66.66 0 0 0-.667.667.66.66 0 0 0 .667.666Zm-4 0a.66.66 0 0 0 .666-.666.66.66 0 0 0-.666-.667.66.66 0 0 0-.667.667.66.66 0 0 0 .667.666Zm-6.667 0a.66.66 0 0 0 .667-.666.66.66 0 0 0-.667-.667.66.66 0 0 0-.667.667.66.66 0 0 0 .667.666ZM44.187 6a.66.66 0 0 0 .666-.667.66.66 0 0 0-.666-.666.66.66 0 0 0-.667.666.66.66 0 0 0 .667.667Zm1.333 0a.66.66 0 0 0 .667-.667.66.66 0 0 0-.667-.666.66.66 0 0 0-.667.666.66.66 0 0 0 .667.667Zm-1.333 1.333a.66.66 0 0 0 .666-.666.66.66 0 0 0-.666-.667.66.66 0 0 0-.667.667.66.66 0 0 0 .667.666Zm1.333 0a.66.66 0 0 0 .667-.666A.66.66 0 0 0 45.52 6a.66.66 0 0 0-.667.667.66.66 0 0 0 .667.666ZM44.187 10a.66.66 0 0 0 .666-.667.66.66 0 0 0-.666-.666.66.66 0 0 0-.667.666.66.66 0 0 0 .667.667Zm1.333 0a.66.66 0 0 0 .667-.667.66.66 0 0 0-.667-.666.66.66 0 0 0-.667.666.66.66 0 0 0 .667.667Zm-1.333 1.333a.66.66 0 0 0 .666-.666.66.66 0 0 0-.666-.667.66.66 0 0 0-.667.667.66.66 0 0 0 .667.666Zm1.333 0a.66.66 0 0 0 .667-.666.66.66 0 0 0-.667-.667.66.66 0 0 0-.667.667.66.66 0 0 0 .667.666Zm-1.333 1.334a.66.66 0 0 0 .666-.667.66.66 0 0 0-.666-.667.66.66 0 0 0-.667.667.66.66 0 0 0 .667.667Zm1.333 0a.661.661 0 0 0 .667-.667.661.661 0 0 0-.667-.667.661.661 0 0 0-.667.667c0 .373.294.667.667.667ZM44.187 14a.66.66 0 0 0 .666-.667.66.66 0 0 0-.666-.666.66.66 0 0 0-.667.666.66.66 0 0 0 .667.667Zm1.333 0a.66.66 0 0 0 .667-.667.66.66 0 0 0-.667-.666.66.66 0 0 0-.667.666.66.66 0 0 0 .667.667Zm-1.333 1.333a.66.66 0 0 0 .666-.666.66.66 0 0 0-.666-.667.66.66 0 0 0-.667.667.66.66 0 0 0 .667.666Zm1.333 0a.66.66 0 0 0 .667-.666.66.66 0 0 0-.667-.667.66.66 0 0 0-.667.667.66.66 0 0 0 .667.666Zm-1.333 1.334a.66.66 0 0 0 .666-.667.66.66 0 0 0-.666-.667.66.66 0 0 0-.667.667.66.66 0 0 0 .667.667Zm1.333 0a.661.661 0 0 0 .667-.667.661.661 0 0 0-.667-.667.661.661 0 0 0-.667.667c0 .373.294.667.667.667ZM44.187 18a.66.66 0 0 0 .666-.667.66.66 0 0 0-.666-.666.66.66 0 0 0-.667.666.66.66 0 0 0 .667.667Zm1.333 0a.66.66 0 0 0 .667-.667.66.66 0 0 0-.667-.666.66.66 0 0 0-.667.666.66.66 0 0 0 .667.667Zm0 1.333a.66.66 0 0 0 .667-.666.66.66 0 0 0-.667-.667.66.66 0 0 0-.667.667.66.66 0 0 0 .667.666Zm-1.333 0a.66.66 0 0 0 .666-.666.66.66 0 0 0-.666-.667.66.66 0 0 0-.667.667.66.66 0 0 0 .667.666ZM50.853 10a.66.66 0 0 0 .667-.667.66.66 0 0 0-.667-.666.66.66 0 0 0-.666.666.66.66 0 0 0 .666.667Zm1.334 0a.66.66 0 0 0 .666-.667.66.66 0 0 0-.666-.666.66.66 0 0 0-.667.666.66.66 0 0 0 .667.667Zm1.333 0a.66.66 0 0 0 .667-.667.66.66 0 0 0-.667-.666.66.66 0 0 0-.667.666.66.66 0 0 0 .667.667Zm1.333 0a.66.66 0 0 0 .667-.667.66.66 0 0 0-.667-.666.66.66 0 0 0-.666.666.66.66 0 0 0 .666.667Zm0 1.333a.66.66 0 0 0 .667-.666.66.66 0 0 0-.667-.667.66.66 0 0 0-.666.667.66.66 0 0 0 .666.666Zm1.334 0a.66.66 0 0 0 .666-.666.66.66 0 0 0-.666-.667.66.66 0 0 0-.667.667.66.66 0 0 0 .667.666Zm-2.667 0a.66.66 0 0 0 .667-.666.66.66 0 0 0-.667-.667.66.66 0 0 0-.667.667.66.66 0 0 0 .667.666Zm-1.333 0a.66.66 0 0 0 .666-.666.66.66 0 0 0-.666-.667.66.66 0 0 0-.667.667.66.66 0 0 0 .667.666Zm-1.334 0a.66.66 0 0 0 .667-.666.66.66 0 0 0-.667-.667.66.66 0 0 0-.666.667.66.66 0 0 0 .666.666Zm-1.333 0a.66.66 0 0 0 .667-.666.66.66 0 0 0-.667-.667.66.66 0 0 0-.667.667.66.66 0 0 0 .667.666Zm0 1.334a.661.661 0 0 0 .667-.667.661.661 0 0 0-.667-.667.661.661 0 0 0-.667.667c0 .373.294.667.667.667Zm-1.333 0a.66.66 0 0 0 .666-.667.66.66 0 0 0-.666-.667.66.66 0 0 0-.667.667.66.66 0 0 0 .667.667Zm8 0a.66.66 0 0 0 .666-.667.66.66 0 0 0-.666-.667.66.66 0 0 0-.667.667.66.66 0 0 0 .667.667Zm-1.334 0A.66.66 0 0 0 55.52 12a.66.66 0 0 0-.667-.667.66.66 0 0 0-.666.667.66.66 0 0 0 .666.667Zm-4 0A.66.66 0 0 0 51.52 12a.66.66 0 0 0-.667-.667.66.66 0 0 0-.666.667.66.66 0 0 0 .666.667ZM49.52 14a.66.66 0 0 0 .667-.667.66.66 0 0 0-.667-.666.66.66 0 0 0-.667.666.66.66 0 0 0 .667.667Zm-1.333 0a.66.66 0 0 0 .666-.667.66.66 0 0 0-.666-.666.66.66 0 0 0-.667.666.66.66 0 0 0 .667.667Zm1.333 1.333a.66.66 0 0 0 .667-.666.66.66 0 0 0-.667-.667.66.66 0 0 0-.667.667.66.66 0 0 0 .667.666Zm-1.333 0a.66.66 0 0 0 .666-.666.66.66 0 0 0-.666-.667.66.66 0 0 0-.667.667.66.66 0 0 0 .667.666Zm8 1.334a.66.66 0 0 0 .666-.667.66.66 0 0 0-.666-.667.66.66 0 0 0-.667.667.66.66 0 0 0 .667.667Zm-6.667 0a.661.661 0 0 0 .667-.667.661.661 0 0 0-.667-.667.661.661 0 0 0-.667.667c0 .373.294.667.667.667Zm-1.333 0a.66.66 0 0 0 .666-.667.66.66 0 0 0-.666-.667.66.66 0 0 0-.667.667.66.66 0 0 0 .667.667Zm6.666 0A.66.66 0 0 0 55.52 16a.66.66 0 0 0-.667-.667.66.66 0 0 0-.666.667.66.66 0 0 0 .666.667Zm-4 0A.66.66 0 0 0 51.52 16a.66.66 0 0 0-.667-.667.66.66 0 0 0-.666.667.66.66 0 0 0 .666.667Zm0 1.333a.66.66 0 0 0 .667-.667.66.66 0 0 0-.667-.666.66.66 0 0 0-.666.666.66.66 0 0 0 .666.667Zm4 0a.66.66 0 0 0 .667-.667.66.66 0 0 0-.667-.666.66.66 0 0 0-.666.666.66.66 0 0 0 .666.667Zm-2.666 0a.66.66 0 0 0 .666-.667.66.66 0 0 0-.666-.666.66.66 0 0 0-.667.666.66.66 0 0 0 .667.667Zm4 0a.66.66 0 0 0 .666-.667.66.66 0 0 0-.666-.666.66.66 0 0 0-.667.666.66.66 0 0 0 .667.667Zm-2.667 0a.66.66 0 0 0 .667-.667.66.66 0 0 0-.667-.666.66.66 0 0 0-.667.666.66.66 0 0 0 .667.667Zm-4 0a.66.66 0 0 0 .667-.667.66.66 0 0 0-.667-.666.66.66 0 0 0-.667.666.66.66 0 0 0 .667.667Zm1.333 1.333a.66.66 0 0 0 .667-.666.66.66 0 0 0-.667-.667.66.66 0 0 0-.666.667.66.66 0 0 0 .666.666Zm1.334 0a.66.66 0 0 0 .666-.666.66.66 0 0 0-.666-.667.66.66 0 0 0-.667.667.66.66 0 0 0 .667.666Zm2.666 0a.66.66 0 0 0 .667-.666.66.66 0 0 0-.667-.667.66.66 0 0 0-.666.667.66.66 0 0 0 .666.666Zm-1.333 0a.66.66 0 0 0 .667-.666.66.66 0 0 0-.667-.667.66.66 0 0 0-.667.667.66.66 0 0 0 .667.666ZM58.853 10a.66.66 0 0 0 .667-.667.66.66 0 0 0-.667-.666.66.66 0 0 0-.666.666.66.66 0 0 0 .666.667Zm1.334 0a.66.66 0 0 0 .666-.667.66.66 0 0 0-.666-.666.66.66 0 0 0-.667.666.66.66 0 0 0 .667.667Zm2.666 0a.66.66 0 0 0 .667-.667.66.66 0 0 0-.667-.666.66.66 0 0 0-.666.666.66.66 0 0 0 .666.667Zm1.334 0a.66.66 0 0 0 .666-.667.66.66 0 0 0-.666-.666.66.66 0 0 0-.667.666.66.66 0 0 0 .667.667Zm-5.334 1.333a.66.66 0 0 0 .667-.666.66.66 0 0 0-.667-.667.66.66 0 0 0-.666.667.66.66 0 0 0 .666.666Zm1.334 0a.66.66 0 0 0 .666-.666.66.66 0 0 0-.666-.667.66.66 0 0 0-.667.667.66.66 0 0 0 .667.666Zm1.333 0a.66.66 0 0 0 .667-.666.66.66 0 0 0-.667-.667.66.66 0 0 0-.667.667.66.66 0 0 0 .667.666Zm1.333 0a.66.66 0 0 0 .667-.666.66.66 0 0 0-.667-.667.66.66 0 0 0-.666.667.66.66 0 0 0 .666.666Zm1.334 0a.66.66 0 0 0 .666-.666.66.66 0 0 0-.666-.667.66.66 0 0 0-.667.667.66.66 0 0 0 .667.666Zm-5.334 1.334A.66.66 0 0 0 59.52 12a.66.66 0 0 0-.667-.667.66.66 0 0 0-.666.667.66.66 0 0 0 .666.667Zm1.334 0a.66.66 0 0 0 .666-.667.66.66 0 0 0-.666-.667.66.66 0 0 0-.667.667.66.66 0 0 0 .667.667Zm1.333 0a.661.661 0 0 0 .667-.667.661.661 0 0 0-.667-.667.661.661 0 0 0-.667.667c0 .373.294.667.667.667ZM58.853 14a.66.66 0 0 0 .667-.667.66.66 0 0 0-.667-.666.66.66 0 0 0-.666.666.66.66 0 0 0 .666.667Zm1.334 0a.66.66 0 0 0 .666-.667.66.66 0 0 0-.666-.666.66.66 0 0 0-.667.666.66.66 0 0 0 .667.667Zm-1.334 1.333a.66.66 0 0 0 .667-.666.66.66 0 0 0-.667-.667.66.66 0 0 0-.666.667.66.66 0 0 0 .666.666Zm1.334 0a.66.66 0 0 0 .666-.666.66.66 0 0 0-.666-.667.66.66 0 0 0-.667.667.66.66 0 0 0 .667.666Zm-1.334 1.334A.66.66 0 0 0 59.52 16a.66.66 0 0 0-.667-.667.66.66 0 0 0-.666.667.66.66 0 0 0 .666.667Zm1.334 0a.66.66 0 0 0 .666-.667.66.66 0 0 0-.666-.667.66.66 0 0 0-.667.667.66.66 0 0 0 .667.667ZM58.853 18a.66.66 0 0 0 .667-.667.66.66 0 0 0-.667-.666.66.66 0 0 0-.666.666.66.66 0 0 0 .666.667Zm1.334 0a.66.66 0 0 0 .666-.667.66.66 0 0 0-.666-.666.66.66 0 0 0-.667.666.66.66 0 0 0 .667.667Zm-1.334 1.333a.66.66 0 0 0 .667-.666.66.66 0 0 0-.667-.667.66.66 0 0 0-.666.667.66.66 0 0 0 .666.666Zm1.334 0a.66.66 0 0 0 .666-.666.66.66 0 0 0-.666-.667.66.66 0 0 0-.667.667.66.66 0 0 0 .667.666Zm8-9.333a.66.66 0 0 0 .666-.667.66.66 0 0 0-.666-.666.66.66 0 0 0-.667.666.66.66 0 0 0 .667.667Zm1.333 0a.66.66 0 0 0 .667-.667.66.66 0 0 0-.667-.666.66.66 0 0 0-.667.666.66.66 0 0 0 .667.667Zm1.333 0a.66.66 0 0 0 .667-.667.66.66 0 0 0-.667-.666.66.66 0 0 0-.666.666.66.66 0 0 0 .666.667Zm1.334 0a.66.66 0 0 0 .666-.667.66.66 0 0 0-.666-.666.66.66 0 0 0-.667.666.66.66 0 0 0 .667.667Zm-5.334 1.333a.66.66 0 0 0 .667-.666.66.66 0 0 0-.667-.667.66.66 0 0 0-.666.667.66.66 0 0 0 .666.666Zm1.334 0a.66.66 0 0 0 .666-.666.66.66 0 0 0-.666-.667.66.66 0 0 0-.667.667.66.66 0 0 0 .667.666Zm1.333 0a.66.66 0 0 0 .667-.666.66.66 0 0 0-.667-.667.66.66 0 0 0-.667.667.66.66 0 0 0 .667.666Zm1.333 0a.66.66 0 0 0 .667-.666.66.66 0 0 0-.667-.667.66.66 0 0 0-.666.667.66.66 0 0 0 .666.666Zm1.334 0a.66.66 0 0 0 .666-.666.66.66 0 0 0-.666-.667.66.66 0 0 0-.667.667.66.66 0 0 0 .667.666Zm1.333 0a.66.66 0 0 0 .667-.666.66.66 0 0 0-.667-.667.66.66 0 0 0-.667.667.66.66 0 0 0 .667.666Zm-8 1.334a.661.661 0 0 0 .667-.667.661.661 0 0 0-.667-.667.661.661 0 0 0-.667.667c0 .373.294.667.667.667Zm9.333 0A.66.66 0 0 0 75.52 12a.66.66 0 0 0-.667-.667.66.66 0 0 0-.666.667.66.66 0 0 0 .666.667Zm-1.333 0a.661.661 0 0 0 .667-.667.661.661 0 0 0-.667-.667.661.661 0 0 0-.667.667c0 .373.294.667.667.667Zm-1.333 0a.66.66 0 0 0 .666-.667.66.66 0 0 0-.666-.667.66.66 0 0 0-.667.667.66.66 0 0 0 .667.667Zm-4 0a.66.66 0 0 0 .666-.667.66.66 0 0 0-.666-.667.66.66 0 0 0-.667.667.66.66 0 0 0 .667.667Zm-1.334 0A.66.66 0 0 0 67.52 12a.66.66 0 0 0-.667-.667.66.66 0 0 0-.666.667.66.66 0 0 0 .666.667Zm0 1.333a.66.66 0 0 0 .667-.667.66.66 0 0 0-.667-.666.66.66 0 0 0-.666.666.66.66 0 0 0 .666.667Zm-1.333 0a.66.66 0 0 0 .667-.667.66.66 0 0 0-.667-.666.66.66 0 0 0-.667.666.66.66 0 0 0 .667.667Zm9.333 0a.66.66 0 0 0 .667-.667.66.66 0 0 0-.667-.666.66.66 0 0 0-.666.666.66.66 0 0 0 .666.667Zm-1.333 0a.66.66 0 0 0 .667-.667.66.66 0 0 0-.667-.666.66.66 0 0 0-.667.666.66.66 0 0 0 .667.667Zm-6.667 1.333a.66.66 0 0 0 .667-.666.66.66 0 0 0-.667-.667.66.66 0 0 0-.666.667.66.66 0 0 0 .666.666Zm-1.333 0a.66.66 0 0 0 .667-.666.66.66 0 0 0-.667-.667.66.66 0 0 0-.667.667.66.66 0 0 0 .667.666Zm9.333 0a.66.66 0 0 0 .667-.666.66.66 0 0 0-.667-.667.66.66 0 0 0-.666.667.66.66 0 0 0 .666.666Zm-1.333 0a.66.66 0 0 0 .667-.666.66.66 0 0 0-.667-.667.66.66 0 0 0-.667.667.66.66 0 0 0 .667.666Zm-1.333 1.334a.66.66 0 0 0 .666-.667.66.66 0 0 0-.666-.667.66.66 0 0 0-.667.667.66.66 0 0 0 .667.667Zm1.333 0a.661.661 0 0 0 .667-.667.661.661 0 0 0-.667-.667.661.661 0 0 0-.667.667c0 .373.294.667.667.667Zm-5.333 0a.66.66 0 0 0 .666-.667.66.66 0 0 0-.666-.667.66.66 0 0 0-.667.667.66.66 0 0 0 .667.667Zm6.666 0A.66.66 0 0 0 75.52 16a.66.66 0 0 0-.667-.667.66.66 0 0 0-.666.667.66.66 0 0 0 .666.667Zm-8 0A.66.66 0 0 0 67.52 16a.66.66 0 0 0-.667-.667.66.66 0 0 0-.666.667.66.66 0 0 0 .666.667Zm-1.333 0a.661.661 0 0 0 .667-.667.661.661 0 0 0-.667-.667.661.661 0 0 0-.667.667c0 .373.294.667.667.667ZM72.187 18a.66.66 0 0 0 .666-.667.66.66 0 0 0-.666-.666.66.66 0 0 0-.667.666.66.66 0 0 0 .667.667Zm1.333 0a.66.66 0 0 0 .667-.667.66.66 0 0 0-.667-.666.66.66 0 0 0-.667.666.66.66 0 0 0 .667.667Zm-2.667 0a.66.66 0 0 0 .667-.667.66.66 0 0 0-.667-.666.66.66 0 0 0-.666.666.66.66 0 0 0 .666.667Zm-1.333 0a.66.66 0 0 0 .667-.667.66.66 0 0 0-.667-.666.66.66 0 0 0-.667.666.66.66 0 0 0 .667.667Zm-1.333 0a.66.66 0 0 0 .666-.667.66.66 0 0 0-.666-.666.66.66 0 0 0-.667.666.66.66 0 0 0 .667.667Zm-1.334 0a.66.66 0 0 0 .667-.667.66.66 0 0 0-.667-.666.66.66 0 0 0-.666.666.66.66 0 0 0 .666.667Zm5.334 1.333a.66.66 0 0 0 .666-.666.66.66 0 0 0-.666-.667.66.66 0 0 0-.667.667.66.66 0 0 0 .667.666Zm-1.334 0a.66.66 0 0 0 .667-.666.66.66 0 0 0-.667-.667.66.66 0 0 0-.666.667.66.66 0 0 0 .666.666Zm-1.333 0a.66.66 0 0 0 .667-.666.66.66 0 0 0-.667-.667.66.66 0 0 0-.667.667.66.66 0 0 0 .667.666Zm-1.333 0a.66.66 0 0 0 .666-.666.66.66 0 0 0-.666-.667.66.66 0 0 0-.667.667.66.66 0 0 0 .667.666ZM86.853 6a.66.66 0 0 0 .667-.667.66.66 0 0 0-.667-.666.66.66 0 0 0-.666.666.66.66 0 0 0 .666.667ZM85.52 6a.66.66 0 0 0 .667-.667.66.66 0 0 0-.667-.666.66.66 0 0 0-.667.666.66.66 0 0 0 .667.667Zm-2.667 0a.66.66 0 0 0 .667-.667.66.66 0 0 0-.667-.666.66.66 0 0 0-.666.666.66.66 0 0 0 .666.667ZM81.52 6a.66.66 0 0 0 .667-.667.66.66 0 0 0-.667-.666.66.66 0 0 0-.667.666.66.66 0 0 0 .667.667Zm-1.333 0a.66.66 0 0 0 .666-.667.66.66 0 0 0-.666-.666.66.66 0 0 0-.667.666.66.66 0 0 0 .667.667Zm6.666 1.333a.66.66 0 0 0 .667-.666.66.66 0 0 0-.667-.667.66.66 0 0 0-.666.667.66.66 0 0 0 .666.666Zm-1.333 0a.66.66 0 0 0 .667-.666A.66.66 0 0 0 85.52 6a.66.66 0 0 0-.667.667.66.66 0 0 0 .667.666Zm-1.333 0a.66.66 0 0 0 .666-.666.66.66 0 0 0-.666-.667.66.66 0 0 0-.667.667.66.66 0 0 0 .667.666Zm-5.334 0a.66.66 0 0 0 .667-.666.66.66 0 0 0-.667-.667.66.66 0 0 0-.666.667.66.66 0 0 0 .666.666Zm4 0a.66.66 0 0 0 .667-.666.66.66 0 0 0-.667-.667.66.66 0 0 0-.666.667.66.66 0 0 0 .666.666Zm-1.333 0a.66.66 0 0 0 .667-.666A.66.66 0 0 0 81.52 6a.66.66 0 0 0-.667.667.66.66 0 0 0 .667.666Zm-1.333 0a.66.66 0 0 0 .666-.666.66.66 0 0 0-.666-.667.66.66 0 0 0-.667.667.66.66 0 0 0 .667.666Zm0 1.334A.66.66 0 0 0 80.853 8a.66.66 0 0 0-.666-.667.66.66 0 0 0-.667.667.66.66 0 0 0 .667.667Zm6.666 0A.66.66 0 0 0 87.52 8a.66.66 0 0 0-.667-.667.66.66 0 0 0-.666.667.66.66 0 0 0 .666.667Zm-1.333 0A.661.661 0 0 0 86.187 8a.661.661 0 0 0-.667-.667.661.661 0 0 0-.667.667c0 .373.294.667.667.667Zm-6.667 0A.66.66 0 0 0 79.52 8a.66.66 0 0 0-.667-.667.66.66 0 0 0-.666.667.66.66 0 0 0 .666.667ZM77.52 10a.66.66 0 0 0 .667-.667.66.66 0 0 0-.667-.666.66.66 0 0 0-.667.666.66.66 0 0 0 .667.667Zm8 0a.66.66 0 0 0 .667-.667.66.66 0 0 0-.667-.666.66.66 0 0 0-.667.666.66.66 0 0 0 .667.667Zm-6.667 0a.66.66 0 0 0 .667-.667.66.66 0 0 0-.667-.666.66.66 0 0 0-.666.666.66.66 0 0 0 .666.667Zm1.334 0a.66.66 0 0 0 .666-.667.66.66 0 0 0-.666-.666.66.66 0 0 0-.667.666.66.66 0 0 0 .667.667Zm6.666 0a.66.66 0 0 0 .667-.667.66.66 0 0 0-.667-.666.66.66 0 0 0-.666.666.66.66 0 0 0 .666.667Zm-2.666 0a.66.66 0 0 0 .666-.667.66.66 0 0 0-.666-.666.66.66 0 0 0-.667.666.66.66 0 0 0 .667.667Zm-1.334 0a.66.66 0 0 0 .667-.667.66.66 0 0 0-.667-.666.66.66 0 0 0-.666.666.66.66 0 0 0 .666.667Zm-1.333 0a.66.66 0 0 0 .667-.667.66.66 0 0 0-.667-.666.66.66 0 0 0-.667.666.66.66 0 0 0 .667.667Zm-4 1.333a.66.66 0 0 0 .667-.666.66.66 0 0 0-.667-.667.66.66 0 0 0-.667.667.66.66 0 0 0 .667.666Zm2.667 0a.66.66 0 0 0 .666-.666.66.66 0 0 0-.666-.667.66.66 0 0 0-.667.667.66.66 0 0 0 .667.666Zm-4 0a.66.66 0 0 0 .666-.666.66.66 0 0 0-.666-.667.66.66 0 0 0-.667.667.66.66 0 0 0 .667.666Zm6.666 0a.66.66 0 0 0 .667-.666.66.66 0 0 0-.667-.667.66.66 0 0 0-.666.667.66.66 0 0 0 .666.666Zm-1.333 0a.66.66 0 0 0 .667-.666.66.66 0 0 0-.667-.667.66.66 0 0 0-.667.667.66.66 0 0 0 .667.666Zm4 0a.66.66 0 0 0 .667-.666.66.66 0 0 0-.667-.667.66.66 0 0 0-.667.667.66.66 0 0 0 .667.666Zm-6.667 0a.66.66 0 0 0 .667-.666.66.66 0 0 0-.667-.667.66.66 0 0 0-.666.667.66.66 0 0 0 .666.666Zm8 0a.66.66 0 0 0 .667-.666.66.66 0 0 0-.667-.667.66.66 0 0 0-.666.667.66.66 0 0 0 .666.666Zm-6.666 1.334a.66.66 0 0 0 .666-.667.66.66 0 0 0-.666-.667.66.66 0 0 0-.667.667.66.66 0 0 0 .667.667Zm-1.334 0A.66.66 0 0 0 79.52 12a.66.66 0 0 0-.667-.667.66.66 0 0 0-.666.667.66.66 0 0 0 .666.667Zm6.667 0a.661.661 0 0 0 .667-.667.661.661 0 0 0-.667-.667.661.661 0 0 0-.667.667c0 .373.294.667.667.667Zm1.333 0A.66.66 0 0 0 87.52 12a.66.66 0 0 0-.667-.667.66.66 0 0 0-.666.667.66.66 0 0 0 .666.667Zm-8 1.333a.66.66 0 0 0 .667-.667.66.66 0 0 0-.667-.666.66.66 0 0 0-.666.666.66.66 0 0 0 .666.667Zm6.667 0a.66.66 0 0 0 .667-.667.66.66 0 0 0-.667-.666.66.66 0 0 0-.667.666.66.66 0 0 0 .667.667Zm-5.333 0a.66.66 0 0 0 .666-.667.66.66 0 0 0-.666-.666.66.66 0 0 0-.667.666.66.66 0 0 0 .667.667Zm6.666 0a.66.66 0 0 0 .667-.667.66.66 0 0 0-.667-.666.66.66 0 0 0-.666.666.66.66 0 0 0 .666.667Zm-8 1.333a.66.66 0 0 0 .667-.666.66.66 0 0 0-.667-.667.66.66 0 0 0-.666.667.66.66 0 0 0 .666.666Zm6.667 0a.66.66 0 0 0 .667-.666.66.66 0 0 0-.667-.667.66.66 0 0 0-.667.667.66.66 0 0 0 .667.666Zm-5.333 0a.66.66 0 0 0 .666-.666.66.66 0 0 0-.666-.667.66.66 0 0 0-.667.667.66.66 0 0 0 .667.666Zm6.666 0a.66.66 0 0 0 .667-.666.66.66 0 0 0-.667-.667.66.66 0 0 0-.666.667.66.66 0 0 0 .666.666Zm-1.333 1.334a.661.661 0 0 0 .667-.667.661.661 0 0 0-.667-.667.661.661 0 0 0-.667.667c0 .373.294.667.667.667Zm-5.333 0a.66.66 0 0 0 .666-.667.66.66 0 0 0-.666-.667.66.66 0 0 0-.667.667.66.66 0 0 0 .667.667Zm-1.334 0A.66.66 0 0 0 79.52 16a.66.66 0 0 0-.667-.667.66.66 0 0 0-.666.667.66.66 0 0 0 .666.667Zm8 0A.66.66 0 0 0 87.52 16a.66.66 0 0 0-.667-.667.66.66 0 0 0-.666.667.66.66 0 0 0 .666.667Zm0 1.333a.66.66 0 0 0 .667-.667.66.66 0 0 0-.667-.666.66.66 0 0 0-.666.666.66.66 0 0 0 .666.667Zm-1.333 0a.66.66 0 0 0 .667-.667.66.66 0 0 0-.667-.666.66.66 0 0 0-.667.666.66.66 0 0 0 .667.667Zm-6.667 0a.66.66 0 0 0 .667-.667.66.66 0 0 0-.667-.666.66.66 0 0 0-.666.666.66.66 0 0 0 .666.667Zm1.334 0a.66.66 0 0 0 .666-.667.66.66 0 0 0-.666-.666.66.66 0 0 0-.667.666.66.66 0 0 0 .667.667Zm6.666 1.333a.66.66 0 0 0 .667-.666.66.66 0 0 0-.667-.667.66.66 0 0 0-.666.667.66.66 0 0 0 .666.666Zm-8 0a.66.66 0 0 0 .667-.666.66.66 0 0 0-.667-.667.66.66 0 0 0-.666.667.66.66 0 0 0 .666.666Zm6.667 0a.66.66 0 0 0 .667-.666.66.66 0 0 0-.667-.667.66.66 0 0 0-.667.667.66.66 0 0 0 .667.666Zm-5.333 0a.66.66 0 0 0 .666-.666.66.66 0 0 0-.666-.667.66.66 0 0 0-.667.667.66.66 0 0 0 .667.666ZM90.853 10a.66.66 0 0 0 .667-.667.66.66 0 0 0-.667-.666.66.66 0 0 0-.666.666.66.66 0 0 0 .666.667Zm1.334 0a.66.66 0 0 0 .666-.667.66.66 0 0 0-.666-.666.66.66 0 0 0-.667.666.66.66 0 0 0 .667.667Zm1.333 0a.66.66 0 0 0 .667-.667.66.66 0 0 0-.667-.666.66.66 0 0 0-.667.666.66.66 0 0 0 .667.667Zm1.333 0a.66.66 0 0 0 .667-.667.66.66 0 0 0-.667-.666.66.66 0 0 0-.666.666.66.66 0 0 0 .666.667Zm1.334 0a.66.66 0 0 0 .666-.667.66.66 0 0 0-.666-.666.66.66 0 0 0-.667.666.66.66 0 0 0 .667.667Zm-5.334 1.333a.66.66 0 0 0 .667-.666.66.66 0 0 0-.667-.667.66.66 0 0 0-.666.667.66.66 0 0 0 .666.666Zm-1.333 0a.66.66 0 0 0 .667-.666.66.66 0 0 0-.667-.667.66.66 0 0 0-.667.667.66.66 0 0 0 .667.666Zm6.667 0a.66.66 0 0 0 .666-.666.66.66 0 0 0-.666-.667.66.66 0 0 0-.667.667.66.66 0 0 0 .667.666Zm1.333 0a.66.66 0 0 0 .667-.666.66.66 0 0 0-.667-.667.66.66 0 0 0-.667.667.66.66 0 0 0 .667.666Zm-5.333 0a.66.66 0 0 0 .666-.666.66.66 0 0 0-.666-.667.66.66 0 0 0-.667.667.66.66 0 0 0 .667.666Zm2.666 0a.66.66 0 0 0 .667-.666.66.66 0 0 0-.667-.667.66.66 0 0 0-.666.667.66.66 0 0 0 .666.666Zm-1.333 0a.66.66 0 0 0 .667-.666.66.66 0 0 0-.667-.667.66.66 0 0 0-.667.667.66.66 0 0 0 .667.666Zm2.667 1.334a.66.66 0 0 0 .666-.667.66.66 0 0 0-.666-.667.66.66 0 0 0-.667.667.66.66 0 0 0 .667.667Zm1.333 0a.661.661 0 0 0 .667-.667.661.661 0 0 0-.667-.667.661.661 0 0 0-.667.667c0 .373.294.667.667.667ZM92.187 14a.66.66 0 0 0 .666-.667.66.66 0 0 0-.666-.666.66.66 0 0 0-.667.666.66.66 0 0 0 .667.667Zm4 0a.66.66 0 0 0 .666-.667.66.66 0 0 0-.666-.666.66.66 0 0 0-.667.666.66.66 0 0 0 .667.667Zm1.333 0a.66.66 0 0 0 .667-.667.66.66 0 0 0-.667-.666.66.66 0 0 0-.667.666.66.66 0 0 0 .667.667Zm-2.667 0a.66.66 0 0 0 .667-.667.66.66 0 0 0-.667-.666.66.66 0 0 0-.666.666.66.66 0 0 0 .666.667Zm-1.333 0a.66.66 0 0 0 .667-.667.66.66 0 0 0-.667-.666.66.66 0 0 0-.667.666.66.66 0 0 0 .667.667Zm-1.333 1.333a.66.66 0 0 0 .666-.666.66.66 0 0 0-.666-.667.66.66 0 0 0-.667.667.66.66 0 0 0 .667.666Zm1.333 0a.66.66 0 0 0 .667-.666.66.66 0 0 0-.667-.667.66.66 0 0 0-.667.667.66.66 0 0 0 .667.666Zm1.333 0a.66.66 0 0 0 .667-.666.66.66 0 0 0-.667-.667.66.66 0 0 0-.666.667.66.66 0 0 0 .666.666Zm2.667 0a.66.66 0 0 0 .667-.666.66.66 0 0 0-.667-.667.66.66 0 0 0-.667.667.66.66 0 0 0 .667.666Zm-1.333 0a.66.66 0 0 0 .666-.666.66.66 0 0 0-.666-.667.66.66 0 0 0-.667.667.66.66 0 0 0 .667.666Zm-5.334 0a.66.66 0 0 0 .667-.666.66.66 0 0 0-.667-.667.66.66 0 0 0-.666.667.66.66 0 0 0 .666.666Zm-1.333 0a.66.66 0 0 0 .667-.666.66.66 0 0 0-.667-.667.66.66 0 0 0-.667.667.66.66 0 0 0 .667.666Zm6.667 1.334a.66.66 0 0 0 .666-.667.66.66 0 0 0-.666-.667.66.66 0 0 0-.667.667.66.66 0 0 0 .667.667Zm1.333 0a.661.661 0 0 0 .667-.667.661.661 0 0 0-.667-.667.661.661 0 0 0-.667.667c0 .373.294.667.667.667Zm-6.667 0A.66.66 0 0 0 91.52 16a.66.66 0 0 0-.667-.667.66.66 0 0 0-.666.667.66.66 0 0 0 .666.667Zm-1.333 0a.661.661 0 0 0 .667-.667.661.661 0 0 0-.667-.667.661.661 0 0 0-.667.667c0 .373.294.667.667.667Zm4 1.333a.66.66 0 0 0 .667-.667.66.66 0 0 0-.667-.666.66.66 0 0 0-.667.666.66.66 0 0 0 .667.667Zm-4 0a.66.66 0 0 0 .667-.667.66.66 0 0 0-.667-.666.66.66 0 0 0-.667.666.66.66 0 0 0 .667.667Zm2.667 0a.66.66 0 0 0 .666-.667.66.66 0 0 0-.666-.666.66.66 0 0 0-.667.666.66.66 0 0 0 .667.667Zm5.333 0a.66.66 0 0 0 .667-.667.66.66 0 0 0-.667-.666.66.66 0 0 0-.667.666.66.66 0 0 0 .667.667Zm-1.333 0a.66.66 0 0 0 .666-.667.66.66 0 0 0-.666-.666.66.66 0 0 0-.667.666.66.66 0 0 0 .667.667Zm-5.334 0a.66.66 0 0 0 .667-.667.66.66 0 0 0-.667-.666.66.66 0 0 0-.666.666.66.66 0 0 0 .666.667Zm4 0a.66.66 0 0 0 .667-.667.66.66 0 0 0-.667-.666.66.66 0 0 0-.666.666.66.66 0 0 0 .666.667Zm-1.333 1.333a.66.66 0 0 0 .667-.666.66.66 0 0 0-.667-.667.66.66 0 0 0-.667.667.66.66 0 0 0 .667.666Zm2.667 0a.66.66 0 0 0 .666-.666.66.66 0 0 0-.666-.667.66.66 0 0 0-.667.667.66.66 0 0 0 .667.666Zm1.333 0a.66.66 0 0 0 .667-.666.66.66 0 0 0-.667-.667.66.66 0 0 0-.667.667.66.66 0 0 0 .667.666Zm-5.333 0a.66.66 0 0 0 .666-.666.66.66 0 0 0-.666-.667.66.66 0 0 0-.667.667.66.66 0 0 0 .667.666Zm-1.334 0a.66.66 0 0 0 .667-.666.66.66 0 0 0-.667-.667.66.66 0 0 0-.666.667.66.66 0 0 0 .666.666ZM104.187 10a.66.66 0 0 0 .666-.667.66.66 0 0 0-.666-.666.66.66 0 0 0-.667.666.66.66 0 0 0 .667.667Zm2.666 0a.66.66 0 0 0 .667-.667.66.66 0 0 0-.667-.666.66.66 0 0 0-.666.666.66.66 0 0 0 .666.667Zm-1.333 0a.66.66 0 0 0 .667-.667.66.66 0 0 0-.667-.666.66.66 0 0 0-.667.666.66.66 0 0 0 .667.667Zm-2.667 0a.66.66 0 0 0 .667-.667.66.66 0 0 0-.667-.666.66.66 0 0 0-.666.666.66.66 0 0 0 .666.667Zm-1.333 0a.66.66 0 0 0 .667-.667.66.66 0 0 0-.667-.666.66.66 0 0 0-.667.666.66.66 0 0 0 .667.667Zm4 1.333a.66.66 0 0 0 .667-.666.66.66 0 0 0-.667-.667.66.66 0 0 0-.667.667.66.66 0 0 0 .667.666Zm-1.333 0a.66.66 0 0 0 .666-.666.66.66 0 0 0-.666-.667.66.66 0 0 0-.667.667.66.66 0 0 0 .667.666Zm-1.334 0a.66.66 0 0 0 .667-.666.66.66 0 0 0-.667-.667.66.66 0 0 0-.666.667.66.66 0 0 0 .666.666Zm4 0a.66.66 0 0 0 .667-.666.66.66 0 0 0-.667-.667.66.66 0 0 0-.666.667.66.66 0 0 0 .666.666Zm1.334 0a.66.66 0 0 0 .666-.666.66.66 0 0 0-.666-.667.66.66 0 0 0-.667.667.66.66 0 0 0 .667.666Zm-8 0a.66.66 0 0 0 .666-.666.66.66 0 0 0-.666-.667.66.66 0 0 0-.667.667.66.66 0 0 0 .667.666Zm1.333 0a.66.66 0 0 0 .667-.666.66.66 0 0 0-.667-.667.66.66 0 0 0-.667.667.66.66 0 0 0 .667.666Zm-1.333 1.334a.66.66 0 0 0 .666-.667.66.66 0 0 0-.666-.667.66.66 0 0 0-.667.667.66.66 0 0 0 .667.667Zm1.333 0a.661.661 0 0 0 .667-.667.661.661 0 0 0-.667-.667.661.661 0 0 0-.667.667c0 .373.294.667.667.667ZM106.853 14a.66.66 0 0 0 .667-.667.66.66 0 0 0-.667-.666.66.66 0 0 0-.666.666.66.66 0 0 0 .666.667Zm-1.333 0a.66.66 0 0 0 .667-.667.66.66 0 0 0-.667-.666.66.66 0 0 0-.667.666.66.66 0 0 0 .667.667Zm-1.333 0a.66.66 0 0 0 .666-.667.66.66 0 0 0-.666-.666.66.66 0 0 0-.667.666.66.66 0 0 0 .667.667Zm-1.334 0a.66.66 0 0 0 .667-.667.66.66 0 0 0-.667-.666.66.66 0 0 0-.666.666.66.66 0 0 0 .666.667Zm-1.333 0a.66.66 0 0 0 .667-.667.66.66 0 0 0-.667-.666.66.66 0 0 0-.667.666.66.66 0 0 0 .667.667Zm-1.333 0a.66.66 0 0 0 .666-.667.66.66 0 0 0-.666-.666.66.66 0 0 0-.667.666.66.66 0 0 0 .667.667Zm8 1.333a.66.66 0 0 0 .666-.666.66.66 0 0 0-.666-.667.66.66 0 0 0-.667.667.66.66 0 0 0 .667.666Zm-2.667 0a.66.66 0 0 0 .667-.666.66.66 0 0 0-.667-.667.66.66 0 0 0-.667.667.66.66 0 0 0 .667.666Zm1.333 0a.66.66 0 0 0 .667-.666.66.66 0 0 0-.667-.667.66.66 0 0 0-.666.667.66.66 0 0 0 .666.666Zm-4 0a.66.66 0 0 0 .667-.666.66.66 0 0 0-.667-.667.66.66 0 0 0-.666.667.66.66 0 0 0 .666.666Zm1.334 0a.66.66 0 0 0 .666-.666.66.66 0 0 0-.666-.667.66.66 0 0 0-.667.667.66.66 0 0 0 .667.666Zm-2.667 0a.66.66 0 0 0 .667-.666.66.66 0 0 0-.667-.667.66.66 0 0 0-.667.667.66.66 0 0 0 .667.666Zm6.667 1.334a.66.66 0 0 0 .666-.667.66.66 0 0 0-.666-.667.66.66 0 0 0-.667.667.66.66 0 0 0 .667.667Zm-1.334 0a.66.66 0 0 0 .667-.667.66.66 0 0 0-.667-.667.66.66 0 0 0-.666.667.66.66 0 0 0 .666.667ZM108.187 18a.66.66 0 0 0 .666-.667.66.66 0 0 0-.666-.666.66.66 0 0 0-.667.666.66.66 0 0 0 .667.667Zm-1.334 0a.66.66 0 0 0 .667-.667.66.66 0 0 0-.667-.666.66.66 0 0 0-.666.666.66.66 0 0 0 .666.667Zm-4 0a.66.66 0 0 0 .667-.667.66.66 0 0 0-.667-.666.66.66 0 0 0-.666.666.66.66 0 0 0 .666.667Zm1.334 0a.66.66 0 0 0 .666-.667.66.66 0 0 0-.666-.666.66.66 0 0 0-.667.666.66.66 0 0 0 .667.667Zm1.333 0a.66.66 0 0 0 .667-.667.66.66 0 0 0-.667-.666.66.66 0 0 0-.667.666.66.66 0 0 0 .667.667Zm-4 0a.66.66 0 0 0 .667-.667.66.66 0 0 0-.667-.666.66.66 0 0 0-.667.666.66.66 0 0 0 .667.667Zm-1.333 0a.66.66 0 0 0 .666-.667.66.66 0 0 0-.666-.666.66.66 0 0 0-.667.666.66.66 0 0 0 .667.667Zm4 1.333a.66.66 0 0 0 .666-.666.66.66 0 0 0-.666-.667.66.66 0 0 0-.667.667.66.66 0 0 0 .667.666Zm2.666 0a.66.66 0 0 0 .667-.666.66.66 0 0 0-.667-.667.66.66 0 0 0-.666.667.66.66 0 0 0 .666.666Zm-1.333 0a.66.66 0 0 0 .667-.666.66.66 0 0 0-.667-.667.66.66 0 0 0-.667.667.66.66 0 0 0 .667.666Zm-2.667 0a.66.66 0 0 0 .667-.666.66.66 0 0 0-.667-.667.66.66 0 0 0-.666.667.66.66 0 0 0 .666.666Zm-1.333 0a.66.66 0 0 0 .667-.666.66.66 0 0 0-.667-.667.66.66 0 0 0-.667.667.66.66 0 0 0 .667.666ZM112.187 6a.66.66 0 0 0 .666-.667.66.66 0 0 0-.666-.666.66.66 0 0 0-.667.666.66.66 0 0 0 .667.667Zm-1.334 0a.66.66 0 0 0 .667-.667.66.66 0 0 0-.667-.666.66.66 0 0 0-.666.666.66.66 0 0 0 .666.667Zm1.334 1.333a.66.66 0 0 0 .666-.666.66.66 0 0 0-.666-.667.66.66 0 0 0-.667.667.66.66 0 0 0 .667.666Zm-1.334 0a.66.66 0 0 0 .667-.666.66.66 0 0 0-.667-.667.66.66 0 0 0-.666.667.66.66 0 0 0 .666.666Zm1.334 1.334a.66.66 0 0 0 .666-.667.66.66 0 0 0-.666-.667.66.66 0 0 0-.667.667.66.66 0 0 0 .667.667Zm-1.334 0A.66.66 0 0 0 111.52 8a.66.66 0 0 0-.667-.667.66.66 0 0 0-.666.667.66.66 0 0 0 .666.667ZM117.52 10a.66.66 0 0 0 .667-.667.66.66 0 0 0-.667-.666.66.66 0 0 0-.667.666.66.66 0 0 0 .667.667Zm-1.333 0a.66.66 0 0 0 .666-.667.66.66 0 0 0-.666-.666.66.66 0 0 0-.667.666.66.66 0 0 0 .667.667Zm-1.334 0a.66.66 0 0 0 .667-.667.66.66 0 0 0-.667-.666.66.66 0 0 0-.666.666.66.66 0 0 0 .666.667Zm-2.666 0a.66.66 0 0 0 .666-.667.66.66 0 0 0-.666-.666.66.66 0 0 0-.667.666.66.66 0 0 0 .667.667Zm-1.334 0a.66.66 0 0 0 .667-.667.66.66 0 0 0-.667-.666.66.66 0 0 0-.666.666.66.66 0 0 0 .666.667Zm8 1.333a.66.66 0 0 0 .667-.666.66.66 0 0 0-.667-.667.66.66 0 0 0-.666.667.66.66 0 0 0 .666.666Zm-4 0a.66.66 0 0 0 .667-.666.66.66 0 0 0-.667-.667.66.66 0 0 0-.666.667.66.66 0 0 0 .666.666Zm-2.666 0a.66.66 0 0 0 .666-.666.66.66 0 0 0-.666-.667.66.66 0 0 0-.667.667.66.66 0 0 0 .667.666Zm-1.334 0a.66.66 0 0 0 .667-.666.66.66 0 0 0-.667-.667.66.66 0 0 0-.666.667.66.66 0 0 0 .666.666Zm2.667 0a.66.66 0 0 0 .667-.666.66.66 0 0 0-.667-.667.66.66 0 0 0-.667.667.66.66 0 0 0 .667.666Zm2.667 0a.66.66 0 0 0 .666-.666.66.66 0 0 0-.666-.667.66.66 0 0 0-.667.667.66.66 0 0 0 .667.666Zm1.333 0a.66.66 0 0 0 .667-.666.66.66 0 0 0-.667-.667.66.66 0 0 0-.667.667.66.66 0 0 0 .667.666Zm-5.333 1.334a.66.66 0 0 0 .666-.667.66.66 0 0 0-.666-.667.66.66 0 0 0-.667.667.66.66 0 0 0 .667.667Zm5.333 0a.661.661 0 0 0 .667-.667.661.661 0 0 0-.667-.667.661.661 0 0 0-.667.667c0 .373.294.667.667.667Zm1.333 0a.66.66 0 0 0 .667-.667.66.66 0 0 0-.667-.667.66.66 0 0 0-.666.667.66.66 0 0 0 .666.667Zm-5.333 0a.661.661 0 0 0 .667-.667.661.661 0 0 0-.667-.667.661.661 0 0 0-.667.667c0 .373.294.667.667.667Zm-2.667 0a.66.66 0 0 0 .667-.667.66.66 0 0 0-.667-.667.66.66 0 0 0-.666.667.66.66 0 0 0 .666.667ZM112.187 14a.66.66 0 0 0 .666-.667.66.66 0 0 0-.666-.666.66.66 0 0 0-.667.666.66.66 0 0 0 .667.667Zm5.333 0a.66.66 0 0 0 .667-.667.66.66 0 0 0-.667-.666.66.66 0 0 0-.667.666.66.66 0 0 0 .667.667Zm-6.667 0a.66.66 0 0 0 .667-.667.66.66 0 0 0-.667-.666.66.66 0 0 0-.666.666.66.66 0 0 0 .666.667Zm8 0a.66.66 0 0 0 .667-.667.66.66 0 0 0-.667-.666.66.66 0 0 0-.666.666.66.66 0 0 0 .666.667Zm0 1.333a.66.66 0 0 0 .667-.666.66.66 0 0 0-.667-.667.66.66 0 0 0-.666.667.66.66 0 0 0 .666.666Zm-1.333 0a.66.66 0 0 0 .667-.666.66.66 0 0 0-.667-.667.66.66 0 0 0-.667.667.66.66 0 0 0 .667.666Zm-5.333 0a.66.66 0 0 0 .666-.666.66.66 0 0 0-.666-.667.66.66 0 0 0-.667.667.66.66 0 0 0 .667.666Zm-1.334 0a.66.66 0 0 0 .667-.666.66.66 0 0 0-.667-.667.66.66 0 0 0-.666.667.66.66 0 0 0 .666.666Zm8 1.334a.66.66 0 0 0 .667-.667.66.66 0 0 0-.667-.667.66.66 0 0 0-.666.667.66.66 0 0 0 .666.667Zm-1.333 0a.661.661 0 0 0 .667-.667.661.661 0 0 0-.667-.667.661.661 0 0 0-.667.667c0 .373.294.667.667.667Zm-5.333 0a.66.66 0 0 0 .666-.667.66.66 0 0 0-.666-.667.66.66 0 0 0-.667.667.66.66 0 0 0 .667.667Zm-1.334 0a.66.66 0 0 0 .667-.667.66.66 0 0 0-.667-.667.66.66 0 0 0-.666.667.66.66 0 0 0 .666.667Zm8 1.333a.66.66 0 0 0 .667-.667.66.66 0 0 0-.667-.666.66.66 0 0 0-.666.666.66.66 0 0 0 .666.667Zm-6.666 0a.66.66 0 0 0 .666-.667.66.66 0 0 0-.666-.666.66.66 0 0 0-.667.666.66.66 0 0 0 .667.667Zm-1.334 0a.66.66 0 0 0 .667-.667.66.66 0 0 0-.667-.666.66.66 0 0 0-.666.666.66.66 0 0 0 .666.667Zm6.667 0a.66.66 0 0 0 .667-.667.66.66 0 0 0-.667-.666.66.66 0 0 0-.667.666.66.66 0 0 0 .667.667Zm1.333 1.333a.66.66 0 0 0 .667-.666.66.66 0 0 0-.667-.667.66.66 0 0 0-.666.667.66.66 0 0 0 .666.666Zm-6.666 0a.66.66 0 0 0 .666-.666.66.66 0 0 0-.666-.667.66.66 0 0 0-.667.667.66.66 0 0 0 .667.666Zm-1.334 0a.66.66 0 0 0 .667-.666.66.66 0 0 0-.667-.667.66.66 0 0 0-.666.667.66.66 0 0 0 .666.666Zm6.667 0a.66.66 0 0 0 .667-.666.66.66 0 0 0-.667-.667.66.66 0 0 0-.667.667.66.66 0 0 0 .667.666Z" fill="var(--sugar-color-stress)"/></svg>