<svg xmlns="http://www.w3.org/2000/svg" aria-hidden="true">
	<symbol viewBox="0 0 24 24" id="ini-arrow-circle-90-degree"><path d="M12 8v8m-4-4 4-4 4 4"/><circle cx="12" cy="12" r="10"/></symbol>
	<symbol viewBox="0 0 24 24" id="ini-arrow-circle-270-degree"><path d="M12 8v8m-4-4 4 4 4-4"/><circle cx="12" cy="12" r="10"/></symbol>
	<symbol viewBox="0 0 24 24" id="ini-assert"><path d="M12 7.5h.01m-.01 4v4m-2.934 4.524c-.305.157-1.545.672-2.775.972-1.389.34-2.764.459-2.764.459s.843-3.12.935-4.104C2.929 15.781 2 13.726 2 11.48c0-4.935 4.478-8.935 10-8.935 5.523 0 10 4 10 8.935 0 4.934-4.477 8.934-10 8.934-.99.002-1.977-.13-2.934-.39Z"/></symbol>
	<symbol viewBox="0 0 24 24" id="ini-commend"><path d="M22 4 12 14.01l-3-3"/><path d="M22 11.08V12a10 10 0 1 1-5.93-9.14"/></symbol>
	<symbol viewBox="0 0 24 24" id="ini-deter"><path d="M12 12s-5.563 4.576-3.562 7.999c1.516 2.594 5.615 2.74 7.121 0C17.591 16.303 12 12 12 12Z"/><path d="M13.09 2 8.598 8.988A716.32 716.32 0 0 1 6.371 6s-4.764 6.888-2.019 11.779c3.089 5.504 11.925 5.751 15.123 0C23.789 10.022 13.09 2 13.09 2Z"/></symbol>
	<symbol viewBox="0 0 24 24" id="ini-edit-line"><path d="M16.404 3.637a2.107 2.107 0 0 1 1.49-.617c1.155 0 2.106.95 2.106 2.106 0 .558-.222 1.094-.617 1.489L6.972 19.027 3 20.02l.993-3.972L16.404 3.637ZM12 21h9"/></symbol>
	<symbol viewBox="0 0 24 24" id="ini-footnote"><path d="M13 7h4v4h-4zM7 7h2m-2 4h2m4 4h4"/><path d="M13.001 19.001H19.2c.994 0 1.8-.796 1.8-1.778V4.779a1.79 1.79 0 0 0-1.8-1.778H4.802c-.993 0-1.8.797-1.8 1.778v6.111"/><path d="M3 15h6v6m-6 0 6-6"/></symbol>
	<symbol viewBox="0 0 24 24" id="ini-github"><path d="M15.683 22s.241-2.889-.193-4.315a5.64 5.64 0 0 0-.868-1.741c3.183 0 6.366-2.231 6.366-6.135a6.251 6.251 0 0 0-1.061-3.905 8.664 8.664 0 0 0 0-3.904s-1.061 0-3.183 1.673a21.767 21.767 0 0 0-8.488 0C6.134 2 5.073 2 5.073 2a8.107 8.107 0 0 0 0 3.904 6.251 6.251 0 0 0-1.061 3.905c0 3.904 3.183 6.135 6.366 6.135-.414.547-.741 1.167-.902 1.841C9.142 19.186 9.317 22 9.317 22"/><path d="M9.293 19.339C5.438 21.301 4.994 17 2.994 17"/></symbol>
	<symbol viewBox="0 0 24 24" id="ini-green-new-energy"><path d="M21.168 8A10.003 10.003 0 0 0 12 2C7.9 2 4.375 4.468 2.832 8"/><path d="M12 7a9.975 9.975 0 0 0-2.973 7.886A9.967 9.967 0 0 1 12 22a9.972 9.972 0 0 1 2.972-7.115A9.973 9.973 0 0 0 12 7Z"/><path d="M2 12c0 5.523 4.477 10 10 10a9.97 9.97 0 0 0-2.973-7.115A9.969 9.969 0 0 0 2 12Z"/><path d="M22 12c0 5.523-4.477 10-10 10a9.972 9.972 0 0 1 2.972-7.115A9.973 9.973 0 0 1 22 12Z"/></symbol>
	<symbol viewBox="0 0 24 24" id="ini-hacker-news"><rect x="2" y="2" width="20" height="20" rx="2"/><path d="m8 6 4 7 4-7m-4 7v5"/></symbol>
	<symbol viewBox="0 0 24 24" id="ini-link"><path d="M10 13a5 5 0 0 0 7.54.54l3-3a5 5 0 0 0-7.07-7.07l-1.72 1.71"/><path d="M14 11a5 5 0 0 0-7.54-.54l-3 3a5 5 0 0 0 7.07 7.07l1.71-1.71"/></symbol>
	<symbol viewBox="0 0 24 24" id="ini-linkedin"><path d="M16 8a6 6 0 0 1 6 6v7h-4v-7a2 2 0 0 0-2-2 2 2 0 0 0-2 2v7h-4v-7a6 6 0 0 1 6-6zM2 9h4v12H2z"/><circle cx="4" cy="4" r="2"/></symbol>
	<symbol viewBox="0 0 24 24" id="ini-mail"><rect x="2" y="4" width="20" height="16" rx="2"/><path d="m22 7-8.97 5.7a1.94 1.94 0 0 1-2.06 0L2 7"/></symbol>
	<symbol viewBox="0 0 24 24" id="ini-menu"><path d="M8 6h12M4 12h16m-8 6h8"/></symbol>
	<symbol viewBox="0 0 24 24" id="ini-moon-stars"><path d="M9.2 2h.01"/><circle cx="3.391" cy="6.767" r="1"/><path d="M14.55 2A10.127 10.127 0 0 1 22 11.786C22 17.423 17.423 22 11.786 22 7.112 22 3.166 18.853 2 14.55a8.77 8.77 0 0 0 4.68 1.322c5.073 0 9.192-4.119 9.192-9.192A8.77 8.77 0 0 0 14.55 2Z"/></symbol>
	<symbol viewBox="0 0 24 24" id="ini-note"><path d="M12 8h.01M12 12v4"/><circle cx="12" cy="12" r="10"/></symbol>
	<symbol viewBox="0 0 24 24" id="ini-reddit"><circle cx="8.75" cy="13.25" r=".75"/><circle cx="15.25" cy="13.25" r=".75"/><circle cx="18" cy="4" r="2"/><path d="M15.708 17c-1.072 1.199-3.11 1.278-3.708 1.278-.598 0-2.654-.098-3.708-1.278"/><path d="M22 12.177c0-1.357-.984-2.458-2.197-2.458-.597 0-1.125.256-1.511.688C16.798 9.208 14.097 8.323 12 8.323c-2.097 0-4.78.846-6.292 2.084-.386-.412-.931-.688-1.511-.688C2.984 9.719 2 10.82 2 12.177c0 1.003.527 1.848 1.301 2.241-.036.236-.141 7.603 8.717 7.57 8.766-.033 8.752-7.314 8.717-7.55.72-.393 1.265-1.258 1.265-2.261ZM12 8.323l1.005-6.311L16 3.058"/></symbol>
	<symbol viewBox="0 0 24 24" id="ini-rss"><path d="M4 11a9 9 0 0 1 9 9M4 4a16 16 0 0 1 16 16"/><circle cx="5" cy="19" r="1"/></symbol>
	<symbol viewBox="0 0 24 24" id="ini-search"><circle cx="10.5" cy="10.5" r="7.5"/><path d="m16 16 5 5"/></symbol>
	<symbol viewBox="0 0 24 24" id="ini-setup"><path d="M17.665 3.473 13.626 7.5l2.879 2.871 4.039-4.027a5.556 5.556 0 0 1-1.16 6.181 5.626 5.626 0 0 1-6.207 1.166l-6.742 6.736A2.04 2.04 0 0 1 5.018 21a2.042 2.042 0 0 1-2.036-2.03c0-.527.206-1.035.574-1.413l6.74-6.74a5.585 5.585 0 0 1 1.17-6.187 5.595 5.595 0 0 1 6.199-1.157Z"/></symbol>
	<symbol viewBox="0 0 24 24" id="ini-sun"><path d="M12 2v2m8 8h2m-10 8v2M2 12h2m1-7 1.5 1.5m11 0L19 5m-1.5 12.5L19 19M6.5 17.5 5 19"/><circle cx="12" cy="12" r="4"/></symbol>
	<symbol viewBox="0 0 24 24" id="ini-table-of-contents"><path d="M3 6h13M3 12h13M3 18h13m5-12h.01M21 12h.01M21 18h.01"/></symbol>
	<symbol viewBox="0 0 24 24" id="ini-text-size-large"><path d="m9 13.484 6 .032M6 18l6-12 6 12"/><path d="M22 4a2 2 0 0 0-2-2H4a2 2 0 0 0-2 2v16a2 2 0 0 0 2 2h16a2 2 0 0 0 2-2V4Z"/></symbol>
	<symbol viewBox="0 0 24 24" id="ini-text-size-medium"><path d="m9.75 12.613 4.5.024M7.5 16 12 7l4.5 9"/><circle cx="12" cy="12" r="10"/></symbol>
	<symbol viewBox="0 0 24 24" id="ini-text-size-regular"><path d="m10.25 14.366 3.5.018M8.5 17l3.5-7 3.5 7"/><path d="m21.74 18.007-8-14A2.003 2.003 0 0 0 12 2.993c-.719 0-1.385.388-1.74 1.014l-8 14a1.995 1.995 0 0 0-.268 1c0 1.097.903 2 2 2H20.01a2.01 2.01 0 0 0 1.998-2c0-.351-.092-.696-.268-1Z"/></symbol>
	<symbol viewBox="0 0 24 24" id="ini-twitter"><path d="M8.461 20.5c8.826 0 12.008-6.729 12.008-12.291 0-.18 0-.362-.008-.542C21.922 5.803 21.842 4.885 22 3.813a8.393 8.393 0 0 1-2.683 1.018A4.227 4.227 0 0 0 16.238 3.5c-2.318 0-4.224 1.905-4.224 4.22 0 .322.036.643.109.956-3.391-.169-6.682-1.758-8.825-4.39-1.111 1.916 1.314 6.6 2.45 7.6-.247.069-.722.224-1.289.151-.581-.074-.992-.183-1.309-.437.552 1.712 2.283 3.997 5.098 4.966-1.42 1.148-3.319 1.784-5.245 1.806A7.647 7.647 0 0 1 2 18.315C3.93 19.974 6.172 20.5 8.461 20.5Z"/></symbol>
	<symbol viewBox="0 0 24 24" id="ini-warn"><path d="M12 9v4m0 4h.01m9.72 1-8-14a2 2 0 0 0-3.48 0l-8 14A2 2 0 0 0 4 21h16a2 2 0 0 0 1.73-3Z"/></symbol>
	<symbol viewBox="0 0 24 24" id="ini-x"><path d="m6 6 12 12m0-12L6 18"/></symbol>
	<symbol viewBox="0 0 24 24" id="ini-x-circle"><circle cx="12" cy="12" r="10"/><path d="m15 9-6 6m0-6 6 6"/></symbol>
</svg>