<svg viewBox="0 0 24 20" xmlns="http://www.w3.org/2000/svg"><path d="m2.008 16.353.298-.835-.306.26v-5.003l1.623-.296-.173-.203-.342-.403-.342-.402-.263-.31-.02.056-.178.497-.305.855V7.441c0-.674.123-1.319.348-1.915l.132.724.757-.643-.604-.712a5.466 5.466 0 0 1 2.702-2.469l.071.083-.019-.105A5.467 5.467 0 0 1 7.455 2h4.616l.432.51L12.41 2h1.049a4.17 4.17 0 0 1 2.943 1.217l2.376 2.37-.448.38.7-.128 1.746 1.741c.036.036.072.073.106.11l-.811-.289.182.996.717-.609A4.166 4.166 0 0 1 22 10.53v4.71c0 .722-.287 1.414-.799 1.924-.35.349-.786.613-1.259.744l.543-1.522-.365-.13-.03.086-.588 1.647a2.49 2.49 0 0 1-.229.011h-2.692c-.779 0-1.52-.37-2.037-.951l.588-.107.52-.095.399-.073.061-.17.178-.498.029-.081-.53.097-1.768.323-1.766-2.038-.086-.473-.28.051-1.563-1.805a.91.91 0 0 0-1.426.063l-.114.158-.126-.692-1.139.208.873 1.029-2.204 3.056-.121-.143-.221.617-.554.769a1.82 1.82 0 0 1-3.286-.892ZM6.109 3.337l.076.09.04-.111-.116.021Zm1.025-.187-.396.073 2.255.805-.839-.988.113-.097-1.133.207ZM4.4 5.743l.674.794.173-.483.528-1.479L4.4 5.743Zm.966 9.288-.119-.139-.684-.805.09-.077-1.421.259 2.134.762Zm3.471-8.153 1.497-1.271-.734-.865-.763 2.136Zm-4.701 3.507 1.06-.193-.112-.611-.948.804Zm7.361-4.642.129.152.545.642.701-1.962-1.375 1.168Zm7.944 9.149.378-1.059-2.393.436 1.984.709.031-.086Zm-2.618-.277.09-.252-.359.066.113.622.156-.436ZM8.425 8.033l.188-.034-.124-.146-.064.18Zm1.155 2.654 1.14-.208-1.5-1.765.36 1.973Zm11.147 1.299-.796-.936.298 1.635.278-.777.22.078ZM5.778 7.365l.802.945-.09.077 1.421-.26-2.133-.762Zm1.229 4.646-1.059.193.111.612.948-.805Zm6.275-8.584.04-.111-.115.021.075.09ZM2.654 14.543l.065-.18-.189.035.124.145Zm16.574-4.321-.471-.554.091-.077-1.546.282-.519.095-.229.042.123.677 2.046-.373.505-.092ZM14.231 3.15l-.396.073 2.255.805-.155-.183-.342-.403-.342-.402.113-.097-.094.018-.52.094-.519.095Zm-1.063 9.732 2.713-.495-.124-.678-2.046.374-.519.094-.147.027.123.678Zm-1.935-2.496.393-.072.667-.122-.112-.611-.948.805Zm1.641-3.021.119.14.342.402.342.403-.09.077 1.421-.26-2.134-.762Zm3.803-2.567-.177.498-.385 1.075 1.702-.311-.173-.203-.342-.402-.342-.403-.263-.31-.02.056Zm-1.155 3.235.359-.065-.114-.622-.156.436-.089.251Z" fill="#db0b2f"/></svg>