<svg xmlns="http://www.w3.org/2000/svg" width="1038" height="696"><path fill="none" stroke="#bc7317" stroke-linecap="round" stroke-linejoin="round" stroke-width="2" d="M1006 127.93a8 8 0 0 1 8 8v394a8 8 0 0 1-8 8H32a8 8 0 0 1-8-8v-394a8 8 0 0 1 8-8Z"/><path fill="#888474" d="M489.096 672.352q-1.338 0-2.392-.621t-1.66-1.791-.607-2.81q0-1.65.61-2.821.61-1.17 1.666-1.793 1.054-.623 2.383-.623.836 0 1.565.237.73.236 1.298.692t.938 1.109.492 1.49h-1.841a2.2 2.2 0 0 0-.839-1.399 2.3 2.3 0 0 0-.724-.368 2.9 2.9 0 0 0-.86-.124q-.834 0-1.481.419-.645.42-1.01 1.222-.364.802-.364 1.959 0 1.166.369 1.967t1.012 1.211q.644.408 1.469.408.457 0 .859-.126.4-.128.725-.369.325-.242.543-.593.219-.353.306-.803h1.841a4 4 0 0 1-1.351 2.494 4.1 4.1 0 0 1-1.301.76 4.8 4.8 0 0 1-1.646.273m9.207.018q-1.113 0-1.934-.494a3.3 3.3 0 0 1-1.269-1.38q-.45-.888-.449-2.064 0-1.188.449-2.078a3.3 3.3 0 0 1 1.269-1.383q.82-.495 1.934-.494 1.117 0 1.938.494.82.493 1.269 1.383.45.89.448 2.078 0 1.176-.448 2.064a3.3 3.3 0 0 1-1.269 1.38q-.82.495-1.938.494m0-1.443q.623 0 1.034-.335a2 2 0 0 0 .614-.902q.202-.567.202-1.263a3.8 3.8 0 0 0-.202-1.27 2 2 0 0 0-.614-.902q-.413-.335-1.034-.335t-1.029.335a2 2 0 0 0-.611.9 3.8 3.8 0 0 0-.202 1.272q0 .696.202 1.263.203.567.611.902t1.029.335m6.982-3.188v4.477h-1.777v-7.643h1.685l.024 1.89h-.139q.317-.991.941-1.488.623-.498 1.558-.498.788 0 1.374.337.588.336.914.979.326.642.326 1.564v4.859h-1.777v-4.586q0-.77-.399-1.205-.4-.437-1.097-.437-.47 0-.841.206-.37.207-.581.597t-.211.948m9.681 4.631q-.878 0-1.556-.253a2.7 2.7 0 0 1-1.11-.736 2.43 2.43 0 0 1-.567-1.175l1.664-.313q.154.565.556.841.402.275 1.048.275.658 0 1.042-.263.386-.262.386-.648a.69.69 0 0 0-.254-.548q-.253-.216-.779-.328l-1.301-.281q-1.082-.234-1.616-.767-.533-.534-.533-1.375 0-.708.39-1.228.39-.522 1.083-.807.695-.287 1.608-.287.867 0 1.493.246.625.246 1.012.688.388.441.538 1.038l-1.584.309a1.44 1.44 0 0 0-.475-.675q-.342-.277-.96-.277-.565 0-.945.247t-.379.639a.7.7 0 0 0 .249.551q.25.219.834.346l1.3.274q1.086.231 1.614.743.527.513.527 1.321 0 .724-.419 1.274-.418.55-1.159.86t-1.707.309m7.419-.059q-.784 0-1.375-.336a2.3 2.3 0 0 1-.917-.981q-.326-.644-.326-1.562v-4.859h1.777v4.586q0 .769.401 1.205.4.436 1.1.436.473 0 .839-.206a1.46 1.46 0 0 0 .578-.599q.21-.394.211-.945v-4.477h1.781v7.643h-1.689l-.02-1.89h.135q-.322 1-.949 1.492-.628.493-1.546.493m5.954-.095v-7.643h1.668l.069 1.837h-.13q.165-.678.511-1.11a2.2 2.2 0 0 1 .807-.64q.462-.21.966-.209.827 0 1.337.52t.719 1.527h-.213q.159-.684.538-1.138.38-.456.903-.682a2.8 2.8 0 0 1 1.117-.227q.688 0 1.237.3.55.298.87.879.32.58.319 1.431v5.155h-1.776v-4.882q0-.71-.389-1.038a1.4 1.4 0 0 0-.935-.33q-.429 0-.742.185a1.24 1.24 0 0 0-.482.51 1.6 1.6 0 0 0-.169.756v4.799h-1.732v-4.961q0-.585-.363-.938-.36-.351-.93-.351-.388 0-.713.18a1.3 1.3 0 0 0-.518.528q-.193.347-.193.857v4.685Zm15.978.154q-1.15 0-1.982-.484a3.23 3.23 0 0 1-1.28-1.365q-.448-.882-.448-2.08 0-1.178.442-2.07a3.35 3.35 0 0 1 1.252-1.393q.81-.501 1.9-.501a3.9 3.9 0 0 1 1.332.227c.419.15.8.387 1.119.696q.487.47.768 1.199.28.729.28 1.737v.554h-6.254v-1.206h5.367l-.831.358q0-.65-.2-1.137a1.66 1.66 0 0 0-.593-.761q-.395-.273-.978-.273-.585 0-.996.277a1.8 1.8 0 0 0-.627.739 2.4 2.4 0 0 0-.215 1.028v.836q0 .724.246 1.222a1.7 1.7 0 0 0 .691.75q.444.253 1.031.253.39 0 .709-.112.318-.111.548-.332t.351-.547l1.632.338a2.6 2.6 0 0 1-.628 1.074 3 3 0 0 1-1.114.717q-.666.255-1.522.256m4.905-.154v-7.643h1.721v1.279h.082q.21-.664.721-1.024.51-.36 1.168-.359.326 0 .649.052v1.634a2 2 0 0 0-.356-.065 4 4 0 0 0-.481-.028q-.495 0-.888.211a1.56 1.56 0 0 0-.616.585 1.65 1.65 0 0 0-.223.863v4.495Z"/><path fill="none" stroke="#848484" stroke-linecap="round" stroke-linejoin="round" stroke-width="2" d="M544.2 638.329c.5.38.8.97.8 1.6v10c0 1.097-.903 2-2 2h-16c-1.097 0-2-.903-2-2v-10c0-.629.297-1.223.8-1.6l8-6a2 2 0 0 1 2.4 0Z"/><path fill="none" stroke="#848484" stroke-linecap="round" stroke-linejoin="round" stroke-width="2" d="m545 639.929-8.97 5.7a1.94 1.94 0 0 1-2.06 0l-8.97-5.7m10-142.999.003 116m-.003 9 6-9h-12Z"/><path fill="#888474" d="M550.659 601.459q-1.339 0-2.392-.621-1.053-.622-1.66-1.791t-.607-2.811q0-1.65.61-2.82t1.666-1.794q1.055-.622 2.383-.622.836 0 1.565.237.73.236 1.298.691t.938 1.11.492 1.489h-1.84a2.3 2.3 0 0 0-.302-.804 2.2 2.2 0 0 0-.538-.594 2.3 2.3 0 0 0-.724-.368 2.9 2.9 0 0 0-.86-.125q-.835 0-1.48.42-.647.418-1.011 1.222-.364.803-.364 1.958 0 1.167.369 1.968t1.012 1.21q.644.41 1.469.409.457 0 .859-.127.402-.126.725-.368.324-.24.543-.594a2.4 2.4 0 0 0 .307-.802h1.84a4 4 0 0 1-.447 1.37 4.05 4.05 0 0 1-2.205 1.884 4.8 4.8 0 0 1-1.646.273m9.207.018q-1.112 0-1.934-.494a3.3 3.3 0 0 1-1.269-1.381q-.45-.887-.449-2.063 0-1.19.449-2.079a3.3 3.3 0 0 1 1.269-1.383q.822-.493 1.934-.493 1.117 0 1.938.493.82.493 1.269 1.383.45.89.449 2.079 0 1.176-.449 2.063a3.3 3.3 0 0 1-1.269 1.381q-.82.495-1.938.494m0-1.443q.623 0 1.034-.335a2 2 0 0 0 .614-.902q.202-.567.202-1.263a3.8 3.8 0 0 0-.202-1.27 2 2 0 0 0-.614-.903q-.411-.334-1.034-.334-.621 0-1.029.334a2 2 0 0 0-.611.901c-.14.41-.208.84-.202 1.272q0 .696.202 1.263.203.567.611.902t1.029.335m6.982-3.188v4.476h-1.777v-7.642h1.685l.024 1.889h-.139q.317-.99.941-1.488.624-.497 1.558-.497.787 0 1.375.336a2.3 2.3 0 0 1 .913.98q.326.643.326 1.564v4.858h-1.777v-4.586q0-.768-.399-1.205-.4-.436-1.097-.436-.47 0-.841.206a1.46 1.46 0 0 0-.581.596q-.21.39-.211.949m9.681 4.631q-.878 0-1.556-.253a2.7 2.7 0 0 1-1.11-.737 2.4 2.4 0 0 1-.567-1.175l1.664-.312q.154.565.556.84.402.276 1.048.276.657 0 1.043-.263.385-.264.385-.649a.69.69 0 0 0-.254-.547q-.253-.216-.779-.328l-1.301-.281q-1.082-.234-1.616-.768-.533-.533-.533-1.374 0-.708.39-1.229.39-.52 1.084-.807.693-.285 1.607-.286.867 0 1.493.246.625.245 1.012.687t.539 1.039l-1.585.309a1.44 1.44 0 0 0-.475-.675q-.342-.277-.96-.277-.565 0-.945.247-.38.246-.379.639a.7.7 0 0 0 .25.551q.25.217.833.346l1.301.273q1.085.231 1.613.744.527.512.527 1.321 0 .723-.419 1.274-.418.55-1.159.859-.741.31-1.707.31m7.419-.059q-.784 0-1.375-.336a2.3 2.3 0 0 1-.916-.982q-.326-.644-.326-1.562v-4.858h1.776v4.586q0 .768.401 1.205.4.435 1.1.436.473 0 .839-.206.367-.205.578-.6.21-.393.211-.945v-4.476h1.781v7.642h-1.689l-.019-1.889h.134q-.32.999-.949 1.492-.628.493-1.546.493m5.954-.096v-7.642h1.668l.069 1.837h-.13q.167-.68.511-1.11.345-.432.807-.641.462-.208.966-.208.827 0 1.337.52t.719 1.526h-.213q.159-.682.538-1.138.38-.455.903-.681a2.8 2.8 0 0 1 1.117-.227q.688 0 1.238.299.548.3.869.879.32.58.319 1.432v5.154h-1.776v-4.881q0-.71-.389-1.039a1.4 1.4 0 0 0-.935-.329q-.429 0-.742.184a1.24 1.24 0 0 0-.482.51q-.17.326-.169.757v4.798h-1.732v-4.96q0-.587-.362-.938-.363-.351-.931-.351-.387 0-.713.18a1.3 1.3 0 0 0-.518.527q-.192.347-.193.858v4.684Zm15.978.155q-1.15 0-1.982-.484a3.23 3.23 0 0 1-1.28-1.366q-.448-.88-.448-2.079 0-1.179.443-2.07a3.34 3.34 0 0 1 1.251-1.393q.81-.501 1.9-.501.702 0 1.332.226c.419.15.8.386 1.119.696q.489.47.768 1.199.28.729.28 1.737v.555h-6.254v-1.207h5.367l-.83.358q0-.648-.201-1.137a1.67 1.67 0 0 0-.593-.761q-.395-.272-.978-.272-.585 0-.996.277a1.77 1.77 0 0 0-.626.739 2.4 2.4 0 0 0-.216 1.028v.835q0 .725.246 1.223a1.7 1.7 0 0 0 .691.75q.444.252 1.031.253.39 0 .709-.112a1.44 1.44 0 0 0 .899-.88l1.633.338a2.6 2.6 0 0 1-.629 1.075 3 3 0 0 1-1.113.717q-.668.255-1.523.256"/><path fill="none" stroke="#848484" stroke-dasharray="8 4" stroke-linecap="round" stroke-linejoin="round" stroke-width="2" d="m503 651.93.003-144"/><path fill="none" stroke="#848484" stroke-linecap="round" stroke-linejoin="round" stroke-width="2" d="m503 498.93 6 9h-12Z"/><path fill="#888474" d="M428.952 601.829q-1.183 0-2.056-.369-.875-.37-1.364-1.073-.49-.705-.532-1.712h1.798q.045.535.334.889.29.355.761.529a3 3 0 0 0 1.044.175 2.8 2.8 0 0 0 1.062-.184q.46-.183.722-.516a1.2 1.2 0 0 0 .261-.769.96.96 0 0 0-.23-.659 1.8 1.8 0 0 0-.644-.438 6.3 6.3 0 0 0-.968-.316l-1.157-.302q-1.272-.327-1.989-.992-.717-.666-.717-1.744 0-.9.487-1.576.488-.675 1.328-1.049.84-.375 1.907-.374 1.087 0 1.906.376.817.377 1.281 1.037.462.66.482 1.515H430.9q-.07-.656-.587-1.016t-1.341-.36q-.571 0-.988.173a1.47 1.47 0 0 0-.637.476 1.14 1.14 0 0 0-.222.69q0 .427.263.7.262.273.663.437.4.164.809.267l.952.243q.565.135 1.1.362.536.23.963.574.427.345.679.835.25.49.251 1.154 0 .895-.456 1.576t-1.318 1.061-2.079.38m8.063-.062q-.784 0-1.375-.337a2.3 2.3 0 0 1-.917-.981q-.326-.644-.326-1.562v-4.859h1.777v4.586q0 .77.401 1.205.4.437 1.1.437.473 0 .839-.206.367-.207.578-.6.21-.394.211-.945v-4.477h1.781v7.643h-1.689l-.02-1.89h.135q-.32 1-.949 1.493-.628.492-1.546.493m9.991.043q-.656 0-1.091-.223a2.2 2.2 0 0 1-.695-.537 3.3 3.3 0 0 1-.399-.589h-.112v1.21h-1.74v-10.186h1.776v3.809h.076q.138-.27.39-.589a2.1 2.1 0 0 1 .686-.545q.434-.228 1.115-.227.885 0 1.596.451.711.452 1.131 1.329.42.879.419 2.152 0 1.254-.41 2.135t-1.122 1.346a2.9 2.9 0 0 1-1.62.464m-.482-1.462q.597 0 1-.325.404-.324.609-.889.206-.564.206-1.278a3.7 3.7 0 0 0-.204-1.267 1.94 1.94 0 0 0-.606-.875q-.404-.32-1.005-.319-.586 0-.991.306t-.613.858-.208 1.297q0 .742.21 1.303t.618.875q.406.315.984.314m8.075 1.477q-.878 0-1.556-.252a2.74 2.74 0 0 1-1.11-.737 2.43 2.43 0 0 1-.567-1.175l1.664-.312q.154.564.556.84.402.275 1.048.275.657 0 1.043-.263.385-.262.385-.648a.69.69 0 0 0-.254-.548q-.253-.215-.779-.328l-1.301-.281q-1.082-.233-1.616-.767-.533-.532-.533-1.374 0-.708.39-1.229.39-.52 1.084-.807.693-.285 1.607-.286.867 0 1.493.245.625.246 1.012.688t.539 1.038l-1.585.31a1.43 1.43 0 0 0-.475-.675q-.342-.278-.96-.278-.566 0-.945.247-.38.248-.379.639a.7.7 0 0 0 .25.551q.25.217.833.346l1.301.274q1.085.231 1.613.744.527.51.527 1.32 0 .725-.419 1.274-.418.55-1.159.86t-1.707.309m8.116 0q-1.113 0-1.932-.493a3.33 3.33 0 0 1-1.269-1.381q-.448-.888-.448-2.063 0-1.19.448-2.079.45-.89 1.269-1.383t1.932-.493q.64 0 1.186.165.547.166.978.475.432.31.72.755.29.444.415 1.002l-1.665.35a2 2 0 0 0-.213-.536 1.5 1.5 0 0 0-.818-.677 1.8 1.8 0 0 0-.588-.092q-.62 0-1.031.33t-.618.896a3.7 3.7 0 0 0-.206 1.282q0 .705.206 1.271.207.566.618.897.41.33 1.031.331a1.8 1.8 0 0 0 .597-.095q.27-.094.481-.273.21-.178.353-.431a2 2 0 0 0 .21-.56l1.66.348a2.94 2.94 0 0 1-1.135 1.798 3.2 3.2 0 0 1-.985.488 4 4 0 0 1-1.196.168m4.844-.154v-7.643h1.721v1.279h.082q.21-.664.72-1.024a2 2 0 0 1 1.169-.359 4.5 4.5 0 0 1 .649.052v1.634a2 2 0 0 0-.356-.065 4 4 0 0 0-.481-.028q-.495 0-.889.212a1.6 1.6 0 0 0-.616.584 1.66 1.66 0 0 0-.223.863v4.495Zm5.648 0v-7.643h1.777v7.643Zm.889-8.723q-.425 0-.728-.287a.9.9 0 0 1-.305-.683q0-.41.305-.694.303-.284.728-.284.43 0 .734.284a.9.9 0 0 1 .305.687.91.91 0 0 1-.305.69 1.03 1.03 0 0 1-.734.287m6.809 8.862q-.655 0-1.092-.223a2.2 2.2 0 0 1-.694-.537 3.2 3.2 0 0 1-.399-.589h-.112v1.21h-1.741v-10.186h1.777v3.809h.076q.137-.27.389-.589a2.1 2.1 0 0 1 .686-.545q.435-.228 1.115-.227.885 0 1.597.451.71.452 1.13 1.329.42.879.42 2.152 0 1.254-.41 2.135-.411.88-1.122 1.346a2.9 2.9 0 0 1-1.62.464m-.483-1.462q.598 0 1.001-.325.404-.324.609-.889.205-.564.205-1.278 0-.712-.203-1.267a1.94 1.94 0 0 0-.607-.875q-.404-.32-1.005-.319-.585 0-.99.306t-.613.858-.208 1.297q0 .742.21 1.303t.617.875.984.314m8.56 1.477q-1.15 0-1.982-.483a3.24 3.24 0 0 1-1.28-1.366q-.448-.882-.448-2.08 0-1.178.442-2.07a3.35 3.35 0 0 1 1.252-1.392q.808-.501 1.9-.501.702 0 1.332.226c.419.15.8.386 1.119.696q.488.47.768 1.199t.28 1.737v.554h-6.254v-1.206h5.366l-.83.358q0-.648-.2-1.137a1.67 1.67 0 0 0-.593-.761q-.394-.273-.979-.272-.585 0-.995.276a1.8 1.8 0 0 0-.627.74q-.215.462-.215 1.027v.836q0 .724.246 1.222t.691.751q.444.252 1.031.252.39 0 .708-.111.32-.113.549-.333t.351-.547l1.632.338a2.6 2.6 0 0 1-.628 1.074 3 3 0 0 1-1.114.717q-.667.255-1.522.256"/><path fill="#3f953b" d="M98.439 252.188v-10.185h6.616v1.537h-4.79v2.747h4.438v1.517h-4.438v2.847h4.819v1.537Zm7.792 0 2.975-4.612-.004 1.377-2.821-4.407h1.954l.778 1.299q.342.584.609 1.137t.541 1.07h-.734q.286-.514.54-1.069t.608-1.138l.803-1.299h1.918l-2.859 4.439v-1.352l2.972 4.555h-1.943l-.939-1.531a15 15 0 0 1-.613-1.125 25 25 0 0 0-.546-1.05h.738a18 18 0 0 0-.519 1.05q-.249.548-.594 1.125l-.94 1.531Zm11.584.155q-1.113 0-1.932-.494a3.33 3.33 0 0 1-1.269-1.381q-.448-.887-.448-2.063 0-1.188.448-2.078.45-.89 1.269-1.383.819-.495 1.932-.494.64 0 1.186.166.547.166.978.475.432.31.72.754.29.445.415 1.003l-1.665.35a1.9 1.9 0 0 0-.213-.537 1.5 1.5 0 0 0-.818-.676 1.8 1.8 0 0 0-.588-.092q-.62 0-1.031.33a2 2 0 0 0-.618.895 3.7 3.7 0 0 0-.206 1.282q0 .705.206 1.271.207.567.618.898.41.33 1.031.331.325 0 .597-.095a1.53 1.53 0 0 0 .834-.704 2 2 0 0 0 .21-.56l1.66.347q-.12.575-.412 1.026a2.9 2.9 0 0 1-.723.772 3.2 3.2 0 0 1-.985.489 4 4 0 0 1-1.196.168m6.62-4.631v4.476h-1.776v-10.185h1.752v4.432h-.183q.317-.99.941-1.488.624-.497 1.558-.497.787 0 1.377.337.59.336.915.979t.326 1.564v4.858h-1.781v-4.586q0-.768-.399-1.205-.398-.435-1.097-.436-.47 0-.841.206-.37.206-.581.597-.21.39-.211.948m8.932 4.635q-.727 0-1.309-.263a2.1 2.1 0 0 1-.917-.776q-.337-.515-.337-1.269 0-.646.243-1.069.241-.42.658-.675.416-.253.936-.383.531-.13 1.075-.188.669-.075 1.084-.13.414-.056.611-.177.196-.123.196-.381V247q0-.378-.152-.639a1 1 0 0 0-.448-.401 1.7 1.7 0 0 0-.734-.139 2 2 0 0 0-.769.136 1.5 1.5 0 0 0-.532.355 1.4 1.4 0 0 0-.301.472l-1.648-.338q.228-.677.699-1.118a3.05 3.05 0 0 1 1.127-.66 4.5 4.5 0 0 1 1.417-.218q.536 0 1.088.128a3.1 3.1 0 0 1 1.01.426q.46.298.74.805t.28 1.27v5.109h-1.7v-1.053h-.072a2.2 2.2 0 0 1-1.209 1.045 2.9 2.9 0 0 1-1.036.167m.455-1.321q.55 0 .953-.218.4-.216.621-.578.22-.36.221-.784v-.904a.9.9 0 0 1-.294.132 4 4 0 0 1-.464.108q-.259.048-.506.081l-.421.057a3 3 0 0 0-.719.178 1.2 1.2 0 0 0-.503.348q-.184.223-.184.574 0 .33.168.553.17.225.46.338t.668.115m7.223-3.314v4.476h-1.777v-7.642h1.685l.024 1.889h-.139q.317-.99.94-1.488.624-.497 1.559-.497.787 0 1.374.337.588.336.914.979.325.643.325 1.564v4.858h-1.776v-4.586q0-.768-.399-1.205-.399-.436-1.098-.436-.47 0-.84.206a1.46 1.46 0 0 0-.581.597q-.21.39-.211.948m10.086 7.498q-.919 0-1.598-.233t-1.112-.633a2.4 2.4 0 0 1-.626-.904l1.507-.54q.12.215.334.438.215.224.575.372.362.15.915.149.828 0 1.324-.386.495-.386.497-1.206v-1.448h-.146a2.7 2.7 0 0 1-.387.569 2 2 0 0 1-.679.489q-.427.198-1.087.198a3.1 3.1 0 0 1-1.593-.414q-.714-.413-1.135-1.244-.42-.828-.42-2.069 0-1.256.423-2.126.424-.869 1.14-1.32a2.94 2.94 0 0 1 1.598-.452q.675 0 1.114.226.437.225.697.544t.398.591h.094v-1.265h1.745v7.666q0 1.016-.466 1.682-.465.666-1.273.991t-1.839.325m.013-4.539q.584 0 .987-.278.404-.279.614-.804t.21-1.259q0-.724-.208-1.267a1.86 1.86 0 0 0-.611-.846q-.405-.304-.992-.304-.6 0-1.006.317a1.93 1.93 0 0 0-.613.861 3.5 3.5 0 0 0-.205 1.239q0 .705.208 1.233.207.527.614.818.406.29 1.002.29m8.824 1.672q-1.149 0-1.981-.484a3.23 3.23 0 0 1-1.281-1.365q-.448-.882-.448-2.08 0-1.179.443-2.07a3.35 3.35 0 0 1 1.251-1.393q.81-.501 1.9-.501.702 0 1.333.226.63.226 1.118.697.489.47.768 1.198.28.729.28 1.737v.555h-6.254v-1.206h5.367l-.83.358q0-.65-.2-1.137a1.67 1.67 0 0 0-.594-.761q-.393-.273-.978-.273t-.996.277a1.8 1.8 0 0 0-.626.739 2.4 2.4 0 0 0-.216 1.028v.835q0 .725.246 1.223a1.7 1.7 0 0 0 .691.75c.316.174.672.26 1.032.253q.39 0 .708-.112.318-.111.548-.332.23-.22.351-.548l1.633.338q-.183.615-.629 1.075a3 3 0 0 1-1.113.717q-.668.255-1.523.256"/><path fill="none" stroke="#3f953b" stroke-linecap="round" stroke-linejoin="round" stroke-width="2" d="M54.009 196.93H984v100H54.009Z"/><path fill="#0679d3" d="M98.439 350.701v-10.186h3.9q1.1 0 1.831.348.73.347 1.091.944.362.597.362 1.352 0 .622-.238 1.063a2 2 0 0 1-.639.714 2.7 2.7 0 0 1-.9.395v.1q.543.025 1.04.327.498.303.815.85.318.547.318 1.318 0 .789-.38 1.419t-1.15.992q-.77.364-1.938.364Zm1.826-1.527h1.999q1.01 0 1.458-.39t.448-.995q0-.458-.225-.824a1.6 1.6 0 0 0-.639-.579q-.414-.213-.984-.213h-2.057Zm0-4.316h1.843q.48 0 .865-.178.384-.178.607-.508a1.36 1.36 0 0 0 .223-.779q0-.592-.418-.976-.417-.384-1.236-.384h-1.884Zm7.323 5.843v-7.643h1.777v7.643Zm.889-8.723a1.02 1.02 0 0 1-.728-.287.9.9 0 0 1-.304-.683.91.91 0 0 1 .304-.694 1.03 1.03 0 0 1 .728-.284q.43 0 .735.284a.9.9 0 0 1 .304.687.92.92 0 0 1-.304.69 1.03 1.03 0 0 1-.735.287m4.548 4.246v4.477h-1.777v-7.643h1.685l.024 1.89h-.139q.317-.99.941-1.488t1.558-.497q.788 0 1.374.336.587.337.914.979.326.643.326 1.565v4.858h-1.777v-4.586q0-.769-.399-1.205-.4-.435-1.097-.436-.47 0-.841.206a1.46 1.46 0 0 0-.581.596q-.21.39-.211.948m9.608 4.617q-.9 0-1.617-.465-.715-.464-1.126-1.346-.41-.88-.41-2.135 0-1.273.42-2.152.42-.877 1.134-1.329a2.9 2.9 0 0 1 1.593-.451q.681 0 1.115.227.435.228.689.545.256.318.386.589h.076v-3.809h1.777v10.186h-1.741v-1.21h-.112q-.135.277-.396.589a2.2 2.2 0 0 1-.694.537q-.432.224-1.094.224m.482-1.463q.58 0 .986-.314.405-.314.615-.875t.211-1.302q0-.747-.209-1.298a1.87 1.87 0 0 0-.612-.858q-.405-.306-.991-.306-.6 0-1.004.319a1.94 1.94 0 0 0-.608.875 3.7 3.7 0 0 0-.203 1.268q0 .712.206 1.278.206.564.612.888.405.324.997.325m5.441 1.323v-7.643h1.777v7.643Zm.888-8.723q-.423 0-.728-.287a.9.9 0 0 1-.304-.683q0-.41.304-.694.305-.284.728-.284.43 0 .735.284a.9.9 0 0 1 .304.687.9.9 0 0 1-.304.69 1.03 1.03 0 0 1-.735.287m4.549 4.246v4.477h-1.777v-7.643h1.685l.024 1.89h-.139q.316-.99.94-1.488t1.559-.497q.787 0 1.374.336.588.337.913.979.326.643.326 1.565v4.858h-1.777v-4.586q0-.769-.398-1.205-.399-.435-1.098-.436-.471 0-.84.206a1.46 1.46 0 0 0-.581.596q-.21.39-.211.948m10.086 7.498q-.92 0-1.598-.232-.68-.232-1.113-.634a2.4 2.4 0 0 1-.626-.904l1.508-.539q.12.214.334.437.214.225.575.373.36.148.915.148.827 0 1.324-.386.496-.386.496-1.206v-1.447h-.145q-.135.277-.387.568a2 2 0 0 1-.679.49q-.427.198-1.087.198a3.1 3.1 0 0 1-1.593-.415q-.715-.414-1.135-1.243t-.42-2.07q0-1.256.423-2.125.423-.87 1.14-1.321a2.93 2.93 0 0 1 1.597-.451q.678 0 1.114.225.438.225.698.545t.397.591h.094v-1.266h1.745v7.667q0 1.016-.465 1.682-.466.666-1.273.991-.808.324-1.839.324m.012-4.538q.585 0 .988-.279.404-.277.614-.804.21-.526.21-1.258 0-.725-.208-1.267a1.87 1.87 0 0 0-.612-.847q-.404-.304-.992-.304-.6 0-1.005.317a1.93 1.93 0 0 0-.613.862 3.5 3.5 0 0 0-.206 1.239q0 .704.208 1.232.21.528.615.819t1.001.29m8.34 1.671q-.876 0-1.555-.252a2.7 2.7 0 0 1-1.11-.737 2.43 2.43 0 0 1-.567-1.175l1.664-.312q.154.564.556.84.401.276 1.048.276.657 0 1.042-.263.386-.264.386-.649a.69.69 0 0 0-.254-.548q-.253-.214-.779-.328l-1.301-.281q-1.083-.233-1.616-.767-.533-.532-.533-1.374 0-.708.39-1.229.39-.52 1.083-.807.695-.286 1.608-.286.867 0 1.493.245.625.246 1.012.688t.538 1.038l-1.584.31a1.44 1.44 0 0 0-.475-.675q-.342-.277-.96-.277-.566 0-.945.246-.38.247-.379.64 0 .332.249.551.25.217.834.345l1.3.274q1.086.231 1.614.744.527.51.527 1.32 0 .725-.419 1.274-.418.55-1.159.86-.74.309-1.708.309"/><path fill="#888474" d="M184.439 317.701v-10.186h3.9q1.1 0 1.831.348.73.347 1.091.944.362.597.362 1.352 0 .622-.238 1.063a2 2 0 0 1-.639.714 2.7 2.7 0 0 1-.9.395v.1q.543.025 1.04.327.498.303.815.85.318.547.318 1.318 0 .789-.38 1.419t-1.15.992q-.77.364-1.938.364Zm1.826-1.527h1.999q1.01 0 1.458-.39t.448-.995q0-.458-.225-.824a1.6 1.6 0 0 0-.639-.579q-.414-.213-.984-.213h-2.057Zm0-4.316h1.843q.48 0 .865-.178.384-.178.607-.508a1.36 1.36 0 0 0 .223-.779q0-.591-.418-.976-.417-.384-1.236-.384h-1.884Zm7.323 5.843v-7.643h1.777v7.643Zm.889-8.723a1.02 1.02 0 0 1-.728-.287.9.9 0 0 1-.304-.683.91.91 0 0 1 .304-.694 1.03 1.03 0 0 1 .728-.284q.43 0 .735.284a.9.9 0 0 1 .304.687.92.92 0 0 1-.304.69 1.03 1.03 0 0 1-.735.287m4.548 4.246v4.477h-1.777v-7.643h1.685l.024 1.89h-.139q.317-.99.941-1.488t1.558-.497q.787 0 1.374.336.588.337.914.979.326.643.326 1.565v4.858h-1.777v-4.586q0-.769-.399-1.205-.4-.435-1.097-.436-.47 0-.841.206a1.46 1.46 0 0 0-.581.596q-.21.39-.211.948m9.608 4.617a2.9 2.9 0 0 1-1.617-.465q-.715-.464-1.126-1.346-.41-.88-.41-2.135 0-1.273.42-2.152.42-.877 1.134-1.329a2.9 2.9 0 0 1 1.593-.451q.681 0 1.115.227.435.228.689.545.256.318.386.589h.076v-3.809h1.777v10.186h-1.741v-1.21h-.112q-.135.276-.396.589a2.2 2.2 0 0 1-.694.537q-.432.224-1.094.224m.482-1.463q.582 0 .986-.314.405-.314.615-.875t.211-1.302q0-.747-.209-1.298a1.87 1.87 0 0 0-.612-.858q-.405-.306-.991-.306-.6 0-1.004.319a1.94 1.94 0 0 0-.608.875 3.7 3.7 0 0 0-.203 1.268q0 .712.206 1.278.206.564.612.888t.997.325m5.441 1.323v-7.643h1.777v7.643Zm.888-8.723q-.423 0-.728-.287a.9.9 0 0 1-.304-.683q0-.41.304-.694.305-.284.728-.284.43 0 .735.284a.9.9 0 0 1 .304.687.9.9 0 0 1-.304.69 1.03 1.03 0 0 1-.735.287m4.549 4.246v4.477h-1.777v-7.643h1.685l.024 1.89h-.139q.315-.99.94-1.488.624-.498 1.559-.497.788 0 1.374.336.588.337.913.979.326.643.326 1.565v4.858h-1.777v-4.586q0-.769-.398-1.205-.399-.435-1.098-.436-.471 0-.84.206a1.46 1.46 0 0 0-.581.596q-.21.39-.211.948m10.086 7.498q-.92 0-1.598-.232-.68-.232-1.113-.634a2.4 2.4 0 0 1-.626-.904l1.508-.539q.12.214.334.437.214.225.575.373.36.148.915.148.827 0 1.324-.386.496-.386.496-1.206v-1.447h-.145q-.135.277-.387.568a2 2 0 0 1-.679.49q-.427.198-1.087.198a3.1 3.1 0 0 1-1.593-.415q-.715-.414-1.135-1.243t-.42-2.07q0-1.256.423-2.125.423-.87 1.14-1.321a2.93 2.93 0 0 1 1.597-.451q.678 0 1.114.225.438.225.698.545t.397.591h.094v-1.266h1.745v7.667q0 1.016-.465 1.682-.466.666-1.273.991-.808.324-1.839.324m.012-4.538q.585 0 .988-.279.404-.277.614-.804.21-.526.21-1.258 0-.725-.208-1.267a1.87 1.87 0 0 0-.612-.847q-.404-.304-.992-.304-.599 0-1.005.317a1.93 1.93 0 0 0-.613.862 3.5 3.5 0 0 0-.206 1.239q0 .704.208 1.232.21.528.615.819t1.001.29m10.38-.989v-1.73a21 21 0 0 1 .641-1.003q.317-.466.678-.925.36-.459.8-.975l2.675-3.047h2.269l-4.316 4.872-.137-.044Zm-1.324 2.506v-10.186h1.825v3.019l-.033 2.46.033.892v3.815Zm6.304 0-3.241-4.79 1.146-1.376 4.251 6.166Zm6.282.154q-1.148 0-1.982-.483a3.24 3.24 0 0 1-1.28-1.366q-.448-.882-.448-2.079 0-1.179.443-2.071a3.35 3.35 0 0 1 1.251-1.392q.81-.501 1.9-.501.702 0 1.332.226c.419.15.8.386 1.119.696q.489.47.768 1.199.28.729.28 1.737v.554h-6.254v-1.206h5.367l-.83.358q0-.648-.201-1.137a1.67 1.67 0 0 0-.593-.761q-.394-.272-.978-.272-.585 0-.996.277a1.77 1.77 0 0 0-.626.739q-.216.462-.216 1.027v.836q0 .724.246 1.222t.691.751 1.031.252q.39 0 .709-.111a1.5 1.5 0 0 0 .548-.333q.23-.222.351-.547l1.633.338a2.6 2.6 0 0 1-.629 1.075 3 3 0 0 1-1.113.716q-.668.256-1.523.256m4.569 2.573.418-1.387.211.057q.403.102.718.056a.87.87 0 0 0 .527-.275q.212-.228.3-.664l.113-.485-2.887-7.672h1.9l1.399 4.156q.245.738.401 1.471.158.733.348 1.498h-.468l.373-1.503q.182-.737.43-1.466l1.444-4.156h1.881l-3.282 8.625q-.233.613-.583 1.045a2.3 2.3 0 0 1-.854.659q-.504.226-1.196.226-.38 0-.698-.055a2.4 2.4 0 0 1-.495-.13m136.135-2.727v-10.192h3.808a4.2 4.2 0 0 1 1.974.42 2.8 2.8 0 0 1 1.204 1.134q.42.742.406 1.708a3.2 3.2 0 0 1-.406 1.694 2.8 2.8 0 0 1-1.218 1.106 4.2 4.2 0 0 1-1.988.392h-2.716v-1.512h2.478q.7 0 1.134-.196a1.4 1.4 0 0 0 .644-.574c.148-.28.22-.594.21-.91a1.8 1.8 0 0 0-.21-.924 1.4 1.4 0 0 0-.644-.602 2.8 2.8 0 0 0-1.148-.196h-1.694v8.652Zm5.726 0-2.464-4.62h1.988l2.52 4.62Zm6.463.154a4.2 4.2 0 0 1-1.932-.49 3.5 3.5 0 0 1-1.274-1.386 4.2 4.2 0 0 1-.448-2.058q0-1.19.448-2.086a3.36 3.36 0 0 1 1.274-1.372 3.64 3.64 0 0 1 1.932-.504q1.12 0 1.946.504c.546.323.984.8 1.26 1.372a4.2 4.2 0 0 1 .448 2.086q0 1.176-.448 2.058a3.36 3.36 0 0 1-1.26 1.386 4.2 4.2 0 0 1-1.946.49m0-1.442q.615 0 1.036-.336c.286-.235.5-.545.616-.896a4.2 4.2 0 0 0 0-2.534 1.96 1.96 0 0 0-.616-.91 1.4 1.4 0 0 0-1.036-.336 1.4 1.4 0 0 0-1.022.336 1.96 1.96 0 0 0-.616.91 4.2 4.2 0 0 0 0 2.534q.21.56.616.896a1.4 1.4 0 0 0 1.022.336m7.823 1.386a2.8 2.8 0 0 1-1.372-.336 2.24 2.24 0 0 1-.91-.98 3.36 3.36 0 0 1-.336-1.568v-4.858h1.778v4.592q0 .756.406 1.204a1.4 1.4 0 0 0 1.092.434 1.4 1.4 0 0 0 .84-.21 1.4 1.4 0 0 0 .588-.602 1.96 1.96 0 0 0 .21-.938v-4.48h1.778v7.644h-1.694l-.014-1.89h.126a2.8 2.8 0 0 1-.938 1.498 2.52 2.52 0 0 1-1.554.49m9.495-7.742v1.4h-4.34v-1.4Zm-3.262-1.82h1.778v7.308q0 .42.182.616.181.195.588.196l.322-.028.322-.056.28 1.358a2.8 2.8 0 0 1-.602.14l-.588.028q-1.106 0-1.694-.546t-.588-1.554Zm4.664 9.464v-7.644h1.778v7.644Zm.896-8.722a.98.98 0 0 1-.728-.294.84.84 0 0 1-.308-.672q0-.42.308-.7a1.12 1.12 0 0 1 .728-.28q.42 0 .728.28a.9.9 0 0 1 .308.686.84.84 0 0 1-.308.686.98.98 0 0 1-.728.294m4.544 4.242v4.48h-1.778v-7.644h1.694l.014 1.89h-.14a2.8 2.8 0 0 1 .952-1.484 2.38 2.38 0 0 1 1.554-.504q.784 0 1.372.336.588.335.91.98a3.36 3.36 0 0 1 .336 1.568v4.858h-1.778v-4.592a1.68 1.68 0 0 0-.406-1.204 1.4 1.4 0 0 0-1.092-.434 1.4 1.4 0 0 0-.84.21 1.4 1.4 0 0 0-.588.602 1.96 1.96 0 0 0-.21.938m10.092 7.504a5.6 5.6 0 0 1-1.596-.238 2.8 2.8 0 0 1-1.12-.63 2.8 2.8 0 0 1-.63-.91l1.512-.532.336.434q.21.224.574.378.364.155.91.14.84 0 1.33-.378.505-.392.49-1.204v-1.456h-.14q-.16.312-.392.574a2.8 2.8 0 0 1-.672.49 2.8 2.8 0 0 1-1.092.196 2.8 2.8 0 0 1-1.596-.42 2.8 2.8 0 0 1-1.134-1.246 4.2 4.2 0 0 1-.42-2.058q0-1.26.434-2.128a3.08 3.08 0 0 1 2.73-1.778q.672 0 1.12.224c.26.144.497.328.7.546q.252.322.392.588h.098v-1.26h1.736v7.672a2.8 2.8 0 0 1-.462 1.68 2.8 2.8 0 0 1-1.274.994 5.6 5.6 0 0 1-1.834.322m.014-4.536c.348.01.69-.087.98-.28a1.8 1.8 0 0 0 .616-.812 2.8 2.8 0 0 0 .21-1.26 4.2 4.2 0 0 0-.21-1.26 1.8 1.8 0 0 0-.616-.854 1.4 1.4 0 0 0-.98-.294 1.4 1.4 0 0 0-1.008.308 1.96 1.96 0 0 0-.616.868 2.8 2.8 0 0 0-.21 1.232q0 .7.21 1.232.21.546.616.826c.296.203.65.306 1.008.294m-46.455 15.512v-10.192h3.808q1.176 0 1.974.448a2.8 2.8 0 0 1 1.204 1.204q.42.756.406 1.722a3.5 3.5 0 0 1-.406 1.736 2.8 2.8 0 0 1-1.218 1.204 4.2 4.2 0 0 1-1.988.434h-2.52v-1.512h2.282q.7 0 1.134-.238a1.4 1.4 0 0 0 .644-.658 2.1 2.1 0 0 0 .21-.966 2.1 2.1 0 0 0-.21-.952 1.4 1.4 0 0 0-.644-.658 2.8 2.8 0 0 0-1.148-.224h-1.694v8.652Zm10.965.154a2.8 2.8 0 0 1-1.316-.252 2.1 2.1 0 0 1-.91-.784 2.24 2.24 0 0 1-.336-1.274q0-.645.238-1.064a1.96 1.96 0 0 1 .658-.672 2.8 2.8 0 0 1 .938-.378l1.078-.196 1.078-.126a1.4 1.4 0 0 0 .616-.182.42.42 0 0 0 .196-.378v-.042a1.4 1.4 0 0 0-.154-.63.98.98 0 0 0-.448-.406 1.4 1.4 0 0 0-.728-.14 1.4 1.4 0 0 0-.77.14 1.4 1.4 0 0 0-.84.826l-1.638-.336a2.8 2.8 0 0 1 .7-1.12 2.8 2.8 0 0 1 1.12-.658 4.9 4.9 0 0 1 2.506-.098q.546.14 1.008.434t.742.798.28 1.274v5.11h-1.708v-1.05h-.07a2.8 2.8 0 0 1-.462.602 2.8 2.8 0 0 1-.742.434 2.8 2.8 0 0 1-1.036.168m.462-1.316c.331.007.659-.07.952-.224a1.54 1.54 0 0 0 .84-1.358v-.896l-.294.126-.462.112-.518.084-.42.056a2.8 2.8 0 0 0-.714.168 1.4 1.4 0 0 0-.504.35.84.84 0 0 0-.182.574q0 .335.168.56.168.21.462.336.294.112.672.112m8.977-6.482v1.4h-4.34v-1.4Zm-3.262-1.82h1.778v7.308q0 .42.182.616.181.195.588.196l.322-.028.322-.056.28 1.358a2.8 2.8 0 0 1-.602.14l-.588.028q-1.106 0-1.694-.546t-.588-1.554Zm8.11 1.82v1.4h-4.34v-1.4Zm-3.262-1.82h1.778v7.308q0 .42.182.616.181.195.588.196l.322-.028.322-.056.28 1.358a2.8 2.8 0 0 1-.602.14l-.588.028q-1.106 0-1.694-.546t-.588-1.554Zm7.902 9.618a3.8 3.8 0 0 1-1.974-.49 3.2 3.2 0 0 1-1.288-1.358 4.2 4.2 0 0 1-.448-2.086q0-1.176.448-2.058a3.36 3.36 0 0 1 1.246-1.4 3.5 3.5 0 0 1 1.904-.504q.7 0 1.33.224a2.8 2.8 0 0 1 1.12.7c.34.341.603.752.77 1.204a5.6 5.6 0 0 1 .28 1.736v.546h-6.258v-1.204h5.376l-.84.364a2.8 2.8 0 0 0-.196-1.134 1.4 1.4 0 0 0-.588-.77 1.7 1.7 0 0 0-.98-.266 1.68 1.68 0 0 0-.994.28 1.7 1.7 0 0 0-.63.728 2.8 2.8 0 0 0-.21 1.036v.84q0 .714.238 1.218c.147.312.387.57.686.742a2.1 2.1 0 0 0 1.036.252 1.4 1.4 0 0 0 .714-.112 1.4 1.4 0 0 0 .546-.322 1.4 1.4 0 0 0 .35-.546l1.638.336a2.8 2.8 0 0 1-1.75 1.792 4.2 4.2 0 0 1-1.526.252m4.906-.154v-7.644h1.722v1.274h.084a1.89 1.89 0 0 1 1.89-1.372l.336.014.308.028v1.638l-.35-.07-.476-.028a1.68 1.68 0 0 0-1.512.798 1.8 1.8 0 0 0-.224.868v4.494Zm7.473-4.48v4.48h-1.778v-7.644h1.694l.014 1.89h-.14a2.8 2.8 0 0 1 .952-1.484 2.38 2.38 0 0 1 1.554-.504q.784 0 1.372.336.588.335.91.98a3.36 3.36 0 0 1 .336 1.568v4.858h-1.778v-4.592a1.68 1.68 0 0 0-.406-1.204 1.4 1.4 0 0 0-1.092-.434 1.4 1.4 0 0 0-.84.21 1.4 1.4 0 0 0-.588.602 1.96 1.96 0 0 0-.21.938m-239.269 56.48v-10.186h3.812q1.17 0 1.968.439.798.44 1.208 1.2.41.762.409 1.735 0 .975-.413 1.734a2.94 2.94 0 0 1-1.218 1.196q-.805.435-1.985.436h-2.524v-1.503h2.283q.694 0 1.134-.24t.649-.662q.21-.42.209-.961 0-.546-.209-.961a1.48 1.48 0 0 0-.651-.651q-.442-.234-1.14-.234h-1.706v8.658Zm8.949 0v-7.643h1.721v1.28h.082q.21-.666.721-1.025.51-.36 1.168-.359.15 0 .336.014.184.014.313.039v1.633a2 2 0 0 0-.356-.064q-.24-.03-.481-.029-.495 0-.888.212a1.57 1.57 0 0 0-.617.584 1.66 1.66 0 0 0-.222.863v4.495Zm8.568.154q-1.113 0-1.934-.493a3.3 3.3 0 0 1-1.269-1.381q-.45-.887-.449-2.063 0-1.19.449-2.079a3.3 3.3 0 0 1 1.269-1.383q.82-.493 1.934-.493 1.117 0 1.938.493.82.494 1.269 1.383.45.89.448 2.079 0 1.175-.448 2.063a3.3 3.3 0 0 1-1.269 1.381q-.82.493-1.938.493m0-1.442q.623 0 1.034-.335t.614-.903a3.7 3.7 0 0 0 .202-1.262 3.8 3.8 0 0 0-.202-1.27 2 2 0 0 0-.614-.903q-.413-.335-1.034-.335t-1.029.335a2 2 0 0 0-.611.9 3.8 3.8 0 0 0-.202 1.273q0 .695.202 1.262t.611.903q.408.335 1.029.335m8.52 1.442q-1.113 0-1.933-.493a3.3 3.3 0 0 1-1.268-1.381q-.45-.887-.449-2.063 0-1.19.449-2.079a3.3 3.3 0 0 1 1.268-1.383q.82-.493 1.933-.493.64 0 1.186.165.546.166.978.476.43.309.72.754.29.444.414 1.003l-1.665.349a1.9 1.9 0 0 0-.212-.536 1.5 1.5 0 0 0-.818-.677 1.8 1.8 0 0 0-.588-.092q-.621 0-1.032.33a2 2 0 0 0-.617.896 3.7 3.7 0 0 0-.206 1.282q0 .705.206 1.271t.617.897 1.032.332q.326 0 .597-.096a1.5 1.5 0 0 0 .833-.703q.143-.253.21-.56l1.661.347a3 3 0 0 1-.412 1.026 3 3 0 0 1-.724.772 3.2 3.2 0 0 1-.984.488 4.1 4.1 0 0 1-1.196.168m8.218 0q-1.149 0-1.981-.483a3.24 3.24 0 0 1-1.281-1.366q-.448-.882-.448-2.079 0-1.179.443-2.071a3.35 3.35 0 0 1 1.251-1.392q.81-.501 1.9-.501.702 0 1.333.226.63.226 1.118.696.487.47.768 1.199.28.729.28 1.737v.554h-6.254v-1.206h5.367l-.83.358q0-.648-.2-1.137a1.7 1.7 0 0 0-.594-.761q-.393-.272-.978-.272t-.996.277a1.77 1.77 0 0 0-.626.739q-.216.462-.216 1.027v.836q0 .724.246 1.222t.691.751c.316.173.672.26 1.032.252q.39 0 .708-.111a1.5 1.5 0 0 0 .548-.333q.23-.222.351-.547l1.633.338a2.6 2.6 0 0 1-.629 1.075 3 3 0 0 1-1.113.716q-.668.256-1.523.256m7.796 0q-.877 0-1.556-.252a2.7 2.7 0 0 1-1.11-.737 2.4 2.4 0 0 1-.566-1.175l1.663-.312q.154.564.556.84t1.048.276q.658 0 1.043-.263.385-.264.385-.649a.69.69 0 0 0-.253-.548q-.254-.214-.779-.328l-1.301-.281q-1.085-.233-1.617-.767-.533-.532-.533-1.374 0-.708.39-1.229.39-.52 1.084-.807.693-.286 1.607-.286.868 0 1.493.245a2.6 2.6 0 0 1 1.013.688q.387.442.538 1.038l-1.584.31a1.45 1.45 0 0 0-.475-.675q-.345-.277-.96-.277-.566 0-.945.246-.38.247-.38.64a.7.7 0 0 0 .25.551q.25.217.833.345l1.301.274q1.085.231 1.613.744.527.51.527 1.32 0 .725-.418 1.274-.42.55-1.16.86t-1.707.309m7.692 0q-.877 0-1.555-.252a2.74 2.74 0 0 1-1.111-.737 2.43 2.43 0 0 1-.566-1.175l1.664-.312q.155.564.555.84.402.276 1.049.276.657 0 1.042-.263.385-.264.385-.649a.69.69 0 0 0-.253-.548q-.254-.214-.779-.328l-1.301-.281q-1.083-.233-1.616-.767-.534-.532-.533-1.374 0-.708.39-1.229.39-.52 1.083-.807.693-.286 1.608-.286.868 0 1.492.245.626.246 1.013.688t.538 1.038l-1.584.31a1.45 1.45 0 0 0-.475-.675q-.342-.277-.96-.277-.566 0-.945.246-.38.247-.38.64 0 .332.25.551.25.217.834.345l1.3.274q1.086.231 1.613.744.528.51.528 1.32 0 .725-.419 1.274-.42.55-1.159.86t-1.708.309m8.119 0q-1.112 0-1.934-.493a3.3 3.3 0 0 1-1.269-1.381q-.45-.887-.449-2.063 0-1.19.449-2.079a3.3 3.3 0 0 1 1.269-1.383q.822-.493 1.934-.493 1.117 0 1.938.493.82.494 1.269 1.383.45.89.449 2.079 0 1.175-.449 2.063a3.3 3.3 0 0 1-1.269 1.381q-.82.493-1.938.493m0-1.442q.623 0 1.034-.335t.614-.903q.203-.567.203-1.262a3.8 3.8 0 0 0-.203-1.27 2 2 0 0 0-.614-.903q-.411-.335-1.034-.335-.62 0-1.029.335a2 2 0 0 0-.611.9 3.8 3.8 0 0 0-.202 1.273q0 .695.202 1.262.203.568.611.903.41.335 1.029.335m5.206 1.288v-7.643h1.721v1.28h.082q.21-.666.721-1.025.51-.36 1.168-.359.15 0 .335.014.184.014.314.039v1.633a2 2 0 0 0-.356-.064q-.24-.03-.481-.029-.495 0-.889.212a1.6 1.6 0 0 0-.616.584 1.66 1.66 0 0 0-.223.863v4.495Zm112.988.158a3.1 3.1 0 0 1-1.308-.262 2.1 2.1 0 0 1-.918-.777q-.337-.513-.337-1.268 0-.645.243-1.069a1.9 1.9 0 0 1 .658-.676q.415-.252.936-.382.52-.13 1.076-.189.668-.073 1.083-.129.415-.055.611-.178.196-.122.196-.38v-.036q0-.378-.152-.639a1 1 0 0 0-.448-.401 1.7 1.7 0 0 0-.734-.14q-.443 0-.769.137a1.5 1.5 0 0 0-.531.354 1.4 1.4 0 0 0-.302.473l-1.648-.338a2.66 2.66 0 0 1 .7-1.119q.472-.441 1.126-.659a4.4 4.4 0 0 1 1.417-.218q.538 0 1.088.128.55.127 1.01.426.46.297.74.805.28.507.28 1.27v5.109h-1.7v-1.054h-.072a2.2 2.2 0 0 1-1.209 1.045 2.9 2.9 0 0 1-1.036.167m.456-1.321q.55 0 .952-.217a1.6 1.6 0 0 0 .622-.578q.22-.36.22-.784v-.905a.9.9 0 0 1-.294.133q-.206.06-.464.108-.257.046-.506.081l-.42.057a3 3 0 0 0-.72.178 1.2 1.2 0 0 0-.503.348q-.183.222-.183.573 0 .33.168.554.168.223.459.338.293.114.669.114m8.76 1.317q-1.113 0-1.932-.493a3.3 3.3 0 0 1-1.269-1.381q-.448-.887-.448-2.063 0-1.19.448-2.079a3.3 3.3 0 0 1 1.269-1.383q.819-.493 1.932-.493.64 0 1.186.165.546.166.978.476t.72.754q.29.444.414 1.003l-1.664.349a2 2 0 0 0-.213-.536 1.5 1.5 0 0 0-.818-.677 1.8 1.8 0 0 0-.588-.092q-.621 0-1.032.33a2 2 0 0 0-.617.896 3.7 3.7 0 0 0-.206 1.282q0 .705.206 1.271.207.566.617.897t1.032.332q.325 0 .597-.096a1.5 1.5 0 0 0 .834-.703q.143-.253.209-.56l1.661.347a2.92 2.92 0 0 1-1.136 1.798 3.2 3.2 0 0 1-.984.488 4.1 4.1 0 0 1-1.196.168m8.378-7.797v1.393h-4.34v-1.393Zm-3.256-1.818h1.777v7.309q0 .414.178.608.177.195.587.194.118 0 .319-.029.201-.028.324-.055l.28 1.371q-.293.09-.597.128a5 5 0 0 1-.592.038q-1.096 0-1.686-.546t-.59-1.557Zm4.667 9.461v-7.643h1.777v7.643Zm.888-8.723q-.423 0-.728-.287a.9.9 0 0 1-.304-.683q0-.41.304-.694.305-.284.728-.284.432 0 .735.284a.9.9 0 0 1 .305.687.91.91 0 0 1-.305.69 1.03 1.03 0 0 1-.735.287m6.089 8.877q-1.112 0-1.934-.493a3.3 3.3 0 0 1-1.269-1.381q-.45-.887-.449-2.063 0-1.19.449-2.079a3.3 3.3 0 0 1 1.269-1.383q.822-.493 1.934-.493 1.118 0 1.938.493.82.494 1.269 1.383.45.89.449 2.079 0 1.175-.449 2.063a3.3 3.3 0 0 1-1.269 1.381q-.82.493-1.938.493m0-1.442q.623 0 1.034-.335t.614-.903a3.7 3.7 0 0 0 .202-1.262 3.8 3.8 0 0 0-.202-1.27 2 2 0 0 0-.614-.903q-.411-.335-1.034-.335-.621 0-1.029.335a2 2 0 0 0-.611.9 3.8 3.8 0 0 0-.202 1.273q0 .695.202 1.262.203.568.611.903t1.029.335m6.982-3.189v4.477h-1.776v-7.643h1.684l.024 1.89h-.139q.317-.99.941-1.488t1.558-.497q.787 0 1.375.336.587.337.913.979.326.643.326 1.565v4.858h-1.777v-4.586q0-.769-.399-1.205-.398-.435-1.097-.436-.47 0-.841.206a1.46 1.46 0 0 0-.581.596q-.21.39-.211.948m8.079 4.593q-.462 0-.78-.316a1.05 1.05 0 0 1-.318-.774q0-.459.318-.775.318-.315.78-.315.46 0 .779.315.318.315.318.775 0 .459-.318.774a1.06 1.06 0 0 1-.779.316m5.405-4.573.116-2.017-1.694 1.112-.606-1.048 1.81-.904-1.81-.905.606-1.062 1.694 1.112-.116-2.017h1.201l-.107 2.017 1.69-1.112.601 1.062-1.805.905 1.805.904-.601 1.048-1.69-1.112.107 2.017Zm112.305 4.611q-.876 0-1.555-.252a2.7 2.7 0 0 1-1.11-.737 2.4 2.4 0 0 1-.567-1.175l1.664-.312q.154.564.556.84.401.276 1.048.276.657 0 1.042-.263.386-.264.386-.649a.69.69 0 0 0-.254-.548q-.255-.214-.779-.328l-1.301-.281q-1.082-.233-1.616-.767-.533-.532-.533-1.374 0-.708.39-1.229.39-.52 1.083-.807.693-.286 1.608-.286.867 0 1.493.245.625.246 1.012.688t.538 1.038l-1.584.31a1.44 1.44 0 0 0-.475-.675q-.342-.277-.96-.277-.565 0-.945.246-.38.247-.38.64 0 .332.25.551.25.217.834.345l1.3.274q1.086.231 1.613.744.528.51.528 1.32 0 .725-.419 1.274-.42.55-1.159.86t-1.708.309m8.337-7.797v1.393h-4.34v-1.393Zm-3.256-1.818h1.777v7.309q0 .414.178.608.178.195.586.194.12 0 .32-.029.201-.028.324-.055l.28 1.371q-.293.09-.598.128-.304.038-.591.038-1.096 0-1.686-.546t-.59-1.557Zm6.871 9.619a3.1 3.1 0 0 1-1.308-.262 2.1 2.1 0 0 1-.918-.777q-.337-.513-.337-1.268 0-.645.243-1.069a1.9 1.9 0 0 1 .658-.676q.416-.252.936-.382t1.075-.189q.543-.058 1.084-.129.414-.055.611-.178.196-.122.196-.38v-.036q0-.378-.152-.639a1 1 0 0 0-.448-.401 1.7 1.7 0 0 0-.734-.14q-.443 0-.769.137a1.5 1.5 0 0 0-.531.354 1.4 1.4 0 0 0-.302.473l-1.648-.338q.228-.678.7-1.119.471-.441 1.126-.659c.457-.15.936-.223 1.417-.218q.538 0 1.088.128a3.1 3.1 0 0 1 1.01.426q.46.297.74.805.28.507.28 1.27v5.109h-1.7v-1.054h-.072a2.2 2.2 0 0 1-1.209 1.045 2.9 2.9 0 0 1-1.036.167m.456-1.321q.55 0 .952-.217a1.6 1.6 0 0 0 .622-.578q.22-.36.22-.784v-.905a.9.9 0 0 1-.294.133q-.206.06-.464.108-.258.046-.506.081l-.42.057q-.37.046-.72.178a1.2 1.2 0 0 0-.503.348.87.87 0 0 0-.184.573q0 .33.169.554.168.223.459.338.293.114.669.114m8.98-6.48v1.393h-4.34v-1.393Zm-3.256-1.818h1.777v7.309q0 .414.178.608.177.195.587.194.118 0 .319-.029.201-.028.324-.055l.28 1.371q-.293.09-.597.128a5 5 0 0 1-.592.038q-1.096 0-1.686-.546t-.59-1.557Zm7.284 9.557q-.785 0-1.376-.337a2.27 2.27 0 0 1-.916-.981q-.326-.644-.326-1.562v-4.859h1.776v4.586q0 .77.401 1.205.4.437 1.1.437.472 0 .84-.206a1.47 1.47 0 0 0 .577-.6q.21-.394.211-.945v-4.477h1.781v7.643h-1.689l-.019-1.889h.134q-.32.999-.949 1.492-.628.492-1.545.493m8.843.058q-.876 0-1.555-.252a2.74 2.74 0 0 1-1.111-.737 2.43 2.43 0 0 1-.566-1.175l1.664-.312q.154.564.556.84.401.276 1.048.276.657 0 1.042-.263.385-.264.385-.649a.69.69 0 0 0-.253-.548q-.255-.214-.779-.328l-1.301-.281q-1.082-.233-1.616-.767-.534-.532-.533-1.374 0-.708.39-1.229.39-.52 1.083-.807.693-.286 1.608-.286.867 0 1.493.245.625.246 1.012.688t.538 1.038l-1.584.31a1.44 1.44 0 0 0-.475-.675q-.342-.277-.96-.277-.565 0-.945.246-.38.247-.38.64 0 .332.25.551.25.217.834.345l1.3.274q1.086.231 1.613.744.528.51.528 1.32 0 .725-.419 1.274-.42.55-1.159.86t-1.708.309m6.091-.038q-.462 0-.78-.316a1.05 1.05 0 0 1-.318-.774q0-.459.318-.775.318-.315.78-.315.46 0 .779.315.318.315.318.775 0 .459-.318.774a1.06 1.06 0 0 1-.779.316m6.995-.116 1.676-10.186h1.38l-1.673 10.186Zm-4.586-2.635.232-1.375h7.831l-.233 1.375Zm1.012 2.635 1.668-10.186h1.38l-1.668 10.186Zm-.421-6.167.233-1.384h7.822l-.224 1.384Z"/><path fill="#e52926" d="M102.506 448.252h1.639l1.007 1.304.656.79 1.701 2.187h-1.748l-1.146-1.461-.474-.668Zm.572 3.534q-1.335 0-2.394-.621t-1.671-1.791q-.613-1.17-.613-2.81 0-1.65.613-2.821.612-1.172 1.671-1.793 1.059-.623 2.394-.623t2.391.623q1.055.621 1.667 1.793.61 1.17.611 2.821 0 1.642-.611 2.812-.612 1.17-1.667 1.79t-2.391.62m0-1.636q.83 0 1.469-.412.639-.413 1.003-1.214.364-.802.364-1.96 0-1.17-.364-1.973t-1.003-1.215a2.65 2.65 0 0 0-1.469-.412q-.833 0-1.473.414-.642.414-1.007 1.217t-.365 1.969q0 1.158.365 1.958.365.799 1.007 1.214.64.414 1.473.414m8.994 1.595q-.784 0-1.375-.336a2.3 2.3 0 0 1-.917-.981q-.325-.645-.325-1.563v-4.858h1.776v4.586q0 .769.401 1.205.4.436 1.1.436.473 0 .839-.206.367-.206.578-.599.21-.394.211-.945v-4.477h1.781v7.643h-1.689l-.02-1.89h.135q-.32 1-.949 1.492-.628.493-1.546.493m9.329.059q-1.15 0-1.982-.484a3.23 3.23 0 0 1-1.28-1.365q-.448-.882-.448-2.08 0-1.178.442-2.07a3.35 3.35 0 0 1 1.252-1.393q.808-.501 1.9-.501.7 0 1.332.227.63.226 1.119.696.487.47.768 1.199.279.729.279 1.737v.554h-6.253v-1.206h5.366l-.83.358q0-.65-.2-1.137a1.66 1.66 0 0 0-.594-.761q-.393-.273-.978-.273-.584 0-.995.277a1.8 1.8 0 0 0-.627.739 2.4 2.4 0 0 0-.215 1.028v.836q0 .724.246 1.222a1.7 1.7 0 0 0 .691.75q.444.253 1.031.253.39 0 .708-.112.32-.111.549-.332t.351-.547l1.632.338a2.6 2.6 0 0 1-.628 1.074 3.05 3.05 0 0 1-1.114.717q-.667.255-1.522.256m7.523-.059q-.785 0-1.376-.336a2.3 2.3 0 0 1-.916-.981q-.326-.645-.326-1.563v-4.858h1.777v4.586q0 .769.4 1.205t1.1.436q.474 0 .84-.206.367-.206.577-.599.21-.394.211-.945v-4.477h1.782v7.643h-1.689l-.02-1.89h.134q-.32 1-.949 1.492-.628.493-1.545.493m9.328.059q-1.148 0-1.982-.484a3.23 3.23 0 0 1-1.28-1.365q-.448-.882-.448-2.08 0-1.178.443-2.07a3.36 3.36 0 0 1 1.251-1.393q.81-.501 1.9-.501a3.9 3.9 0 0 1 1.332.227q.632.226 1.119.696.489.47.768 1.199.28.729.28 1.737v.554h-6.254v-1.206h5.367l-.83.358q0-.65-.201-1.137a1.66 1.66 0 0 0-.593-.761q-.394-.273-.978-.273-.585 0-.996.277a1.8 1.8 0 0 0-.626.739 2.4 2.4 0 0 0-.216 1.028v.836q0 .724.246 1.222a1.7 1.7 0 0 0 .691.75q.445.252 1.031.253.39 0 .709-.112.318-.111.548-.332t.351-.547l1.633.338a2.6 2.6 0 0 1-.629 1.074 3 3 0 0 1-1.113.717q-.668.255-1.523.256m7.796 0q-.877 0-1.556-.253a2.7 2.7 0 0 1-1.11-.736 2.4 2.4 0 0 1-.566-1.175l1.663-.313q.154.565.556.841.402.275 1.048.275.657 0 1.043-.263t.385-.648a.69.69 0 0 0-.254-.548q-.252-.216-.778-.328l-1.302-.281q-1.083-.234-1.616-.767-.533-.534-.533-1.375 0-.708.39-1.228.39-.522 1.084-.808.693-.285 1.607-.286.868 0 1.493.246t1.012.688.539 1.038l-1.585.309a1.44 1.44 0 0 0-.475-.675q-.342-.277-.96-.277-.566 0-.945.247-.38.248-.379.639a.7.7 0 0 0 .25.551q.25.217.833.346l1.301.274q1.085.231 1.613.743.527.513.527 1.321 0 .724-.419 1.274-.418.55-1.159.859-.74.31-1.707.31"/><path fill="none" stroke="#e52926" stroke-linecap="round" stroke-linejoin="round" stroke-width="2" d="M54 396.93h930v100H54Z"/><path fill="none" stroke="#888474" stroke-linecap="round" stroke-linejoin="round" stroke-width="2" d="M940 426.93a4 4 0 0 1 4 4v32a4 4 0 0 1-4 4h-72a4 4 0 0 1-4-4v-32a4 4 0 0 1 4-4Z"/><path fill="#888474" d="M898.925 448.252h1.639l1.007 1.304.656.79 1.7 2.187h-1.747l-1.147-1.461-.474-.668Zm.571 3.534q-1.335 0-2.394-.621t-1.671-1.791-.613-2.81q0-1.65.613-2.821.612-1.172 1.671-1.793 1.059-.623 2.394-.623t2.391.623q1.055.621 1.667 1.793.61 1.17.611 2.821 0 1.642-.611 2.812-.61 1.17-1.667 1.79t-2.391.62m0-1.636a2.65 2.65 0 0 0 1.47-.412q.638-.413 1.002-1.214.364-.802.364-1.96 0-1.17-.364-1.973-.365-.803-1.002-1.215a2.65 2.65 0 0 0-1.47-.412q-.833 0-1.473.414t-1.006 1.217-.366 1.969q0 1.158.366 1.958.364.799 1.006 1.214.64.414 1.473.414m10.023 1.636q-.727 0-1.422-.249a3.3 3.3 0 0 1-1.25-.819q-.555-.57-.882-1.519-.328-.95-.328-2.351 0-1.307.277-2.33.278-1.023.8-1.735a3.5 3.5 0 0 1 1.259-1.084 3.6 3.6 0 0 1 1.651-.372q.953 0 1.694.375t1.2 1.024.567 1.476h-1.793a1.7 1.7 0 0 0-.572-.937q-.43-.356-1.096-.356-.708 0-1.203.416-.495.417-.751 1.191-.257.775-.257 1.854h.072q.247-.44.632-.754.386-.314.876-.482a3.2 3.2 0 0 1 1.033-.167 3.1 3.1 0 0 1 1.609.426q.713.425 1.13 1.175t.417 1.717q0 1.002-.459 1.794a3.3 3.3 0 0 1-1.282 1.25q-.824.457-1.922.457m-.01-1.483q.544 0 .973-.265.43-.264.68-.713.25-.45.25-1.005 0-.549-.244-.993a1.86 1.86 0 0 0-.668-.704 1.83 1.83 0 0 0-.969-.26q-.406 0-.754.155a1.9 1.9 0 0 0-.61.429q-.261.274-.407.629a2 2 0 0 0-.145.752q0 .536.246.984.247.45.676.72t.972.271"/><path fill="none" stroke="#848484" stroke-linecap="round" stroke-linejoin="round" stroke-width="2" d="m783.922 267.319 113.293 150.35m5.418 7.186-10.208-3.577 9.584-7.222Z"/><path fill="none" stroke="#888474" stroke-linecap="round" stroke-linejoin="round" stroke-width="2" d="M700 426.93a4 4 0 0 1 4 4v32a4 4 0 0 1-4 4h-72a4 4 0 0 1-4-4v-32a4 4 0 0 1 4-4Z"/><path fill="#888474" d="M658.731 448.252h1.639l1.007 1.304.656.79 1.7 2.187h-1.747l-1.147-1.461-.474-.668Zm.572 3.534q-1.336 0-2.394-.621t-1.672-1.791q-.612-1.17-.612-2.81 0-1.65.612-2.821.613-1.172 1.672-1.793 1.058-.623 2.394-.623 1.335 0 2.39.623 1.056.621 1.667 1.793.612 1.17.612 2.821 0 1.642-.612 2.812-.61 1.17-1.667 1.79-1.055.62-2.39.62m0-1.636a2.65 2.65 0 0 0 1.469-.412q.639-.413 1.003-1.214.363-.802.364-1.96 0-1.17-.364-1.973t-1.003-1.215a2.65 2.65 0 0 0-1.469-.412 2.66 2.66 0 0 0-1.474.414q-.641.414-1.006 1.217t-.365 1.969q0 1.158.365 1.958.365.799 1.006 1.214.642.414 1.474.414m6.166-.397v-1.451l4.329-6.838H671v2.075h-.736l-2.928 4.629v.082h6.039v1.503Zm4.848 1.897v-2.334l.029-.659v-7.193h1.722v10.186Z"/><path fill="none" stroke="#848484" stroke-linecap="round" stroke-linejoin="round" stroke-width="2" d="m784.05 267.319-113.293 150.35m-5.419 7.186 10.208-3.577-9.583-7.222Z"/><path fill="none" stroke="#888474" stroke-linecap="round" stroke-linejoin="round" stroke-width="2" d="M820 426.93a4 4 0 0 1 4 4v32a4 4 0 0 1-4 4h-72a4 4 0 0 1-4-4v-32a4 4 0 0 1 4-4Z"/><path fill="#888474" d="M779.116 448.252h1.639l1.007 1.304.656.79 1.701 2.187h-1.748l-1.146-1.461-.474-.668Zm.572 3.534q-1.335 0-2.394-.621t-1.672-1.791q-.612-1.17-.612-2.81 0-1.65.612-2.821.613-1.172 1.672-1.793 1.059-.623 2.394-.623t2.391.623q1.055.621 1.667 1.793.61 1.17.611 2.821 0 1.642-.611 2.812-.612 1.17-1.667 1.79-1.054.62-2.391.62m0-1.636a2.65 2.65 0 0 0 1.469-.412q.639-.413 1.003-1.214.364-.802.364-1.96 0-1.17-.364-1.973t-1.003-1.215a2.65 2.65 0 0 0-1.469-.412q-.833 0-1.473.414t-1.007 1.217-.365 1.969q0 1.158.365 1.958.365.799 1.007 1.214.64.414 1.473.414m9.656 1.636q-.996 0-1.779-.374a3.1 3.1 0 0 1-1.24-1.029 2.7 2.7 0 0 1-.485-1.496h1.774q.027.415.264.736.237.32.621.5t.845.18q.546 0 .969-.249.423-.25.663-.691a2.1 2.1 0 0 0 .241-1.013 2.1 2.1 0 0 0-.249-1.035 1.83 1.83 0 0 0-.681-.707 1.9 1.9 0 0 0-.995-.255q-.462 0-.905.172a1.8 1.8 0 0 0-.698.454l-1.655-.268.528-5.247h5.895v1.528h-4.378l-.292 2.71h.054q.288-.333.806-.549a2.9 2.9 0 0 1 1.132-.215q.69 0 1.277.248.585.248 1.02.702.435.455.674 1.07t.24 1.349q0 1.01-.464 1.795-.465.785-1.285 1.235-.822.45-1.897.449"/><path fill="none" stroke="#848484" stroke-linecap="round" stroke-linejoin="round" stroke-width="2" d="m784 267.93.003 148m-.003 9 6-9h-12Z"/><path fill="none" stroke="#888474" stroke-linecap="round" stroke-linejoin="round" stroke-width="2" d="M840 226.93a4 4 0 0 1 4 4v32a4 4 0 0 1-4 4H728a4 4 0 0 1-4-4v-32a4 4 0 0 1 4-4Z"/><path fill="#888474" d="M761.336 252.188v-10.185h6.521v1.537h-4.695v3.058h4.24v1.518h-4.24v4.072Zm10.022.159a3.1 3.1 0 0 1-1.308-.263 2.1 2.1 0 0 1-.918-.776q-.337-.515-.337-1.269 0-.646.243-1.069.243-.42.658-.675.416-.253.936-.383.532-.13 1.075-.188.67-.075 1.084-.13t.611-.177q.196-.123.196-.381V247q0-.378-.152-.639a1 1 0 0 0-.448-.401 1.7 1.7 0 0 0-.734-.139q-.443 0-.769.136a1.5 1.5 0 0 0-.531.355 1.4 1.4 0 0 0-.302.472l-1.648-.338a2.66 2.66 0 0 1 .7-1.118q.471-.441 1.126-.66a4.5 4.5 0 0 1 1.417-.218q.538 0 1.088.128a3.1 3.1 0 0 1 1.01.426q.46.298.74.805t.28 1.27v5.109h-1.7v-1.053h-.072a2.2 2.2 0 0 1-1.209 1.045 2.9 2.9 0 0 1-1.036.167m.456-1.321q.55 0 .952-.218a1.6 1.6 0 0 0 .622-.578q.22-.36.22-.784v-.904a.9.9 0 0 1-.294.132 4 4 0 0 1-.464.108 10 10 0 0 1-.506.081l-.42.057a3 3 0 0 0-.72.178q-.32.126-.503.348a.87.87 0 0 0-.184.574q0 .33.169.553.168.225.459.338t.669.115m7.222-3.314v4.476h-1.777v-7.642h1.685l.024 1.889h-.139q.317-.99.941-1.488.624-.497 1.558-.497.787 0 1.375.337.585.336.913.979.326.643.326 1.564v4.858h-1.777v-4.586q0-.768-.399-1.205-.4-.436-1.097-.436-.47 0-.841.206-.37.206-.581.597-.21.39-.211.948m10.107 4.631q-1.112 0-1.934-.494a3.3 3.3 0 0 1-1.269-1.381q-.45-.887-.449-2.063 0-1.188.449-2.078a3.3 3.3 0 0 1 1.269-1.383q.822-.495 1.934-.494 1.117 0 1.938.494.82.494 1.269 1.383.45.89.449 2.078 0 1.176-.449 2.063a3.3 3.3 0 0 1-1.269 1.381q-.82.495-1.938.494m0-1.443q.623 0 1.034-.335t.614-.902.203-1.263q0-.702-.203-1.27a2 2 0 0 0-.614-.903q-.411-.334-1.034-.334-.62 0-1.029.334a2 2 0 0 0-.611.901 3.8 3.8 0 0 0-.202 1.272q0 .696.202 1.263.203.567.611.902.41.335 1.029.335m7.824 1.384q-.786 0-1.376-.336a2.3 2.3 0 0 1-.916-.982q-.327-.644-.326-1.562v-4.858h1.776v4.586q0 .768.401 1.205.4.436 1.1.436.472 0 .84-.206a1.46 1.46 0 0 0 .577-.6q.21-.393.211-.944v-4.477h1.781v7.642h-1.689l-.019-1.889h.134q-.32 1-.949 1.492-.63.493-1.545.493m9.487-7.738v1.392h-4.34v-1.392Zm-3.255-1.818h1.777v7.308q0 .414.177.608.178.195.587.194.12 0 .32-.028.2-.03.324-.056l.28 1.371q-.293.09-.598.129a5 5 0 0 1-.591.038q-1.098 0-1.687-.547-.59-.546-.589-1.556Z"/><path fill="none" stroke="#888474" stroke-linecap="round" stroke-linejoin="round" stroke-width="2" d="M570 426.93a4 4 0 0 1 4 4v32a4 4 0 0 1-4 4h-72a4 4 0 0 1-4-4v-32a4 4 0 0 1 4-4Z"/><path fill="#888474" d="M528.95 448.252h1.639l1.007 1.304.656.79 1.701 2.187h-1.748l-1.146-1.461-.474-.668Zm.572 3.534q-1.335 0-2.394-.621t-1.672-1.791q-.612-1.17-.612-2.81 0-1.65.612-2.821.613-1.172 1.672-1.793 1.059-.623 2.394-.623t2.391.623q1.055.621 1.667 1.793.61 1.17.611 2.821 0 1.642-.611 2.812-.612 1.17-1.667 1.79-1.054.62-2.391.62m0-1.636q.83 0 1.469-.412.639-.413 1.003-1.214.364-.802.364-1.96 0-1.17-.364-1.973t-1.003-1.215a2.65 2.65 0 0 0-1.469-.412q-.832 0-1.473.414-.64.414-1.007 1.217t-.365 1.969q0 1.158.365 1.958.366.799 1.007 1.214.64.416 1.473.414m9.886 1.636q-1.073 0-1.902-.367-.83-.367-1.312-1.021a2.6 2.6 0 0 1-.504-1.511h1.839q.027.417.276.725t.668.474q.417.168.931.167.55 0 .971-.191a1.6 1.6 0 0 0 .664-.536q.24-.345.241-.794 0-.468-.245-.822a1.6 1.6 0 0 0-.703-.555q-.459-.201-1.107-.201h-.903v-1.411h.903q.528 0 .933-.187.405-.186.63-.521.225-.334.225-.782a1.4 1.4 0 0 0-.196-.754 1.34 1.34 0 0 0-.553-.502 1.84 1.84 0 0 0-.838-.18 2.2 2.2 0 0 0-.868.168q-.398.17-.644.477a1.2 1.2 0 0 0-.26.74h-1.755a2.57 2.57 0 0 1 .49-1.497 3.16 3.16 0 0 1 1.269-1.012q.797-.366 1.786-.366 1.014 0 1.766.383.753.383 1.165 1.022.412.64.412 1.413 0 .855-.504 1.44-.505.583-1.33.769v.077q.711.097 1.203.424t.746.83a2.5 2.5 0 0 1 .254 1.139q0 .857-.483 1.526-.483.67-1.33 1.053-.846.383-1.935.383"/><path fill="none" stroke="#848484" stroke-linecap="round" stroke-linejoin="round" stroke-width="2" d="m473.942 267 54.379 149.29m3.081 8.456-8.716-6.405 11.276-4.104Z"/><path fill="none" stroke="#888474" stroke-linecap="round" stroke-linejoin="round" stroke-width="2" d="M450 426.93a4 4 0 0 1 4 4v32a4 4 0 0 1-4 4h-72a4 4 0 0 1-4-4v-32a4 4 0 0 1 4-4Z"/><path fill="#888474" d="M409.109 448.252h1.639l1.007 1.304.656.79 1.701 2.187h-1.748l-1.146-1.461-.475-.668Zm.572 3.534q-1.335 0-2.394-.621t-1.672-1.791-.612-2.81q0-1.65.612-2.821.613-1.172 1.672-1.793 1.059-.623 2.394-.623t2.39.623q1.056.621 1.667 1.793.612 1.17.612 2.821 0 1.642-.612 2.812-.61 1.17-1.667 1.79-1.055.62-2.39.62m0-1.636q.83 0 1.469-.412.639-.413 1.003-1.214.364-.802.364-1.96 0-1.17-.364-1.973t-1.003-1.215a2.65 2.65 0 0 0-1.469-.412 2.66 2.66 0 0 0-1.474.414q-.64.414-1.006 1.217-.365.804-.365 1.969 0 1.158.365 1.958.367.799 1.006 1.214.642.414 1.474.414m6.349 1.5v-1.313l3.534-3.482q.498-.507.837-.904.34-.397.515-.772a1.9 1.9 0 0 0 .175-.807q0-.48-.222-.831a1.47 1.47 0 0 0-.602-.536 1.94 1.94 0 0 0-.868-.188q-.51 0-.888.206a1.44 1.44 0 0 0-.585.586 1.9 1.9 0 0 0-.206.902h-1.741q0-.964.44-1.68a3 3 0 0 1 1.217-1.11q.777-.394 1.785-.394 1.022 0 1.793.383.771.384 1.203 1.049.432.666.431 1.52 0 .567-.214 1.109-.214.543-.76 1.221-.545.677-1.544 1.637l-1.771 1.803v.078h4.438v1.523Z"/><path fill="none" stroke="#848484" stroke-linecap="round" stroke-linejoin="round" stroke-width="2" d="m473.962 267-54.379 149.29m-3.081 8.456 8.717-6.405-11.277-4.104Z"/><path fill="none" stroke="#888474" stroke-linecap="round" stroke-linejoin="round" stroke-width="2" d="M530 226.93a4 4 0 0 1 4 4v32a4 4 0 0 1-4 4H418a4 4 0 0 1-4-4v-32a4 4 0 0 1 4-4Z"/><path fill="#888474" d="M455.96 243.54v-1.537h8.111v1.537h-3.138v8.648h-1.826v-8.648Zm11.843 8.803q-1.113 0-1.934-.494a3.3 3.3 0 0 1-1.269-1.381q-.45-.887-.449-2.063 0-1.188.449-2.078a3.3 3.3 0 0 1 1.269-1.383q.82-.495 1.934-.494 1.117 0 1.938.494.82.494 1.269 1.383.45.889.449 2.078 0 1.176-.449 2.063a3.3 3.3 0 0 1-1.269 1.381q-.82.495-1.938.494m0-1.443q.623 0 1.034-.335a2 2 0 0 0 .614-.902q.202-.567.202-1.263a3.8 3.8 0 0 0-.202-1.27 2 2 0 0 0-.614-.903q-.411-.334-1.034-.334-.621 0-1.029.334a2 2 0 0 0-.611.901 3.8 3.8 0 0 0-.202 1.272q0 .696.202 1.263.203.567.611.902t1.029.335m5.205 4.146v-10.5h1.741v1.265h.112a3.4 3.4 0 0 1 .39-.588 2.1 2.1 0 0 1 .686-.545q.433-.228 1.114-.228.885 0 1.597.452.71.451 1.13 1.329t.42 2.152q0 1.254-.41 2.135t-1.122 1.345a2.9 2.9 0 0 1-1.62.465q-.656 0-1.091-.224a2.2 2.2 0 0 1-.695-.536 3.2 3.2 0 0 1-.399-.589h-.076v4.067Zm3.556-4.18q.597 0 1-.325.404-.325.609-.889.206-.564.206-1.278 0-.712-.204-1.267a1.93 1.93 0 0 0-.607-.875q-.402-.32-1.004-.319-.586 0-.991.306t-.613.857q-.208.552-.208 1.298 0 .742.21 1.303t.618.875q.406.315.984.314m5.185 1.322v-7.642h1.777v7.642Zm.889-8.722q-.424 0-.728-.287a.9.9 0 0 1-.304-.684q0-.41.304-.694a1.03 1.03 0 0 1 .728-.283q.43 0 .735.283a.9.9 0 0 1 .304.687.92.92 0 0 1-.304.691 1.03 1.03 0 0 1-.735.287m6.086 8.877q-1.113 0-1.933-.494a3.3 3.3 0 0 1-1.268-1.381q-.448-.887-.448-2.063 0-1.188.448-2.078a3.3 3.3 0 0 1 1.268-1.383q.82-.495 1.933-.494.64 0 1.186.166t.978.475q.43.31.72.754.29.445.414 1.003l-1.664.35a1.9 1.9 0 0 0-.213-.537 1.5 1.5 0 0 0-.818-.676 1.8 1.8 0 0 0-.588-.092q-.621 0-1.032.33a2 2 0 0 0-.617.895 3.7 3.7 0 0 0-.206 1.282q0 .705.206 1.271.206.567.617.898.411.33 1.032.331a1.8 1.8 0 0 0 .597-.095 1.5 1.5 0 0 0 .834-.704 2 2 0 0 0 .209-.56l1.661.347a3 3 0 0 1-.412 1.026 2.9 2.9 0 0 1-.724.772 3.2 3.2 0 0 1-.984.489 4.1 4.1 0 0 1-1.196.168"/><path fill="none" stroke="#888474" stroke-linecap="round" stroke-linejoin="round" stroke-width="2" d="M310 426.93a4 4 0 0 1 4 4v32a4 4 0 0 1-4 4h-72a4 4 0 0 1-4-4v-32a4 4 0 0 1 4-4Z"/><path fill="#888474" d="M270.601 448.252h1.639l1.006 1.304.657.79 1.7 2.187h-1.747l-1.147-1.461-.474-.668Zm.571 3.534q-1.335 0-2.394-.621t-1.671-1.791-.613-2.81q0-1.65.613-2.821.612-1.172 1.671-1.793 1.059-.623 2.394-.623t2.391.623q1.055.621 1.667 1.793.61 1.17.611 2.821 0 1.642-.611 2.812-.612 1.17-1.667 1.79-1.054.62-2.391.62m0-1.636a2.65 2.65 0 0 0 1.469-.412q.64-.413 1.003-1.214.364-.802.364-1.96 0-1.17-.364-1.973t-1.003-1.215a2.65 2.65 0 0 0-1.469-.412q-.833 0-1.473.414t-1.007 1.217q-.366.803-.365 1.969 0 1.158.365 1.958.365.799 1.007 1.214.64.414 1.473.414m10.334-8.686v10.186h-1.813v-8.559h-.068l-2.377 1.709v-1.739l2.239-1.597Z"/><path fill="none" stroke="#848484" stroke-linecap="round" stroke-linejoin="round" stroke-width="2" d="m274 267.93.003 148m-.003 9 6-9h-12Z"/><path fill="none" stroke="#888474" stroke-linecap="round" stroke-linejoin="round" stroke-width="2" d="M330 226.93a4 4 0 0 1 4 4v32a4 4 0 0 1-4 4H218a4 4 0 0 1-4-4v-32a4 4 0 0 1 4-4Z"/><path fill="#888474" d="M257.886 252.188h-2.579v-1.581h2.487q1.07 0 1.786-.39a2.46 2.46 0 0 0 1.075-1.175q.36-.784.359-1.957 0-1.167-.359-1.945a2.48 2.48 0 0 0-1.063-1.166q-.705-.39-1.748-.39h-2.587v-1.581h2.698q1.52 0 2.606.61a4.1 4.1 0 0 1 1.672 1.749q.585 1.14.585 2.723 0 1.59-.586 2.734a4.1 4.1 0 0 1-1.69 1.757q-1.104.612-2.656.612m-1.621-10.185v10.185h-1.826v-10.185Zm8.202 10.185v-7.642h1.778v7.642Zm.889-8.722q-.423 0-.728-.287a.9.9 0 0 1-.304-.684q0-.41.304-.694.305-.283.728-.283.43 0 .735.283a.9.9 0 0 1 .304.687.92.92 0 0 1-.304.691 1.03 1.03 0 0 1-.735.287m2.772 8.722v-7.642h1.721v1.279h.082q.21-.665.721-1.024.51-.36 1.168-.36a4 4 0 0 1 .649.053v1.633a2 2 0 0 0-.356-.064q-.24-.03-.481-.029-.495 0-.889.212a1.57 1.57 0 0 0-.616.585 1.65 1.65 0 0 0-.223.863v4.494Zm8.626.155q-1.15 0-1.982-.484a3.24 3.24 0 0 1-1.281-1.365q-.447-.882-.447-2.08 0-1.179.442-2.07a3.35 3.35 0 0 1 1.251-1.393q.81-.501 1.9-.501.702 0 1.333.226.63.226 1.119.697.488.47.768 1.198.279.729.279 1.737v.555h-6.253v-1.206h5.366l-.83.358q0-.65-.2-1.137a1.66 1.66 0 0 0-.594-.761q-.393-.273-.978-.273-.584 0-.995.277a1.8 1.8 0 0 0-.627.739 2.4 2.4 0 0 0-.215 1.028v.835q0 .725.246 1.223t.69.75c.316.174.672.26 1.032.253q.39 0 .708-.112.32-.111.549-.332.23-.22.351-.548l1.632.338a2.6 2.6 0 0 1-.629 1.075 3 3 0 0 1-1.113.717q-.667.255-1.522.256m8.219 0q-1.113 0-1.932-.494a3.3 3.3 0 0 1-1.268-1.381q-.45-.887-.449-2.063 0-1.188.449-2.078a3.3 3.3 0 0 1 1.268-1.383q.819-.495 1.932-.494.64 0 1.186.166a3.3 3.3 0 0 1 .978.475q.432.31.721.754.288.445.414 1.003l-1.665.35a1.9 1.9 0 0 0-.212-.537 1.5 1.5 0 0 0-.819-.676 1.8 1.8 0 0 0-.588-.092q-.62 0-1.031.33t-.617.895a3.7 3.7 0 0 0-.206 1.282q0 .705.206 1.271.206.567.617.898.41.33 1.031.331.327 0 .597-.095a1.53 1.53 0 0 0 .834-.704 2 2 0 0 0 .21-.56l1.66.347q-.12.575-.412 1.026a2.9 2.9 0 0 1-.723.772 3.2 3.2 0 0 1-.985.489 4 4 0 0 1-1.196.168m8.378-7.797v1.392h-4.34v-1.392Zm-3.255-1.818h1.776v7.308q0 .414.178.608.178.195.587.194.12 0 .319-.028.2-.03.325-.056l.28 1.371q-.293.09-.598.129a5 5 0 0 1-.592.038q-1.096 0-1.686-.547-.59-.546-.589-1.556Z"/><path fill="#bc7317" d="M86 167.949v-10.186h3.9q1.101 0 1.83.347.73.348 1.091.945.363.596.362 1.352 0 .621-.237 1.062a2 2 0 0 1-.639.715 2.7 2.7 0 0 1-.9.394v.101a2.2 2.2 0 0 1 1.04.327q.497.302.815.849.318.548.318 1.318 0 .79-.381 1.419-.38.63-1.149.993-.77.363-1.938.364Zm1.825-1.528h1.999q1.01 0 1.458-.389.45-.39.449-.995a1.53 1.53 0 0 0-.865-1.403q-.413-.213-.983-.213h-2.058Zm0-4.315h1.844q.48 0 .864-.179.385-.179.607-.507.223-.33.223-.779 0-.592-.417-.976t-1.236-.384h-1.885Zm7.323 5.843v-7.643h1.721v1.279h.082q.21-.664.72-1.024a1.98 1.98 0 0 1 1.169-.359q.326 0 .649.052v1.634a2 2 0 0 0-.356-.065 4 4 0 0 0-.481-.028q-.495 0-.889.211a1.6 1.6 0 0 0-.616.585 1.66 1.66 0 0 0-.223.863v4.495Zm8.567.154q-1.113 0-1.933-.494a3.3 3.3 0 0 1-1.27-1.38q-.448-.888-.448-2.064 0-1.188.448-2.078a3.3 3.3 0 0 1 1.27-1.383q.82-.494 1.933-.494 1.118 0 1.938.494.82.493 1.269 1.383.45.89.449 2.078 0 1.176-.449 2.064a3.3 3.3 0 0 1-1.269 1.38q-.82.495-1.938.494m0-1.443q.623 0 1.034-.335.413-.335.614-.902.203-.567.203-1.263 0-.702-.203-1.27a2 2 0 0 0-.614-.902q-.411-.335-1.034-.335-.62 0-1.029.335a2 2 0 0 0-.61.9 3.8 3.8 0 0 0-.203 1.272q0 .696.203 1.263a2 2 0 0 0 .61.902q.41.336 1.029.335m6.831-1.12v-2.152h.282l2.756-3.082h2.088l-3.379 3.765h-.368Zm-1.625 2.409v-10.186h1.777v10.186Zm4.791 0-2.502-3.481 1.204-1.26 3.436 4.741Zm6.244.154q-1.15 0-1.982-.484a3.24 3.24 0 0 1-1.281-1.365q-.447-.882-.447-2.08 0-1.178.442-2.07a3.36 3.36 0 0 1 1.251-1.393q.81-.501 1.9-.501.702 0 1.333.227.63.226 1.119.696.488.47.767 1.199.28.729.28 1.737v.554h-6.253v-1.206h5.366l-.83.358q0-.65-.2-1.137a1.67 1.67 0 0 0-.594-.761q-.393-.273-.978-.273t-.996.277a1.8 1.8 0 0 0-.626.739 2.4 2.4 0 0 0-.215 1.028v.836q0 .724.245 1.222a1.7 1.7 0 0 0 .691.75c.316.174.672.26 1.032.253q.39 0 .708-.112a1.5 1.5 0 0 0 .548-.332q.23-.222.352-.547l1.632.338a2.6 2.6 0 0 1-.629 1.074 3 3 0 0 1-1.113.717q-.667.255-1.522.256m4.905-.154v-7.643h1.721v1.279h.082q.21-.664.721-1.024.51-.36 1.168-.359.326 0 .649.052v1.634a2 2 0 0 0-.356-.065 4 4 0 0 0-.481-.028q-.495 0-.889.211a1.6 1.6 0 0 0-.616.585 1.66 1.66 0 0 0-.223.863v4.495Z"/><path fill="none" stroke="#bc7317" stroke-linejoin="round" stroke-width="2" d="M73.198 160.933h-6.404a.8.8 0 0 1-.797-.797v-6.404a.8.8 0 0 0-.797-.797h-2.405a.8.8 0 0 0-.797.797v6.405c0 .437-.36.797-.797.797h-2.405a.8.8 0 0 1-.797-.797v-6.41a.8.8 0 0 0-.797-.797h-2.405a.8.8 0 0 0-.797.797v18.411c0 .437.36.797.797.797h18.406c.437 0 .797-.36.797-.797v-10.409a.8.8 0 0 0-.797-.797Zm-3.218 6.795v.005c0 .657-.54 1.198-1.197 1.198h-1.604a1.204 1.204 0 0 1-1.197-1.198v-1.608c0-.657.54-1.197 1.197-1.198h1.604c.657 0 1.197.541 1.197 1.198Z"/><path fill="none" stroke="#848484" stroke-linecap="round" stroke-linejoin="round" stroke-width="2" d="m519 69.93.003 116m-.003 9 6-9h-12Zm10-148-8.991 5.727c-.62.36-1.389.36-2.009 0l-9-5.727"/><path fill="none" stroke="#848484" stroke-linecap="round" stroke-linejoin="round" stroke-width="2" d="M529 45.93v12a2 2 0 0 1-2 2h-16a2 2 0 0 1-2-2v-12a2 2 0 0 1 2-2h16a2 2 0 0 1 2 2"/><path fill="#888474" d="M488.594 33.816V23.63h3.811q1.17 0 1.969.439.798.44 1.208 1.2t.409 1.734q0 .976-.413 1.735a2.96 2.96 0 0 1-1.218 1.196q-.805.435-1.985.436h-2.524v-1.504h2.283q.693 0 1.134-.24a1.5 1.5 0 0 0 .649-.661 2.14 2.14 0 0 0 .209-.962q0-.544-.209-.961a1.48 1.48 0 0 0-.651-.65q-.443-.234-1.141-.234h-1.706v8.658Zm8.949 0v-7.643h1.721v1.279h.082q.21-.664.72-1.024a1.98 1.98 0 0 1 1.169-.359q.326 0 .649.052v1.634a2 2 0 0 0-.356-.065 4 4 0 0 0-.481-.028q-.495 0-.889.211a1.6 1.6 0 0 0-.616.585 1.66 1.66 0 0 0-.223.863v4.495Zm8.567.154q-1.112 0-1.933-.494a3.3 3.3 0 0 1-1.27-1.38q-.448-.888-.448-2.064 0-1.188.448-2.078a3.3 3.3 0 0 1 1.27-1.383q.821-.494 1.933-.494 1.118 0 1.938.494t1.269 1.383q.45.89.449 2.078 0 1.176-.449 2.064a3.3 3.3 0 0 1-1.269 1.38q-.82.495-1.938.494m0-1.443q.623 0 1.034-.335.413-.335.614-.902.203-.567.203-1.263 0-.702-.203-1.27a2 2 0 0 0-.614-.902q-.411-.335-1.034-.335-.62 0-1.029.335a2 2 0 0 0-.61.9 3.8 3.8 0 0 0-.203 1.272q0 .696.203 1.263.202.567.61.902.41.335 1.029.335m8.023 1.428q-.9 0-1.616-.464-.715-.465-1.126-1.346-.41-.882-.41-2.135 0-1.275.42-2.152t1.134-1.329a2.9 2.9 0 0 1 1.593-.452q.681 0 1.115.228t.689.545.386.589h.076V23.63h1.777v10.186h-1.741v-1.21h-.112q-.135.276-.396.589a2.2 2.2 0 0 1-.694.536q-.432.224-1.095.224m.483-1.462q.58 0 .986-.314.405-.315.615-.875t.21-1.303q0-.747-.208-1.298a1.87 1.87 0 0 0-.613-.857q-.405-.306-.99-.306-.6 0-1.004.319a1.94 1.94 0 0 0-.608.875 3.7 3.7 0 0 0-.203 1.267q0 .714.205 1.278.207.564.613.889.405.325.997.325m8.057 1.418q-.784 0-1.375-.336a2.3 2.3 0 0 1-.917-.981q-.326-.645-.326-1.562v-4.859h1.777v4.586q0 .769.401 1.205.4.436 1.1.436.473 0 .839-.206a1.46 1.46 0 0 0 .578-.599q.21-.395.211-.945v-4.477h1.781v7.643h-1.689l-.02-1.89h.135q-.32 1-.949 1.492-.628.493-1.546.493m9.268.059q-1.113 0-1.932-.494a3.3 3.3 0 0 1-1.268-1.38q-.45-.888-.449-2.064 0-1.188.449-2.078a3.3 3.3 0 0 1 1.268-1.383q.819-.494 1.932-.494.64 0 1.186.166.547.166.978.475.432.31.72.754.29.445.415 1.003l-1.665.35a1.9 1.9 0 0 0-.213-.536 1.5 1.5 0 0 0-.818-.677 1.8 1.8 0 0 0-.588-.092q-.62 0-1.031.33a2 2 0 0 0-.617.895 3.7 3.7 0 0 0-.206 1.282q0 .706.206 1.272t.617.897 1.031.331a1.8 1.8 0 0 0 .597-.095q.27-.095.481-.273t.353-.431.21-.56l1.66.347q-.12.574-.412 1.026a2.9 2.9 0 0 1-.723.772 3.2 3.2 0 0 1-.985.489 4 4 0 0 1-1.196.168m8.219 0q-1.15 0-1.982-.484a3.23 3.23 0 0 1-1.28-1.365q-.448-.882-.448-2.08 0-1.178.442-2.07a3.35 3.35 0 0 1 1.252-1.393q.81-.501 1.899-.501.702 0 1.333.227.63.226 1.119.696.487.47.768 1.199.279.729.279 1.737v.554h-6.253v-1.206h5.366l-.83.358a3 3 0 0 0-.2-1.137 1.66 1.66 0 0 0-.594-.761q-.393-.273-.978-.273t-.995.277a1.8 1.8 0 0 0-.627.739 2.4 2.4 0 0 0-.215 1.028v.836q0 .724.246 1.222a1.7 1.7 0 0 0 .691.75q.444.253 1.031.253.39 0 .708-.112.32-.111.549-.332t.351-.547l1.632.338a2.6 2.6 0 0 1-.628 1.074 3.05 3.05 0 0 1-1.114.717q-.667.255-1.522.256m4.905-.154v-7.643h1.721v1.279h.082q.21-.664.721-1.024.51-.36 1.168-.359.326 0 .649.052v1.634a2 2 0 0 0-.356-.065 4 4 0 0 0-.481-.028q-.495 0-.888.211a1.57 1.57 0 0 0-.617.585 1.66 1.66 0 0 0-.222.863v4.495Zm-16.43 55.895V79.526h3.811q1.17 0 1.968.439.8.438 1.208 1.2.41.76.41 1.734 0 .975-.413 1.735a2.96 2.96 0 0 1-1.218 1.195q-.806.435-1.985.436h-2.524v-1.503h2.283q.693 0 1.134-.24a1.5 1.5 0 0 0 .649-.661q.208-.42.209-.962 0-.545-.209-.961a1.47 1.47 0 0 0-.651-.65q-.444-.234-1.141-.234h-1.706v8.657Zm11.566.096q-.784 0-1.375-.336a2.3 2.3 0 0 1-.917-.982q-.326-.645-.326-1.562v-4.858h1.777v4.586q0 .768.401 1.205.4.436 1.1.436.473 0 .839-.206.367-.206.578-.6.21-.393.211-.945v-4.476h1.781v7.642h-1.689l-.02-1.889h.135q-.32.999-.949 1.492-.628.493-1.546.493m9.991.044q-.656 0-1.091-.224a2.2 2.2 0 0 1-.695-.537 3.2 3.2 0 0 1-.399-.588h-.112v1.209h-1.74V79.526h1.776v3.808h.076q.138-.27.39-.589.25-.317.686-.544.434-.228 1.115-.228.885 0 1.596.451.711.45 1.131 1.33.42.877.419 2.152 0 1.253-.41 2.135t-1.122 1.345a2.9 2.9 0 0 1-1.62.465m-.482-1.463q.597 0 1-.324.403-.325.609-.889t.206-1.278q0-.712-.204-1.267a1.93 1.93 0 0 0-.606-.875q-.404-.32-1.005-.32-.585 0-.991.307-.405.306-.613.857t-.208 1.298q0 .743.21 1.302.21.561.618.875.406.314.984.314m5.184-8.862h1.777v10.186h-1.777Zm3.663 10.185v-7.642h1.777v7.642Zm.888-8.722q-.423 0-.728-.288a.9.9 0 0 1-.304-.683.91.91 0 0 1 .304-.694q.305-.285.728-.284.43 0 .735.284a.9.9 0 0 1 .304.687.9.9 0 0 1-.304.69 1.03 1.03 0 0 1-.735.288m5.662 8.876q-.876 0-1.555-.252a2.74 2.74 0 0 1-1.111-.737 2.4 2.4 0 0 1-.566-1.175l1.664-.312q.153.565.556.84.401.276 1.048.276.657 0 1.042-.263.385-.264.385-.649a.69.69 0 0 0-.253-.547q-.255-.216-.779-.328l-1.301-.281q-1.082-.234-1.616-.768-.534-.532-.533-1.374 0-.708.39-1.229.39-.52 1.083-.807.693-.285 1.608-.286.867 0 1.493.246.625.245 1.012.687t.538 1.039l-1.584.309a1.45 1.45 0 0 0-.475-.675q-.342-.277-.96-.277-.566 0-.945.247-.38.246-.38.639 0 .332.25.551.25.217.834.346l1.3.273q1.086.231 1.613.744.528.512.528 1.321 0 .723-.419 1.274-.42.55-1.159.859t-1.708.309m6.579-4.63v4.476h-1.777V79.526h1.752v4.432h-.182q.317-.99.94-1.488.624-.497 1.559-.497.788 0 1.377.336.59.337.915.98.326.642.326 1.564v4.858h-1.781v-4.586q0-.768-.399-1.205-.399-.436-1.098-.436a1.7 1.7 0 0 0-.84.206 1.46 1.46 0 0 0-.581.596q-.21.39-.211.949"/></svg>